<svg width="39" height="35" viewBox="0 0 39 35" fill="none" xmlns="http://www.w3.org/2000/svg">
<path d="M31.7568 23.6942C31.6477 23.6942 31.543 23.7375 31.4658 23.8147C31.3886 23.8919 31.3453 23.9966 31.3453 24.1057V30.0447C31.3431 31.1472 30.9039 32.2039 30.1239 32.9831C29.3439 33.7623 28.2868 34.2005 27.1843 34.2016H4.95943C3.8612 34.194 2.81042 33.7529 2.03576 32.9744C1.26111 32.1959 0.825286 31.143 0.823142 30.0447V4.96357C0.830688 3.8678 1.26933 2.81905 2.04418 2.04421C2.81902 1.26936 3.86777 0.830715 4.96355 0.823169H27.1884C28.2892 0.823143 29.3453 1.25844 30.1263 2.0341C30.9074 2.80976 31.35 3.86283 31.3576 4.96357V13.4625C31.3576 13.5717 31.401 13.6764 31.4781 13.7535C31.5553 13.8307 31.66 13.8741 31.7692 13.8741C31.8783 13.8741 31.983 13.8307 32.0602 13.7535C32.1374 13.6764 32.1807 13.5717 32.1807 13.4625V4.96357C32.1802 4.31017 32.0508 3.66329 31.7998 3.05999C31.5489 2.45668 31.1815 1.90881 30.7185 1.44774C30.2555 0.986666 29.7061 0.621462 29.1018 0.373041C28.4974 0.124619 27.85 -0.00213832 27.1966 2.7287e-05H4.97178C4.31942 -0.00051342 3.67333 0.127444 3.07042 0.376593C2.46751 0.625742 1.91958 0.991203 1.4579 1.45211C0.996232 1.91302 0.629863 2.46035 0.379715 3.06284C0.129568 3.66534 0.000540259 4.31121 0 4.96357L0 30.0447C0.00760745 31.3565 0.533777 32.612 1.46368 33.5373C2.39359 34.4626 3.65173 34.9825 4.96355 34.9836H27.1884C28.5016 34.9847 29.7619 34.4657 30.6936 33.5402C31.6252 32.6147 32.1525 31.3579 32.1602 30.0447V24.0975C32.1581 23.9912 32.1149 23.8898 32.0397 23.8146C31.9645 23.7394 31.8631 23.6963 31.7568 23.6942Z" fill="#AFAFAF"/>
<path d="M26.5628 5.05811H5.59736C5.48821 5.05811 5.38352 5.10147 5.30634 5.17865C5.22915 5.25584 5.18579 5.36052 5.18579 5.46968C5.18579 5.57883 5.22915 5.68352 5.30634 5.7607C5.38352 5.83789 5.48821 5.88125 5.59736 5.88125H26.5628C26.6719 5.88125 26.7766 5.83789 26.8538 5.7607C26.931 5.68352 26.9744 5.57883 26.9744 5.46968C26.9744 5.36052 26.931 5.25584 26.8538 5.17865C26.7766 5.10147 26.6719 5.05811 26.5628 5.05811Z" fill="#AFAFAF"/>
<path d="M26.5628 9.80762H5.59736C5.48821 9.80762 5.38352 9.85098 5.30634 9.92816C5.22915 10.0053 5.18579 10.11 5.18579 10.2192C5.18579 10.3283 5.22915 10.433 5.30634 10.5102C5.38352 10.5874 5.48821 10.6308 5.59736 10.6308H26.5628C26.6719 10.6308 26.7766 10.5874 26.8538 10.5102C26.931 10.433 26.9744 10.3283 26.9744 10.2192C26.9744 10.11 26.931 10.0053 26.8538 9.92816C26.7766 9.85098 26.6719 9.80762 26.5628 9.80762Z" fill="#AFAFAF"/>
<path d="M26.9661 14.9565C26.9661 14.8473 26.9228 14.7427 26.8456 14.6655C26.7684 14.5883 26.6637 14.5449 26.5546 14.5449H5.59736C5.48821 14.5449 5.38352 14.5883 5.30634 14.6655C5.22915 14.7427 5.18579 14.8473 5.18579 14.9565C5.18579 15.0656 5.22915 15.1703 5.30634 15.2475C5.38352 15.3247 5.48821 15.3681 5.59736 15.3681H26.5628C26.6705 15.3659 26.7731 15.3216 26.8485 15.2446C26.9239 15.1677 26.9662 15.0642 26.9661 14.9565Z" fill="#AFAFAF"/>
<path d="M21.591 19.706C21.591 19.5968 21.5477 19.4922 21.4705 19.415C21.3933 19.3378 21.2886 19.2944 21.1794 19.2944H5.59736C5.48821 19.2944 5.38352 19.3378 5.30634 19.415C5.22915 19.4922 5.18579 19.5968 5.18579 19.706C5.18579 19.8152 5.22915 19.9198 5.30634 19.997C5.38352 20.0742 5.48821 20.1176 5.59736 20.1176H21.1877C21.2954 20.1154 21.398 20.0711 21.4734 19.9942C21.5488 19.9172 21.591 19.8137 21.591 19.706Z" fill="#AFAFAF"/>
<path d="M14.7548 24.0522H5.59736C5.48821 24.0522 5.38352 24.0956 5.30634 24.1728C5.22915 24.25 5.18579 24.3547 5.18579 24.4638C5.18579 24.573 5.22915 24.6777 5.30634 24.7548C5.38352 24.832 5.48821 24.8754 5.59736 24.8754H14.7548C14.864 24.8754 14.9687 24.832 15.0458 24.7548C15.123 24.6777 15.1664 24.573 15.1664 24.4638C15.1664 24.3547 15.123 24.25 15.0458 24.1728C14.9687 24.0956 14.864 24.0522 14.7548 24.0522Z" fill="#AFAFAF"/>
<path d="M14.7548 28.8099H5.59736C5.48821 28.8099 5.38352 28.8533 5.30634 28.9305C5.22915 29.0077 5.18579 29.1124 5.18579 29.2215C5.18579 29.3307 5.22915 29.4353 5.30634 29.5125C5.38352 29.5897 5.48821 29.6331 5.59736 29.6331H14.7548C14.864 29.6331 14.9687 29.5897 15.0458 29.5125C15.123 29.4353 15.1664 29.3307 15.1664 29.2215C15.1664 29.1124 15.123 29.0077 15.0458 28.9305C14.9687 28.8533 14.864 28.8099 14.7548 28.8099Z" fill="#AFAFAF"/>
<path d="M23.3902 18.8814L31.0835 18.8814L31.0835 22.3113C31.0834 22.3683 31.099 22.4244 31.1289 22.4738C31.1588 22.5233 31.2019 22.5643 31.2537 22.5928C31.3061 22.6214 31.3654 22.6365 31.4257 22.6365C31.4861 22.6365 31.5454 22.6214 31.5977 22.5928L38.105 19.0111C38.157 18.9822 38.2003 18.9409 38.2303 18.8912C38.2603 18.8415 38.2761 18.7852 38.2761 18.7278C38.2761 18.6705 38.2603 18.6141 38.2303 18.5644C38.2003 18.5147 38.157 18.4734 38.105 18.4445L31.5906 14.8611C31.5384 14.832 31.479 14.8166 31.4186 14.8166C31.3581 14.8166 31.2987 14.832 31.2466 14.8611C31.1946 14.8899 31.1514 14.9312 31.1216 14.9809C31.0917 15.0307 31.0761 15.087 31.0764 15.1443L31.0764 18.2295L23.3902 18.2295C23.2994 18.2295 23.2124 18.2639 23.1482 18.325C23.0841 18.3861 23.048 18.469 23.048 18.5555C23.048 18.6419 23.0841 18.7248 23.1482 18.7859C23.2124 18.847 23.2994 18.8814 23.3902 18.8814ZM31.7697 15.7109L37.2557 18.7278L31.7697 21.7448L31.7697 15.7109Z" fill="#AFAFAF"/>
</svg>
