<svg width="13" height="13" viewBox="0 0 13 13" fill="none" xmlns="http://www.w3.org/2000/svg">
<path d="M7.04163 1.625C5.7487 1.625 4.50872 2.13861 3.59448 3.05285C2.68024 3.96709 2.16663 5.20707 2.16663 6.5H0.541626L2.64871 8.60708L2.68663 8.68292L4.87496 6.5H3.24996C3.24996 5.49439 3.64944 4.52996 4.36051 3.81889C5.07159 3.10781 6.03601 2.70833 7.04163 2.70833C8.04724 2.70833 9.01166 3.10781 9.72274 3.81889C10.4338 4.52996 10.8333 5.49439 10.8333 6.5C10.8333 7.50561 10.4338 8.47004 9.72274 9.18111C9.01166 9.89219 8.04724 10.2917 7.04163 10.2917C5.99621 10.2917 5.04829 9.86375 4.36579 9.17583L3.59663 9.945C4.04701 10.4003 4.58364 10.7613 5.17515 11.0069C5.76666 11.2524 6.40118 11.3775 7.04163 11.375C8.33456 11.375 9.57453 10.8614 10.4888 9.94715C11.403 9.03291 11.9166 7.79293 11.9166 6.5C11.9166 5.20707 11.403 3.96709 10.4888 3.05285C9.57453 2.13861 8.33456 1.625 7.04163 1.625Z" fill="white"/>
</svg>
