<svg width="35" height="35" viewBox="0 0 35 35" fill="none" xmlns="http://www.w3.org/2000/svg">
<g clip-path="url(#clip0_1141_6314)">
<path d="M26.4762 12.4954C26.4762 12.7213 26.291 12.9062 26.0646 12.9062C24.5212 12.9062 23.27 11.653 23.27 10.1163L23.27 0.98209C23.27 0.756098 23.4552 0.571196 23.6816 0.571196C23.908 0.571196 24.0932 0.756098 24.0932 0.98209L24.0932 10.1163C24.0932 11.201 24.978 12.0845 26.0646 12.0845C26.291 12.0845 26.4762 12.2694 26.4762 12.4954Z" fill="#2FA7CD"/>
<path d="M33.3785 3.60335L33.3785 12.7375C33.3785 12.9635 33.1933 13.1484 32.9669 13.1484C32.7406 13.1484 32.5554 12.9635 32.5554 12.7375L32.5554 3.60335C32.5554 2.51859 31.6705 1.63517 30.5839 1.63517C30.3576 1.63517 30.1724 1.45027 30.1724 1.22428C30.1724 0.998285 30.3576 0.813383 30.5839 0.813383C32.1273 0.813383 33.3785 2.06661 33.3785 3.60335Z" fill="#2FA7CD"/>
<path d="M0.823141 0.47253L0.823142 34.5891C0.823142 34.8151 0.637935 35 0.411571 35C0.185207 35 -8.08235e-09 34.8151 -1.79608e-08 34.5891L-1.50906e-06 0.476643C-1.51894e-06 0.250648 0.185205 0.0657463 0.411569 0.0657463C0.637934 0.0657463 0.823141 0.250648 0.823141 0.476643L0.823141 0.47253Z" fill="#2FA7CD"/>
<path d="M6.51943 4.38836L6.51943 34.5891C6.51943 34.8151 6.33422 35 6.10786 35C5.8815 35 5.69629 34.8151 5.69629 34.5891L5.69629 4.38836C5.69629 4.16236 5.88149 3.97746 6.10786 3.97746C6.33422 3.97746 6.51943 4.16236 6.51943 4.38836Z" fill="#2FA7CD"/>
<path d="M12.2152 8.30007L12.2152 34.5891C12.2152 34.8151 12.03 35 11.8037 35C11.5773 35 11.3921 34.8151 11.3921 34.5891L11.3921 8.30007C11.3921 8.07408 11.5773 7.88918 11.8037 7.88918C12.03 7.88918 12.2152 8.07408 12.2152 8.30007Z" fill="#2FA7CD"/>
<path d="M17.9115 12.2118L17.9115 34.5891C17.9115 34.8151 17.7263 35 17.5 35C17.2736 35 17.0884 34.8151 17.0884 34.5891L17.0884 12.2159C17.0884 11.9899 17.2736 11.805 17.4999 11.805C17.7263 11.805 17.9115 11.9899 17.9115 12.2159L17.9115 12.2118Z" fill="#2FA7CD"/>
<path d="M23.6078 16.1276L23.6078 34.5891C23.6078 34.8151 23.4226 35 23.1962 35C22.9699 35 22.7847 34.8151 22.7847 34.5891L22.7847 16.1276C22.7847 15.9016 22.9699 15.7167 23.1962 15.7167C23.4226 15.7167 23.6078 15.9016 23.6078 16.1276Z" fill="#2FA7CD"/>
<path d="M29.3036 20.0393L29.3036 34.5891C29.3036 34.8151 29.1225 35 28.892 35C28.6616 35 28.4805 34.8151 28.4805 34.5891L28.4805 20.0393C28.4805 19.8133 28.6657 19.6284 28.892 19.6284C29.1184 19.6284 29.3036 19.8133 29.3036 20.0393Z" fill="#2FA7CD"/>
<path d="M34.9999 23.9552L34.9999 34.5891C34.9999 34.8151 34.8147 35 34.5883 35C34.362 35 34.1768 34.8151 34.1768 34.5891L34.1768 23.9552C34.1768 23.7292 34.362 23.5443 34.5883 23.5443C34.8147 23.5443 34.9999 23.7292 34.9999 23.9552Z" fill="#2FA7CD"/>
<path d="M25.7109 2.03006C25.7109 2.13689 25.6697 2.23961 25.5915 2.32179C25.431 2.48204 25.1717 2.48204 25.0112 2.32179L23.6819 0.994603L22.3443 2.33001C22.1837 2.49026 21.9245 2.49026 21.7639 2.33001C21.6034 2.16976 21.6034 1.9109 21.7639 1.75065L23.3938 0.123509C23.5543 -0.0367397 23.8136 -0.0367397 23.9741 0.123509L25.5957 1.74243C25.678 1.82461 25.715 1.92733 25.715 2.03416L25.7109 2.03006Z" fill="#2FA7CD"/>
<path d="M35.0002 11.1147C35.0002 11.2216 34.959 11.3243 34.8808 11.4065L33.251 13.0336C33.0905 13.1939 32.8312 13.1939 32.6707 13.0336L31.0491 11.4147C30.8886 11.2544 30.8886 10.9956 31.0491 10.8353C31.2096 10.6751 31.4689 10.6751 31.6294 10.8353L32.9588 12.1625L34.2964 10.8271C34.4569 10.6669 34.7162 10.6669 34.8767 10.8271C34.959 10.9093 34.9961 11.012 34.9961 11.1189L35.0002 11.1147Z" fill="#2FA7CD"/>
</g>
<defs>
<clipPath id="clip0_1141_6314">
<rect width="35" height="35" fill="white" transform="translate(0 35) rotate(-90)"/>
</clipPath>
</defs>
</svg>
