<svg width="16" height="16" viewBox="0 0 16 16" fill="none" xmlns="http://www.w3.org/2000/svg">
<path fill-rule="evenodd" clip-rule="evenodd" d="M2.25105 1.48384C2.58579 1.1146 3.1285 1.1146 3.46323 1.48384L8 6.48821L12.5368 1.48384C12.8715 1.1146 13.4142 1.1146 13.7489 1.48384C14.0837 1.85307 14.0837 2.45172 13.7489 2.82096L9.21218 7.82533L13.7489 12.8297C14.0837 13.1989 14.0837 13.7976 13.7489 14.1668C13.4142 14.5361 12.8715 14.5361 12.5368 14.1668L8 9.16246L3.46323 14.1668C3.1285 14.5361 2.58579 14.5361 2.25105 14.1668C1.91632 13.7976 1.91632 13.1989 2.25105 12.8297L6.78782 7.82533L2.25105 2.82096C1.91632 2.45172 1.91632 1.85307 2.25105 1.48384Z" fill="white"/>
</svg>
