<svg width="33" height="30" viewBox="0 0 33 30" fill="none" xmlns="http://www.w3.org/2000/svg">
<g id="&#231;&#149;&#176;&#229;&#184;&#184;&#233;&#128;&#154;&#229;&#160;&#177;">
<g id="Group">
<path id="Vector" d="M16.6348 29.9924C13.0188 29.9924 9.40288 30.0095 5.79545 29.9924C2.96409 29.9754 0.576194 27.9883 0.0900864 25.2763C-0.148703 23.9459 0.0900864 22.6838 0.772343 21.5239C4.35419 15.3239 7.93603 9.12391 11.569 2.95802C13.9399 -1.0673 19.3468 -0.956429 21.7006 3.12005C23.7303 6.63367 25.7259 10.1643 27.7385 13.6865C29.2224 16.2791 30.6893 18.8887 32.1902 21.4642C34.4246 25.3019 31.4398 29.4466 28.4037 29.9242C27.8579 30.0095 27.2951 29.9924 26.7322 29.9924C23.3636 29.9924 19.9949 29.9924 16.6263 29.9924H16.6348ZM16.2169 27.5534C19.6197 27.5534 23.0224 27.5278 26.4167 27.5704C27.9176 27.5875 29.0007 26.982 29.7938 25.7539C30.4334 24.7732 30.4249 23.8692 29.7426 22.9225C29.6403 22.7776 29.5465 22.6155 29.4612 22.462C26.0329 16.4582 22.6045 10.4543 19.1762 4.45045C18.7924 3.77672 18.2637 3.29914 17.5388 3.03477C16.0634 2.48896 14.426 3.11152 13.5646 4.56985C12.6521 6.11345 11.7652 7.66558 10.8612 9.20919C8.21746 13.7547 5.57372 18.2917 2.93851 22.8373C1.90659 24.6197 2.68266 26.7346 4.61003 27.3657C5.03644 27.5022 5.51402 27.5448 5.96602 27.5448C9.38583 27.5619 12.7971 27.5448 16.2169 27.5534Z" fill="white"/>
<path id="Vector_2" d="M14.7246 11.6482C14.7246 11.3838 14.699 11.1877 14.7246 10.9915C14.8269 10.2581 15.1595 9.66115 15.8929 9.43088C16.669 9.18357 17.411 9.37119 17.9994 9.90846C18.1956 10.0876 18.2638 10.514 18.2467 10.821C18.1614 12.6545 18.0335 14.4881 17.9312 16.3217C17.8885 17.1063 17.8971 17.8994 17.88 18.684C17.8544 19.7415 16.9504 20.3385 15.9612 19.9547C15.5348 19.7927 15.296 19.4856 15.2704 19.0336C15.1851 17.6435 15.1083 16.2534 15.006 14.8548C14.9207 13.7632 14.8013 12.6716 14.7075 11.6482H14.7246Z" fill="white"/>
<path id="Vector_3" d="M16.3874 21.1913C17.3341 21.1913 18.076 21.9247 18.076 22.8799C18.076 23.8009 17.3426 24.5429 16.4301 24.5599C15.492 24.577 14.7244 23.835 14.7159 22.8969C14.7074 21.9503 15.4408 21.1998 16.3874 21.1998V21.1913Z" fill="white"/>
</g>
</g>
</svg>
