<svg width="13" height="14" viewBox="0 0 13 14" fill="none" xmlns="http://www.w3.org/2000/svg">
<g clip-path="url(#clip0_517_65)">
<path d="M11.8917 2.42004H8.82054V1.60983C8.82054 1.31575 8.70382 1.03369 8.49602 0.825602C8.28821 0.617512 8.00632 0.500405 7.71224 0.5L5.28773 0.5C4.99365 0.500405 4.71175 0.617512 4.50395 0.825602C4.29615 1.03369 4.17943 1.31575 4.17943 1.60983V2.42004H1.10981C0.960706 2.4145 0.812011 2.43909 0.672621 2.49233C0.533232 2.54557 0.406009 2.62637 0.298561 2.72991C0.191113 2.83344 0.105645 2.95758 0.0472671 3.09489C-0.0111105 3.23221 -0.0411987 3.37989 -0.0411987 3.5291C-0.0411987 3.67832 -0.0111105 3.82599 0.0472671 3.96331C0.105645 4.10063 0.191113 4.22477 0.298561 4.3283C0.406009 4.43183 0.533232 4.51264 0.672621 4.56588C0.812011 4.61912 0.960706 4.64371 1.10981 4.63817H1.41555V11.6595C1.41838 12.1475 1.61445 12.6145 1.96083 12.9583C2.30722 13.3021 2.7757 13.4947 3.26374 13.4939H9.73775C10.2247 13.4931 10.6917 13.2998 11.0367 12.9562C11.3818 12.6125 11.577 12.1464 11.5798 11.6595V4.63817H11.8856C12.1726 4.62751 12.4443 4.506 12.6436 4.29917C12.8429 4.09235 12.9542 3.81632 12.9542 3.5291C12.9542 3.24189 12.8429 2.96586 12.6436 2.75903C12.4443 2.55221 12.1726 2.4307 11.8856 2.42004H11.8917ZM4.47752 1.60983C4.47954 1.39614 4.56574 1.19186 4.71742 1.04132C4.8691 0.890781 5.07403 0.806131 5.28773 0.805738H7.71224C7.92726 0.806143 8.13333 0.891844 8.28523 1.04403C8.43713 1.19622 8.52244 1.40245 8.52244 1.61747V2.42768H4.47752V1.60983ZM11.2817 11.6595C11.2805 12.0684 11.1174 12.4603 10.8281 12.7493C10.5387 13.0384 10.1467 13.2011 9.73775 13.2019H3.26374C2.85462 13.2011 2.46245 13.0384 2.17287 12.7494C1.88329 12.4604 1.71985 12.0686 1.71823 11.6595V4.63817H11.2817V11.6595ZM11.8932 4.3416H1.10981C0.894934 4.3416 0.688855 4.25624 0.536912 4.1043C0.384968 3.95236 0.299608 3.74628 0.299608 3.5314C0.299608 3.31652 0.384968 3.11044 0.536912 2.95849C0.688855 2.80655 0.894934 2.72119 1.10981 2.72119H11.8917C12.1066 2.72119 12.3126 2.80655 12.4646 2.95849C12.6165 3.11044 12.7019 3.31652 12.7019 3.5314C12.7019 3.74628 12.6165 3.95236 12.4646 4.1043C12.3126 4.25624 12.1066 4.3416 11.8917 4.3416H11.8932Z" fill="white"/>
<path d="M3.19041 11.9468C3.23095 11.9468 3.26983 11.9307 3.2985 11.9021C3.32717 11.8734 3.34328 11.8345 3.34328 11.794V5.8657C3.34328 5.82516 3.32717 5.78627 3.2985 5.7576C3.26983 5.72894 3.23095 5.71283 3.19041 5.71283C3.14986 5.71283 3.11098 5.72894 3.08231 5.7576C3.05364 5.78627 3.03754 5.82516 3.03754 5.8657V11.7986C3.03873 11.8383 3.05536 11.876 3.0839 11.9037C3.11244 11.9314 3.15064 11.9469 3.19041 11.9468Z" fill="white"/>
<path d="M4.84598 11.9468C4.86606 11.9468 4.88594 11.9429 4.90448 11.9352C4.92303 11.9275 4.93988 11.9163 4.95408 11.9021C4.96827 11.8879 4.97953 11.871 4.98722 11.8525C4.9949 11.8339 4.99885 11.814 4.99885 11.794V5.8657C4.99885 5.82516 4.98275 5.78627 4.95408 5.7576C4.92541 5.72894 4.88653 5.71283 4.84598 5.71283C4.80544 5.71283 4.76656 5.72894 4.73789 5.7576C4.70922 5.78627 4.69312 5.82516 4.69312 5.8657V11.7986C4.69431 11.8383 4.71094 11.876 4.73948 11.9037C4.76802 11.9314 4.80622 11.9469 4.84598 11.9468Z" fill="white"/>
<path d="M6.49998 11.9468C6.54052 11.9468 6.5794 11.9307 6.60807 11.9021C6.63674 11.8734 6.65285 11.8345 6.65285 11.794V5.8657C6.65285 5.82516 6.63674 5.78627 6.60807 5.7576C6.5794 5.72894 6.54052 5.71283 6.49998 5.71283C6.45943 5.71283 6.42055 5.72894 6.39188 5.7576C6.36321 5.78627 6.34711 5.82516 6.34711 5.8657V11.7986C6.3483 11.8383 6.36493 11.876 6.39347 11.9037C6.42201 11.9314 6.46021 11.9469 6.49998 11.9468Z" fill="white"/>
<path d="M8.15555 11.9468C8.1961 11.9468 8.23498 11.9307 8.26365 11.9021C8.29232 11.8734 8.30842 11.8345 8.30842 11.794V5.8657C8.30842 5.82516 8.29232 5.78627 8.26365 5.7576C8.23498 5.72894 8.1961 5.71283 8.15555 5.71283C8.11501 5.71283 8.07613 5.72894 8.04746 5.7576C8.01879 5.78627 8.00269 5.82516 8.00269 5.8657V11.7986C8.00388 11.8383 8.02051 11.876 8.04905 11.9037C8.07759 11.9314 8.11579 11.9469 8.15555 11.9468Z" fill="white"/>
<path d="M9.80961 11.9468C9.85015 11.9468 9.88903 11.9307 9.9177 11.9021C9.94637 11.8734 9.96248 11.8345 9.96248 11.794V5.8657C9.96248 5.82516 9.94637 5.78627 9.9177 5.7576C9.88903 5.72894 9.85015 5.71283 9.80961 5.71283C9.76906 5.71283 9.73018 5.72894 9.70151 5.7576C9.67284 5.78627 9.65674 5.82516 9.65674 5.8657V11.7986C9.65793 11.8383 9.67456 11.876 9.7031 11.9037C9.73164 11.9314 9.76985 11.9469 9.80961 11.9468Z" fill="white"/>
</g>
<defs>
<clipPath id="clip0_517_65">
<rect width="13" height="13" fill="white" transform="translate(0 0.5)"/>
</clipPath>
</defs>
</svg>
