<svg width="13" height="13" viewBox="0 0 13 13" fill="none" xmlns="http://www.w3.org/2000/svg">
<g clip-path="url(#clip0_1115_678)">
<path d="M10.152 7.01054C10.152 6.96999 10.1359 6.93111 10.1072 6.90244C10.0786 6.87377 10.0397 6.85767 9.99913 6.85767C9.95858 6.85767 9.9197 6.87377 9.89103 6.90244C9.86236 6.93111 9.84626 6.96999 9.84626 7.01054V9.44268H9.0972C9.07093 9.44295 9.04517 9.44999 9.02241 9.46311C8.99965 9.47623 8.98066 9.49499 8.96726 9.51759C8.95384 9.54083 8.94678 9.56719 8.94678 9.59403C8.94678 9.62086 8.95384 9.64722 8.96726 9.67046L9.86613 11.2282C9.87953 11.2508 9.89852 11.2696 9.92128 11.2827C9.94404 11.2958 9.9698 11.3028 9.99607 11.3031C10.0221 11.3026 10.0475 11.2954 10.07 11.2823C10.0925 11.2692 10.1112 11.2506 10.1245 11.2282L11.0249 9.67046C11.0383 9.64722 11.0454 9.62086 11.0454 9.59403C11.0454 9.56719 11.0383 9.54083 11.0249 9.51759C11.0115 9.49499 10.9925 9.47623 10.9697 9.46311C10.947 9.44999 10.9212 9.44295 10.8949 9.44268H10.1459L10.152 7.01054ZM10.0022 10.8537L9.36166 9.74384H10.6427L10.0022 10.8537Z" fill="white"/>
<path d="M1.72876 2.52091H5.81955C5.84193 2.52601 5.86518 2.52601 5.88757 2.52089C5.90995 2.51578 5.9309 2.50568 5.94885 2.49137C5.96679 2.47705 5.98129 2.45887 5.99125 2.43818C6.00121 2.41749 6.00638 2.39482 6.00638 2.37186C6.00638 2.3489 6.00121 2.32624 5.99125 2.30555C5.98129 2.28486 5.96679 2.26668 5.94885 2.25236C5.9309 2.23804 5.90995 2.22795 5.88757 2.22284C5.86518 2.21772 5.84193 2.21771 5.81955 2.22282H1.72876C1.69499 2.23051 1.66483 2.24945 1.64323 2.27653C1.62163 2.30361 1.60986 2.33722 1.60986 2.37186C1.60986 2.4065 1.62163 2.44012 1.64323 2.4672C1.66483 2.49427 1.69499 2.51321 1.72876 2.52091Z" fill="white"/>
<path d="M1.72904 4.19173H5.81982C5.86037 4.19173 5.89925 4.17562 5.92792 4.14695C5.95659 4.11828 5.97269 4.0794 5.97269 4.03886C5.97269 3.99831 5.95659 3.95943 5.92792 3.93076C5.89925 3.90209 5.86037 3.88599 5.81982 3.88599H1.72904C1.6885 3.88599 1.64961 3.90209 1.62095 3.93076C1.59228 3.95943 1.57617 3.99831 1.57617 4.03886C1.57617 4.0794 1.59228 4.11828 1.62095 4.14695C1.64961 4.17562 1.6885 4.19173 1.72904 4.19173Z" fill="white"/>
<path d="M7.44482 5.71122C7.44482 5.67068 7.42872 5.63179 7.40005 5.60312C7.37138 5.57446 7.3325 5.55835 7.29195 5.55835H1.72904C1.6885 5.55835 1.64961 5.57446 1.62095 5.60312C1.59228 5.63179 1.57617 5.67068 1.57617 5.71122C1.57617 5.75176 1.59228 5.79065 1.62095 5.81931C1.64961 5.84798 1.6885 5.86409 1.72904 5.86409H7.29501C7.33502 5.86329 7.37312 5.84683 7.40113 5.81825C7.42914 5.78966 7.44483 5.75124 7.44482 5.71122Z" fill="white"/>
<path d="M6.47113 7.38212C6.47113 7.34157 6.45502 7.30269 6.42635 7.27402C6.39769 7.24535 6.3588 7.22925 6.31826 7.22925H1.73218C1.69841 7.23695 1.66825 7.25588 1.64665 7.28296C1.62505 7.31004 1.61328 7.34366 1.61328 7.3783C1.61328 7.41293 1.62505 7.44655 1.64665 7.47363C1.66825 7.50071 1.69841 7.51965 1.73218 7.52734H6.32285C6.3613 7.52624 6.39793 7.51067 6.42541 7.48375C6.4529 7.45683 6.46922 7.42054 6.47113 7.38212Z" fill="white"/>
<path d="M5.81982 8.90161H1.72904C1.6885 8.90161 1.64961 8.91772 1.62095 8.94639C1.59228 8.97505 1.57617 9.01394 1.57617 9.05448C1.57617 9.09502 1.59228 9.13391 1.62095 9.16258C1.64961 9.19124 1.6885 9.20735 1.72904 9.20735H5.81982C5.86037 9.20735 5.89925 9.19124 5.92792 9.16258C5.95659 9.13391 5.97269 9.09502 5.97269 9.05448C5.97269 9.01394 5.95659 8.97505 5.92792 8.94639C5.89925 8.91772 5.86037 8.90161 5.81982 8.90161Z" fill="white"/>
<path d="M5.81982 10.5725H1.72904C1.6885 10.5725 1.64961 10.5886 1.62095 10.6173C1.59228 10.646 1.57617 10.6848 1.57617 10.7254C1.57617 10.7659 1.59228 10.8048 1.62095 10.8335C1.64961 10.8621 1.6885 10.8782 1.72904 10.8782H5.81982C5.86037 10.8782 5.89925 10.8621 5.92792 10.8335C5.95659 10.8048 5.97269 10.7659 5.97269 10.7254C5.97269 10.6848 5.95659 10.646 5.92792 10.6173C5.89925 10.5886 5.86037 10.5725 5.81982 10.5725Z" fill="white"/>
<path d="M12.0033 7.882H11.3123C11.2718 7.882 11.2329 7.89811 11.2042 7.92677C11.1756 7.95544 11.1595 7.99433 11.1595 8.03487C11.1595 8.07541 11.1756 8.1143 11.2042 8.14296C11.2329 8.17163 11.2718 8.18774 11.3123 8.18774H12.0064C12.1914 8.18774 12.3688 8.26113 12.4998 8.39182C12.6308 8.5225 12.7046 8.6998 12.705 8.88482V11.0556C12.7046 11.2406 12.6308 11.4179 12.4998 11.5486C12.3688 11.6793 12.1914 11.7526 12.0064 11.7526H7.99965C7.90811 11.7526 7.81746 11.7346 7.73289 11.6996C7.64831 11.6646 7.57147 11.6132 7.50673 11.5485C7.442 11.4837 7.39066 11.4069 7.35563 11.3223C7.32059 11.2378 7.30256 11.1471 7.30256 11.0556V8.87871C7.30256 8.78717 7.32059 8.69652 7.35563 8.61195C7.39066 8.52737 7.442 8.45053 7.50673 8.38579C7.57147 8.32106 7.64831 8.26972 7.73289 8.23469C7.81746 8.19965 7.90811 8.18162 7.99965 8.18162H8.6952C8.73575 8.18162 8.77463 8.16552 8.8033 8.13685C8.83197 8.10818 8.84807 8.0693 8.84807 8.02875C8.84807 7.98821 8.83197 7.94933 8.8033 7.92066C8.77463 7.89199 8.73575 7.87589 8.6952 7.87589H7.99965C7.73569 7.87669 7.4828 7.98201 7.2963 8.1688C7.1098 8.35559 7.00487 8.60864 7.00447 8.87259V11.0433C7.00487 11.3073 7.1098 11.5603 7.2963 11.7471C7.4828 11.9339 7.73569 12.0392 7.99965 12.04H9.56961C9.42823 12.2433 9.23958 12.4092 9.01989 12.5235C8.8002 12.6377 8.55605 12.6969 8.30844 12.6959H1.8436C1.43686 12.6931 1.04756 12.5303 0.759799 12.2429C0.472042 11.9554 0.308941 11.5663 0.305738 11.1595V1.84214C0.308941 1.4354 0.472042 1.04625 0.759799 0.758783C1.04756 0.471312 1.43686 0.308598 1.8436 0.3058H6.36548V1.94303C6.36587 2.43028 6.55898 2.89759 6.90265 3.24298C7.24633 3.58837 7.71267 3.78381 8.19991 3.78663H9.85242V6.21114C9.85242 6.25168 9.86853 6.29057 9.8972 6.31923C9.92586 6.3479 9.96475 6.36401 10.0053 6.36401C10.0458 6.36401 10.0847 6.3479 10.1134 6.31923C10.1421 6.29057 10.1582 6.25168 10.1582 6.21114V3.63682C10.1582 3.63682 10.1582 3.63682 10.1582 3.62765C10.1605 3.61501 10.1605 3.60207 10.1582 3.58943V3.57567C10.1511 3.55932 10.1413 3.54431 10.1291 3.53134L6.62077 0.0443938C6.60725 0.0314073 6.59108 0.0214989 6.57338 0.0153486H6.55809C6.54591 0.013764 6.53358 0.013764 6.5214 0.0153486H1.8436C1.35767 0.0157272 0.891503 0.207782 0.546326 0.549811C0.201149 0.89184 0.004831 1.35623 0 1.84214L0 11.1595C0.00282563 11.6468 0.19826 12.1131 0.543653 12.4568C0.889046 12.8004 1.35636 12.9936 1.8436 12.9939H8.30844C8.63783 12.9954 8.96154 12.9082 9.24559 12.7415C9.52964 12.5747 9.76354 12.3345 9.92274 12.0462H12.0033C12.2664 12.0441 12.5182 11.9383 12.7037 11.7516C12.8892 11.565 12.9935 11.3126 12.9939 11.0495V8.87871C12.9935 8.61554 12.8892 8.36318 12.7037 8.17652C12.5182 7.98986 12.2664 7.88401 12.0033 7.882ZM8.20755 3.48701C7.79818 3.4866 7.4057 3.32381 7.11624 3.03434C6.82677 2.74488 6.66397 2.35239 6.66357 1.94303V0.510645L8.15252 1.99806L9.64146 3.48701H8.20755Z" fill="white"/>
</g>
<defs>
<clipPath id="clip0_1115_678">
<rect width="13" height="13" fill="white"/>
</clipPath>
</defs>
</svg>
