<svg width="35" height="35" viewBox="0 0 35 35" fill="none" xmlns="http://www.w3.org/2000/svg">
<g clip-path="url(#clip0_685_570)">
<path d="M32.2054 23.4266H28.81V16.5575C28.8061 14.1017 28.0034 11.7138 26.5229 9.75444C25.0424 7.79507 22.9646 6.37059 20.6032 5.69612C20.9675 5.13718 21.1741 4.49022 21.2011 3.82359C21.2281 3.15696 21.0746 2.49541 20.7567 1.90882C20.4388 1.32224 19.9684 0.832393 19.3952 0.491036C18.822 0.149679 18.1672 -0.0305176 17.5 -0.0305176C16.8328 -0.0305176 16.178 0.149679 15.6048 0.491036C15.0316 0.832393 14.5612 1.32224 14.2433 1.90882C13.9254 2.49541 13.7719 3.15696 13.7989 3.82359C13.8259 4.49022 14.0325 5.13718 14.3968 5.69612C12.0369 6.37209 9.96095 7.7972 8.48205 9.75644C7.00316 11.7157 6.20158 14.1027 6.19826 16.5575V23.4266H2.79457C2.0534 23.4266 1.34259 23.721 0.81851 24.2451C0.294427 24.7692 0 25.48 0 26.2212C0 26.9623 0.294427 27.6731 0.81851 28.1972C1.34259 28.7213 2.0534 29.0157 2.79457 29.0157H11.1371C11.2202 30.6484 11.9272 32.1867 13.1121 33.3129C14.2971 34.4391 15.8694 35.0671 17.5041 35.0671C19.1389 35.0671 20.7112 34.4391 21.8961 33.3129C23.081 32.1867 23.7881 30.6484 23.8711 29.0157H32.2054C32.9466 29.0157 33.6574 28.7213 34.1815 28.1972C34.7056 27.6731 35 26.9623 35 26.2212C35 25.48 34.7056 24.7692 34.1815 24.2451C33.6574 23.721 32.9466 23.4266 32.2054 23.4266ZM14.6108 3.70412C14.6108 3.24476 14.7206 2.79206 14.9311 2.38378C15.1416 1.9755 15.4467 1.62348 15.8209 1.35707C16.1951 1.09066 16.6276 0.9176 17.0823 0.852315C17.537 0.78703 18.0007 0.831417 18.4348 0.981773C18.8688 1.13213 19.2606 1.38409 19.5775 1.71665C19.8944 2.04921 20.1272 2.45272 20.2564 2.89352C20.3856 3.33432 20.4076 3.79964 20.3204 4.25065C20.2333 4.70166 20.0396 5.1253 19.7554 5.48622C18.2618 5.18007 16.7217 5.18007 15.2281 5.48622C14.8282 4.97828 14.6108 4.35059 14.6108 3.70412ZM6.99671 16.5575C7.07324 13.8249 8.21254 11.2299 10.1724 9.32418C12.1323 7.41845 14.7581 6.35226 17.4918 6.35226C20.2254 6.35226 22.8513 7.41845 24.8111 9.32418C26.771 11.2299 27.9103 13.8249 27.9868 16.5575V23.4266H6.99671V16.5575ZM17.5 34.1974C16.0899 34.1949 14.7328 33.6596 13.7009 32.6986C12.6689 31.7376 12.0384 30.4221 11.9356 29.0157H23.048C22.9454 30.4193 22.3171 31.7324 21.2887 32.693C20.2602 33.6536 18.9073 34.1908 17.5 34.1974ZM32.2054 28.2132H2.79457C2.52563 28.2254 2.257 28.183 2.00491 28.0885C1.75282 27.994 1.5225 27.8494 1.32786 27.6634C1.13322 27.4774 0.9783 27.2539 0.872455 27.0064C0.766611 26.7589 0.712041 26.4924 0.712041 26.2232C0.712041 25.954 0.766611 25.6876 0.872455 25.4401C0.9783 25.1925 1.13322 24.969 1.32786 24.783C1.5225 24.597 1.75282 24.4524 2.00491 24.3579C2.257 24.2635 2.52563 24.221 2.79457 24.2333H32.2054C32.4744 24.221 32.743 24.2635 32.9951 24.3579C33.2472 24.4524 33.4775 24.597 33.6721 24.783C33.8668 24.969 34.0217 25.1925 34.1275 25.4401C34.2334 25.6876 34.288 25.954 34.288 26.2232C34.288 26.4924 34.2334 26.7589 34.1275 27.0064C34.0217 27.2539 33.8668 27.4774 33.6721 27.6634C33.4775 27.8494 33.2472 27.994 32.9951 28.0885C32.743 28.183 32.4744 28.2254 32.2054 28.2132Z" fill="#AFAFAF"/>
<path d="M24.5173 5.29286C26.2288 6.31121 27.6971 7.69117 28.8196 9.3362C29.9422 10.9812 30.6918 12.8517 31.016 14.8166C31.0335 14.9125 31.0845 14.999 31.1599 15.0608C31.2353 15.1226 31.3301 15.1557 31.4276 15.1541H31.4934C31.5969 15.134 31.6887 15.075 31.75 14.9893C31.8112 14.9035 31.8373 14.7975 31.8227 14.6931C31.4783 12.6103 30.6828 10.6279 29.492 8.88474C28.3012 7.14155 26.7438 5.67967 24.9289 4.60142C24.8366 4.54924 24.7278 4.53467 24.625 4.56074C24.5223 4.58681 24.4336 4.6515 24.3774 4.74135C24.3252 4.83361 24.3106 4.94245 24.3367 5.04518C24.3627 5.14792 24.4274 5.23664 24.5173 5.29286Z" fill="#AFAFAF"/>
<path d="M3.52303 15.1418H3.58888C3.68634 15.1433 3.7812 15.1103 3.85656 15.0485C3.93193 14.9867 3.98292 14.9001 4.00045 14.8043C4.32451 12.8429 5.07237 10.9759 6.1919 9.33319C7.31144 7.69049 8.77572 6.31169 10.4827 5.29286C10.5725 5.23664 10.6372 5.14792 10.6633 5.04518C10.6894 4.94245 10.6748 4.83361 10.6226 4.74135C10.5664 4.6515 10.4777 4.58681 10.375 4.56074C10.2722 4.53467 10.1634 4.54924 10.0711 4.60142C8.25992 5.67928 6.70604 7.13978 5.51812 8.88078C4.3302 10.6218 3.53693 12.6013 3.19378 14.6808C3.1792 14.7852 3.20522 14.8912 3.26648 14.9769C3.32774 15.0627 3.41957 15.1217 3.52303 15.1418Z" fill="#AFAFAF"/>
</g>
<defs>
<clipPath id="clip0_685_570">
<rect width="35" height="35" fill="white"/>
</clipPath>
</defs>
</svg>
