<svg width="13" height="13" viewBox="0 0 13 13" fill="none" xmlns="http://www.w3.org/2000/svg">
<g clip-path="url(#clip0_421_3268)">
<path d="M9.14924 11.9559C8.55761 11.9556 7.97936 11.7799 7.48759 11.451C6.99581 11.1221 6.6126 10.6547 6.38641 10.108C6.16021 9.56136 6.10118 8.95989 6.21679 8.37967C6.3324 7.79945 6.61744 7.26653 7.03589 6.84829C7.45435 6.43005 7.98741 6.14528 8.56769 6.02997C9.14797 5.91466 9.74942 5.97399 10.296 6.20047C10.8425 6.42694 11.3097 6.81039 11.6383 7.30233C11.967 7.79428 12.1424 8.37262 12.1424 8.96425C12.1416 9.7577 11.826 10.5184 11.2648 11.0793C10.7036 11.6402 9.94269 11.9555 9.14924 11.9559ZM9.14924 6.27069C8.61657 6.27099 8.09595 6.42922 7.6532 6.72538C7.21045 7.02154 6.86545 7.44232 6.66181 7.93453C6.45818 8.42674 6.40505 8.96827 6.50916 9.49067C6.61326 10.0131 6.86992 10.4929 7.24668 10.8694C7.62344 11.246 8.10339 11.5024 8.62585 11.6062C9.1483 11.71 9.68981 11.6565 10.1819 11.4526C10.674 11.2487 11.0946 10.9035 11.3905 10.4605C11.6864 10.0176 11.8443 9.49692 11.8443 8.96425C11.8439 8.24945 11.5599 7.56402 11.0546 7.05844C10.5493 6.55286 9.86404 6.26844 9.14924 6.26763V6.27069Z" fill="white"/>
<path d="M9.1492 11.5004C8.64767 11.5001 8.15749 11.3511 7.74063 11.0722C7.32377 10.7934 6.99895 10.3972 6.80724 9.93373C6.61552 9.47029 6.56551 8.96041 6.66354 8.46856C6.76157 7.9767 7.00323 7.52496 7.35797 7.17043C7.71271 6.8159 8.16461 6.57451 8.65652 6.47678C9.14843 6.37905 9.65828 6.42936 10.1216 6.62136C10.5849 6.81335 10.9809 7.13841 11.2595 7.55544C11.5381 7.97247 11.6868 8.46273 11.6868 8.96426C11.686 9.63689 11.4184 10.2817 10.9426 10.7572C10.4668 11.2327 9.82183 11.5 9.1492 11.5004ZM9.1492 6.72626C8.70656 6.72626 8.27387 6.85751 7.90583 7.10343C7.53779 7.34934 7.25094 7.69887 7.08155 8.10781C6.91216 8.51676 6.86784 8.96674 6.95419 9.40088C7.04055 9.83501 7.2537 10.2338 7.56669 10.5468C7.87968 10.8598 8.27845 11.0729 8.71258 11.1593C9.14671 11.2456 9.5967 11.2013 10.0056 11.0319C10.4146 10.8625 10.7641 10.5757 11.01 10.2076C11.2559 9.83959 11.3872 9.4069 11.3872 8.96426C11.3864 8.37095 11.1503 7.80218 10.7308 7.38265C10.3113 6.96311 9.7425 6.72707 9.1492 6.72626Z" fill="white"/>
<path d="M8.30997 12.9939H1.8436C1.35636 12.9935 0.889046 12.8004 0.543653 12.4567C0.19826 12.113 0.00282563 11.6467 0 11.1595L0 1.8436C0.000404828 1.35477 0.194771 0.886081 0.540426 0.540426C0.886081 0.194771 1.35477 0.000404828 1.8436 0L6.51529 0C6.55539 0.000168863 6.59382 0.0160904 6.6223 0.0443321L10.1092 3.53128C10.1235 3.54489 10.1347 3.56127 10.1424 3.57942C10.15 3.59756 10.1538 3.61708 10.1536 3.63676V6.21108C10.1536 6.25162 10.1375 6.2905 10.1088 6.31917C10.0801 6.34784 10.0412 6.36395 10.0007 6.36395C9.96016 6.36395 9.92128 6.34784 9.89261 6.31917C9.86394 6.2905 9.84784 6.25162 9.84784 6.21108V3.69944L6.45414 0.305738H1.8436C1.4366 0.308541 1.04707 0.471466 0.759266 0.759266C0.471466 1.04707 0.308541 1.4366 0.305738 1.8436V11.1595C0.307339 11.5673 0.469733 11.958 0.757662 12.2467C1.04559 12.5355 1.43581 12.6991 1.8436 12.7019H8.30997C8.60044 12.7027 8.8852 12.6213 9.13136 12.4671C9.37752 12.3129 9.57503 12.0922 9.70108 11.8306L9.78363 11.641C9.8003 11.6057 9.82987 11.5781 9.86626 11.5638C9.90265 11.5496 9.9431 11.5499 9.9793 11.5646C10.0153 11.581 10.0435 11.6107 10.058 11.6474C10.0726 11.6842 10.0723 11.7252 10.0573 11.7618L9.97166 11.9559C9.81894 12.2666 9.58243 12.5284 9.28881 12.7118C8.99519 12.8952 8.65616 12.9929 8.30997 12.9939Z" fill="white"/>
<path d="M10.0038 3.78658H8.20908C7.72051 3.78577 7.25221 3.59122 6.90689 3.24561C6.56156 2.9 6.36741 2.43154 6.367 1.94297V0.152875C6.36793 0.123728 6.37718 0.0954542 6.39366 0.0713912C6.41013 0.0473281 6.43315 0.0284795 6.45998 0.0170694C6.48682 0.00565936 6.51636 0.00216395 6.54512 0.00699563C6.57388 0.0118273 6.60066 0.0247845 6.6223 0.0443382L10.1092 3.53129C10.1298 3.55222 10.1439 3.57863 10.1499 3.60736C10.1558 3.6361 10.1534 3.66594 10.1429 3.69333C10.1313 3.72072 10.1119 3.74413 10.0872 3.7607C10.0625 3.77726 10.0335 3.78625 10.0038 3.78658ZM6.6651 0.510589V1.94297C6.6655 2.35234 6.8283 2.74482 7.11777 3.03429C7.40723 3.32375 7.79971 3.48655 8.20908 3.48695H9.64299L6.6651 0.510589Z" fill="white"/>
<path d="M12.8502 12.9939C12.8106 12.9933 12.7728 12.9774 12.7447 12.9495L10.979 11.19C10.9597 11.1777 10.9433 11.1613 10.9312 11.1418C10.9191 11.1224 10.9115 11.1005 10.9089 11.0777C10.9064 11.0549 10.9091 11.0319 10.9166 11.0103C10.9242 10.9886 10.9366 10.969 10.9528 10.9528C10.969 10.9366 10.9886 10.9242 11.0103 10.9166C11.0319 10.9091 11.0549 10.9064 11.0777 10.9089C11.1005 10.9115 11.1224 10.9191 11.1418 10.9312C11.1613 10.9433 11.1777 10.9597 11.19 10.979L12.9556 12.7447C12.9733 12.7662 12.9847 12.7922 12.9887 12.8198C12.9926 12.8473 12.989 12.8755 12.9781 12.9011C12.9673 12.9268 12.9496 12.949 12.9271 12.9653C12.9045 12.9817 12.8779 12.9915 12.8502 12.9939Z" fill="white"/>
<path d="M5.82126 2.52079H1.73048C1.70809 2.52589 1.68484 2.52588 1.66246 2.52077C1.64007 2.51565 1.61913 2.50556 1.60118 2.49124C1.58323 2.47692 1.56873 2.45875 1.55877 2.43806C1.54881 2.41737 1.54364 2.3947 1.54364 2.37174C1.54364 2.34878 1.54881 2.32611 1.55877 2.30542C1.56873 2.28474 1.58323 2.26656 1.60118 2.25224C1.61913 2.23792 1.64007 2.22783 1.66246 2.22271C1.68484 2.2176 1.70809 2.21759 1.73048 2.22269H5.82126C5.84365 2.21759 5.8669 2.2176 5.88928 2.22271C5.91166 2.22783 5.93261 2.23792 5.95056 2.25224C5.96851 2.26656 5.983 2.28474 5.99296 2.30542C6.00292 2.32611 6.0081 2.34878 6.0081 2.37174C6.0081 2.3947 6.00292 2.41737 5.99296 2.43806C5.983 2.45875 5.96851 2.47692 5.95056 2.49124C5.93261 2.50556 5.91166 2.51565 5.88928 2.52077C5.8669 2.52588 5.84365 2.52589 5.82126 2.52079Z" fill="white"/>
<path d="M5.82129 4.19166H1.73051C1.68996 4.19166 1.65108 4.17556 1.62241 4.14689C1.59374 4.11822 1.57764 4.07934 1.57764 4.03879C1.57764 3.99825 1.59374 3.95937 1.62241 3.9307C1.65108 3.90203 1.68996 3.88593 1.73051 3.88593H5.82129C5.86183 3.88593 5.90071 3.90203 5.92938 3.9307C5.95805 3.95937 5.97416 3.99825 5.97416 4.03879C5.97416 4.07934 5.95805 4.11822 5.92938 4.14689C5.90071 4.17556 5.86183 4.19166 5.82129 4.19166Z" fill="white"/>
<path d="M7.29647 5.86104H1.73051C1.68996 5.86104 1.65108 5.84493 1.62241 5.81626C1.59374 5.78759 1.57764 5.74871 1.57764 5.70817C1.57764 5.66762 1.59374 5.62874 1.62241 5.60007C1.65108 5.5714 1.68996 5.5553 1.73051 5.5553H7.29647C7.33702 5.5553 7.3759 5.5714 7.40457 5.60007C7.43324 5.62874 7.44934 5.66762 7.44934 5.70817C7.44934 5.74871 7.43324 5.78759 7.40457 5.81626C7.3759 5.84493 7.33702 5.86104 7.29647 5.86104Z" fill="white"/>
<path d="M6.32418 7.53031H1.73811C1.71572 7.53541 1.69247 7.53541 1.67009 7.53029C1.6477 7.52518 1.62676 7.51508 1.60881 7.50077C1.59086 7.48645 1.57636 7.46827 1.5664 7.44758C1.55644 7.42689 1.55127 7.40422 1.55127 7.38126C1.55127 7.3583 1.55644 7.33563 1.5664 7.31495C1.57636 7.29426 1.59086 7.27608 1.60881 7.26176C1.62676 7.24744 1.6477 7.23735 1.67009 7.23223C1.69247 7.22712 1.71572 7.22711 1.73811 7.23222H6.32418C6.35796 7.23991 6.38812 7.25885 6.40972 7.28593C6.43132 7.31301 6.44309 7.34662 6.44309 7.38126C6.44309 7.4159 6.43132 7.44952 6.40972 7.47659C6.38812 7.50367 6.35796 7.52261 6.32418 7.53031Z" fill="white"/>
<path d="M5.82129 9.20119H1.73051C1.68996 9.20119 1.65108 9.18508 1.62241 9.15641C1.59374 9.12774 1.57764 9.08886 1.57764 9.04832C1.57764 9.00777 1.59374 8.96889 1.62241 8.94022C1.65108 8.91155 1.68996 8.89545 1.73051 8.89545H5.82129C5.86183 8.89545 5.90071 8.91155 5.92938 8.94022C5.95805 8.96889 5.97416 9.00777 5.97416 9.04832C5.97416 9.08886 5.95805 9.12774 5.92938 9.15641C5.90071 9.18508 5.86183 9.20119 5.82129 9.20119Z" fill="white"/>
<path d="M5.82129 10.8706H1.73051C1.68996 10.8706 1.65108 10.8545 1.62241 10.8258C1.59374 10.7971 1.57764 10.7582 1.57764 10.7177C1.57764 10.6771 1.59374 10.6383 1.62241 10.6096C1.65108 10.5809 1.68996 10.5648 1.73051 10.5648H5.82129C5.86183 10.5648 5.90071 10.5809 5.92938 10.6096C5.95805 10.6383 5.97416 10.6771 5.97416 10.7177C5.97416 10.7582 5.95805 10.7971 5.92938 10.8258C5.90071 10.8545 5.86183 10.8706 5.82129 10.8706Z" fill="white"/>
</g>
<defs>
<clipPath id="clip0_421_3268">
<rect width="13" height="13" fill="white"/>
</clipPath>
</defs>
</svg>
