<svg width="86" height="86" viewBox="0 0 86 86" fill="none" xmlns="http://www.w3.org/2000/svg">
<g id="sensor_toilet_paper" clip-path="url(#clip0_834_4878)">
<path id="Vector" d="M67.61 0H17.43C7.82 0 0 13.6 0 30.31V84.06C0 84.3252 0.105357 84.5796 0.292893 84.7671C0.48043 84.9546 0.734784 85.06 1 85.06H51.16C51.4252 85.06 51.6796 84.9546 51.8671 84.7671C52.0546 84.5796 52.16 84.3252 52.16 84.06V60.63H67.61C77.22 60.63 85 47 85 30.31C85 13.62 77.22 0 67.61 0ZM2 83.09V64H4.26C4.52522 64 4.77957 63.8946 4.96711 63.7071C5.15464 63.5196 5.26 63.2652 5.26 63C5.26 62.7348 5.15464 62.4804 4.96711 62.2929C4.77957 62.1054 4.52522 62 4.26 62H2V30.31C1.99033 26.6366 2.39285 22.9737 3.2 19.39H5.68C5.94522 19.39 6.19957 19.2846 6.38711 19.0971C6.57464 18.9096 6.68 18.6552 6.68 18.39C6.68 18.1248 6.57464 17.8704 6.38711 17.6829C6.19957 17.4954 5.94522 17.39 5.68 17.39H3.68C6.21 8.25 11.43 2 17.43 2H61.43C57.19 4.8 53.73 10.39 51.81 17.48H49.61C49.3448 17.48 49.0904 17.5854 48.9029 17.7729C48.7154 17.9604 48.61 18.2148 48.61 18.48C48.61 18.7452 48.7154 18.9996 48.9029 19.1871C49.0904 19.3746 49.3448 19.48 49.61 19.48H51.33C50.5374 23.0657 50.1417 26.7277 50.15 30.4V62.08H48.15C47.8848 62.08 47.6304 62.1854 47.4429 62.3729C47.2554 62.5604 47.15 62.8148 47.15 63.08C47.15 63.3452 47.2554 63.5996 47.4429 63.7871C47.6304 63.9746 47.8848 64.08 48.15 64.08H50.15V83.09H2ZM52.13 58.68V44.23C54.13 50.83 57.43 56.02 61.46 58.68H52.13ZM67.61 58.68C59.08 58.68 52.13 45.95 52.13 30.31C52.13 14.67 59.08 2 67.61 2C76.14 2 83.09 14.68 83.09 30.31C83.09 45.94 76.14 58.68 67.61 58.68Z" fill="white"/>
<path id="Vector_2" d="M67.61 16.25C62.95 16.25 59.29 22.43 59.29 30.31C59.29 38.19 63 44.38 67.61 44.38C72.22 44.38 75.92 38.2 75.92 30.31C75.92 22.42 72.27 16.25 67.61 16.25ZM67.61 42.42C64.16 42.42 61.25 36.88 61.25 30.31C61.25 23.74 64.16 18.21 67.61 18.21C71.06 18.21 74 23.75 74 30.31C74 36.87 71.06 42.42 67.61 42.42Z" fill="white"/>
<path id="Vector_3" d="M30.0999 18.41C30.0999 18.1448 29.9946 17.8904 29.807 17.7029C29.6195 17.5153 29.3652 17.41 29.0999 17.41H26.1899C25.9247 17.41 25.6704 17.5153 25.4828 17.7029C25.2953 17.8904 25.1899 18.1448 25.1899 18.41C25.1899 18.6752 25.2953 18.9295 25.4828 19.1171C25.6704 19.3046 25.9247 19.41 26.1899 19.41H29.1199C29.3817 19.4047 29.6309 19.2971 29.8142 19.1101C29.9974 18.9231 30.1 18.6718 30.0999 18.41Z" fill="white"/>
<path id="Vector_4" d="M18.38 18.41C18.38 18.1448 18.2746 17.8904 18.0871 17.7029C17.8995 17.5153 17.6452 17.41 17.38 17.41H14.47C14.2048 17.41 13.9504 17.5153 13.7629 17.7029C13.5753 17.8904 13.47 18.1448 13.47 18.41C13.47 18.6752 13.5753 18.9295 13.7629 19.1171C13.9504 19.3046 14.2048 19.41 14.47 19.41H17.4C17.6617 19.4047 17.911 19.2971 18.0942 19.1101C18.2774 18.9231 18.38 18.6718 18.38 18.41Z" fill="white"/>
<path id="Vector_5" d="M24.24 18.41C24.24 18.1448 24.1346 17.8904 23.9471 17.7029C23.7595 17.5153 23.5052 17.41 23.24 17.41H20.33C20.0647 17.41 19.8104 17.5153 19.6228 17.7029C19.4353 17.8904 19.33 18.1448 19.33 18.41C19.33 18.6752 19.4353 18.9295 19.6228 19.1171C19.8104 19.3046 20.0647 19.41 20.33 19.41H23.26C23.5217 19.4047 23.7709 19.2971 23.9542 19.1101C24.1374 18.9231 24.24 18.6718 24.24 18.41Z" fill="white"/>
<path id="Vector_6" d="M36 18.41C36 18.1448 35.8947 17.8904 35.7072 17.7029C35.5196 17.5153 35.2653 17.41 35 17.41H32.05C31.7848 17.41 31.5305 17.5153 31.3429 17.7029C31.1554 17.8904 31.05 18.1448 31.05 18.41C31.05 18.6752 31.1554 18.9295 31.3429 19.1171C31.5305 19.3046 31.7848 19.41 32.05 19.41H35C35.2653 19.41 35.5196 19.3046 35.7072 19.1171C35.8947 18.9295 36 18.6752 36 18.41Z" fill="white"/>
<path id="Vector_7" d="M41.83 18.41C41.83 18.1448 41.7247 17.8904 41.5372 17.7029C41.3496 17.5153 41.0953 17.41 40.83 17.41H37.92C37.6548 17.41 37.4005 17.5153 37.2129 17.7029C37.0254 17.8904 36.92 18.1448 36.92 18.41C36.92 18.6752 37.0254 18.9295 37.2129 19.1171C37.4005 19.3046 37.6548 19.41 37.92 19.41H40.85C41.1118 19.4047 41.361 19.2971 41.5443 19.1101C41.7275 18.9231 41.8301 18.6718 41.83 18.41Z" fill="white"/>
<path id="Vector_8" d="M12.51 18.41C12.51 18.1448 12.4046 17.8904 12.2171 17.7029C12.0296 17.5153 11.7752 17.41 11.51 17.41H8.60998C8.34477 17.41 8.09041 17.5153 7.90288 17.7029C7.71534 17.8904 7.60999 18.1448 7.60999 18.41C7.60999 18.6752 7.71534 18.9295 7.90288 19.1171C8.09041 19.3046 8.34477 19.41 8.60998 19.41H11.54C11.8 19.4022 12.0467 19.2934 12.2278 19.1067C12.4089 18.92 12.5101 18.6701 12.51 18.41Z" fill="white"/>
<path id="Vector_9" d="M47.69 18.41C47.69 18.1448 47.5847 17.8904 47.3971 17.7029C47.2096 17.5153 46.9552 17.41 46.69 17.41H43.78C43.5148 17.41 43.2605 17.5153 43.0729 17.7029C42.8854 17.8904 42.78 18.1448 42.78 18.41C42.78 18.6752 42.8854 18.9295 43.0729 19.1171C43.2605 19.3046 43.5148 19.41 43.78 19.41H46.71C46.9718 19.4047 47.221 19.2971 47.4042 19.1101C47.5875 18.9231 47.6901 18.6718 47.69 18.41Z" fill="white"/>
<path id="Vector_10" d="M10.1199 62.08H7.18994C6.92472 62.08 6.67037 62.1854 6.48283 62.3729C6.2953 62.5604 6.18994 62.8148 6.18994 63.08C6.18994 63.3452 6.2953 63.5996 6.48283 63.7871C6.67037 63.9747 6.92472 64.08 7.18994 64.08H10.1199C10.3852 64.08 10.6395 63.9747 10.827 63.7871C11.0146 63.5996 11.1199 63.3452 11.1199 63.08C11.1199 62.8148 11.0146 62.5604 10.827 62.3729C10.6395 62.1854 10.3852 62.08 10.1199 62.08Z" fill="white"/>
<path id="Vector_11" d="M21.85 62.08H18.91C18.6448 62.08 18.3905 62.1854 18.2029 62.3729C18.0154 62.5604 17.91 62.8148 17.91 63.08C17.91 63.3452 18.0154 63.5996 18.2029 63.7871C18.3905 63.9747 18.6448 64.08 18.91 64.08H21.85C22.1153 64.08 22.3696 63.9747 22.5571 63.7871C22.7447 63.5996 22.85 63.3452 22.85 63.08C22.85 62.8148 22.7447 62.5604 22.5571 62.3729C22.3696 62.1854 22.1153 62.08 21.85 62.08Z" fill="white"/>
<path id="Vector_12" d="M16 62.08H13.05C12.7848 62.08 12.5305 62.1854 12.3429 62.3729C12.1554 62.5604 12.05 62.8148 12.05 63.08C12.05 63.3452 12.1554 63.5996 12.3429 63.7871C12.5305 63.9747 12.7848 64.08 13.05 64.08H16C16.2653 64.08 16.5196 63.9747 16.7072 63.7871C16.8947 63.5996 17 63.3452 17 63.08C17 62.8148 16.8947 62.5604 16.7072 62.3729C16.5196 62.1854 16.2653 62.08 16 62.08Z" fill="white"/>
<path id="Vector_13" d="M27.71 62.08H24.78C24.5148 62.08 24.2605 62.1854 24.0729 62.3729C23.8854 62.5604 23.78 62.8148 23.78 63.08C23.78 63.3452 23.8854 63.5996 24.0729 63.7871C24.2605 63.9747 24.5148 64.08 24.78 64.08H27.71C27.9752 64.08 28.2296 63.9747 28.4171 63.7871C28.6047 63.5996 28.71 63.3452 28.71 63.08C28.71 62.8148 28.6047 62.5604 28.4171 62.3729C28.2296 62.1854 27.9752 62.08 27.71 62.08Z" fill="white"/>
<path id="Vector_14" d="M39.43 62.08H36.5C36.2348 62.08 35.9804 62.1854 35.7929 62.3729C35.6054 62.5604 35.5 62.8148 35.5 63.08C35.5 63.3452 35.6054 63.5996 35.7929 63.7871C35.9804 63.9747 36.2348 64.08 36.5 64.08H39.43C39.6952 64.08 39.9496 63.9747 40.1371 63.7871C40.3246 63.5996 40.43 63.3452 40.43 63.08C40.43 62.8148 40.3246 62.5604 40.1371 62.3729C39.9496 62.1854 39.6952 62.08 39.43 62.08Z" fill="white"/>
<path id="Vector_15" d="M45.29 62.08H42.36C42.0948 62.08 41.8404 62.1854 41.6529 62.3729C41.4653 62.5604 41.36 62.8148 41.36 63.08C41.36 63.3452 41.4653 63.5996 41.6529 63.7871C41.8404 63.9747 42.0948 64.08 42.36 64.08H45.29C45.5552 64.08 45.8096 63.9747 45.9971 63.7871C46.1846 63.5996 46.29 63.3452 46.29 63.08C46.29 62.8148 46.1846 62.5604 45.9971 62.3729C45.8096 62.1854 45.5552 62.08 45.29 62.08Z" fill="white"/>
<path id="Vector_16" d="M33.57 62.08H30.64C30.3748 62.08 30.1204 62.1854 29.9329 62.3729C29.7454 62.5604 29.64 62.8148 29.64 63.08C29.64 63.3452 29.7454 63.5996 29.9329 63.7871C30.1204 63.9747 30.3748 64.08 30.64 64.08H33.57C33.8352 64.08 34.0896 63.9747 34.2771 63.7871C34.4647 63.5996 34.57 63.3452 34.57 63.08C34.57 62.8148 34.4647 62.5604 34.2771 62.3729C34.0896 62.1854 33.8352 62.08 33.57 62.08Z" fill="white"/>
</g>
<defs>
<clipPath id="clip0_834_4878">
<rect width="85.04" height="85.04" fill="white"/>
</clipPath>
</defs>
</svg>
