<svg width="35" height="35" viewBox="0 0 35 35" fill="none" xmlns="http://www.w3.org/2000/svg">
<g clip-path="url(#clip0_685_571)">
<path d="M24.6325 32.189C23.0397 32.1882 21.4829 31.7151 20.1589 30.8295C18.8349 29.944 17.8031 28.6858 17.1941 27.214C16.5852 25.7421 16.4262 24.1228 16.7375 22.5607C17.0487 20.9985 17.8162 19.5637 18.9428 18.4377C20.0694 17.3117 21.5045 16.545 23.0668 16.2345C24.6291 15.9241 26.2484 16.0838 27.7199 16.6936C29.1914 17.3033 30.4491 18.3357 31.334 19.6601C32.2188 20.9846 32.6911 22.5417 32.6911 24.1345C32.6889 26.2707 31.8391 28.3188 30.3282 29.8289C28.8172 31.3391 26.7688 32.1879 24.6325 32.189ZM24.6325 16.8826C23.1984 16.8835 21.7968 17.3095 20.6047 18.1068C19.4127 18.9041 18.4839 20.037 17.9356 21.3622C17.3874 22.6874 17.2443 24.1454 17.5246 25.5518C17.8049 26.9583 18.4959 28.25 19.5103 29.2638C20.5246 30.2776 21.8168 30.9679 23.2234 31.2474C24.63 31.5268 26.0879 31.383 27.4128 30.834C28.7377 30.285 29.87 29.3555 30.6667 28.163C31.4633 26.9706 31.8885 25.5686 31.8885 24.1345C31.8875 22.2101 31.1228 20.3647 29.7624 19.0035C28.4019 17.6423 26.557 16.8766 24.6325 16.8744V16.8826Z" fill="#AFAFAF"/>
<path d="M24.6325 30.9626C23.2822 30.9618 21.9625 30.5606 20.8402 29.8099C19.7179 29.0591 18.8434 27.9924 18.3272 26.7447C17.8111 25.497 17.6764 24.1242 17.9404 22.8C18.2043 21.4758 18.8549 20.2595 19.81 19.3051C20.765 18.3506 21.9817 17.7007 23.3061 17.4375C24.6304 17.1744 26.0031 17.3099 27.2505 17.8268C28.4979 18.3437 29.5641 19.2189 30.3142 20.3416C31.0642 21.4644 31.4646 22.7843 31.4646 24.1346C31.4624 25.9455 30.7418 27.6816 29.4609 28.9618C28.1799 30.2419 26.4434 30.9615 24.6325 30.9626ZM24.6325 18.1092C23.4408 18.1092 22.2758 18.4626 21.285 19.1247C20.2941 19.7867 19.5218 20.7278 19.0658 21.8288C18.6097 22.9298 18.4904 24.1413 18.7229 25.3101C18.9554 26.4789 19.5292 27.5525 20.3719 28.3952C21.2146 29.2379 22.2882 29.8117 23.457 30.0442C24.6258 30.2767 25.8373 30.1574 26.9383 29.7014C28.0393 29.2453 28.9804 28.473 29.6424 27.4821C30.3045 26.4913 30.6579 25.3263 30.6579 24.1346C30.6557 22.5372 30.0202 21.0059 28.8907 19.8764C27.7612 18.7469 26.2299 18.1114 24.6325 18.1092Z" fill="#AFAFAF"/>
<path d="M22.373 34.9835H4.96355C3.65173 34.9825 2.39359 34.4626 1.46368 33.5373C0.533777 32.612 0.00760745 31.3565 0 30.0447L0 4.96355C0.00108992 3.64747 0.524384 2.3856 1.45499 1.45499C2.3856 0.524384 3.64747 0.00108992 4.96355 0L17.5412 0C17.6491 0.00045463 17.7526 0.0433202 17.8293 0.119356L27.2172 9.50729C27.2555 9.54393 27.2858 9.58804 27.3064 9.63689C27.3269 9.68574 27.3372 9.73829 27.3365 9.79127V16.7221C27.3365 16.8313 27.2932 16.936 27.216 17.0132C27.1388 17.0903 27.0341 17.1337 26.925 17.1337C26.8158 17.1337 26.7111 17.0903 26.6339 17.0132C26.5568 16.936 26.5134 16.8313 26.5134 16.7221V9.96002L17.3765 0.823142H4.96355C3.86777 0.830688 2.81902 1.26933 2.04418 2.04418C1.26933 2.81902 0.830688 3.86777 0.823142 4.96355V30.0447C0.827451 31.1426 1.26466 32.1945 2.03986 32.972C2.81505 33.7495 3.86565 34.1899 4.96355 34.1974H22.373C23.155 34.1996 23.9217 33.9804 24.5844 33.5653C25.2472 33.1502 25.7789 32.556 26.1183 31.8515L26.3405 31.3411C26.3854 31.246 26.465 31.1717 26.563 31.1334C26.661 31.0951 26.7699 31.0958 26.8674 31.1353C26.9642 31.1795 27.0402 31.2595 27.0793 31.3585C27.1185 31.4575 27.1177 31.5678 27.0773 31.6663L26.8468 32.189C26.4356 33.0254 25.7988 33.7303 25.0083 34.2241C24.2178 34.7179 23.3051 34.9809 22.373 34.9835Z" fill="#AFAFAF"/>
<path d="M26.9332 10.1947H22.1013C20.786 10.1925 19.5252 9.66872 18.5954 8.73822C17.6657 7.80773 17.143 6.54649 17.1419 5.23112V0.411625C17.1444 0.333151 17.1693 0.25703 17.2137 0.192244C17.258 0.127459 17.32 0.0767131 17.3922 0.0459937C17.4645 0.0152743 17.544 0.00586358 17.6215 0.018872C17.6989 0.0318803 17.771 0.066765 17.8292 0.11941L27.2172 9.50735C27.2725 9.5637 27.3105 9.6348 27.3266 9.71216C27.3426 9.78953 27.3361 9.86987 27.3077 9.94361C27.2765 10.0174 27.2244 10.0804 27.1579 10.125C27.0914 10.1696 27.0133 10.1938 26.9332 10.1947ZM17.9445 1.3747V5.23112C17.9456 6.33326 18.3839 7.38994 19.1632 8.16927C19.9425 8.9486 20.9992 9.3869 22.1013 9.38799H25.9619L17.9445 1.3747Z" fill="#AFAFAF"/>
<path d="M34.5966 34.9835C34.4901 34.982 34.3883 34.9392 34.3127 34.8642L29.559 30.127C29.5069 30.0939 29.4629 30.0496 29.4302 29.9973C29.3976 29.945 29.3771 29.886 29.3703 29.8246C29.3635 29.7633 29.3706 29.7013 29.391 29.643C29.4115 29.5848 29.4447 29.532 29.4883 29.4883C29.532 29.4447 29.5848 29.4115 29.643 29.391C29.7013 29.3706 29.7633 29.3635 29.8246 29.3703C29.886 29.3771 29.945 29.3976 29.9973 29.4302C30.0496 29.4629 30.0939 29.5069 30.127 29.559L34.8806 34.3127C34.9281 34.3707 34.9589 34.4406 34.9696 34.5148C34.9802 34.589 34.9704 34.6648 34.9412 34.7338C34.912 34.8029 34.8644 34.8626 34.8037 34.9067C34.743 34.9507 34.6714 34.9772 34.5966 34.9835Z" fill="#AFAFAF"/>
<path d="M15.6726 6.78673H4.65897C4.59869 6.80047 4.5361 6.80045 4.47583 6.78668C4.41557 6.77291 4.35918 6.74574 4.31085 6.70719C4.26253 6.66863 4.22351 6.61969 4.19669 6.56399C4.16987 6.50829 4.15594 6.44727 4.15594 6.38545C4.15594 6.32363 4.16987 6.2626 4.19669 6.2069C4.22351 6.1512 4.26253 6.10226 4.31085 6.06371C4.35918 6.02516 4.41557 5.99799 4.47583 5.98422C4.5361 5.97045 4.59869 5.97043 4.65897 5.98417H15.6726C15.7329 5.97043 15.7955 5.97045 15.8557 5.98422C15.916 5.99799 15.9724 6.02516 16.0207 6.06371C16.0691 6.10226 16.1081 6.1512 16.1349 6.2069C16.1617 6.2626 16.1756 6.32363 16.1756 6.38545C16.1756 6.44727 16.1617 6.50829 16.1349 6.56399C16.1081 6.61969 16.0691 6.66863 16.0207 6.70719C15.9724 6.74574 15.916 6.77291 15.8557 6.78668C15.7955 6.80045 15.7329 6.80047 15.6726 6.78673Z" fill="#AFAFAF"/>
<path d="M15.6726 11.2853H4.65901C4.54985 11.2853 4.44517 11.2419 4.36798 11.1648C4.2908 11.0876 4.24744 10.9829 4.24744 10.8737C4.24744 10.7646 4.2908 10.6599 4.36798 10.5827C4.44517 10.5055 4.54985 10.4622 4.65901 10.4622H15.6726C15.7818 10.4622 15.8865 10.5055 15.9637 10.5827C16.0409 10.6599 16.0842 10.7646 16.0842 10.8737C16.0842 10.9829 16.0409 11.0876 15.9637 11.1648C15.8865 11.2419 15.7818 11.2853 15.6726 11.2853Z" fill="#AFAFAF"/>
<path d="M19.6443 15.7797H4.65901C4.54985 15.7797 4.44517 15.7363 4.36798 15.6591C4.2908 15.582 4.24744 15.4773 4.24744 15.3681C4.24744 15.259 4.2908 15.1543 4.36798 15.0771C4.44517 14.9999 4.54985 14.9565 4.65901 14.9565H19.6443C19.7535 14.9565 19.8581 14.9999 19.9353 15.0771C20.0125 15.1543 20.0559 15.259 20.0559 15.3681C20.0559 15.4773 20.0125 15.582 19.9353 15.6591C19.8581 15.7363 19.7535 15.7797 19.6443 15.7797Z" fill="#AFAFAF"/>
<path d="M17.0267 20.274H4.67954C4.61926 20.2878 4.55667 20.2878 4.4964 20.274C4.43614 20.2602 4.37975 20.233 4.33142 20.1945C4.2831 20.1559 4.24408 20.107 4.21726 20.0513C4.19044 19.9956 4.17651 19.9346 4.17651 19.8728C4.17651 19.8109 4.19044 19.7499 4.21726 19.6942C4.24408 19.6385 4.2831 19.5896 4.33142 19.551C4.37975 19.5125 4.43614 19.4853 4.4964 19.4715C4.55667 19.4578 4.61926 19.4577 4.67954 19.4715H17.0267C17.1176 19.4922 17.1988 19.5432 17.257 19.6161C17.3151 19.689 17.3468 19.7795 17.3468 19.8728C17.3468 19.966 17.3151 20.0565 17.257 20.1294C17.1988 20.2023 17.1176 20.2533 17.0267 20.274Z" fill="#AFAFAF"/>
<path d="M15.6726 24.7724H4.65901C4.54985 24.7724 4.44517 24.729 4.36798 24.6518C4.2908 24.5746 4.24744 24.4699 4.24744 24.3608C4.24744 24.2516 4.2908 24.147 4.36798 24.0698C4.44517 23.9926 4.54985 23.9492 4.65901 23.9492H15.6726C15.7818 23.9492 15.8865 23.9926 15.9637 24.0698C16.0409 24.147 16.0842 24.2516 16.0842 24.3608C16.0842 24.4699 16.0409 24.5746 15.9637 24.6518C15.8865 24.729 15.7818 24.7724 15.6726 24.7724Z" fill="#AFAFAF"/>
<path d="M15.6726 29.2669H4.65901C4.54985 29.2669 4.44517 29.2235 4.36798 29.1463C4.2908 29.0691 4.24744 28.9645 4.24744 28.8553C4.24744 28.7461 4.2908 28.6415 4.36798 28.5643C4.44517 28.4871 4.54985 28.4437 4.65901 28.4437H15.6726C15.7818 28.4437 15.8865 28.4871 15.9637 28.5643C16.0409 28.6415 16.0842 28.7461 16.0842 28.8553C16.0842 28.9645 16.0409 29.0691 15.9637 29.1463C15.8865 29.2235 15.7818 29.2669 15.6726 29.2669Z" fill="#AFAFAF"/>
</g>
<defs>
<clipPath id="clip0_685_571">
<rect width="35" height="35" fill="white"/>
</clipPath>
</defs>
</svg>
