<svg width="35" height="35" viewBox="0 0 35 35" fill="none" xmlns="http://www.w3.org/2000/svg">
<g clip-path="url(#clip0_1141_6313)">
<path d="M22.5046 26.4762C22.2787 26.4762 22.0938 26.291 22.0938 26.0646C22.0938 24.5212 23.347 23.27 24.8837 23.27H34.0179C34.2439 23.27 34.4288 23.4552 34.4288 23.6816C34.4288 23.908 34.2439 24.0932 34.0179 24.0932H24.8837C23.799 24.0932 22.9155 24.978 22.9155 26.0646C22.9155 26.291 22.7306 26.4762 22.5046 26.4762Z" fill="#AFAFAF"/>
<path d="M31.3966 33.3785H22.2625C22.0365 33.3785 21.8516 33.1933 21.8516 32.9669C21.8516 32.7406 22.0365 32.5554 22.2625 32.5554H31.3966C32.4814 32.5554 33.3648 31.6705 33.3648 30.5839C33.3648 30.3576 33.5497 30.1724 33.7757 30.1724C34.0017 30.1724 34.1866 30.3576 34.1866 30.5839C34.1866 32.1273 32.9334 33.3785 31.3966 33.3785Z" fill="#AFAFAF"/>
<path d="M34.5275 0.823142H0.410895C0.184903 0.823142 0 0.637935 0 0.411571C0 0.185207 0.184903 0 0.410895 0H34.5234C34.7494 0 34.9343 0.185207 34.9343 0.411571C34.9343 0.637935 34.7494 0.823142 34.5234 0.823142H34.5275Z" fill="#AFAFAF"/>
<path d="M30.6116 6.51943H0.410895C0.184903 6.51943 0 6.33422 0 6.10786C0 5.8815 0.184903 5.69629 0.410895 5.69629H30.6116C30.8376 5.69629 31.0225 5.8815 31.0225 6.10786C31.0225 6.33422 30.8376 6.51943 30.6116 6.51943Z" fill="#AFAFAF"/>
<path d="M26.6999 12.2152H0.410895C0.184903 12.2152 0 12.03 0 11.8037C0 11.5773 0.184903 11.3921 0.410895 11.3921H26.6999C26.9259 11.3921 27.1108 11.5773 27.1108 11.8037C27.1108 12.03 26.9259 12.2152 26.6999 12.2152Z" fill="#AFAFAF"/>
<path d="M22.7882 17.9115H0.410895C0.184903 17.9115 0 17.7263 0 17.5C0 17.2736 0.184903 17.0884 0.410895 17.0884H22.7841C23.0101 17.0884 23.195 17.2736 23.195 17.5C23.195 17.7263 23.0101 17.9115 22.7841 17.9115H22.7882Z" fill="#AFAFAF"/>
<path d="M18.8724 23.6078H0.410895C0.184903 23.6078 0 23.4226 0 23.1962C0 22.9699 0.184903 22.7847 0.410895 22.7847H18.8724C19.0984 22.7847 19.2833 22.9699 19.2833 23.1962C19.2833 23.4226 19.0984 23.6078 18.8724 23.6078Z" fill="#AFAFAF"/>
<path d="M14.9607 29.3036H0.410895C0.184903 29.3036 0 29.1225 0 28.892C0 28.6616 0.184903 28.4805 0.410895 28.4805H14.9607C15.1867 28.4805 15.3716 28.6657 15.3716 28.892C15.3716 29.1184 15.1867 29.3036 14.9607 29.3036Z" fill="#AFAFAF"/>
<path d="M11.0448 34.9999H0.410895C0.184903 34.9999 0 34.8147 0 34.5883C0 34.362 0.184903 34.1768 0.410895 34.1768H11.0448C11.2708 34.1768 11.4557 34.362 11.4557 34.5883C11.4557 34.8147 11.2708 34.9999 11.0448 34.9999Z" fill="#AFAFAF"/>
<path d="M32.9699 25.7109C32.8631 25.7109 32.7604 25.6697 32.6782 25.5915C32.518 25.431 32.518 25.1717 32.6782 25.0112L34.0054 23.6819L32.67 22.3443C32.5097 22.1837 32.5097 21.9245 32.67 21.7639C32.8302 21.6034 33.0891 21.6034 33.2494 21.7639L34.8765 23.3938C35.0367 23.5543 35.0367 23.8136 34.8765 23.9741L33.2576 25.5957C33.1754 25.678 33.0727 25.715 32.9658 25.715L32.9699 25.7109Z" fill="#AFAFAF"/>
<path d="M23.8853 35.0002C23.7784 35.0002 23.6757 34.959 23.5935 34.8808L21.9664 33.251C21.8061 33.0905 21.8061 32.8312 21.9664 32.6707L23.5853 31.0491C23.7456 30.8886 24.0044 30.8886 24.1647 31.0491C24.3249 31.2096 24.3249 31.4689 24.1647 31.6294L22.8375 32.9588L24.1729 34.2964C24.3331 34.4569 24.3331 34.7162 24.1729 34.8767C24.0907 34.959 23.988 34.9961 23.8811 34.9961L23.8853 35.0002Z" fill="#AFAFAF"/>
</g>
<defs>
<clipPath id="clip0_1141_6313">
<rect width="35" height="35" fill="white"/>
</clipPath>
</defs>
</svg>
