<svg width="14" height="13" viewBox="0 0 14 13" fill="none" xmlns="http://www.w3.org/2000/svg">
<g clip-path="url(#clip0_720_492)">
<path d="M10.903 8.47474C10.8656 8.47474 10.8296 8.49025 10.8031 8.51786C10.7766 8.54546 10.7617 8.58291 10.7617 8.62195V10.7462C10.761 11.1405 10.6102 11.5184 10.3424 11.7971C10.0746 12.0758 9.71168 12.2326 9.33315 12.2329H1.70272C1.32566 12.2302 0.964899 12.0725 0.698937 11.794C0.432976 11.5156 0.283345 11.139 0.282609 10.7462V1.77533C0.2852 1.3834 0.435798 1.0083 0.701826 0.731155C0.967853 0.454014 1.32792 0.297124 1.70413 0.294425H9.33456C9.71249 0.294415 10.0751 0.450109 10.3432 0.727541C10.6114 1.00497 10.7634 1.38163 10.766 1.77533V4.81516C10.766 4.85421 10.7809 4.89165 10.8074 4.91926C10.8339 4.94686 10.8698 4.96237 10.9073 4.96237C10.9448 4.96237 10.9807 4.94686 11.0072 4.91926C11.0337 4.89165 11.0486 4.85421 11.0486 4.81516V1.77533C11.0484 1.54163 11.004 1.31026 10.9178 1.09447C10.8317 0.878686 10.7055 0.682726 10.5465 0.517814C10.3876 0.352903 10.199 0.22228 9.99148 0.133426C9.784 0.0445729 9.56172 -0.000764816 9.33739 9.75979e-06H1.70696C1.48298 -0.000183636 1.26116 0.045583 1.05417 0.134697C0.847168 0.22381 0.659047 0.354526 0.500541 0.519379C0.342036 0.684233 0.21625 0.879997 0.130367 1.09549C0.0444844 1.31099 0.000185487 1.542 0 1.77533L0 10.7462C0.00261186 11.2153 0.183261 11.6644 0.502525 11.9954C0.821788 12.3263 1.25375 12.5123 1.70413 12.5126H9.33456C9.78544 12.513 10.2181 12.3274 10.538 11.9964C10.8579 11.6654 11.0389 11.2159 11.0415 10.7462V8.619C11.0408 8.58098 11.026 8.54472 11.0002 8.51783C10.9743 8.49094 10.9395 8.47549 10.903 8.47474Z" fill="white"/>
<path d="M9.11974 1.8092H1.9217C1.88422 1.8092 1.84828 1.82471 1.82178 1.85232C1.79528 1.87993 1.7804 1.91737 1.7804 1.95641C1.7804 1.99545 1.79528 2.0329 1.82178 2.0605C1.84828 2.08811 1.88422 2.10362 1.9217 2.10362H9.11974C9.15722 2.10362 9.19316 2.08811 9.21966 2.0605C9.24616 2.0329 9.26105 1.99545 9.26105 1.95641C9.26105 1.91737 9.24616 1.87993 9.21966 1.85232C9.19316 1.82471 9.15722 1.8092 9.11974 1.8092Z" fill="white"/>
<path d="M9.11974 3.50793H1.9217C1.88422 3.50793 1.84828 3.52344 1.82178 3.55105C1.79528 3.57866 1.7804 3.6161 1.7804 3.65514C1.7804 3.69418 1.79528 3.73163 1.82178 3.75923C1.84828 3.78684 1.88422 3.80235 1.9217 3.80235H9.11974C9.15722 3.80235 9.19316 3.78684 9.21966 3.75923C9.24616 3.73163 9.26105 3.69418 9.26105 3.65514C9.26105 3.6161 9.24616 3.57866 9.21966 3.55105C9.19316 3.52344 9.15722 3.50793 9.11974 3.50793Z" fill="white"/>
<path d="M9.25822 5.34948C9.25822 5.31044 9.24333 5.27299 9.21683 5.24539C9.19034 5.21778 9.15439 5.20227 9.11692 5.20227H1.9217C1.88422 5.20227 1.84828 5.21778 1.82178 5.24539C1.79528 5.27299 1.7804 5.31044 1.7804 5.34948C1.7804 5.38852 1.79528 5.42596 1.82178 5.45357C1.84828 5.48118 1.88422 5.49669 1.9217 5.49669H9.11974C9.15673 5.49591 9.19195 5.48007 9.21784 5.45254C9.24373 5.42502 9.25823 5.38801 9.25822 5.34948Z" fill="white"/>
<path d="M7.41279 7.04833C7.41279 7.00929 7.3979 6.97185 7.3714 6.94424C7.3449 6.91663 7.30896 6.90112 7.27148 6.90112H1.9217C1.88422 6.90112 1.84828 6.91663 1.82178 6.94424C1.79528 6.97185 1.7804 7.00929 1.7804 7.04833C1.7804 7.08737 1.79528 7.12482 1.82178 7.15242C1.84828 7.18003 1.88422 7.19554 1.9217 7.19554H7.27431C7.31129 7.19477 7.34651 7.17892 7.3724 7.15139C7.39829 7.12387 7.41279 7.08687 7.41279 7.04833Z" fill="white"/>
<path d="M5.06572 8.60278H1.9217C1.88422 8.60278 1.84828 8.61829 1.82178 8.6459C1.79528 8.67351 1.7804 8.71095 1.7804 8.74999C1.7804 8.78903 1.79528 8.82648 1.82178 8.85408C1.84828 8.88169 1.88422 8.8972 1.9217 8.8972H5.06572C5.1032 8.8972 5.13914 8.88169 5.16564 8.85408C5.19214 8.82648 5.20703 8.78903 5.20703 8.74999C5.20703 8.71095 5.19214 8.67351 5.16564 8.6459C5.13914 8.61829 5.1032 8.60278 5.06572 8.60278Z" fill="white"/>
<path d="M5.06572 10.3046H1.9217C1.88422 10.3046 1.84828 10.3201 1.82178 10.3477C1.79528 10.3753 1.7804 10.4127 1.7804 10.4518C1.7804 10.4908 1.79528 10.5283 1.82178 10.5559C1.84828 10.5835 1.88422 10.599 1.9217 10.599H5.06572C5.1032 10.599 5.13914 10.5835 5.16564 10.5559C5.19214 10.5283 5.20703 10.4908 5.20703 10.4518C5.20703 10.4127 5.19214 10.3753 5.16564 10.3477C5.13914 10.3201 5.1032 10.3046 5.06572 10.3046Z" fill="white"/>
</g>
<path d="M12.9657 6.63449C12.5215 5.80275 11.7425 5.29944 10.8804 5.29944C10.0184 5.29944 9.23803 5.80275 8.79777 6.63449L8.76086 6.69724L8.79514 6.76132C9.23935 7.59306 10.0184 8.09638 10.8804 8.09638C11.7425 8.09638 12.5228 7.59974 12.9657 6.76132L13 6.69724L12.9657 6.63449Z" stroke="white" stroke-width="0.5" stroke-linejoin="round"/>
<path d="M10.9511 7.65479C11.4583 7.65479 11.8695 7.22639 11.8695 6.69794C11.8695 6.16948 11.4583 5.74109 10.9511 5.74109C10.4438 5.74109 10.0326 6.16948 10.0326 6.69794C10.0326 7.22639 10.4438 7.65479 10.9511 7.65479Z" fill="white"/>
<defs>
<clipPath id="clip0_720_492">
<rect width="12.0165" height="12.5185" fill="white"/>
</clipPath>
</defs>
</svg>
