<svg width="20" height="20" viewBox="0 0 20 20" fill="none" xmlns="http://www.w3.org/2000/svg">
<g clip-path="url(#clip0_685_413)">
<path d="M18.2949 2.9539H13.5701V1.70743C13.5701 1.255 13.3905 0.821064 13.0708 0.500926C12.7511 0.180788 12.3174 0.000623184 11.865 0L8.135 0C7.68257 0.000623184 7.24888 0.180788 6.92918 0.500926C6.60948 0.821064 6.42992 1.255 6.42992 1.70743V2.9539H1.70744C1.47804 2.94539 1.24928 2.98321 1.03483 3.06512C0.820385 3.14703 0.624658 3.27135 0.459353 3.43063C0.294048 3.58991 0.162558 3.78089 0.0727467 3.99215C-0.0170649 4.2034 -0.0633545 4.4306 -0.0633545 4.66016C-0.0633545 4.88972 -0.0170649 5.11692 0.0727467 5.32817C0.162558 5.53943 0.294048 5.73041 0.459353 5.88969C0.624658 6.04897 0.820385 6.17329 1.03483 6.2552C1.24928 6.33711 1.47804 6.37493 1.70744 6.36642H2.1778V17.1684C2.18216 17.9192 2.48379 18.6377 3.01669 19.1667C3.54959 19.6956 4.27034 19.9918 5.02117 19.9906H14.9812C15.7304 19.9894 16.4487 19.692 16.9796 19.1633C17.5105 18.6347 17.8108 17.9176 17.8151 17.1684V6.36642H18.2855C18.7271 6.35002 19.1451 6.16308 19.4517 5.84488C19.7583 5.52669 19.9296 5.10203 19.9296 4.66016C19.9296 4.21829 19.7583 3.79363 19.4517 3.47544C19.1451 3.15724 18.7271 2.9703 18.2855 2.9539H18.2949ZM6.88853 1.70743C6.89162 1.37867 7.02424 1.06439 7.25759 0.832798C7.49095 0.601202 7.80622 0.470971 8.135 0.470367H11.865C12.1958 0.47099 12.5128 0.602837 12.7465 0.836969C12.9802 1.0711 13.1115 1.38839 13.1115 1.71919V2.96566H6.88853V1.70743ZM17.3565 17.1684C17.3547 17.7976 17.1037 18.4004 16.6586 18.8451C16.2135 19.2898 15.6104 19.5402 14.9812 19.5414H5.02117C4.39176 19.5402 3.78841 19.2899 3.34291 18.8453C2.8974 18.4007 2.64595 17.7978 2.64347 17.1684V6.36642H17.3565V17.1684ZM18.2973 5.91016H1.70744C1.37685 5.91016 1.05981 5.77884 0.826046 5.54508C0.592287 5.31132 0.460963 4.99427 0.460963 4.66369C0.460963 4.3331 0.592287 4.01606 0.826046 3.7823C1.05981 3.54854 1.37685 3.41722 1.70744 3.41722H18.2949C18.6255 3.41722 18.9426 3.54854 19.1763 3.7823C19.4101 4.01606 19.5414 4.3331 19.5414 4.66369C19.5414 4.99427 19.4101 5.31132 19.1763 5.54508C18.9426 5.77884 18.6255 5.91016 18.2949 5.91016H18.2973Z" fill="black"/>
<path d="M4.90828 17.6106C4.97065 17.6106 5.03047 17.5858 5.07458 17.5417C5.11868 17.4976 5.14346 17.4377 5.14346 17.3754V8.25496C5.14346 8.19258 5.11868 8.13277 5.07458 8.08866C5.03047 8.04455 4.97065 8.01978 4.90828 8.01978C4.8459 8.01978 4.78608 8.04455 4.74198 8.08866C4.69787 8.13277 4.6731 8.19258 4.6731 8.25496V17.3824C4.67493 17.4436 4.70052 17.5016 4.74442 17.5442C4.78833 17.5868 4.84711 17.6106 4.90828 17.6106Z" fill="black"/>
<path d="M7.45534 17.6106C7.48622 17.6106 7.5168 17.6045 7.54534 17.5927C7.57387 17.5808 7.5998 17.5635 7.62164 17.5417C7.64348 17.5198 7.6608 17.4939 7.67262 17.4654C7.68444 17.4368 7.69052 17.4063 7.69052 17.3754V8.25496C7.69052 8.19258 7.66574 8.13277 7.62164 8.08866C7.57753 8.04455 7.51771 8.01978 7.45534 8.01978C7.39296 8.01978 7.33314 8.04455 7.28904 8.08866C7.24493 8.13277 7.22015 8.19258 7.22015 8.25496V17.3824C7.22199 17.4436 7.24757 17.5016 7.29148 17.5442C7.33539 17.5868 7.39417 17.6106 7.45534 17.6106Z" fill="black"/>
<path d="M10 17.6106C10.0624 17.6106 10.1222 17.5858 10.1663 17.5417C10.2104 17.4976 10.2352 17.4377 10.2352 17.3754V8.25496C10.2352 8.19258 10.2104 8.13277 10.1663 8.08866C10.1222 8.04455 10.0624 8.01978 10 8.01978C9.93764 8.01978 9.87782 8.04455 9.83372 8.08866C9.78961 8.13277 9.76483 8.19258 9.76483 8.25496V17.3824C9.76667 17.4436 9.79225 17.5016 9.83616 17.5442C9.88007 17.5868 9.93884 17.6106 10 17.6106Z" fill="black"/>
<path d="M12.547 17.6106C12.6094 17.6106 12.6692 17.5858 12.7133 17.5417C12.7574 17.4976 12.7822 17.4377 12.7822 17.3754V8.25496C12.7822 8.19258 12.7574 8.13277 12.7133 8.08866C12.6692 8.04455 12.6094 8.01978 12.547 8.01978C12.4846 8.01978 12.4248 8.04455 12.3807 8.08866C12.3366 8.13277 12.3118 8.19258 12.3118 8.25496V17.3824C12.3137 17.4436 12.3393 17.5016 12.3832 17.5442C12.4271 17.5868 12.4858 17.6106 12.547 17.6106Z" fill="black"/>
<path d="M15.0918 17.6106C15.1541 17.6106 15.2139 17.5858 15.2581 17.5417C15.3022 17.4976 15.3269 17.4377 15.3269 17.3754V8.25496C15.3269 8.19258 15.3022 8.13277 15.2581 8.08866C15.2139 8.04455 15.1541 8.01978 15.0918 8.01978C15.0294 8.01978 14.9696 8.04455 14.9255 8.08866C14.8813 8.13277 14.8566 8.19258 14.8566 8.25496V17.3824C14.8584 17.4436 14.884 17.5016 14.9279 17.5442C14.9718 17.5868 15.0306 17.6106 15.0918 17.6106Z" fill="black"/>
</g>
<defs>
<clipPath id="clip0_685_413">
<rect width="20" height="20" fill="white"/>
</clipPath>
</defs>
</svg>
