<svg width="14" height="15" viewBox="0 0 14 15" fill="none" xmlns="http://www.w3.org/2000/svg">
<g clip-path="url(#clip0_291_5064)">
<path d="M9.85307 13.3756C9.21593 13.3752 8.59319 13.186 8.06359 12.8318C7.53399 12.4776 7.1213 11.9743 6.87771 11.3856C6.63411 10.7968 6.57054 10.1491 6.69504 9.52424C6.81954 8.89938 7.12652 8.32547 7.57715 7.87506C8.02779 7.42465 8.60186 7.11797 9.22678 6.99379C9.8517 6.86961 10.4994 6.93351 11.088 7.17741C11.6766 7.42131 12.1797 7.83425 12.5336 8.36403C12.8876 8.89382 13.0765 9.51665 13.0765 10.1538C13.0756 11.0083 12.7357 11.8275 12.1313 12.4315C11.5269 13.0356 10.7076 13.3751 9.85307 13.3756ZM9.85307 7.25303C9.27942 7.25336 8.71875 7.42376 8.24194 7.7427C7.76514 8.06163 7.39359 8.51478 7.1743 9.04486C6.955 9.57493 6.89779 10.1581 7.0099 10.7207C7.12201 11.2833 7.39841 11.8 7.80415 12.2055C8.2099 12.611 8.72676 12.8871 9.28941 12.9989C9.85206 13.1107 10.4352 13.0532 10.9652 12.8336C11.4951 12.614 11.948 12.2422 12.2667 11.7652C12.5854 11.2882 12.7555 10.7274 12.7555 10.1538C12.755 9.384 12.4492 8.64585 11.905 8.10138C11.3608 7.55691 10.6228 7.25061 9.85307 7.24974V7.25303Z" fill="#AFAFAF"/>
<path d="M9.85295 12.885C9.31285 12.8847 8.78496 12.7242 8.33604 12.4239C7.88711 12.1236 7.53731 11.6969 7.33084 11.1978C7.12438 10.6987 7.07052 10.1496 7.17609 9.61996C7.28166 9.09027 7.54191 8.60377 7.92394 8.22197C8.30597 7.84017 8.79262 7.58022 9.32238 7.47497C9.85213 7.36972 10.4012 7.4239 10.9002 7.63066C11.3991 7.83743 11.8256 8.18749 12.1256 8.6366C12.4256 9.0857 12.5858 9.61369 12.5858 10.1538C12.5849 10.8782 12.2967 11.5726 11.7843 12.0847C11.2719 12.5967 10.5773 12.8845 9.85295 12.885ZM9.85295 7.74363C9.37627 7.74363 8.91029 7.88499 8.51394 8.14982C8.11759 8.41465 7.80867 8.79107 7.62626 9.23146C7.44384 9.67186 7.39611 10.1565 7.4891 10.624C7.5821 11.0915 7.81165 11.521 8.14871 11.858C8.48578 12.1951 8.91523 12.4246 9.38275 12.5176C9.85028 12.6106 10.3349 12.5629 10.7753 12.3805C11.2157 12.1981 11.5921 11.8892 11.8569 11.4928C12.1218 11.0965 12.2631 10.6305 12.2631 10.1538C12.2622 9.51485 12.008 8.90232 11.5562 8.45051C11.1044 7.99871 10.4919 7.7445 9.85295 7.74363Z" fill="#AFAFAF"/>
<path d="M8.9492 14.4934H1.98542C1.46069 14.493 0.957435 14.285 0.585473 13.9149C0.213511 13.5448 0.00304298 13.0426 0 12.5179L0 2.48542C0.000435969 1.95899 0.209753 1.45424 0.581997 1.082C0.954241 0.709753 1.45899 0.500436 1.98542 0.5L7.01646 0.5C7.05965 0.500182 7.10104 0.517328 7.1317 0.547742L10.8869 4.30292C10.9022 4.31757 10.9143 4.33522 10.9225 4.35476C10.9308 4.3743 10.9349 4.39532 10.9346 4.41651V7.18885C10.9346 7.23251 10.9173 7.27439 10.8864 7.30526C10.8555 7.33614 10.8137 7.35348 10.77 7.35348C10.7263 7.35348 10.6845 7.33614 10.6536 7.30526C10.6227 7.27439 10.6054 7.23251 10.6054 7.18885V4.48401L6.95061 0.829257H1.98542C1.54711 0.832275 1.12761 1.00773 0.817671 1.31767C0.507732 1.62761 0.332275 2.04711 0.329257 2.48542V12.5179C0.33098 12.957 0.505866 13.3778 0.815943 13.6888C1.12602 13.9998 1.54626 14.1759 1.98542 14.179H8.9492C9.26201 14.1798 9.56867 14.0922 9.83377 13.9261C10.0989 13.7601 10.3116 13.5224 10.4473 13.2406L10.5362 13.0365C10.5542 12.9984 10.586 12.9687 10.6252 12.9534C10.6644 12.9381 10.708 12.9383 10.7469 12.9541C10.7857 12.9718 10.8161 13.0038 10.8317 13.0434C10.8474 13.083 10.8471 13.1271 10.8309 13.1665L10.7387 13.3756C10.5742 13.7102 10.3195 13.9921 10.0033 14.1896C9.68713 14.3872 9.32202 14.4924 8.9492 14.4934Z" fill="#AFAFAF"/>
<path d="M10.7733 4.57784H8.84058C8.31444 4.57697 7.81011 4.36746 7.43823 3.99527C7.06634 3.62307 6.85725 3.11857 6.85681 2.59242V0.664626C6.85781 0.633236 6.86777 0.602787 6.88552 0.576873C6.90326 0.550959 6.92804 0.530661 6.95694 0.518373C6.98585 0.506085 7.01766 0.502321 7.04863 0.507524C7.0796 0.512728 7.10844 0.526682 7.13174 0.547739L10.8869 4.30291C10.9091 4.32546 10.9243 4.3539 10.9307 4.38484C10.9371 4.41579 10.9345 4.44792 10.9231 4.47742C10.9106 4.50692 10.8898 4.53213 10.8632 4.54997C10.8366 4.56781 10.8054 4.5775 10.7733 4.57784ZM7.17784 1.04986V2.59242C7.17827 3.03328 7.35359 3.45595 7.66533 3.76768C7.97706 4.07941 8.39973 4.25474 8.84058 4.25517H10.3848L7.17784 1.04986Z" fill="#AFAFAF"/>
<path d="M13.8386 14.4934C13.796 14.4927 13.7553 14.4756 13.725 14.4456L11.8236 12.5507C11.8027 12.5375 11.7851 12.5198 11.772 12.4989C11.759 12.4779 11.7508 12.4543 11.7481 12.4298C11.7454 12.4053 11.7482 12.3805 11.7564 12.3572C11.7645 12.3339 11.7778 12.3127 11.7953 12.2953C11.8127 12.2778 11.8339 12.2645 11.8572 12.2564C11.8805 12.2482 11.9053 12.2454 11.9298 12.2481C11.9543 12.2508 11.9779 12.259 11.9989 12.272C12.0198 12.2851 12.0375 12.3027 12.0507 12.3236L13.9522 14.225C13.9712 14.2482 13.9835 14.2762 13.9878 14.3059C13.992 14.3356 13.9881 14.3659 13.9764 14.3935C13.9647 14.4211 13.9457 14.445 13.9214 14.4626C13.8971 14.4802 13.8685 14.4908 13.8386 14.4934Z" fill="#AFAFAF"/>
<path d="M6.26902 3.21467H1.86356C1.83945 3.22016 1.81442 3.22016 1.79031 3.21465C1.7662 3.20914 1.74365 3.19827 1.72432 3.18285C1.70499 3.16743 1.68938 3.14785 1.67865 3.12557C1.66792 3.10329 1.66235 3.07888 1.66235 3.05415C1.66235 3.02943 1.66792 3.00502 1.67865 2.98274C1.68938 2.96046 1.70499 2.94088 1.72432 2.92546C1.74365 2.91004 1.7662 2.89917 1.79031 2.89366C1.81442 2.88815 1.83945 2.88815 1.86356 2.89364H6.26902C6.29313 2.88815 6.31817 2.88815 6.34227 2.89366C6.36638 2.89917 6.38894 2.91004 6.40827 2.92546C6.4276 2.94088 6.4432 2.96046 6.45393 2.98274C6.46466 3.00502 6.47023 3.02943 6.47023 3.05415C6.47023 3.07888 6.46466 3.10329 6.45393 3.12557C6.4432 3.14785 6.4276 3.16743 6.40827 3.18285C6.38894 3.19827 6.36638 3.20914 6.34227 3.21465C6.31817 3.22016 6.29313 3.22016 6.26902 3.21467Z" fill="#AFAFAF"/>
<path d="M6.26906 5.01407H1.8636C1.81994 5.01407 1.77807 4.99673 1.74719 4.96585C1.71632 4.93498 1.69897 4.89311 1.69897 4.84944C1.69897 4.80578 1.71632 4.76391 1.74719 4.73303C1.77807 4.70216 1.81994 4.68481 1.8636 4.68481H6.26906C6.31272 4.68481 6.3546 4.70216 6.38547 4.73303C6.41634 4.76391 6.43369 4.80578 6.43369 4.84944C6.43369 4.89311 6.41634 4.93498 6.38547 4.96585C6.3546 4.99673 6.31272 5.01407 6.26906 5.01407Z" fill="#AFAFAF"/>
<path d="M7.85772 6.8118H1.8636C1.81994 6.8118 1.77807 6.79446 1.74719 6.76358C1.71632 6.73271 1.69897 6.69083 1.69897 6.64717C1.69897 6.60351 1.71632 6.56164 1.74719 6.53076C1.77807 6.49989 1.81994 6.48254 1.8636 6.48254H7.85772C7.90139 6.48254 7.94326 6.49989 7.97413 6.53076C8.00501 6.56164 8.02235 6.60351 8.02235 6.64717C8.02235 6.69083 8.00501 6.73271 7.97413 6.76358C7.94326 6.79446 7.90139 6.8118 7.85772 6.8118Z" fill="#AFAFAF"/>
<path d="M6.81072 8.60956H1.87186C1.84775 8.61506 1.82272 8.61505 1.79861 8.60954C1.7745 8.60404 1.75195 8.59317 1.73262 8.57775C1.71329 8.56233 1.69768 8.54275 1.68695 8.52047C1.67622 8.49819 1.67065 8.47378 1.67065 8.44905C1.67065 8.42432 1.67622 8.39991 1.68695 8.37763C1.69768 8.35535 1.71329 8.33578 1.73262 8.32036C1.75195 8.30494 1.7745 8.29407 1.79861 8.28856C1.82272 8.28305 1.84775 8.28304 1.87186 8.28854H6.81072C6.84709 8.29683 6.87957 8.31723 6.90283 8.34639C6.92609 8.37555 6.93876 8.41175 6.93876 8.44905C6.93876 8.48636 6.92609 8.52255 6.90283 8.55172C6.87957 8.58088 6.84709 8.60127 6.81072 8.60956Z" fill="#AFAFAF"/>
<path d="M6.26906 10.409H1.8636C1.81994 10.409 1.77807 10.3916 1.74719 10.3607C1.71632 10.3299 1.69897 10.288 1.69897 10.2443C1.69897 10.2007 1.71632 10.1588 1.74719 10.1279C1.77807 10.0971 1.81994 10.0797 1.8636 10.0797H6.26906C6.31272 10.0797 6.3546 10.0971 6.38547 10.1279C6.41634 10.1588 6.43369 10.2007 6.43369 10.2443C6.43369 10.288 6.41634 10.3299 6.38547 10.3607C6.3546 10.3916 6.31272 10.409 6.26906 10.409Z" fill="#AFAFAF"/>
<path d="M6.26906 12.2067H1.8636C1.81994 12.2067 1.77807 12.1894 1.74719 12.1585C1.71632 12.1276 1.69897 12.0857 1.69897 12.0421C1.69897 11.9984 1.71632 11.9565 1.74719 11.9257C1.77807 11.8948 1.81994 11.8774 1.8636 11.8774H6.26906C6.31272 11.8774 6.3546 11.8948 6.38547 11.9257C6.41634 11.9565 6.43369 11.9984 6.43369 12.0421C6.43369 12.0857 6.41634 12.1276 6.38547 12.1585C6.3546 12.1894 6.31272 12.2067 6.26906 12.2067Z" fill="#AFAFAF"/>
</g>
<defs>
<clipPath id="clip0_291_5064">
<rect width="14" height="14" fill="white" transform="translate(0 0.5)"/>
</clipPath>
</defs>
</svg>
