<svg width="21" height="20" viewBox="0 0 21 20" fill="none" xmlns="http://www.w3.org/2000/svg">
<g clip-path="url(#clip0_720_492)">
<path d="M16.7739 13.0381C16.7163 13.0381 16.661 13.0619 16.6202 13.1044C16.5794 13.1469 16.5565 13.2045 16.5565 13.2645V16.5325C16.5554 17.1392 16.3234 17.7207 15.9114 18.1494C15.4994 18.5782 14.941 18.8193 14.3587 18.8199H2.61957C2.03948 18.8157 1.48446 18.573 1.07529 18.1447C0.666117 17.7163 0.435915 17.1369 0.434783 16.5325V2.73128C0.438769 2.12831 0.670459 1.55122 1.07973 1.12485C1.48901 0.698483 2.04295 0.457113 2.62174 0.452961H14.3609C14.9423 0.452946 15.5001 0.692476 15.9127 1.11929C16.3252 1.54611 16.559 2.12558 16.563 2.73128V7.40794C16.563 7.46801 16.5859 7.52561 16.6267 7.56809C16.6675 7.61056 16.7228 7.63442 16.7804 7.63442C16.8381 7.63442 16.8934 7.61056 16.9342 7.56809C16.9749 7.52561 16.9978 7.46801 16.9978 7.40794V2.73128C16.9975 2.37173 16.9292 2.01578 16.7966 1.6838C16.6641 1.35183 16.47 1.05035 16.2255 0.796638C15.9809 0.542927 15.6907 0.341969 15.3715 0.205271C15.0523 0.0685737 14.7103 -0.00117664 14.3652 1.50151e-05H2.62609C2.28151 -0.000282517 1.94025 0.0701277 1.62179 0.207226C1.30334 0.344323 1.01392 0.545424 0.770063 0.799045C0.526209 1.05267 0.332693 1.35384 0.200565 1.68538C0.0684375 2.01691 0.000285364 2.37231 0 2.73128L0 16.5325C0.00401825 17.2544 0.28194 17.9453 0.773115 18.4544C1.26429 18.9635 1.92884 19.2496 2.62174 19.2502H14.3609C15.0545 19.2508 15.7202 18.9653 16.2123 18.456C16.7044 17.9467 16.9829 17.2552 16.987 16.5325V13.26C16.9858 13.2015 16.963 13.1457 16.9233 13.1044C16.8836 13.063 16.8301 13.0392 16.7739 13.0381Z" fill="white"/>
<path d="M14.0304 2.78333H2.95653C2.89887 2.78333 2.84358 2.80719 2.80281 2.84966C2.76204 2.89213 2.73914 2.94973 2.73914 3.0098C2.73914 3.06986 2.76204 3.12747 2.80281 3.16994C2.84358 3.21241 2.89887 3.23627 2.95653 3.23627H14.0304C14.0881 3.23627 14.1434 3.21241 14.1842 3.16994C14.2249 3.12747 14.2478 3.06986 14.2478 3.0098C14.2478 2.94973 14.2249 2.89213 14.1842 2.84966C14.1434 2.80719 14.0881 2.78333 14.0304 2.78333Z" fill="white"/>
<path d="M14.0304 5.39685H2.95653C2.89887 5.39685 2.84358 5.42071 2.80281 5.46318C2.76204 5.50565 2.73914 5.56326 2.73914 5.62332C2.73914 5.68339 2.76204 5.74099 2.80281 5.78346C2.84358 5.82594 2.89887 5.8498 2.95653 5.8498H14.0304C14.0881 5.8498 14.1434 5.82594 14.1842 5.78346C14.2249 5.74099 14.2478 5.68339 14.2478 5.62332C14.2478 5.56326 14.2249 5.50565 14.1842 5.46318C14.1434 5.42071 14.0881 5.39685 14.0304 5.39685Z" fill="white"/>
<path d="M14.2435 8.23001C14.2435 8.16995 14.2206 8.11234 14.1798 8.06987C14.139 8.0274 14.0837 8.00354 14.0261 8.00354H2.95653C2.89887 8.00354 2.84358 8.0274 2.80281 8.06987C2.76204 8.11234 2.73914 8.16995 2.73914 8.23001C2.73914 8.29008 2.76204 8.34768 2.80281 8.39015C2.84358 8.43263 2.89887 8.45649 2.95653 8.45649H14.0304C14.0873 8.4553 14.1415 8.43092 14.1814 8.38857C14.2212 8.34623 14.2435 8.2893 14.2435 8.23001Z" fill="white"/>
<path d="M11.4044 10.8435C11.4044 10.7835 11.3814 10.7259 11.3407 10.6834C11.2999 10.6409 11.2446 10.6171 11.187 10.6171H2.95653C2.89887 10.6171 2.84358 10.6409 2.80281 10.6834C2.76204 10.7259 2.73914 10.7835 2.73914 10.8435C2.73914 10.9036 2.76204 10.9612 2.80281 11.0037C2.84358 11.0462 2.89887 11.07 2.95653 11.07H11.1913C11.2482 11.0688 11.3024 11.0444 11.3422 11.0021C11.3821 10.9598 11.4044 10.9028 11.4044 10.8435Z" fill="white"/>
<path d="M7.79348 13.2351H2.95653C2.89887 13.2351 2.84358 13.259 2.80281 13.3014C2.76204 13.3439 2.73914 13.4015 2.73914 13.4616C2.73914 13.5216 2.76204 13.5792 2.80281 13.6217C2.84358 13.6642 2.89887 13.6881 2.95653 13.6881H7.79348C7.85114 13.6881 7.90643 13.6642 7.9472 13.6217C7.98797 13.5792 8.01087 13.5216 8.01087 13.4616C8.01087 13.4015 7.98797 13.3439 7.9472 13.3014C7.90643 13.259 7.85114 13.2351 7.79348 13.2351Z" fill="white"/>
<path d="M7.79348 15.8531H2.95653C2.89887 15.8531 2.84358 15.877 2.80281 15.9195C2.76204 15.962 2.73914 16.0196 2.73914 16.0796C2.73914 16.1397 2.76204 16.1973 2.80281 16.2398C2.84358 16.2822 2.89887 16.3061 2.95653 16.3061H7.79348C7.85114 16.3061 7.90643 16.2822 7.9472 16.2398C7.98797 16.1973 8.01087 16.1397 8.01087 16.0796C8.01087 16.0196 7.98797 15.962 7.9472 15.9195C7.90643 15.877 7.85114 15.8531 7.79348 15.8531Z" fill="white"/>
</g>
<path d="M19.9473 10.207C19.2639 8.92741 18.0654 8.15308 16.7391 8.15308C15.4129 8.15308 14.2124 8.92741 13.5351 10.207L13.4783 10.3035L13.531 10.4021C14.2144 11.6817 15.4129 12.4561 16.7391 12.4561C18.0654 12.4561 19.2659 11.692 19.9473 10.4021L20 10.3035L19.9473 10.207Z" stroke="white" stroke-width="0.5" stroke-linejoin="round"/>
<path d="M16.8479 11.7765C17.6283 11.7765 18.2609 11.1175 18.2609 10.3045C18.2609 9.49147 17.6283 8.8324 16.8479 8.8324C16.0675 8.8324 15.4348 9.49147 15.4348 10.3045C15.4348 11.1175 16.0675 11.7765 16.8479 11.7765Z" fill="white"/>
<defs>
<clipPath id="clip0_720_492">
<rect width="18.487" height="19.2593" fill="white"/>
</clipPath>
</defs>
</svg>
