<svg width="86" height="86" viewBox="0 0 86 86" fill="none" xmlns="http://www.w3.org/2000/svg">
<g id="sensor_hand_lotion" clip-path="url(#clip0_834_4880)">
<path id="Vector" d="M78.52 29.19H74.2V22.66C74.1974 21.6689 73.8025 20.7192 73.1017 20.0183C72.4009 19.3175 71.4511 18.9226 70.46 18.92H66.19V12.23H70.46C71.4528 12.2274 72.4041 11.8311 73.1052 11.1281C73.8063 10.4251 74.2 9.47283 74.2 8.48V3.75C74.2 2.75717 73.8063 1.80485 73.1052 1.10188C72.4041 0.398904 71.4528 0.00264755 70.46 0L31 0C28.537 0.00264702 26.1756 0.982262 24.4339 2.7239C22.6923 4.46554 21.7127 6.82695 21.71 9.29V18.75C21.71 19.7446 22.1051 20.6984 22.8084 21.4017C23.5116 22.1049 24.4654 22.5 25.46 22.5H30.19C31.1846 22.5 32.1384 22.1049 32.8417 21.4017C33.5449 20.6984 33.94 19.7446 33.94 18.75V14C33.94 13.5253 34.1286 13.07 34.4643 12.7343C34.8 12.3986 35.2553 12.21 35.73 12.21H55.36V18.9H51.09C50.0989 18.9026 49.1492 19.2975 48.4483 19.9983C47.7475 20.6992 47.3526 21.6489 47.35 22.64V29.17H43C41.6587 29.1758 40.3517 29.5945 39.2567 30.3692C38.1617 31.144 37.3319 32.2371 36.88 33.5C36.2144 33.4473 35.5456 33.4473 34.88 33.5C34.3413 30.9459 32.9409 28.6546 30.9136 27.0103C28.8863 25.366 26.3553 24.4687 23.745 24.4687C21.1347 24.4687 18.6037 25.366 16.5764 27.0103C14.5491 28.6546 13.1487 30.9459 12.61 33.5C9.99275 33.1874 7.34812 33.793 5.12772 35.2134C2.90732 36.6338 1.24886 38.781 0.435537 41.2883C-0.377786 43.7955 -0.295529 46.5074 0.668262 48.9607C1.63205 51.414 3.4176 53.4568 5.72001 54.74C4.73066 56.9529 4.47441 59.424 4.98866 61.7928C5.5029 64.1617 6.76074 66.3041 8.57859 67.9076C10.3964 69.511 12.6792 70.4916 15.0936 70.7061C17.5081 70.9206 19.9279 70.3579 22 69.1C22.6084 70.3409 23.5278 71.403 24.6686 72.1828C25.8095 72.9627 27.133 73.4337 28.51 73.55C28.6585 75.3363 29.4027 77.0209 30.623 78.3338C31.8434 79.6466 33.4693 80.5116 35.24 80.79C35.6566 80.8573 36.078 80.8907 36.5 80.89C36.64 80.89 36.78 80.89 36.92 80.89C37.4003 82.1086 38.2381 83.1533 39.3233 83.8869C40.4085 84.6205 41.6902 85.0085 43 85H78.52C80.2354 84.9895 81.8775 84.3034 83.0905 83.0905C84.3034 81.8775 84.9895 80.2354 85 78.52V35.71C85 33.9877 84.3186 32.3353 83.1045 31.1137C81.8904 29.8922 80.2423 29.2006 78.52 29.19ZM72.25 22.66V29.19H67.68V20.87H70.46C70.9348 20.87 71.39 21.0586 71.7257 21.3943C72.0614 21.73 72.25 22.1853 72.25 22.66ZM61.75 29.19V20.87H65.75V29.19H61.75ZM55.82 29.19V20.87H59.82V29.19H55.82ZM32 14V18.73C32 19.2057 31.8117 19.662 31.4763 19.9993C31.1409 20.3365 30.6857 20.5274 30.21 20.53H25.46C24.9834 20.5274 24.5271 20.3369 24.1901 19.9999C23.8531 19.6629 23.6626 19.2066 23.66 18.73V9.29C23.6732 7.35199 24.4524 5.49785 25.8274 4.13213C27.2025 2.76641 29.062 1.99996 31 2H70.46C70.9357 2.00264 71.3909 2.19345 71.7263 2.53073C72.0618 2.86801 72.25 3.32434 72.25 3.8V8.48C72.25 8.95474 72.0614 9.41003 71.7257 9.74572C71.39 10.0814 70.9348 10.27 70.46 10.27H35.73C34.7424 10.2753 33.7967 10.6699 33.0983 11.3683C32.3999 12.0667 32.0053 13.0124 32 14ZM57.33 12.21H64.26V18.9H57.31L57.33 12.21ZM49.33 22.64C49.3326 22.1661 49.5221 21.7123 49.8572 21.3772C50.1923 21.0421 50.6461 20.8526 51.12 20.85H53.9V29.17H49.3L49.33 22.64ZM10.56 67C8.70026 65.6448 7.4009 63.6556 6.90717 61.4081C6.41344 59.1605 6.75949 56.8099 7.88001 54.8C7.94348 54.6817 7.98246 54.5517 7.99463 54.418C8.0068 54.2843 7.99191 54.1494 7.95085 54.0216C7.90978 53.8937 7.84339 53.7755 7.75562 53.6738C7.66786 53.5722 7.56052 53.4893 7.44001 53.43C5.33897 52.4683 3.6647 50.7679 2.73564 48.6522C1.80659 46.5365 1.68756 44.1531 2.40121 41.9554C3.11485 39.7576 4.61138 37.8989 6.60615 36.7326C8.60092 35.5663 10.9548 35.1739 13.22 35.63C13.3529 35.6605 13.491 35.6611 13.6241 35.6317C13.7573 35.6023 13.8823 35.5436 13.99 35.46C14.0963 35.3799 14.1856 35.2794 14.2526 35.1643C14.3195 35.0493 14.3629 34.922 14.38 34.79C14.66 32.5047 15.7664 30.4008 17.4906 28.875C19.2148 27.3492 21.4376 26.5069 23.74 26.5069C26.0424 26.5069 28.2652 27.3492 29.9894 28.875C31.7136 30.4008 32.82 32.5047 33.1 34.79C33.1171 34.922 33.1605 35.0493 33.2274 35.1643C33.2944 35.2794 33.3837 35.3799 33.49 35.46C33.5977 35.5436 33.7227 35.6023 33.8559 35.6317C33.989 35.6611 34.1271 35.6605 34.26 35.63C36.5198 35.1928 38.8615 35.5981 40.8428 36.7694C42.8242 37.9407 44.3082 39.7968 45.0146 41.9874C45.721 44.178 45.601 46.5515 44.6771 48.6596C43.7532 50.7677 42.0895 52.4647 40 53.43C39.878 53.4881 39.769 53.5703 39.6796 53.6717C39.5902 53.7731 39.5223 53.8916 39.48 54.02C39.4357 54.148 39.42 54.2841 39.4338 54.4188C39.4476 54.5536 39.4907 54.6837 39.56 54.8C40.6932 56.8131 41.0471 59.1724 40.5544 61.4294C40.0618 63.6864 38.757 65.6837 36.8881 67.0415C35.0192 68.3994 32.7165 69.0232 30.4177 68.7943C28.119 68.5654 25.9845 67.4998 24.42 65.8C24.3279 65.7007 24.2166 65.6211 24.0929 65.5661C23.9691 65.5111 23.8354 65.4818 23.7 65.48C23.5653 65.4805 23.4321 65.5082 23.3084 65.5615C23.1846 65.6148 23.073 65.6925 22.98 65.79C22.6239 66.1717 22.2394 66.5261 21.83 66.85C20.2187 68.0867 18.2509 68.7695 16.2199 68.7965C14.1889 68.8235 12.2036 68.1934 10.56 67ZM51 62.11C51.6481 61.0422 52.0373 59.8375 52.1362 58.5924C52.2351 57.3472 52.0411 56.0962 51.5696 54.9395C51.0982 53.7828 50.3625 52.7526 49.4213 51.9313C48.4802 51.11 47.3599 50.5205 46.15 50.21C47.381 47.8899 47.7731 45.2159 47.26 42.64H70.46C70.9348 42.64 71.39 42.8286 71.7257 43.1643C72.0614 43.5 72.25 43.9553 72.25 44.43V70.68C72.25 71.1547 72.0614 71.61 71.7257 71.9457C71.39 72.2814 70.9348 72.47 70.46 72.47H52.52C52.65 72.26 52.78 72.04 52.89 71.82C53.7094 70.224 53.9685 68.3989 53.6257 66.6379C53.2829 64.8769 52.3582 63.2822 51 62.11ZM35.59 78.86C34.1237 78.6263 32.7939 77.8632 31.8522 76.7152C30.9106 75.5671 30.4224 74.1137 30.48 72.63C30.4848 72.4957 30.4624 72.3619 30.4143 72.2365C30.3662 72.1111 30.2933 71.9966 30.2 71.9C30.1034 71.8067 29.9889 71.7338 29.8635 71.6857C29.7381 71.6376 29.6043 71.6153 29.47 71.62C28.2365 71.6731 27.0167 71.3443 25.9769 70.6785C24.9371 70.0128 24.128 69.0425 23.66 67.9L23.74 67.83C25.6787 69.5695 28.1555 70.5913 30.7568 70.7247C33.3581 70.8582 35.9264 70.0952 38.0329 68.5633C40.1395 67.0314 41.6568 64.8231 42.3315 62.3073C43.0061 59.7915 42.7974 57.1204 41.74 54.74C42.9895 54.0401 44.0956 53.1105 45 52C46.0618 52.1325 47.0689 52.5464 47.9168 53.1991C48.7648 53.8517 49.4228 54.7192 49.8226 55.7117C50.2225 56.7042 50.3497 57.7856 50.191 58.8438C50.0322 59.902 49.5934 60.8985 48.92 61.73C48.8355 61.8356 48.7749 61.9581 48.7421 62.0893C48.7093 62.2204 48.7052 62.3571 48.73 62.49C48.7521 62.6226 48.8006 62.7494 48.8728 62.8628C48.945 62.9762 49.0392 63.0739 49.15 63.15C50.38 63.9778 51.2631 65.2285 51.6318 66.6646C52.0005 68.1006 51.8291 69.622 51.15 70.94C50.8433 71.5373 50.4376 72.0783 49.95 72.54C49.8298 72.5764 49.7181 72.6369 49.6219 72.7177C49.5256 72.7984 49.4468 72.8979 49.39 73.01C48.5841 73.6272 47.6348 74.0298 46.6309 74.1802C45.627 74.3307 44.6014 74.2239 43.65 73.87C43.5266 73.8177 43.394 73.7908 43.26 73.7908C43.126 73.7908 42.9934 73.8177 42.87 73.87C42.7497 73.9325 42.6433 74.0188 42.5573 74.1236C42.4714 74.2285 42.4076 74.3497 42.37 74.48C41.9733 75.9142 41.0635 77.1527 39.8135 77.9602C38.5636 78.7677 37.0605 79.0879 35.59 78.86ZM83.08 78.52C83.08 79.7303 82.5999 80.8912 81.745 81.7479C80.8902 82.6047 79.7303 83.0873 78.52 83.09H43C42.1458 83.0888 41.3091 82.8471 40.5858 82.3926C39.8625 81.9381 39.2818 81.2891 38.91 80.52C40.0222 80.1699 41.0452 79.5828 41.9085 78.799C42.7717 78.0151 43.4546 77.0534 43.91 75.98C45.0952 76.2583 46.3283 76.2625 47.5154 75.9922C48.7025 75.7218 49.8122 75.1841 50.76 74.42H70.46C71.4511 74.4174 72.4009 74.0225 73.1017 73.3217C73.8025 72.6208 74.1974 71.6711 74.2 70.68V44.43C74.2 43.4372 73.8063 42.4849 73.1052 41.7819C72.4041 41.0789 71.4528 40.6826 70.46 40.68H46.67C46.0032 39.0062 44.9498 37.5139 43.5959 36.3251C42.242 35.1363 40.626 34.2848 38.88 33.84C39.2376 33.0446 39.8158 32.3684 40.5461 31.8916C41.2763 31.4148 42.1279 31.1575 43 31.15H78.52C79.7294 31.15 80.8893 31.6304 81.7444 32.4856C82.5996 33.3408 83.08 34.5006 83.08 35.71V78.52Z" fill="white"/>
</g>
<defs>
<clipPath id="clip0_834_4880">
<rect width="85.04" height="85.04" fill="white"/>
</clipPath>
</defs>
</svg>
