<svg width="86" height="86" viewBox="0 0 86 86" fill="none" xmlns="http://www.w3.org/2000/svg">
<g id="sensor_human_traffic" clip-path="url(#clip0_834_4881)">
<path id="Vector" d="M63.29 25.85C65.8482 25.852 68.3494 25.0951 70.4773 23.6751C72.6051 22.2551 74.264 20.2358 75.2438 17.8727C76.2237 15.5097 76.4806 12.909 75.982 10.3999C75.4835 7.89082 74.2518 5.586 72.4429 3.77711C70.634 1.96821 68.3292 0.736543 65.8201 0.237955C63.311 -0.260633 60.7103 -0.0037331 58.3473 0.976147C55.9842 1.95603 53.9649 3.61485 52.5449 5.74271C51.1249 7.87057 50.368 10.3718 50.37 12.93C50.3753 16.355 51.7382 19.6381 54.16 22.06C56.5818 24.4818 59.865 25.8447 63.29 25.85ZM63.29 1.94999C65.4656 1.94999 67.5923 2.59513 69.4013 3.80383C71.2102 5.01252 72.6201 6.73049 73.4527 8.74047C74.2852 10.7505 74.5031 12.9622 74.0786 15.096C73.6542 17.2298 72.6066 19.1898 71.0682 20.7282C69.5298 22.2665 67.5698 23.3142 65.436 23.7386C63.3022 24.1631 61.0905 23.9452 59.0805 23.1127C57.0705 22.2801 55.3525 20.8702 54.1438 19.0613C52.9351 17.2523 52.29 15.1256 52.29 12.95C52.3032 10.0413 53.468 7.25622 55.5294 5.20412C57.5909 3.15202 60.3813 1.99996 63.29 1.99999V1.94999Z" fill="white"/>
<path id="Vector_2" d="M63.29 28.61C60.5906 28.6058 57.9144 29.1078 55.4 30.09C55.1771 26.826 53.7232 23.7682 51.3323 21.535C48.9413 19.3018 45.7917 18.0596 42.52 18.0596C39.2483 18.0596 36.0987 19.3018 33.7077 21.535C31.3168 23.7682 29.8629 26.826 29.64 30.09C26.3435 28.8068 22.7838 28.347 19.2695 28.7504C15.7551 29.1538 12.3922 30.4084 9.47225 32.4052C6.55232 34.4021 4.16351 37.081 2.51291 40.2097C0.862313 43.3385 -0.000250699 46.8226 5.46565e-08 50.36L5.46565e-08 66C5.46565e-08 66.2652 0.105357 66.5196 0.292893 66.7071C0.48043 66.8947 0.734784 67 1 67H20.83C20.83 67.5 20.77 68 20.77 68.51V84.06C20.77 84.3252 20.8754 84.5796 21.0629 84.7671C21.2504 84.9547 21.5048 85.06 21.77 85.06H63.29C63.5552 85.06 63.8096 84.9547 63.9971 84.7671C64.1846 84.5796 64.29 84.3252 64.29 84.06V68.45C64.29 67.94 64.29 67.45 64.23 66.94H84.06C84.3252 66.94 84.5796 66.8347 84.7671 66.6471C84.9546 66.4596 85.06 66.2052 85.06 65.94V50.36C85.0547 44.5897 82.7587 39.0576 78.6767 34.9792C74.5946 30.9009 69.0603 28.61 63.29 28.61ZM42.52 20.05C44.6956 20.05 46.8223 20.6952 48.6313 21.9039C50.4402 23.1126 51.8501 24.8305 52.6827 26.8405C53.5152 28.8505 53.7331 31.0622 53.3086 33.196C52.8842 35.3298 51.8366 37.2898 50.2982 38.8282C48.7598 40.3666 46.7998 41.4142 44.666 41.8387C42.5322 42.2631 40.3205 42.0453 38.3105 41.2127C36.3005 40.3801 34.5825 38.9702 33.3738 37.1613C32.1651 35.3524 31.52 33.2256 31.52 31.05C31.52 28.1326 32.6789 25.3348 34.7418 23.2719C36.8047 21.209 39.6026 20.05 42.52 20.05ZM2 65V50.36C2.00382 47.0799 2.82251 43.852 4.3825 40.9666C5.94249 38.0811 8.19491 35.6284 10.9374 33.8288C13.6798 32.0293 16.8264 30.9392 20.0944 30.6567C23.3624 30.3741 26.6494 30.9079 29.66 32.21C29.9242 35.0523 31.1223 37.7271 33.0671 39.8167C35.0119 41.9062 37.5939 43.2928 40.41 43.76C40.7522 44.7383 41.0197 45.7412 41.21 46.76C36.2809 47.0686 31.6025 49.041 27.9402 52.3545C24.278 55.668 21.8488 60.1263 21.05 65H2ZM62.36 83.1H22.73V68.45C22.73 63.2014 24.815 58.1677 28.5264 54.4564C32.2377 50.745 37.2714 48.66 42.52 48.66C47.7686 48.66 52.8023 50.745 56.5136 54.4564C60.225 58.1677 62.31 63.2014 62.31 68.45L62.36 83.1ZM83.09 65H64C63.2067 60.1203 60.7783 55.6552 57.1133 52.3372C53.4483 49.0193 48.7643 47.0456 43.83 46.74C44.0203 45.7212 44.2878 44.7183 44.63 43.74C47.4393 43.263 50.014 41.8763 51.9581 39.793C53.9022 37.7098 55.108 35.0455 55.39 32.21C57.8803 31.1177 60.5707 30.5558 63.29 30.56C68.5397 30.5653 73.5728 32.6531 77.2849 36.3652C80.9969 40.0772 83.0847 45.1104 83.09 50.36V65Z" fill="white"/>
<path id="Vector_3" d="M21.75 25.85C24.3077 25.85 26.808 25.0914 28.9346 23.6702C31.0611 22.249 32.7184 20.229 33.6967 17.8658C34.6751 15.5025 34.9305 12.9022 34.4308 10.3938C33.9311 7.88535 32.6987 5.58146 30.8894 3.77357C29.0801 1.96568 26.7752 0.735001 24.2664 0.237224C21.7576 -0.260553 19.1575 -0.00306845 16.795 0.977106C14.4325 1.95728 12.4138 3.61611 10.9942 5.74375C9.57468 7.87139 8.81803 10.3723 8.82001 12.93C8.82266 16.3575 10.1861 19.6437 12.6107 22.0664C15.0352 24.4891 18.3225 25.85 21.75 25.85ZM21.75 1.95C23.9256 1.95 26.0523 2.59513 27.8613 3.80383C29.6702 5.01253 31.0801 6.73049 31.9127 8.74048C32.7452 10.7505 32.9631 12.9622 32.5387 15.096C32.1142 17.2298 31.0666 19.1898 29.5282 20.7282C27.9898 22.2665 26.0298 23.3142 23.896 23.7386C21.7622 24.1631 19.5505 23.9452 17.5405 23.1127C15.5305 22.2801 13.8125 20.8702 12.6038 19.0613C11.3952 17.2523 10.75 15.1256 10.75 12.95C10.7632 10.0413 11.928 7.25622 13.9895 5.20412C16.0509 3.15203 18.8413 1.99997 21.75 2V1.95Z" fill="white"/>
</g>
<defs>
<clipPath id="clip0_834_4881">
<rect width="85.04" height="85.04" fill="white"/>
</clipPath>
</defs>
</svg>
