<svg width="25" height="25" viewBox="0 0 25 25" fill="none" xmlns="http://www.w3.org/2000/svg">
<path d="M24.4385 12.2355H11.815V6.32647C11.8153 6.2282 11.7896 6.1316 11.7405 6.04643C11.6915 5.96126 11.6208 5.89054 11.5357 5.8414C11.4498 5.79215 11.3525 5.76624 11.2535 5.76624C11.1545 5.76624 11.0572 5.79215 10.9713 5.8414L0.293968 12.012C0.208543 12.0617 0.137647 12.1329 0.0883683 12.2185C0.0390891 12.3042 0.0131531 12.4012 0.0131531 12.5C0.0131531 12.5988 0.0390891 12.6959 0.0883683 12.7816C0.137647 12.8672 0.208543 12.9384 0.293968 12.988L10.9831 19.1616C11.0687 19.2117 11.1661 19.2382 11.2653 19.2382C11.3645 19.2382 11.4619 19.2117 11.5475 19.1616C11.6328 19.112 11.7036 19.0408 11.7526 18.9551C11.8017 18.8694 11.8272 18.7723 11.8268 18.6736V13.3585H24.4385C24.5874 13.3585 24.7302 13.2993 24.8355 13.194C24.9408 13.0887 25 12.9459 25 12.797C25 12.648 24.9408 12.5052 24.8355 12.3999C24.7302 12.2946 24.5874 12.2355 24.4385 12.2355ZM10.6891 17.6976L1.68743 12.5L10.6891 7.30248V17.6976Z" fill="#AFAFAF"/>
</svg>
