<svg width="20" height="20" viewBox="0 0 20 20" fill="none" xmlns="http://www.w3.org/2000/svg">
<g clip-path="url(#clip0_685_412)">
<path d="M18.1468 13.5395C18.0844 13.5395 18.0246 13.5643 17.9805 13.6084C17.9364 13.6525 17.9116 13.7123 17.9116 13.7747V17.1684C17.9103 17.7984 17.6593 18.4022 17.2136 18.8475C16.7679 19.2928 16.1639 19.5431 15.5339 19.5438H2.83396C2.2064 19.5394 1.60595 19.2874 1.16329 18.8425C0.720634 18.3977 0.471592 17.796 0.470367 17.1684V2.83633C0.474679 2.21017 0.725332 1.61089 1.1681 1.16812C1.61087 0.725348 2.21016 0.474695 2.83631 0.470382H15.5362C16.1652 0.470367 16.7687 0.719109 17.215 1.16234C17.6614 1.60558 17.9143 2.20733 17.9186 2.83633V7.69287C17.9186 7.75524 17.9434 7.81506 17.9875 7.85917C18.0316 7.90327 18.0914 7.92805 18.1538 7.92805C18.2162 7.92805 18.276 7.90327 18.3201 7.85917C18.3642 7.81506 18.389 7.75524 18.389 7.69287V2.83633C18.3887 2.46295 18.3147 2.09331 18.1713 1.74856C18.028 1.40382 17.818 1.09075 17.5534 0.827277C17.2889 0.563809 16.9749 0.355121 16.6296 0.213166C16.2842 0.0712111 15.9143 -0.0012219 15.5409 1.55926e-05H2.84102C2.46824 -0.000293383 2.09905 0.0728249 1.75453 0.215196C1.41001 0.357567 1.0969 0.566402 0.833088 0.829778C0.569275 1.09315 0.359922 1.40591 0.21698 1.7502C0.0740387 2.09448 0.000308719 2.46355 0 2.83633L0 17.1684C0.00434712 17.918 0.305015 18.6355 0.83639 19.1642C1.36776 19.6929 2.0867 19.99 2.83631 19.9906H15.5362C16.2866 19.9912 17.0068 19.6947 17.5392 19.1658C18.0716 18.637 18.3729 17.9188 18.3772 17.1684V13.77C18.376 13.7093 18.3514 13.6513 18.3084 13.6084C18.2654 13.5654 18.2075 13.5407 18.1468 13.5395Z" fill="black"/>
<path d="M19.3415 8.97455C18.9201 8.55433 18.3492 8.31836 17.754 8.31836C17.1589 8.31836 16.588 8.55433 16.1665 8.97455L10.2164 14.9247C10.1976 14.9447 10.1825 14.9677 10.1717 14.9929V15.0094C10.1717 15.0094 10.1717 15.0094 10.1717 15.0282L9.10163 18.9322C9.0921 18.9712 9.09272 19.012 9.10342 19.0507C9.11412 19.0894 9.13456 19.1247 9.16277 19.1533C9.18371 19.1752 9.20892 19.1925 9.23683 19.2042C9.26474 19.216 9.29477 19.2218 9.32505 19.2215C9.34458 19.2238 9.36431 19.2238 9.38385 19.2215L13.2902 18.1679H13.3067H13.3255C13.3507 18.1583 13.3732 18.143 13.3914 18.1232L19.3415 12.173C19.5501 11.9647 19.7157 11.7172 19.8286 11.4448C19.9415 11.1724 19.9997 10.8804 19.9997 10.5856C19.9997 10.2907 19.9415 9.9987 19.8286 9.72631C19.7157 9.45391 19.5501 9.20645 19.3415 8.99807V8.97455ZM19.017 9.29911C19.324 9.60572 19.5085 10.0139 19.5358 10.447C19.5631 10.8801 19.4313 11.3082 19.1651 11.6509L16.6604 9.15094C17.0041 8.88493 17.4329 8.75324 17.8666 8.78051C18.3004 8.80778 18.7093 8.99214 19.017 9.29911ZM13.2291 17.6128L10.7032 15.087L16.3241 9.46609L18.8523 11.9943L13.2291 17.6128ZM10.4963 15.5221L12.7869 17.8127L9.64255 18.6665L10.4963 15.5221Z" fill="black"/>
<path d="M18.1092 11.7897C18.0654 11.748 18.0073 11.7247 17.9469 11.7247C17.8864 11.7247 17.8283 11.748 17.7846 11.7897L13.0268 16.5474C12.9844 16.5913 12.9608 16.6499 12.9608 16.7109C12.9608 16.7719 12.9844 16.8305 13.0268 16.8744C13.0706 16.916 13.1287 16.9393 13.1891 16.9393C13.2495 16.9393 13.3077 16.916 13.3514 16.8744L18.1092 12.1142C18.1508 12.0705 18.1741 12.0124 18.1741 11.952C18.1741 11.8915 18.1508 11.8334 18.1092 11.7897Z" fill="black"/>
<path d="M15.1787 2.89038H3.1985C3.13613 2.89038 3.07631 2.91516 3.0322 2.95926C2.9881 3.00337 2.96332 3.06319 2.96332 3.12556C2.96332 3.18794 2.9881 3.24776 3.0322 3.29186C3.07631 3.33597 3.13613 3.36075 3.1985 3.36075H15.1787C15.2411 3.36075 15.3009 3.33597 15.345 3.29186C15.3892 3.24776 15.4139 3.18794 15.4139 3.12556C15.4139 3.06319 15.3892 3.00337 15.345 2.95926C15.3009 2.91516 15.2411 2.89038 15.1787 2.89038Z" fill="black"/>
<path d="M15.1787 5.60437H3.1985C3.13613 5.60437 3.07631 5.62915 3.0322 5.67325C2.9881 5.71736 2.96332 5.77718 2.96332 5.83955C2.96332 5.90193 2.9881 5.96175 3.0322 6.00585C3.07631 6.04996 3.13613 6.07474 3.1985 6.07474H15.1787C15.2411 6.07474 15.3009 6.04996 15.345 6.00585C15.3892 5.96175 15.4139 5.90193 15.4139 5.83955C15.4139 5.77718 15.3892 5.71736 15.345 5.67325C15.3009 5.62915 15.2411 5.60437 15.1787 5.60437Z" fill="black"/>
<path d="M15.4092 8.54658C15.4092 8.48421 15.3844 8.42439 15.3403 8.38028C15.2962 8.33618 15.2364 8.3114 15.174 8.3114H3.1985C3.13613 8.3114 3.07631 8.33618 3.0322 8.38028C2.9881 8.42439 2.96332 8.48421 2.96332 8.54658C2.96332 8.60896 2.9881 8.66878 3.0322 8.71288C3.07631 8.75699 3.13613 8.78177 3.1985 8.78177H15.1787C15.2403 8.78054 15.2989 8.75522 15.342 8.71124C15.3851 8.66727 15.4092 8.60815 15.4092 8.54658Z" fill="black"/>
<path d="M12.3377 11.2606C12.3377 11.1982 12.313 11.1384 12.2688 11.0943C12.2247 11.0502 12.1649 11.0254 12.1025 11.0254H3.1985C3.13613 11.0254 3.07631 11.0502 3.0322 11.0943C2.9881 11.1384 2.96332 11.1982 2.96332 11.2606C2.96332 11.3229 2.9881 11.3828 3.0322 11.4269C3.07631 11.471 3.13613 11.4958 3.1985 11.4958H12.1072C12.1688 11.4945 12.2274 11.4692 12.2705 11.4252C12.3136 11.3813 12.3377 11.3221 12.3377 11.2606Z" fill="black"/>
<path d="M8.43133 13.7441H3.1985C3.13613 13.7441 3.07631 13.7689 3.0322 13.813C2.9881 13.8571 2.96332 13.9169 2.96332 13.9793C2.96332 14.0417 2.9881 14.1015 3.0322 14.1456C3.07631 14.1897 3.13613 14.2145 3.1985 14.2145H8.43133C8.49371 14.2145 8.55353 14.1897 8.59763 14.1456C8.64174 14.1015 8.66652 14.0417 8.66652 13.9793C8.66652 13.9169 8.64174 13.8571 8.59763 13.813C8.55353 13.7689 8.49371 13.7441 8.43133 13.7441Z" fill="black"/>
<path d="M8.43133 16.4629H3.1985C3.13613 16.4629 3.07631 16.4877 3.0322 16.5318C2.9881 16.5759 2.96332 16.6357 2.96332 16.6981C2.96332 16.7604 2.9881 16.8203 3.0322 16.8644C3.07631 16.9085 3.13613 16.9333 3.1985 16.9333H8.43133C8.49371 16.9333 8.55353 16.9085 8.59763 16.8644C8.64174 16.8203 8.66652 16.7604 8.66652 16.6981C8.66652 16.6357 8.64174 16.5759 8.59763 16.5318C8.55353 16.4877 8.49371 16.4629 8.43133 16.4629Z" fill="black"/>
</g>
<defs>
<clipPath id="clip0_685_412">
<rect width="20" height="20" fill="white"/>
</clipPath>
</defs>
</svg>
