<svg width="38" height="30" viewBox="0 0 38 30" fill="none" xmlns="http://www.w3.org/2000/svg">
<path d="M0.0189504 17.7329C0.113703 17.0317 0.189504 16.321 0.312682 15.6199C1.13703 10.9297 3.44898 7.10167 7.14431 4.1075C9.75947 1.99453 12.7536 0.696425 16.0794 0.213189C19.699 -0.317423 23.1953 0.137387 26.5495 1.63447C27.3644 1.99453 27.7055 2.79992 27.3928 3.56741C27.0802 4.33491 26.2463 4.68549 25.4315 4.34438C24.1713 3.82324 22.8826 3.39686 21.5277 3.16945C21.1581 3.1126 20.7791 3.0747 20.3528 3.01785C20.3528 3.76639 20.3622 4.48651 20.3528 5.20663C20.3338 6.04992 19.7369 6.66581 18.9315 6.69423C18.0977 6.72266 17.4344 6.08782 17.4154 5.22558C17.3965 4.50546 17.4154 3.78534 17.4154 2.9989C12.1756 3.62427 8.17711 6.14467 5.29664 10.5601C5.96938 10.8823 6.60422 11.195 7.23906 11.4887C7.65597 11.6877 7.97813 11.9719 8.12026 12.4173C8.30976 12.9953 8.16763 13.5164 7.73177 13.9333C7.26749 14.3786 6.70845 14.4639 6.13046 14.2176C5.41982 13.9143 4.73761 13.5638 4.03644 13.2321C2.49198 16.9843 2.49198 22.2241 5.01239 26.5922C5.53352 26.3363 6.05466 26.071 6.58527 25.8342C6.8411 25.7205 7.11588 25.6162 7.38119 25.5878C8.04446 25.5215 8.64139 25.9479 8.84985 26.5732C9.0583 27.1986 8.84985 27.9377 8.26239 28.2503C7.15379 28.8378 6.03571 29.3874 4.88921 29.8896C4.25437 30.1738 3.57215 29.8896 3.16472 29.2642C1.72449 27.0754 0.748542 24.6971 0.303207 22.1104C0.180029 21.3619 0.104227 20.6038 0 19.8553C0 19.1447 0 18.434 0 17.7139L0.0189504 17.7329Z" fill="white"/>
<path d="M18.8933 23.2854C17.1025 23.2854 15.5107 22.2336 14.8095 20.5849C14.1273 18.9741 14.44 17.0223 15.7191 15.8189C16.5056 15.0704 17.4057 14.426 18.2964 13.8007C22.2097 11.0529 26.1419 8.32401 30.0741 5.58567C30.6142 5.20666 31.1732 5.10244 31.7607 5.42459C32.2723 5.70885 32.5566 6.17314 32.4997 6.7606C32.4713 7.05433 32.3671 7.36701 32.1965 7.61337C29.1266 12.0193 26.0377 16.4253 22.9487 20.8218C22.6361 21.2577 22.3044 21.6935 21.9159 22.0725C21.0821 22.8874 20.0588 23.2854 18.8839 23.2854H18.8933ZM25.1754 12.6352C25.1754 12.6352 25.1375 12.5973 25.1186 12.5784C23.432 13.7628 21.7454 14.9472 20.0683 16.1505C19.3576 16.6527 18.6659 17.1928 17.9837 17.7234C17.5194 18.0835 17.3299 18.5762 17.4531 19.1637C17.5763 19.7606 17.9458 20.1585 18.5333 20.2912C19.1492 20.4333 19.6893 20.2628 20.0683 19.7416C21.6222 17.6097 23.1572 15.4588 24.7016 13.3174C24.8627 13.09 25.0238 12.8626 25.1849 12.6258L25.1754 12.6352Z" fill="white"/>
<path d="M32.7652 26.6111C33.5422 25.2277 34.1012 23.7969 34.4234 22.2714C35.1245 19.012 34.8497 15.8378 33.5801 12.7394C33.4285 12.3698 33.2863 11.9624 33.2958 11.5834C33.3053 10.9106 33.8454 10.3706 34.4802 10.2758C35.1814 10.1621 35.8257 10.4748 36.091 11.157C36.4795 12.1519 36.8774 13.1468 37.1427 14.1701C38.1376 17.9886 37.9008 21.7598 36.5458 25.4551C36.0436 26.8195 35.3709 28.0987 34.5655 29.3115C34.1486 29.9463 33.4095 30.1643 32.7178 29.8516C31.6566 29.3684 30.6048 28.8756 29.5626 28.345C28.814 27.966 28.5582 27.1227 28.9088 26.3931C29.2594 25.673 30.0837 25.3793 30.8512 25.7109C31.3818 25.9383 31.8935 26.2036 32.4146 26.45C32.5188 26.4974 32.6325 26.5447 32.7557 26.6016L32.7652 26.6111Z" fill="white"/>
</svg>
