<svg width="30" height="30" viewBox="0 0 30 30" fill="none" xmlns="http://www.w3.org/2000/svg">
<g id="&#230;&#148;&#185;&#229;&#150;&#132;&#232;&#153;&#149;&#231;&#144;&#134;">
<path id="Vector" d="M14.2994 30C13.6712 29.8939 13.043 29.7716 12.4148 29.6737C6.21457 28.7681 0.928048 23.3511 0.144859 17.1019C-0.483323 12.0519 0.91989 7.67912 4.58293 4.13845C7.51173 1.29939 11.085 -0.0630286 15.1968 0.0022371C17.1874 0.03487 19.0882 0.426464 20.9075 1.22597C21.6418 1.54414 21.9599 2.12337 21.7804 2.7434C21.5275 3.59185 20.8341 3.91002 19.9204 3.52659C18.2316 2.81682 16.4694 2.41707 14.6502 2.48233C8.4744 2.68629 3.71 7.13252 2.69022 12.7291C1.49097 19.3454 5.88009 25.5946 12.1211 27.0467C18.8843 28.6213 25.8432 24.175 27.0914 17.3384C27.2872 16.2697 27.3117 15.1684 27.3607 14.0833C27.4096 13.0717 27.8012 12.5251 28.6007 12.5088C29.3431 12.4925 29.8979 13.0554 29.906 13.9854C29.9468 17.7056 29.0494 21.1402 26.7162 24.1098C24.179 27.3323 20.8423 29.1679 16.8121 29.7797C16.2492 29.8613 15.6781 29.9266 15.1152 30H14.3075H14.2994Z" fill="white"/>
<path id="Vector_2" d="M15.099 15.919C15.2459 15.6906 15.3682 15.4377 15.5559 15.25C19.4637 11.3259 23.3715 7.41815 27.2874 3.50221C27.4424 3.3472 27.5974 3.17588 27.7687 3.03719C28.3153 2.58849 28.9843 2.61296 29.4575 3.0943C29.898 3.543 29.9388 4.29355 29.5228 4.79936C29.4085 4.93805 29.278 5.06043 29.1556 5.1828C24.7991 9.53929 20.4508 13.8958 16.0943 18.2523C15.1806 19.166 14.634 19.1741 13.7284 18.2686C12.5129 17.0612 11.2891 15.8456 10.0817 14.6219C9.41275 13.9447 9.37196 13.2431 9.94303 12.6884C10.4407 12.1989 11.2402 12.256 11.8521 12.8597C12.831 13.806 13.7937 14.7687 14.7645 15.7232C14.7972 15.7558 14.8461 15.764 14.8869 15.7803C14.9603 15.8293 15.0338 15.8782 15.1072 15.919H15.099Z" fill="white"/>
</g>
</svg>
