<svg width="14" height="14" viewBox="0 0 14 14" fill="none" xmlns="http://www.w3.org/2000/svg">
<g clip-path="url(#clip0_929_5316)">
<path d="M7.22461 0.858147C3.74696 0.858147 0.927734 3.67734 0.927734 7.15502C0.927734 10.6327 3.74696 13.4519 7.22461 13.4519C10.7023 13.4519 13.5215 10.6327 13.5215 7.15502C13.5215 3.67737 10.7023 0.858147 7.22461 0.858147ZM10.5281 3.8515C12.1899 5.51326 12.3055 8.05316 11.0531 9.83447L4.54514 3.32652C6.32766 2.07334 8.86728 2.19067 10.5281 3.8515ZM3.92109 10.4585C2.25932 8.79678 2.14374 6.25688 3.39608 4.47557L9.90408 10.9835C8.12158 12.2367 5.58194 12.1194 3.92109 10.4585Z" fill="white"/>
</g>
<defs>
<clipPath id="clip0_929_5316">
<rect width="13" height="13" fill="white" transform="translate(0.724609 0.655022)"/>
</clipPath>
</defs>
</svg>
