<svg width="13" height="14" viewBox="0 0 13 14" fill="none" xmlns="http://www.w3.org/2000/svg">
<g clip-path="url(#clip0_473_535)">
<path d="M11.7954 9.30069C11.7548 9.30069 11.716 9.3168 11.6873 9.34547C11.6586 9.37414 11.6425 9.41302 11.6425 9.45356V11.6595C11.6417 12.069 11.4786 12.4614 11.1889 12.7509C10.8992 13.0403 10.5065 13.203 10.097 13.2034H1.84207C1.43416 13.2006 1.04387 13.0368 0.756141 12.7476C0.468412 12.4585 0.306535 12.0674 0.305738 11.6595V2.34361C0.308541 1.93661 0.471466 1.54708 0.759266 1.25928C1.04707 0.971476 1.4366 0.808551 1.8436 0.805749H10.0985C10.5074 0.805739 10.8997 0.967421 11.1898 1.25552C11.4799 1.54363 11.6443 1.93477 11.6471 2.34361V5.50036C11.6471 5.54091 11.6632 5.57979 11.6919 5.60846C11.7205 5.63713 11.7594 5.65323 11.8 5.65323C11.8405 5.65323 11.8794 5.63713 11.9081 5.60846C11.9367 5.57979 11.9528 5.54091 11.9528 5.50036V2.34361C11.9526 2.10092 11.9046 1.86065 11.8114 1.63657C11.7182 1.41248 11.5817 1.20898 11.4097 1.03773C11.2378 0.866476 11.0337 0.730829 10.8092 0.638558C10.5848 0.546287 10.3443 0.499206 10.1016 0.50001H1.84666C1.60435 0.499809 1.36438 0.547336 1.14044 0.639877C0.916504 0.732418 0.712986 0.868161 0.541507 1.03936C0.370029 1.21055 0.233949 1.41384 0.141037 1.63763C0.0481251 1.86141 0.000200668 2.10131 0 2.34361L0 11.6595C0.00282563 12.1467 0.19826 12.613 0.543653 12.9567C0.889046 13.3004 1.35636 13.4935 1.8436 13.4939H10.0985C10.5863 13.4943 11.0544 13.3016 11.4005 12.9578C11.7465 12.614 11.9424 12.1472 11.9452 11.6595V9.4505C11.9444 9.41102 11.9284 9.37336 11.9005 9.34544C11.8725 9.31751 11.8349 9.30147 11.7954 9.30069Z" fill="white"/>
<path d="M12.572 6.33351C12.298 6.06037 11.927 5.90698 11.5401 5.90698C11.1533 5.90698 10.7822 6.06037 10.5082 6.33351L6.64065 10.2011C6.62846 10.2141 6.61863 10.2291 6.6116 10.2454V10.2561C6.6116 10.2561 6.6116 10.2561 6.6116 10.2684L5.91605 12.806C5.90986 12.8313 5.91026 12.8579 5.91721 12.883C5.92417 12.9082 5.93745 12.9311 5.95579 12.9497C5.9694 12.9639 5.98579 12.9752 6.00393 12.9828C6.02207 12.9904 6.04159 12.9942 6.06127 12.994C6.07397 12.9955 6.0868 12.9955 6.09949 12.994L8.63865 12.3092H8.64935H8.66158C8.67792 12.303 8.69259 12.293 8.70438 12.2801L12.572 8.41253C12.7076 8.27708 12.8152 8.11623 12.8886 7.93918C12.962 7.76212 12.9998 7.57233 12.9998 7.38066C12.9998 7.18899 12.962 6.9992 12.8886 6.82215C12.8152 6.64509 12.7076 6.48424 12.572 6.34879V6.33351ZM12.361 6.54447C12.5606 6.74376 12.6805 7.0091 12.6983 7.2906C12.716 7.5721 12.6303 7.85039 12.4573 8.07316L10.8293 6.44816C11.0526 6.27525 11.3314 6.18965 11.6133 6.20738C11.8952 6.22511 12.161 6.34494 12.361 6.54447ZM8.5989 11.9484L6.95709 10.3066L10.6107 6.653L12.254 8.29635L8.5989 11.9484ZM6.82256 10.5894L8.31151 12.0783L6.26765 12.6332L6.82256 10.5894Z" fill="white"/>
<path d="M11.771 8.16331C11.7425 8.13621 11.7048 8.12109 11.6655 8.12109C11.6262 8.12109 11.5884 8.13621 11.56 8.16331L8.46745 11.2559C8.4399 11.2844 8.4245 11.3225 8.4245 11.3621C8.4245 11.4017 8.4399 11.4398 8.46745 11.4683C8.49588 11.4954 8.53366 11.5106 8.57293 11.5106C8.61221 11.5106 8.64998 11.4954 8.67841 11.4683L11.771 8.37427C11.7981 8.34584 11.8132 8.30807 11.8132 8.26879C11.8132 8.22952 11.7981 8.19175 11.771 8.16331Z" fill="white"/>
<path d="M9.86618 2.37878H2.07902C2.03847 2.37878 1.99959 2.39489 1.97092 2.42356C1.94225 2.45223 1.92615 2.49111 1.92615 2.53165C1.92615 2.5722 1.94225 2.61108 1.97092 2.63975C1.99959 2.66842 2.03847 2.68452 2.07902 2.68452H9.86618C9.90672 2.68452 9.9456 2.66842 9.97427 2.63975C10.0029 2.61108 10.019 2.5722 10.019 2.53165C10.019 2.49111 10.0029 2.45223 9.97427 2.42356C9.9456 2.39489 9.90672 2.37878 9.86618 2.37878Z" fill="white"/>
<path d="M9.86618 4.14288H2.07902C2.03847 4.14288 1.99959 4.15899 1.97092 4.18766C1.94225 4.21633 1.92615 4.25521 1.92615 4.29575C1.92615 4.3363 1.94225 4.37518 1.97092 4.40385C1.99959 4.43252 2.03847 4.44862 2.07902 4.44862H9.86618C9.90672 4.44862 9.9456 4.43252 9.97427 4.40385C10.0029 4.37518 10.019 4.3363 10.019 4.29575C10.019 4.25521 10.0029 4.21633 9.97427 4.18766C9.9456 4.15899 9.90672 4.14288 9.86618 4.14288Z" fill="white"/>
<path d="M10.016 6.05527C10.016 6.01473 9.99988 5.97585 9.97121 5.94718C9.94254 5.91851 9.90366 5.9024 9.86312 5.9024H2.07902C2.03847 5.9024 1.99959 5.91851 1.97092 5.94718C1.94225 5.97585 1.92615 6.01473 1.92615 6.05527C1.92615 6.09582 1.94225 6.1347 1.97092 6.16337C1.99959 6.19204 2.03847 6.20814 2.07902 6.20814H9.86618C9.90619 6.20734 9.94429 6.19088 9.9723 6.1623C10.0003 6.13372 10.016 6.09529 10.016 6.05527Z" fill="white"/>
<path d="M8.01952 7.81937C8.01952 7.77883 8.00341 7.73995 7.97474 7.71128C7.94607 7.68261 7.90719 7.6665 7.86665 7.6665H2.07902C2.03847 7.6665 1.99959 7.68261 1.97092 7.71128C1.94225 7.73995 1.92615 7.77883 1.92615 7.81937C1.92615 7.85992 1.94225 7.8988 1.97092 7.92747C1.99959 7.95614 2.03847 7.97224 2.07902 7.97224H7.8697C7.90971 7.97144 7.94782 7.95498 7.97583 7.9264C8.00384 7.89782 8.01952 7.85939 8.01952 7.81937Z" fill="white"/>
<path d="M5.48036 9.43365H2.07902C2.03847 9.43365 1.99959 9.44976 1.97092 9.47843C1.94225 9.5071 1.92615 9.54598 1.92615 9.58652C1.92615 9.62707 1.94225 9.66595 1.97092 9.69462C1.99959 9.72329 2.03847 9.73939 2.07902 9.73939H5.48036C5.5209 9.73939 5.55978 9.72329 5.58845 9.69462C5.61712 9.66595 5.63323 9.62707 5.63323 9.58652C5.63323 9.54598 5.61712 9.5071 5.58845 9.47843C5.55978 9.44976 5.5209 9.43365 5.48036 9.43365Z" fill="white"/>
<path d="M5.48036 11.2009H2.07902C2.03847 11.2009 1.99959 11.217 1.97092 11.2456C1.94225 11.2743 1.92615 11.3132 1.92615 11.3537C1.92615 11.3943 1.94225 11.4332 1.97092 11.4618C1.99959 11.4905 2.03847 11.5066 2.07902 11.5066H5.48036C5.5209 11.5066 5.55978 11.4905 5.58845 11.4618C5.61712 11.4332 5.63323 11.3943 5.63323 11.3537C5.63323 11.3132 5.61712 11.2743 5.58845 11.2456C5.55978 11.217 5.5209 11.2009 5.48036 11.2009Z" fill="white"/>
</g>
<defs>
<clipPath id="clip0_473_535">
<rect width="13" height="13" fill="white" transform="translate(0 0.5)"/>
</clipPath>
</defs>
</svg>
