<svg width="16" height="16" viewBox="0 0 16 16" fill="none" xmlns="http://www.w3.org/2000/svg">
<path d="M3.33333 14.6667C2.96667 14.6667 2.65267 14.536 2.39133 14.2747C2.13 14.0134 1.99956 13.6996 2 13.3334V4.66671C2 4.47782 2.064 4.31938 2.192 4.19138C2.32 4.06338 2.47822 3.9996 2.66667 4.00004C2.85556 4.00004 3.014 4.06404 3.142 4.19204C3.27 4.32004 3.33378 4.47826 3.33333 4.66671V13.3334H10C10.1889 13.3334 10.3473 13.3974 10.4753 13.5254C10.6033 13.6534 10.6671 13.8116 10.6667 14C10.6667 14.1889 10.6027 14.3474 10.4747 14.4754C10.3467 14.6034 10.1884 14.6672 10 14.6667H3.33333ZM6 12C5.63333 12 5.31933 11.8694 5.058 11.608C4.79667 11.3467 4.66622 11.0329 4.66667 10.6667V2.66671C4.66667 2.30004 4.79733 1.98604 5.05867 1.72471C5.32 1.46338 5.63378 1.33293 6 1.33338H12C12.3667 1.33338 12.6807 1.46404 12.942 1.72538C13.2033 1.98671 13.3338 2.30049 13.3333 2.66671V10.6667C13.3333 11.0334 13.2027 11.3474 12.9413 11.6087C12.68 11.87 12.3662 12.0005 12 12H6ZM6 10.6667H12V2.66671H6V10.6667Z" fill="black"/>
</svg>
