<svg width="40" height="40" viewBox="0 0 40 40" fill="none" xmlns="http://www.w3.org/2000/svg">
<g clip-path="url(#clip0_207_4732)">
<path d="M34.3368 5.78075H31.2324V3.38188C31.2324 2.48369 30.8756 1.62228 30.2404 0.987164C29.6053 0.352045 28.7439 -0.00476074 27.8457 -0.00476074C26.9475 -0.00476074 26.0861 0.352045 25.451 0.987164C24.8159 1.62228 24.4591 2.48369 24.4591 3.38188V5.78075H15.5221V3.38188C15.5221 2.48494 15.1658 1.62473 14.5316 0.99049C13.8973 0.356253 13.0371 -5.70738e-05 12.1402 -5.70738e-05C11.2432 -5.70738e-05 10.383 0.356253 9.74878 0.99049C9.11454 1.62473 8.75823 2.48494 8.75823 3.38188V5.78075H5.66792C4.16546 5.78324 2.72525 6.38119 1.66284 7.44359C0.600441 8.506 0.00248753 9.94621 0 11.4487L0 34.3367C0.00868799 35.8351 0.609377 37.2693 1.67111 38.3266C2.73284 39.3839 4.16952 39.9787 5.66792 39.9811H34.3368C35.8311 39.9725 37.2618 39.375 38.3184 38.3184C39.3751 37.2617 39.9725 35.831 39.9812 34.3367V11.4487C39.9787 9.95027 39.384 8.51359 38.3267 7.45186C37.2694 6.39013 35.8352 5.78944 34.3368 5.78075ZM25.3998 3.38188C25.3998 2.7282 25.6595 2.10128 26.1217 1.63906C26.5839 1.17683 27.2108 0.917158 27.8645 0.917158C28.5182 0.917158 29.1451 1.17683 29.6074 1.63906C30.0696 2.10128 30.3293 2.7282 30.3293 3.38188V5.78075H25.3998V3.38188ZM9.69897 3.38188C9.68443 3.04946 9.73736 2.71755 9.85455 2.40613C9.97174 2.09472 10.1508 1.81026 10.3809 1.5699C10.6109 1.32953 10.8873 1.13825 11.1933 1.00757C11.4993 0.876883 11.8286 0.809512 12.1613 0.809512C12.4941 0.809512 12.8234 0.876883 13.1294 1.00757C13.4354 1.13825 13.7117 1.32953 13.9418 1.5699C14.1719 1.81026 14.3509 2.09472 14.4681 2.40613C14.5853 2.71755 14.6382 3.04946 14.6237 3.38188V5.78075H9.68485L9.69897 3.38188ZM5.68203 6.69797H8.78175V10.5409C8.76605 10.6097 8.76607 10.6813 8.78181 10.7502C8.79755 10.819 8.8286 10.8835 8.87266 10.9387C8.91672 10.9939 8.97265 11.0385 9.03631 11.0692C9.09996 11.0998 9.16971 11.1157 9.24036 11.1157C9.31101 11.1157 9.38075 11.0998 9.44441 11.0692C9.50807 11.0385 9.564 10.9939 9.60806 10.9387C9.65212 10.8835 9.68317 10.819 9.69891 10.7502C9.71464 10.6813 9.71466 10.6097 9.69897 10.5409V6.69797H30.3151V10.5409C30.3151 10.6656 30.3647 10.7853 30.4529 10.8735C30.5411 10.9617 30.6608 11.0112 30.7855 11.0112C30.9103 11.0112 31.0299 10.9617 31.1181 10.8735C31.2063 10.7853 31.2559 10.6656 31.2559 10.5409V6.69797H34.3368C35.5964 6.69921 36.804 7.20013 37.6947 8.09079C38.5853 8.98145 39.0862 10.1891 39.0875 11.4487V13.6406H0.940734V11.4487C0.941954 10.1931 1.43964 8.98905 2.32523 8.09906C3.21081 7.20907 4.41242 6.70542 5.66792 6.69797H5.68203ZM34.3368 39.0827H5.66792C4.41362 39.0741 3.21343 38.5707 2.32824 37.6819C1.44305 36.7932 0.944422 35.5911 0.940734 34.3367V14.5813H39.0781V34.3367C39.0744 35.5935 38.5738 36.7978 37.6856 37.6869C36.7973 38.576 35.5935 39.0778 34.3368 39.0827Z" fill="#AFAFAF"/>
<path d="M10.762 19.5437H4.36502C4.24027 19.5437 4.12063 19.5933 4.03242 19.6815C3.94421 19.7697 3.89465 19.8893 3.89465 20.0141C3.89465 20.1388 3.94421 20.2585 4.03242 20.3467C4.12063 20.4349 4.24027 20.4844 4.36502 20.4844H10.762C10.8868 20.4844 11.0064 20.4349 11.0946 20.3467C11.1828 20.2585 11.2324 20.1388 11.2324 20.0141C11.2324 19.8893 11.1828 19.7697 11.0946 19.6815C11.0064 19.5933 10.8868 19.5437 10.762 19.5437Z" fill="#AFAFAF"/>
<path d="M10.762 24.0828H4.36502C4.24027 24.0828 4.12063 24.1323 4.03242 24.2205C3.94421 24.3087 3.89465 24.4284 3.89465 24.5531C3.89465 24.6779 3.94421 24.7975 4.03242 24.8857C4.12063 24.9739 4.24027 25.0235 4.36502 25.0235H10.762C10.8868 25.0235 11.0064 24.9739 11.0946 24.8857C11.1828 24.7975 11.2324 24.6779 11.2324 24.5531C11.2324 24.4284 11.1828 24.3087 11.0946 24.2205C11.0064 24.1323 10.8868 24.0828 10.762 24.0828Z" fill="#AFAFAF"/>
<path d="M10.762 28.6266H4.36502C4.24027 28.6266 4.12063 28.6761 4.03242 28.7644C3.94421 28.8526 3.89465 28.9722 3.89465 29.097C3.89465 29.2217 3.94421 29.3413 4.03242 29.4296C4.12063 29.5178 4.24027 29.5673 4.36502 29.5673H10.762C10.8868 29.5673 11.0064 29.5178 11.0946 29.4296C11.1828 29.3413 11.2324 29.2217 11.2324 29.097C11.2324 28.9722 11.1828 28.8526 11.0946 28.7644C11.0064 28.6761 10.8868 28.6266 10.762 28.6266Z" fill="#AFAFAF"/>
<path d="M10.762 33.1656H4.36505C4.29616 33.1499 4.22463 33.1499 4.15575 33.1656C4.08687 33.1814 4.02243 33.2124 3.9672 33.2565C3.91197 33.3005 3.86737 33.3565 3.83673 33.4201C3.80608 33.4838 3.79016 33.5535 3.79016 33.6242C3.79016 33.6948 3.80608 33.7646 3.83673 33.8282C3.86737 33.8919 3.91197 33.9478 3.9672 33.9919C4.02243 34.0359 4.08687 34.067 4.15575 34.0827C4.22463 34.0985 4.29616 34.0985 4.36505 34.0828H10.762C10.866 34.0591 10.9587 34.0008 11.0252 33.9175C11.0917 33.8342 11.1279 33.7308 11.1279 33.6242C11.1279 33.5176 11.0917 33.4142 11.0252 33.3308C10.9587 33.2475 10.866 33.1893 10.762 33.1656Z" fill="#AFAFAF"/>
<path d="M23.1985 19.5437H16.8015C16.6768 19.5437 16.5572 19.5933 16.4689 19.6815C16.3807 19.7697 16.3312 19.8893 16.3312 20.0141C16.3312 20.1388 16.3807 20.2585 16.4689 20.3467C16.5572 20.4349 16.6768 20.4844 16.8015 20.4844H23.1985C23.3233 20.4844 23.4429 20.4349 23.5311 20.3467C23.6193 20.2585 23.6689 20.1388 23.6689 20.0141C23.6689 19.8893 23.6193 19.7697 23.5311 19.6815C23.4429 19.5933 23.3233 19.5437 23.1985 19.5437Z" fill="#AFAFAF"/>
<path d="M23.1985 24.0828H16.8015C16.6768 24.0828 16.5572 24.1323 16.4689 24.2205C16.3807 24.3087 16.3312 24.4284 16.3312 24.5531C16.3312 24.6779 16.3807 24.7975 16.4689 24.8857C16.5572 24.9739 16.6768 25.0235 16.8015 25.0235H23.1985C23.3233 25.0235 23.4429 24.9739 23.5311 24.8857C23.6193 24.7975 23.6689 24.6779 23.6689 24.5531C23.6689 24.4284 23.6193 24.3087 23.5311 24.2205C23.4429 24.1323 23.3233 24.0828 23.1985 24.0828Z" fill="#AFAFAF"/>
<path d="M23.1985 28.6266H16.8015C16.6768 28.6266 16.5572 28.6761 16.4689 28.7644C16.3807 28.8526 16.3312 28.9722 16.3312 29.097C16.3312 29.2217 16.3807 29.3413 16.4689 29.4296C16.5572 29.5178 16.6768 29.5673 16.8015 29.5673H23.1985C23.3233 29.5673 23.4429 29.5178 23.5311 29.4296C23.6193 29.3413 23.6689 29.2217 23.6689 29.097C23.6689 28.9722 23.6193 28.8526 23.5311 28.7644C23.4429 28.6761 23.3233 28.6266 23.1985 28.6266Z" fill="#AFAFAF"/>
<path d="M23.1984 33.1656H16.8014C16.7326 33.1499 16.661 33.1499 16.5922 33.1656C16.5233 33.1814 16.4588 33.2124 16.4036 33.2565C16.3484 33.3005 16.3038 33.3565 16.2731 33.4201C16.2425 33.4838 16.2266 33.5535 16.2266 33.6242C16.2266 33.6948 16.2425 33.7646 16.2731 33.8282C16.3038 33.8919 16.3484 33.9478 16.4036 33.9919C16.4588 34.0359 16.5233 34.067 16.5922 34.0827C16.661 34.0985 16.7326 34.0985 16.8014 34.0828H23.1984C23.2673 34.0985 23.3389 34.0985 23.4077 34.0827C23.4766 34.067 23.5411 34.0359 23.5963 33.9919C23.6515 33.9478 23.6961 33.8919 23.7268 33.8282C23.7574 33.7646 23.7733 33.6948 23.7733 33.6242C23.7733 33.5535 23.7574 33.4838 23.7268 33.4201C23.6961 33.3565 23.6515 33.3005 23.5963 33.2565C23.5411 33.2124 23.4766 33.1814 23.4077 33.1656C23.3389 33.1499 23.2673 33.1499 23.1984 33.1656Z" fill="#AFAFAF"/>
<path d="M35.6349 19.5437H29.2379C29.1132 19.5437 28.9936 19.5933 28.9053 19.6815C28.8171 19.7697 28.7676 19.8893 28.7676 20.0141C28.7676 20.1388 28.8171 20.2585 28.9053 20.3467C28.9936 20.4349 29.1132 20.4844 29.2379 20.4844H35.6349C35.7597 20.4844 35.8793 20.4349 35.9675 20.3467C36.0557 20.2585 36.1053 20.1388 36.1053 20.0141C36.1053 19.8893 36.0557 19.7697 35.9675 19.6815C35.8793 19.5933 35.7597 19.5437 35.6349 19.5437Z" fill="#AFAFAF"/>
<path d="M35.6349 24.0828H29.2379C29.1132 24.0828 28.9936 24.1323 28.9053 24.2205C28.8171 24.3087 28.7676 24.4284 28.7676 24.5531C28.7676 24.6779 28.8171 24.7975 28.9053 24.8857C28.9936 24.9739 29.1132 25.0235 29.2379 25.0235H35.6349C35.7597 25.0235 35.8793 24.9739 35.9675 24.8857C36.0557 24.7975 36.1053 24.6779 36.1053 24.5531C36.1053 24.4284 36.0557 24.3087 35.9675 24.2205C35.8793 24.1323 35.7597 24.0828 35.6349 24.0828Z" fill="#AFAFAF"/>
<path d="M35.6349 28.6266H29.2379C29.1132 28.6266 28.9936 28.6761 28.9053 28.7644C28.8171 28.8526 28.7676 28.9722 28.7676 29.097C28.7676 29.2217 28.8171 29.3413 28.9053 29.4296C28.9936 29.5178 29.1132 29.5673 29.2379 29.5673H35.6349C35.7597 29.5673 35.8793 29.5178 35.9675 29.4296C36.0557 29.3413 36.1053 29.2217 36.1053 29.097C36.1053 28.9722 36.0557 28.8526 35.9675 28.7644C35.8793 28.6761 35.7597 28.6266 35.6349 28.6266Z" fill="#AFAFAF"/>
<path d="M35.635 33.1656H29.238C29.1341 33.1893 29.0413 33.2475 28.9749 33.3308C28.9084 33.4142 28.8722 33.5176 28.8722 33.6242C28.8722 33.7308 28.9084 33.8342 28.9749 33.9175C29.0413 34.0008 29.1341 34.0591 29.238 34.0828H35.635C35.7039 34.0985 35.7755 34.0985 35.8443 34.0827C35.9132 34.067 35.9776 34.0359 36.0329 33.9919C36.0881 33.9478 36.1327 33.8919 36.1634 33.8282C36.194 33.7646 36.2099 33.6948 36.2099 33.6242C36.2099 33.5535 36.194 33.4838 36.1634 33.4201C36.1327 33.3565 36.0881 33.3005 36.0329 33.2565C35.9776 33.2124 35.9132 33.1814 35.8443 33.1656C35.7755 33.1499 35.7039 33.1499 35.635 33.1656Z" fill="#AFAFAF"/>
</g>
<defs>
<clipPath id="clip0_207_4732">
<rect width="40" height="40" fill="white"/>
</clipPath>
</defs>
</svg>
