<svg width="31" height="32" viewBox="0 0 31 32" fill="none" xmlns="http://www.w3.org/2000/svg">
<g id="&#229;&#187;&#129;&#231;&#180;&#153;">
<path id="Vector" d="M24.0545 1H6.94548C3.6647 1 1 5.79908 1 11.6962V30.6545C1 30.8464 1.14845 31 1.33402 31H18.4431C18.6286 31 18.7771 30.8464 18.7771 30.6545V22.3847H24.0545C27.3353 22.3847 30 17.5856 30 11.6885C30 5.7914 27.3353 1 24.0545 1ZM1.66803 30.3089V23.5902H2.45482C2.64039 23.5902 2.78884 23.4367 2.78884 23.2447C2.78884 23.0527 2.64039 22.8992 2.45482 22.8992H1.66803V11.6962C1.66803 10.3294 1.81648 9.03174 2.07627 7.84157H2.93729C3.12286 7.84157 3.27131 7.688 3.27131 7.49603C3.27131 7.30407 3.12286 7.1505 2.93729 7.1505H2.24699C3.12286 3.91016 4.89685 1.69107 6.94548 1.69107H21.9614C20.5139 2.67392 19.3338 4.6473 18.6806 7.1505H17.9309C17.7453 7.1505 17.5969 7.30407 17.5969 7.49603C17.5969 7.688 17.7453 7.84157 17.9309 7.84157H18.5173C18.2575 9.03942 18.1165 10.3371 18.1165 11.6962V22.8992H17.4484C17.2629 22.8992 17.1144 23.0527 17.1144 23.2447C17.1144 23.4367 17.2629 23.5902 17.4484 23.5902H18.1165V30.3089H1.66803ZM18.7771 21.7013V16.6104C19.4525 18.937 20.5808 20.7645 21.9539 21.7013H18.7771ZM24.0545 21.7013C21.1449 21.7013 18.7771 17.2094 18.7771 11.6962C18.7771 6.18301 21.1449 1.69107 24.0545 1.69107C26.9642 1.69107 29.332 6.18301 29.332 11.6962C29.332 17.2094 26.9642 21.7013 24.0545 21.7013Z" fill="#4D69F9" stroke="white" stroke-miterlimit="10"/>
<path id="Vector_2" d="M24.0547 6.73584C22.4662 6.73584 21.2192 8.91654 21.2192 11.6962C21.2192 14.4758 22.4662 16.6565 24.0547 16.6565C25.6431 16.6565 26.8901 14.4758 26.8901 11.6962C26.8901 8.91654 25.6431 6.73584 24.0547 6.73584ZM24.0547 15.9654C22.8819 15.9654 21.8873 14.0074 21.8873 11.6962C21.8873 9.38493 22.8819 7.42691 24.0547 7.42691C25.2274 7.42691 26.2221 9.38493 26.2221 11.6962C26.2221 14.0074 25.2274 15.9654 24.0547 15.9654Z" fill="#4D69F9" stroke="white" stroke-miterlimit="10"/>
<path id="Vector_3" d="M11.2653 7.49592C11.2653 7.30396 11.1168 7.15039 10.9313 7.15039H9.92923C9.74367 7.15039 9.59521 7.30396 9.59521 7.49592C9.59521 7.68789 9.74367 7.84146 9.92923 7.84146H10.9313C11.1168 7.84146 11.2653 7.68789 11.2653 7.49592Z" fill="#4D69F9" stroke="white" stroke-miterlimit="10"/>
<path id="Vector_4" d="M7.26481 7.49592C7.26481 7.30396 7.11635 7.15039 6.93079 7.15039H5.92874C5.74318 7.15039 5.59473 7.30396 5.59473 7.49592C5.59473 7.68789 5.74318 7.84146 5.92874 7.84146H6.93079C7.11635 7.84146 7.26481 7.68789 7.26481 7.49592Z" fill="#4D69F9" stroke="white" stroke-miterlimit="10"/>
<path id="Vector_5" d="M9.26871 7.49592C9.26871 7.30396 9.12026 7.15039 8.9347 7.15039H7.93265C7.74708 7.15039 7.59863 7.30396 7.59863 7.49592C7.59863 7.68789 7.74708 7.84146 7.93265 7.84146H8.9347C9.12026 7.84146 9.26871 7.68789 9.26871 7.49592Z" fill="#4D69F9" stroke="white" stroke-miterlimit="10"/>
<path id="Vector_6" d="M13.2619 7.49592C13.2619 7.30396 13.1134 7.15039 12.9279 7.15039H11.9258C11.7402 7.15039 11.5918 7.30396 11.5918 7.49592C11.5918 7.68789 11.7402 7.84146 11.9258 7.84146H12.9279C13.1134 7.84146 13.2619 7.68789 13.2619 7.49592Z" fill="#4D69F9" stroke="white" stroke-miterlimit="10"/>
<path id="Vector_7" d="M15.2663 7.49592C15.2663 7.30396 15.1178 7.15039 14.9323 7.15039H13.9302C13.7446 7.15039 13.5962 7.30396 13.5962 7.49592C13.5962 7.68789 13.7446 7.84146 13.9302 7.84146H14.9323C15.1178 7.84146 15.2663 7.68789 15.2663 7.49592Z" fill="#4D69F9" stroke="white" stroke-miterlimit="10"/>
<path id="Vector_8" d="M5.26822 7.49592C5.26822 7.30396 5.11977 7.15039 4.93421 7.15039H3.93216C3.7466 7.15039 3.59814 7.30396 3.59814 7.49592C3.59814 7.68789 3.7466 7.84146 3.93216 7.84146H4.93421C5.11977 7.84146 5.26822 7.68789 5.26822 7.49592Z" fill="#4D69F9" stroke="white" stroke-miterlimit="10"/>
<path id="Vector_9" d="M17.2629 7.49592C17.2629 7.30396 17.1144 7.15039 16.9288 7.15039H15.9268C15.7412 7.15039 15.5928 7.30396 15.5928 7.49592C15.5928 7.68789 15.7412 7.84146 15.9268 7.84146H16.9288C17.1144 7.84146 17.2629 7.68789 17.2629 7.49592Z" fill="#4D69F9" stroke="white" stroke-miterlimit="10"/>
<path id="Vector_10" d="M4.4513 22.8992H3.44925C3.26369 22.8992 3.11523 23.0527 3.11523 23.2447C3.11523 23.4367 3.26369 23.5902 3.44925 23.5902H4.4513C4.63686 23.5902 4.78531 23.4367 4.78531 23.2447C4.78531 23.0527 4.63686 22.8992 4.4513 22.8992Z" fill="#4D69F9" stroke="white" stroke-miterlimit="10"/>
<path id="Vector_11" d="M8.45227 22.8992H7.45023C7.26466 22.8992 7.11621 23.0527 7.11621 23.2447C7.11621 23.4367 7.26466 23.5902 7.45023 23.5902H8.45227C8.63784 23.5902 8.78629 23.4367 8.78629 23.2447C8.78629 23.0527 8.63784 22.8992 8.45227 22.8992Z" fill="#4D69F9" stroke="white" stroke-miterlimit="10"/>
<path id="Vector_12" d="M6.44837 22.8992H5.44632C5.26076 22.8992 5.1123 23.0527 5.1123 23.2447C5.1123 23.4367 5.26076 23.5902 5.44632 23.5902H6.44837C6.63393 23.5902 6.78238 23.4367 6.78238 23.2447C6.78238 23.0527 6.63393 22.8992 6.44837 22.8992Z" fill="#4D69F9" stroke="white" stroke-miterlimit="10"/>
<path id="Vector_13" d="M10.4489 22.8992H9.44681C9.26124 22.8992 9.11279 23.0527 9.11279 23.2447C9.11279 23.4367 9.26124 23.5902 9.44681 23.5902H10.4489C10.6344 23.5902 10.7829 23.4367 10.7829 23.2447C10.7829 23.0527 10.6344 22.8992 10.4489 22.8992Z" fill="#4D69F9" stroke="white" stroke-miterlimit="10"/>
<path id="Vector_14" d="M14.4498 22.8992H13.4478C13.2622 22.8992 13.1138 23.0527 13.1138 23.2447C13.1138 23.4367 13.2622 23.5902 13.4478 23.5902H14.4498C14.6354 23.5902 14.7838 23.4367 14.7838 23.2447C14.7838 23.0527 14.6354 22.8992 14.4498 22.8992Z" fill="#4D69F9" stroke="white" stroke-miterlimit="10"/>
<path id="Vector_15" d="M16.4464 22.8992H15.4444C15.2588 22.8992 15.1104 23.0527 15.1104 23.2447C15.1104 23.4367 15.2588 23.5902 15.4444 23.5902H16.4464C16.632 23.5902 16.7804 23.4367 16.7804 23.2447C16.7804 23.0527 16.632 22.8992 16.4464 22.8992Z" fill="#4D69F9" stroke="white" stroke-miterlimit="10"/>
<path id="Vector_16" d="M12.4454 22.8992H11.4434C11.2578 22.8992 11.1094 23.0527 11.1094 23.2447C11.1094 23.4367 11.2578 23.5902 11.4434 23.5902H12.4454C12.631 23.5902 12.7795 23.4367 12.7795 23.2447C12.7795 23.0527 12.631 22.8992 12.4454 22.8992Z" fill="#4D69F9" stroke="white" stroke-miterlimit="10"/>
</g>
</svg>
