<svg width="72" height="62" viewBox="0 0 72 62" fill="none" xmlns="http://www.w3.org/2000/svg">
<g opacity="0.4">
<path opacity="0.7" d="M72 0V40.0084C63.4039 48.5948 58.5797 53.4136 49.9835 62H7.55867C4.60189 59.0466 2.94936 57.3959 0 54.4499V15.0707C5.89131 9.18601 9.19638 5.88467 15.0877 0H72Z" fill="#051833"/>
<path d="M68.2948 3.70105V38.4761L59.3726 47.3809L48.4422 58.299H9.10004L4.1795 53.384L3.70523 52.9102V16.6103L10.3821 9.93362L16.6291 3.70105H68.2948ZM72 0H15.0877C9.19638 5.88467 5.89131 9.18601 0 15.0707V54.4425C2.95677 57.3959 4.6093 59.0466 7.56608 61.9926H49.9909C58.5871 53.4062 63.4113 48.5874 72.0074 40.001V0H72Z" fill="#00FFCF"/>
<path d="M53.7998 62.0001L71.948 43.8723V62.0001H53.7998Z" fill="#00FFCF"/>
</g>
</svg>
