<svg width="32" height="32" viewBox="0 0 32 32" fill="none" xmlns="http://www.w3.org/2000/svg">
<g id="&#230;&#176;&#163;&#229;&#145;&#179;">
<path id="Vector" d="M26.7464 12.0031H25.9479C25.7559 12.0031 25.6023 12.1566 25.6023 12.3486C25.6023 12.5406 25.7559 12.6941 25.9479 12.6941H26.7464C28.7122 12.6941 30.3093 14.2913 30.3093 16.257V26.746C30.3093 28.7117 28.7122 30.3089 26.7464 30.3089H5.25396C3.28823 30.3089 1.69108 28.7117 1.69108 26.746V16.257C1.69108 14.2913 3.28823 12.6941 5.25396 12.6941H6.05254C6.2445 12.6941 6.39807 12.5406 6.39807 12.3486C6.39807 12.1566 6.2445 12.0031 6.05254 12.0031H5.25396C2.91198 12.0031 1 13.9074 1 16.257V26.746C1 29.088 2.9043 31 5.25396 31H26.7464C29.0884 31 31.0004 29.0957 31.0004 26.746V16.257C31.0004 13.915 29.0961 12.0031 26.7464 12.0031Z" fill="#4D69F9" stroke="white" stroke-miterlimit="10"/>
<path id="Vector_2" d="M8.56362 23.2369L6.97414 24.6805C6.83593 24.811 6.82057 25.026 6.95111 25.1642C7.02021 25.241 7.11236 25.2794 7.2045 25.2794C7.28896 25.2794 7.37343 25.2487 7.43486 25.1873L9.02433 23.7437C10.3374 22.5458 11.1513 20.6262 11.2435 18.4608C11.3433 16.1956 10.6599 14.084 9.36219 12.6788C8.07986 11.289 7.45789 9.10056 7.70361 6.84305C7.92629 4.83125 8.79398 3.15731 10.084 2.25891L10.9977 1.62158C11.1513 1.51408 11.1897 1.29908 11.0822 1.14551C10.9747 0.991934 10.7597 0.95354 10.6061 1.06104L9.69237 1.69837C8.23344 2.71195 7.26593 4.56249 7.02021 6.77394C6.75146 9.2311 7.43486 11.6192 8.8554 13.1549C10.0072 14.4065 10.6445 16.3799 10.5524 18.4378C10.4679 20.4189 9.73845 22.1696 8.55594 23.2369H8.56362Z" fill="#4D69F9" stroke="white" stroke-miterlimit="10"/>
<path id="Vector_3" d="M15.505 23.2369L13.9155 24.6805C13.7773 24.811 13.762 25.026 13.8925 25.1642C13.9616 25.241 14.0538 25.2794 14.1459 25.2794C14.2304 25.2794 14.3148 25.2487 14.3763 25.1873L15.9657 23.7437C17.2788 22.5458 18.0927 20.6262 18.1849 18.4608C18.2847 16.1956 17.6013 14.084 16.3036 12.6788C15.0213 11.289 14.3993 9.10056 14.645 6.84305C14.8677 4.83125 15.7354 3.15731 17.0254 2.25891L17.9391 1.62158C18.0927 1.51408 18.1311 1.29908 18.0236 1.14551C17.9161 0.991934 17.7011 0.95354 17.5399 1.06104L16.6261 1.69837C15.1672 2.71195 14.1997 4.56249 13.9539 6.77394C13.6852 9.2311 14.3686 11.6192 15.7891 13.1549C16.9409 14.4065 17.5783 16.3799 17.4861 18.4378C17.4016 20.4189 16.6722 22.1696 15.4897 23.2369H15.505Z" fill="#4D69F9" stroke="white" stroke-miterlimit="10"/>
<path id="Vector_4" d="M22.4386 23.2369L20.8491 24.6805C20.7109 24.811 20.6956 25.026 20.8261 25.1642C20.8952 25.241 20.9874 25.2794 21.0795 25.2794C21.164 25.2794 21.2484 25.2487 21.3099 25.1873L22.8993 23.7437C24.2124 22.5458 25.0263 20.6262 25.1185 18.4608C25.2183 16.1956 24.5349 14.084 23.2372 12.6788C21.9549 11.289 21.3329 9.10056 21.5786 6.84305C21.8013 4.83125 22.6613 3.15731 23.959 2.25891L24.8727 1.62158C25.0263 1.51408 25.0647 1.29908 24.9572 1.14551C24.8497 0.991934 24.6347 0.95354 24.4811 1.06104L23.5674 1.69837C22.1084 2.71195 21.1409 4.56249 20.8952 6.77394C20.6265 9.2311 21.3099 11.6192 22.7304 13.1549C23.8822 14.4065 24.5195 16.3799 24.4274 18.4378C24.3429 20.4189 23.6134 22.1696 22.4309 23.2369H22.4386Z" fill="#4D69F9" stroke="white" stroke-miterlimit="10"/>
</g>
</svg>
