<svg width="32" height="32" viewBox="0 0 32 32" fill="none" xmlns="http://www.w3.org/2000/svg">
<path d="M23.3347 10.1244C25.8462 10.1244 27.8969 8.08141 27.8969 5.56221C27.8969 3.04301 25.8462 1 23.3347 1C20.8232 1 18.7725 3.04301 18.7725 5.56221C18.7725 8.08141 20.8155 10.1244 23.3347 10.1244ZM23.3347 1.69124C25.4698 1.69124 27.2056 3.42704 27.2056 5.56221C27.2056 7.69739 25.4698 9.43318 23.3347 9.43318C21.1995 9.43318 19.4637 7.69739 19.4637 5.56221C19.4637 3.42704 21.1995 1.69124 23.3347 1.69124Z" fill="#4D69F9" stroke="white" stroke-miterlimit="10"/>
<path d="M23.3349 11.0922C22.3671 11.0922 21.4378 11.2689 20.5469 11.6145C20.3779 9.25661 18.404 7.38257 16 7.38257C13.596 7.38257 11.6221 9.25661 11.4531 11.6145C10.5699 11.2689 9.63287 11.0922 8.66513 11.0922C4.44086 11.0922 1 14.5408 1 18.7651V24.272C1 24.464 1.15361 24.6176 1.34562 24.6176H8.35023C8.33487 24.7942 8.32719 24.9709 8.32719 25.1475V30.6545C8.32719 30.8465 8.4808 31.0001 8.67281 31.0001H23.3349C23.5269 31.0001 23.6805 30.8465 23.6805 30.6545V25.1475C23.6805 24.9709 23.6728 24.7942 23.6574 24.6176H30.6621C30.8541 24.6176 31.0077 24.464 31.0077 24.272V18.7651C31.0077 14.5331 27.5668 11.0922 23.3349 11.0922ZM16.0077 8.07381C18.1429 8.07381 19.8786 9.8096 19.8786 11.9448C19.8786 14.08 18.1429 15.8157 16.0077 15.8157C13.8725 15.8157 12.1367 14.08 12.1367 11.9448C12.1367 9.8096 13.8725 8.07381 16.0077 8.07381ZM1.69124 23.934V18.7727C1.69124 14.9248 4.82488 11.7912 8.67281 11.7912C9.64823 11.7912 10.5853 11.9909 11.4608 12.3749C11.6528 14.4486 13.2273 16.1153 15.255 16.4455C15.3779 16.7912 15.47 17.1445 15.5392 17.4978C11.9293 17.7128 8.98771 20.4317 8.42704 23.934H1.69124ZM22.9892 30.3165H9.01843V25.1552C9.01843 21.3073 12.1521 18.1737 16 18.1737C19.8479 18.1737 22.9816 21.3073 22.9816 25.1552V30.3165H22.9892ZM30.3164 23.934H23.5806C23.02 20.4317 20.0707 17.7128 16.4685 17.4978C16.5376 17.1368 16.6298 16.7835 16.7527 16.4455C18.7803 16.1076 20.3548 14.4409 20.5469 12.3749C21.4301 11.9909 22.3671 11.7912 23.3349 11.7912C27.1828 11.7912 30.3164 14.9248 30.3164 18.7727V23.934Z" fill="#4D69F9" stroke="white" stroke-miterlimit="10"/>
<path d="M8.67305 10.1244C11.1846 10.1244 13.2353 8.08141 13.2353 5.56221C13.2353 3.04301 11.1923 1 8.67305 1C6.15385 1 4.11084 3.04301 4.11084 5.56221C4.11084 8.08141 6.15385 10.1244 8.67305 10.1244ZM8.67305 1.69124C10.8082 1.69124 12.544 3.42704 12.544 5.56221C12.544 7.69739 10.8082 9.43318 8.67305 9.43318C6.53787 9.43318 4.80208 7.69739 4.80208 5.56221C4.80208 3.42704 6.53787 1.69124 8.67305 1.69124Z" fill="#4D69F9" stroke="white" stroke-miterlimit="10"/>
</svg>
