<svg width="32" height="32" viewBox="0 0 32 32" fill="none" xmlns="http://www.w3.org/2000/svg">
<g id="&#230;&#189;&#148;&#230;&#182;&#178;">
<path id="Vector" d="M28.7039 11.2943H27.1835V8.9913C27.1835 8.26203 26.5922 7.67093 25.8627 7.67093H24.3576V5.31423H25.8627C26.5922 5.31423 27.1835 4.72313 27.1835 3.99386V2.32037C27.1835 1.5911 26.5922 1 25.8627 1H11.9327C10.1281 1 8.65374 2.46622 8.65374 4.27789V7.61719C8.65374 8.34647 9.24503 8.93756 9.97455 8.93756H11.6486C12.3781 8.93756 12.9694 8.34647 12.9694 7.61719V5.9437C12.9694 5.59826 13.2535 5.31423 13.5991 5.31423H20.5257V7.67093H19.0206C18.291 7.67093 17.6997 8.26203 17.6997 8.9913V11.2943H16.1793C15.204 11.2943 14.344 11.9237 14.0214 12.8219C13.7834 12.8065 13.5453 12.8065 13.3073 12.8373C12.9233 10.9949 11.2954 9.64381 9.37557 9.64381C7.45579 9.64381 5.82782 10.9949 5.44386 12.8373C3.57015 12.63 1.7886 13.7661 1.1973 15.5855C0.606009 17.4048 1.3816 19.37 3.01726 20.3065C2.24166 22.0184 2.77152 24.0681 4.32271 25.1965C5.66655 26.1714 7.42508 26.2021 8.7766 25.3731C9.21431 26.2559 10.0821 26.8623 11.0727 26.9391C11.1802 28.2211 12.1477 29.2881 13.4455 29.4954C13.5914 29.5184 13.745 29.5338 13.8909 29.5338C13.937 29.5338 13.9907 29.5261 14.0368 29.5261C14.3747 30.4089 15.2117 31 16.1793 31H28.7039C29.971 31 31 29.9713 31 28.7047V13.5972C31 12.3306 29.971 11.3019 28.7039 11.3019V11.2943ZM26.4924 8.9913V11.2943H24.8797V8.36182H25.8627C26.2082 8.36182 26.4924 8.64585 26.4924 8.9913ZM22.791 11.2943V8.36182H24.1963V11.2943H22.791ZM20.7023 11.2943V8.36182H22.1076V11.2943H20.7023ZM12.2783 5.9437V7.61719C12.2783 7.96264 11.9942 8.24667 11.6486 8.24667H9.97455C9.62899 8.24667 9.34486 7.96264 9.34486 7.61719V4.27789C9.34486 2.85005 10.5044 1.69089 11.9327 1.69089H25.855C26.2005 1.69089 26.4847 1.97492 26.4847 2.32037V3.99386C26.4847 4.3393 26.2005 4.62334 25.855 4.62334H13.6068C12.8773 4.62334 12.286 5.21443 12.286 5.9437H12.2783ZM21.2168 5.31423H23.6588V7.67093H21.2168V5.31423ZM18.3909 8.99898C18.3909 8.65353 18.675 8.3695 19.0206 8.3695H20.0035V11.3019H18.3909V8.99898ZM4.72202 24.6361C3.35514 23.6459 2.94814 21.7881 3.77749 20.3219C3.82356 20.2375 3.83124 20.1377 3.80821 20.0455C3.78517 19.9534 3.70838 19.8767 3.62391 19.8383C2.09576 19.132 1.32785 17.3971 1.85003 15.7927C2.37221 14.1883 4.00786 13.2288 5.65888 13.5589C5.75103 13.5742 5.85085 13.5589 5.92765 13.4974C6.00444 13.436 6.05819 13.3516 6.06587 13.2595C6.26553 11.586 7.67849 10.327 9.36789 10.327C11.0573 10.327 12.4703 11.586 12.6699 13.2595C12.6776 13.3516 12.7314 13.4437 12.8081 13.4974C12.8849 13.5512 12.9848 13.5742 13.0769 13.5589C14.7279 13.2288 16.3636 14.1883 16.8858 15.7927C17.4079 17.3971 16.6477 19.132 15.1119 19.8383C15.0274 19.8767 14.9583 19.9534 14.9276 20.0455C14.8969 20.1377 14.9045 20.2375 14.9583 20.3219C15.78 21.7881 15.373 23.6459 14.0138 24.6361C12.6469 25.6264 10.7578 25.4422 9.62131 24.1986C9.55219 24.1295 9.46772 24.0911 9.36789 24.0911C9.26807 24.0911 9.17592 24.1295 9.11448 24.1986C8.99162 24.3367 8.85339 24.4596 8.70749 24.567C7.55562 25.4575 5.93532 25.5113 4.72202 24.6285V24.6361ZM18.9898 22.9012C19.6579 21.8035 19.4967 20.368 18.5675 19.4391C18.2066 19.0783 17.7612 18.825 17.2774 18.7021C17.6998 17.9038 17.8533 16.9596 17.669 16.0307H25.855C26.2005 16.0307 26.4847 16.3147 26.4847 16.6602V25.9181C26.4847 26.2636 26.2005 26.5476 25.855 26.5476H19.5274C19.5735 26.4708 19.6195 26.3941 19.6579 26.3173C20.2569 25.1428 19.9574 23.7303 18.9898 22.8936V22.9012ZM13.553 28.8045C12.4856 28.6356 11.71 27.6914 11.7484 26.609C11.7484 26.5092 11.7177 26.4171 11.6486 26.348C11.5795 26.2789 11.4797 26.2482 11.3875 26.2482C10.4814 26.2866 9.67506 25.7492 9.33718 24.9355C9.34486 24.9278 9.36022 24.9202 9.36789 24.9125C10.1204 25.5957 11.088 25.9488 12.0633 25.9488C12.8849 25.9488 13.7143 25.6955 14.4208 25.1812C15.9719 24.0527 16.4941 22.0107 15.7262 20.2912C16.1716 20.0379 16.5479 19.7001 16.8627 19.3163C17.3235 19.3777 17.7535 19.585 18.0837 19.915C18.8516 20.6827 18.9207 21.9033 18.2526 22.7477C18.1912 22.8245 18.1682 22.9166 18.1835 23.0164C18.1989 23.1085 18.2526 23.1929 18.3294 23.2467C19.2279 23.8454 19.5427 25.0276 19.0513 25.9949C18.9438 26.2098 18.7979 26.3941 18.6289 26.5553C18.5445 26.586 18.4677 26.6397 18.4293 26.7242C17.861 27.1464 17.1085 27.2922 16.4097 27.0312C16.3175 27.0005 16.2177 27.0005 16.1332 27.0466C16.0487 27.0926 15.9873 27.1694 15.9566 27.2615C15.6648 28.3055 14.6358 28.9657 13.5607 28.7968L13.553 28.8045ZM30.3089 28.6894C30.3089 29.5798 29.587 30.3014 28.6963 30.3014H16.1793C15.5496 30.3014 14.9967 29.9406 14.7356 29.3956C15.5112 29.1499 16.1716 28.5742 16.4941 27.7989C17.3542 27.9985 18.245 27.7835 18.9131 27.2462H25.855C26.5845 27.2462 27.1758 26.6551 27.1758 25.9258V16.6679C27.1758 15.9386 26.5845 15.3475 25.855 15.3475H17.4617C16.9779 14.1192 15.9336 13.2441 14.7126 12.9371C14.966 12.369 15.5342 11.9852 16.1793 11.9852H28.7039C29.5947 11.9852 30.3166 12.7068 30.3166 13.5972V28.697L30.3089 28.6894Z" fill="#4D69F9" stroke="white" stroke-miterlimit="10"/>
</g>
</svg>
