<svg width="23" height="30" viewBox="0 0 23 30" fill="none" xmlns="http://www.w3.org/2000/svg">
<g id="&#230;&#191;&#149;&#229;&#186;&#166;" clip-path="url(#clip0_735_3484)">
<path id="Vector" d="M11.482 0C11.8357 0.157779 12.0544 0.442515 12.2496 0.765411C13.7599 3.26125 15.6099 5.50905 17.3873 7.81042C18.6884 9.49462 19.9653 11.1964 20.956 13.0905C21.9482 14.9868 22.5823 16.9799 22.4869 19.1455C22.3694 21.8109 21.4448 24.1673 19.6747 26.1744C17.992 28.0832 15.8954 29.3036 13.3981 29.7784C9.95408 30.433 6.8374 29.6323 4.12507 27.4322C1.867 25.6005 0.548993 23.1964 0.114551 20.3109C-0.272191 17.7417 0.345715 15.3735 1.52502 13.1169C2.62434 11.013 4.06856 9.14237 5.52086 7.27984C7.23148 5.08635 8.95897 2.9068 10.4135 0.526174C10.5456 0.309687 10.8098 0.173924 11.0123 0C11.1686 0 11.3249 0 11.4812 0L11.482 0ZM11.2501 2.74095C11.2082 2.78718 11.1877 2.807 11.1701 2.82975C9.60844 4.91536 8.05413 7.00612 6.48441 9.08586C5.19063 10.8009 3.90198 12.5174 2.95604 14.4591C2.00056 16.4193 1.62482 18.4616 2.05707 20.6265C2.83936 24.5416 6.16959 27.6208 10.183 28.0546C13.1552 28.376 15.7435 27.4631 17.8694 25.3657C20.6038 22.6688 21.3428 18.6663 19.834 15.1204C19.0752 13.3364 18.0015 11.7446 16.8464 10.2065C15.4631 8.36448 14.0424 6.55113 12.6503 4.71575C12.1681 4.0795 11.7256 3.41463 11.2486 2.74022L11.2501 2.74095Z" fill="white"/>
</g>
<defs>
<clipPath id="clip0_735_3484">
<rect width="22.4963" height="30" fill="white"/>
</clipPath>
</defs>
</svg>
