<svg width="973" height="75" viewBox="0 0 973 75" fill="none" xmlns="http://www.w3.org/2000/svg">
<g opacity="0.7" filter="url(#filter0_d_675_2806)">
<path d="M937.91 57.52H22.1001C15.2601 50.68 11.4301 46.85 4.59009 40.01V20.51C11.4301 13.67 15.2601 9.84 22.1001 3H937.91C944.75 9.84 948.58 13.67 955.42 20.51V40.01C948.58 46.85 944.75 50.68 937.91 57.52Z" fill="#051833"/>
</g>
<path d="M31.82 3H19.01C12.76 9.25 9.25 12.76 3 19.01V41.51C9.25 47.76 12.76 51.27 19.01 57.52H31.82" stroke="#00FFCF" stroke-width="5" stroke-linecap="square" stroke-linejoin="bevel"/>
<path d="M927.74 3H940.55C946.8 9.25 950.31 12.76 956.56 19.01V41.51C950.31 47.76 946.8 51.27 940.55 57.52H927.74" stroke="#00FFCF" stroke-width="5" stroke-linecap="square" stroke-linejoin="bevel"/>
<defs>
<filter id="filter0_d_675_2806" x="1.59009" y="0" width="970.83" height="74.52" filterUnits="userSpaceOnUse" color-interpolation-filters="sRGB">
<feFlood flood-opacity="0" result="BackgroundImageFix"/>
<feColorMatrix in="SourceAlpha" type="matrix" values="0 0 0 0 0 0 0 0 0 0 0 0 0 0 0 0 0 0 127 0" result="hardAlpha"/>
<feOffset dx="7" dy="7"/>
<feGaussianBlur stdDeviation="5"/>
<feColorMatrix type="matrix" values="0 0 0 0 0 0 0 0 0 0 0 0 0 0 0 0 0 0 0.4 0"/>
<feBlend mode="normal" in2="BackgroundImageFix" result="effect1_dropShadow_675_2806"/>
<feBlend mode="normal" in="SourceGraphic" in2="effect1_dropShadow_675_2806" result="shape"/>
</filter>
</defs>
</svg>
