<svg width="22" height="38" viewBox="0 0 22 38" fill="none" xmlns="http://www.w3.org/2000/svg">
<g id="&#230;&#186;&#171;&#229;&#186;&#166;">
<path id="Vector" d="M8.01627 37.9993C7.31168 37.829 6.5903 37.7108 5.90542 37.4796C2.10429 36.2 -0.390611 32.1867 0.0503962 28.1243C0.311788 25.7139 1.34786 23.7243 3.15716 22.1555C3.35284 21.986 3.39008 21.8113 3.39008 21.5786C3.38643 16.2857 3.38424 10.9928 3.39008 5.69992C3.39227 3.4531 4.33853 1.73192 6.28218 0.6613C9.79344 -1.27251 14.1122 1.26129 14.2159 5.32446C14.2765 7.70956 14.232 10.0976 14.2327 12.4842C14.2342 15.514 14.2356 18.5437 14.2276 21.5734C14.2276 21.8291 14.2984 21.9949 14.4905 22.1719C17.2723 24.7295 18.2923 27.8967 17.2365 31.554C16.199 35.1487 13.699 37.2342 10.0767 37.9108C9.92414 37.939 9.77227 37.9703 9.61967 38H8.01627V37.9993ZM12.0467 13.8396H12.0364C12.0364 11.0077 12.0795 8.17499 12.0233 5.34379C11.9773 3.03303 9.50942 1.54382 7.46136 2.54381C6.14199 3.18841 5.56883 4.30885 5.57029 5.7817C5.57759 11.2605 5.5681 16.7392 5.58051 22.2172C5.58197 22.818 5.38191 23.2388 4.89928 23.5927C2.41241 25.4165 1.50995 28.7919 2.71542 31.6685C3.91359 34.5272 6.92909 36.2075 9.91611 35.6811C12.5665 35.2134 14.7132 33.1986 15.2637 30.5086C15.8427 27.6767 14.949 25.3406 12.7001 23.5734C12.2394 23.2113 12.0372 22.8061 12.0401 22.2239C12.054 19.4292 12.0459 16.6336 12.0459 13.8389L12.0467 13.8396Z" fill="white"/>
<path id="Vector_2" d="M19.2103 6.64255C18.6758 6.64255 18.1421 6.64999 17.6076 6.64032C16.9132 6.62768 16.4343 6.1801 16.4226 5.54814C16.4102 4.90725 16.9052 4.42621 17.6105 4.42027C18.6787 4.41134 19.7469 4.41134 20.8151 4.42027C21.5037 4.42621 21.9878 4.8842 21.9994 5.51394C22.0111 6.15631 21.5212 6.62768 20.8122 6.64032C20.2785 6.64999 19.744 6.64255 19.2096 6.64255H19.2103Z" fill="white"/>
<path id="Vector_3" d="M19.1906 11.0946C18.6561 11.0946 18.1224 11.1027 17.5879 11.0923C16.9009 11.079 16.4197 10.6128 16.4219 9.98082C16.4241 9.35034 16.906 8.88046 17.593 8.87303C18.6736 8.86187 19.7543 8.86113 20.8341 8.87303C21.5168 8.88046 22.0016 9.35852 21.9995 9.98603C21.9973 10.6172 21.5168 11.079 20.829 11.0916C20.2829 11.102 19.7367 11.0938 19.1906 11.0938V11.0946Z" fill="white"/>
<path id="Vector_4" d="M19.195 15.5473C18.6605 15.5473 18.1268 15.5548 17.5923 15.5451C16.9052 15.5332 16.4233 15.07 16.4219 14.4388C16.4211 13.8091 16.9016 13.3347 17.5894 13.3265C18.67 13.3131 19.7506 13.3139 20.8305 13.3265C21.5176 13.3347 21.998 13.8076 21.9994 14.4358C22.0009 15.0789 21.5095 15.5369 20.7962 15.5458C20.2624 15.5525 19.728 15.5473 19.1935 15.5466L19.195 15.5473Z" fill="white"/>
<path id="Vector_5" d="M19.2211 19.9993C18.6749 19.9993 18.128 20.0067 17.5826 19.997C16.9007 19.9851 16.4166 19.5123 16.4224 18.8818C16.429 18.2647 16.8963 17.7911 17.5629 17.7807C18.6552 17.7636 19.7482 17.7643 20.8405 17.78C21.5269 17.7896 22.0058 18.2714 22 18.8989C21.9941 19.5309 21.5108 19.9829 20.8237 19.9993C20.7996 19.9993 20.7748 19.9993 20.7507 19.9993C20.2411 19.9993 19.7307 19.9993 19.2211 19.9993Z" fill="white"/>
<path id="Vector_6" d="M7.72195 24.6349V24.1665C7.72195 19.5175 7.72195 14.8677 7.72341 10.2187C7.72341 10.0469 7.71903 9.8685 7.75772 9.70345C7.8782 9.1897 8.35936 8.82539 8.85513 8.85141C9.39106 8.87892 9.83863 9.30791 9.89924 9.86106C9.91384 9.99564 9.90727 10.1324 9.90727 10.2685C9.90727 14.9056 9.90727 19.542 9.90727 24.1792C9.90727 24.3264 9.90727 24.4736 9.90727 24.6133C12.5088 25.4044 13.5616 27.8616 13.1754 29.8824C12.784 31.9293 10.9945 33.4913 8.96684 33.5441C6.82971 33.5999 4.98463 32.1627 4.49179 30.043C4.21287 28.843 4.40563 27.7092 5.03575 26.6602C5.65856 25.623 6.5727 24.9672 7.72195 24.6342V24.6349ZM8.81278 31.3196C10.0453 31.3196 11.0638 30.2876 11.0689 29.0334C11.074 27.7806 10.0613 26.7375 8.83031 26.7271C7.58468 26.7167 6.55518 27.762 6.55956 29.0341C6.56394 30.2899 7.57884 31.3203 8.81278 31.3196Z" fill="white"/>
</g>
</svg>
