<svg width="24" height="24" viewBox="0 0 24 24" fill="none" xmlns="http://www.w3.org/2000/svg">
<g clip-path="url(#clip0_23_20)">
<path d="M10.43 0.5C10.8 0.56 11.17 0.59 11.54 0.67C15.35 1.53 17.83 3.83 18.81 7.61C19.53 10.38 18.95 12.96 17.29 15.29C17.25 15.35 17.21 15.4 17.17 15.46C17.17 15.47 17.17 15.49 17.14 15.56C17.19 15.6 17.27 15.64 17.33 15.71C19.29 17.67 21.25 19.62 23.2 21.58C23.53 21.91 23.68 22.29 23.56 22.75C23.36 23.55 22.4 23.89 21.75 23.38C21.65 23.31 21.57 23.22 21.49 23.13C19.55 21.19 17.61 19.25 15.66 17.31C15.61 17.26 15.55 17.21 15.49 17.15C14.85 17.64 14.16 18.04 13.43 18.36C8.04 20.68 1.77 17.35 0.68 11.59C0.61 11.21 0.56 10.82 0.5 10.43C0.5 10.01 0.5 9.59 0.5 9.17C0.56 8.79 0.61 8.4 0.68 8.02C1.32 4.45 4.24 1.46 7.79 0.73C8.26 0.63 8.74 0.58 9.21 0.5C9.62 0.5 10.02 0.5 10.43 0.5ZM2.8 9.78C2.79 13.62 5.92 16.77 9.78 16.79C13.62 16.81 16.78 13.67 16.79 9.82C16.8 5.97 13.67 2.82 9.81 2.81C5.96 2.8 2.81 5.94 2.8 9.78Z" fill="#00FFCF"/>
</g>
<defs>
<clipPath id="clip0_23_20">
<rect width="23.12" height="23.11" fill="white" transform="translate(0.5 0.5)"/>
</clipPath>
</defs>
</svg>
