<svg width="20" height="12" viewBox="0 0 20 12" fill="none" xmlns="http://www.w3.org/2000/svg">
<path d="M0.449236 6.21171L10.548 6.21171L10.548 10.9389C10.5478 11.0175 10.5684 11.0948 10.6076 11.1629C10.6468 11.2311 10.7033 11.2876 10.7714 11.3269C10.8402 11.3664 10.918 11.3871 10.9972 11.3871C11.0764 11.3871 11.1543 11.3664 11.223 11.3269L19.7649 6.39045C19.8332 6.35073 19.8899 6.29377 19.9293 6.22526C19.9688 6.15675 19.9895 6.07909 19.9895 6.00004C19.9895 5.921 19.9688 5.84334 19.9293 5.77483C19.8899 5.70632 19.8332 5.64936 19.7649 5.60964L11.2136 0.670787C11.1451 0.630689 11.0672 0.609553 10.9878 0.609553C10.9084 0.609553 10.8305 0.630689 10.762 0.670787C10.6938 0.710479 10.6372 0.767468 10.5979 0.836009C10.5587 0.90455 10.5382 0.982222 10.5386 1.06119L10.5386 5.31331L0.449236 5.31331C0.330102 5.31331 0.215844 5.36063 0.131602 5.44488C0.0473619 5.52912 3.48344e-05 5.64337 3.4824e-05 5.76251C3.48136e-05 5.88164 0.0473618 5.9959 0.131602 6.08014C0.215844 6.16438 0.330101 6.21171 0.449236 6.21171ZM11.4488 1.842L18.6501 6.00004L11.4488 10.1581L11.4488 1.842Z" fill="#AFAFAF"/>
</svg>