<svg width="30" height="30" viewBox="0 0 30 30" fill="none" xmlns="http://www.w3.org/2000/svg">
<g clip-path="url(#clip0_500_5137)">
<path d="M29.9858 15C29.9886 17.9679 29.1109 20.8699 27.4638 23.3388C25.8166 25.8077 23.4741 27.7325 20.7326 28.8696C17.9911 30.0066 14.974 30.3049 12.0629 29.7266C9.15192 29.1482 6.47788 27.7193 4.37924 25.6207C2.28061 23.5221 0.851708 20.848 0.273379 17.937C-0.304949 15.026 -0.00671005 12.0088 1.13035 9.26733C2.26742 6.52586 4.19219 4.18332 6.66109 2.53618C9.12999 0.889028 12.032 0.0113081 15 0.0140985C18.9719 0.0224868 22.7787 1.60405 25.5873 4.41263C28.3959 7.22121 29.9775 11.0281 29.9858 15ZM0.705501 15C0.705502 17.8306 1.54504 20.5975 3.11791 22.9509C4.69078 25.3042 6.92631 27.1382 9.54168 28.2207C12.157 29.3033 15.0347 29.5858 17.8107 29.0326C20.5867 28.4793 23.1362 27.1152 25.1367 25.1127C27.1373 23.1102 28.4989 20.5593 29.0494 17.7828C29.5999 15.0063 29.3145 12.1289 28.2294 9.51455C27.1442 6.90025 25.3081 4.66654 22.9532 3.09599C20.5983 1.52544 17.8305 0.688634 15 0.691427C11.209 0.699825 7.57586 2.21048 4.89654 4.89244C2.21722 7.5744 0.710159 11.209 0.705501 15Z" fill="#AFAFAF"/>
<path d="M20.2668 8.91814L20.2668 21.0818C20.2662 21.1425 20.25 21.2019 20.2197 21.2544C20.1894 21.3069 20.1461 21.3508 20.0939 21.3817C20.0403 21.4127 19.9795 21.429 19.9176 21.429C19.8556 21.429 19.7948 21.4127 19.7412 21.3817L9.21436 15.2998C9.16221 15.2689 9.11891 15.2251 9.08863 15.1726C9.05835 15.1201 9.04212 15.0606 9.0415 15C9.04212 14.9394 9.05835 14.8799 9.08863 14.8274C9.11891 14.7749 9.16221 14.731 9.21436 14.7001L19.7553 8.61829C19.8089 8.58732 19.8697 8.57102 19.9317 8.57102C19.9936 8.57102 20.0544 8.58732 20.1081 8.61829C20.1576 8.6509 20.1981 8.69547 20.2259 8.74788C20.2536 8.80029 20.2677 8.85885 20.2668 8.91814ZM19.5754 20.4751L19.5754 9.51786L10.0787 15L19.5754 20.4751Z" fill="#AFAFAF"/>
</g>
<defs>
<clipPath id="clip0_500_5137">
<rect width="30" height="30" fill="white" transform="translate(0 30) rotate(-90)"/>
</clipPath>
</defs>
</svg>
