<svg width="30" height="30" viewBox="0 0 30 30" fill="none" xmlns="http://www.w3.org/2000/svg">
<g clip-path="url(#clip0_500_5138)">
<path d="M0.0141595 15C0.0113692 12.0321 0.889089 9.13005 2.53624 6.66115C4.18338 4.19225 6.52592 2.26748 9.26739 1.13041C12.0089 -0.00664902 15.026 -0.304888 17.9371 0.27344C20.8481 0.851769 23.5221 2.28067 25.6208 4.37931C27.7194 6.47794 29.1483 9.15198 29.7266 12.063C30.3049 14.974 30.0067 17.9912 28.8696 20.7327C27.7326 23.4741 25.8078 25.8167 23.3389 27.4638C20.87 29.111 17.968 29.9887 15 29.9859C11.0281 29.9775 7.22127 28.396 4.41269 25.5874C1.60411 22.7788 0.0225478 18.9719 0.0141595 15ZM29.2945 15C29.2945 12.1694 28.455 9.40247 26.8821 7.04914C25.3092 4.6958 23.0737 2.86185 20.4583 1.77928C17.843 0.696715 14.9653 0.414183 12.1893 0.967427C9.41331 1.52067 6.86379 2.88483 4.86327 4.88733C2.86274 6.88983 1.5011 9.44069 0.950595 12.2172C0.400091 14.9937 0.685458 17.8711 1.7706 20.4854C2.85575 23.0997 4.69191 25.3335 7.0468 26.904C9.40168 28.4746 12.1695 29.3114 15 29.3086C18.791 29.3002 22.4241 27.7895 25.1035 25.1076C27.7828 22.4256 29.2898 18.791 29.2945 15Z" fill="#AFAFAF"/>
<path d="M9.73319 21.0819L9.73319 8.91817C9.73381 8.85754 9.75004 8.7981 9.78032 8.74558C9.8106 8.69306 9.8539 8.64922 9.90605 8.61831C9.95968 8.58734 10.0205 8.57104 10.0824 8.57104C10.1444 8.57104 10.2052 8.58734 10.2588 8.61831L20.7856 14.7002C20.8378 14.7311 20.8811 14.7749 20.9114 14.8274C20.9416 14.8799 20.9579 14.9394 20.9585 15C20.9579 15.0606 20.9416 15.1201 20.9114 15.1726C20.8811 15.2251 20.8378 15.269 20.7856 15.2999L10.2447 21.3817C10.1911 21.4127 10.1303 21.429 10.0683 21.429C10.0064 21.429 9.94557 21.4127 9.89194 21.3817C9.84241 21.3491 9.8019 21.3045 9.77415 21.2521C9.7464 21.1997 9.73231 21.1412 9.73319 21.0819ZM10.4246 9.52494L10.4246 20.4821L19.9213 15L10.4246 9.52494Z" fill="#AFAFAF"/>
</g>
<defs>
<clipPath id="clip0_500_5138">
<rect width="30" height="30" fill="white" transform="translate(30) rotate(90)"/>
</clipPath>
</defs>
</svg>
