<svg width="20" height="12" viewBox="0 0 20 12" fill="none" xmlns="http://www.w3.org/2000/svg">
<path d="M19.5508 5.78829H9.45199V1.0611C9.45218 0.982483 9.43162 0.905205 9.39239 0.837072C9.35316 0.768938 9.29665 0.71236 9.22856 0.67305C9.15984 0.633647 9.082 0.612915 9.00279 0.612915C8.92357 0.612915 8.84573 0.633647 8.77701 0.67305L0.23515 5.60955C0.16681 5.64927 0.110094 5.70623 0.0706702 5.77474C0.0312469 5.84325 0.010498 5.92091 0.010498 5.99996C0.010498 6.079 0.0312469 6.15666 0.0706702 6.22517C0.110094 6.29368 0.16681 6.35064 0.23515 6.39036L8.78642 11.3292C8.85491 11.3693 8.93283 11.3904 9.01219 11.3904C9.09156 11.3904 9.16949 11.3693 9.23797 11.3292C9.30624 11.2895 9.36284 11.2325 9.40207 11.164C9.4413 11.0954 9.46176 11.0178 9.4614 10.9388V6.68669H19.5508C19.6699 6.68669 19.7842 6.63936 19.8684 6.55512C19.9526 6.47088 20 6.35663 20 6.23749C20 6.11835 19.9526 6.0041 19.8684 5.91986C19.7842 5.83562 19.6699 5.78829 19.5508 5.78829ZM8.55124 10.158L1.34992 5.99996L8.55124 1.84191V10.158Z" fill="#AFAFAF"/>
</svg>
