<svg width="15" height="20" viewBox="0 0 15 20" fill="none" xmlns="http://www.w3.org/2000/svg">
<path d="M7.09529 19.9867C7.06531 19.94 7.04199 19.9101 7.01867 19.8768L0.922739 10.5863C0.709792 10.2398 0.53765 9.86977 0.409747 9.48368C-0.213417 7.7188 -0.11643 5.77949 0.67971 4.08559C1.47585 2.39169 2.90708 1.07948 4.66358 0.433049C5.62737 0.0815388 6.65558 -0.0582071 7.67823 0.0233218C9.4976 0.172963 11.1893 1.01809 12.4015 2.38297C13.6138 3.74785 14.2534 5.52746 14.1872 7.35177C14.1503 8.43579 13.8618 9.49636 13.3445 10.4497C13.2955 10.5368 13.2421 10.6213 13.1846 10.7029L7.16191 19.9067L7.09529 19.9867ZM2.66491 7.08861C2.66227 7.96688 2.92034 8.82618 3.40643 9.55767C3.89252 10.2892 4.58476 10.8599 5.39549 11.1977C6.20621 11.5355 7.09894 11.6251 7.96061 11.4551C8.82227 11.2851 9.61412 10.8633 10.2359 10.2429C10.8576 9.6226 11.2812 8.83171 11.4531 7.97043C11.6251 7.10915 11.5375 6.21622 11.2015 5.40474C10.8656 4.59325 10.2964 3.89972 9.566 3.41199C8.8356 2.92425 7.97689 2.66424 7.09862 2.66489C6.51697 2.66402 5.94085 2.77777 5.40319 2.99965C4.86552 3.22153 4.37685 3.54719 3.9651 3.95801C3.55334 4.36884 3.22658 4.85677 3.00349 5.39394C2.7804 5.9311 2.66535 6.50696 2.66491 7.08861Z" fill="#138FC3"/>
</svg>
