<svg xmlns="http://www.w3.org/2000/svg"><symbol fill="none" id="icon-sensor_hand_lotion" viewBox="0 0 86 86"><title>sensor_hand_lotion</title><g clip-path="url(#clip0_135_869)"><path d="M78.52 29.19H74.2v-6.53a3.75 3.75 0 0 0-3.74-3.74h-4.27v-6.69h4.27a3.75 3.75 0 0 0 3.74-3.75V3.75A3.75 3.75 0 0 0 70.46 0H31a9.3 9.3 0 0 0-9.29 9.29v9.46a3.75 3.75 0 0 0 3.75 3.75h4.73a3.75 3.75 0 0 0 3.75-3.75V14a1.79 1.79 0 0 1 1.79-1.79h19.63v6.69h-4.27a3.75 3.75 0 0 0-3.74 3.74v6.53H43a6.53 6.53 0 0 0-6.12 4.33 12.67 12.67 0 0 0-2 0 11.38 11.38 0 0 0-22.27 0 11.38 11.38 0 0 0-6.89 21.24A11.37 11.37 0 0 0 22 69.1a7.999 7.999 0 0 0 6.51 4.45 8 8 0 0 0 6.73 7.24c.416.067.838.1 1.26.1h.42A6.49 6.49 0 0 0 43 85h35.52A6.52 6.52 0 0 0 85 78.52V35.71a6.52 6.52 0 0 0-6.48-6.52Zm-6.27-6.53v6.53h-4.57v-8.32h2.78a1.79 1.79 0 0 1 1.79 1.79Zm-10.5 6.53v-8.32h4v8.32h-4Zm-5.93 0v-8.32h4v8.32h-4ZM32 14v4.73a1.8 1.8 0 0 1-1.79 1.8h-4.75a1.81 1.81 0 0 1-1.8-1.8V9.29A7.34 7.34 0 0 1 31 2h39.46a1.8 1.8 0 0 1 1.79 1.8v4.68a1.79 1.79 0 0 1-1.79 1.79H35.73A3.75 3.75 0 0 0 32 14Zm25.33-1.79h6.93v6.69h-6.95l.02-6.69Zm-8 10.43a1.8 1.8 0 0 1 1.79-1.79h2.78v8.32h-4.6l.03-6.53ZM10.56 67a9.42 9.42 0 0 1-2.68-12.2 1 1 0 0 0-.44-1.37 9.42 9.42 0 0 1 5.78-17.8.92.92 0 0 0 .77-.17 1 1 0 0 0 .39-.67 9.43 9.43 0 0 1 18.72 0 1 1 0 0 0 .756.842.92.92 0 0 0 .404-.002A9.42 9.42 0 0 1 40 53.43a.999.999 0 0 0-.566.989.93.93 0 0 0 .126.381 9.42 9.42 0 0 1-15.14 11 1 1 0 0 0-.72-.32 1 1 0 0 0-.72.31c-.356.382-.74.736-1.15 1.06a9.42 9.42 0 0 1-11.27.15ZM51 62.11a8 8 0 0 0-4.85-11.9 11.4 11.4 0 0 0 1.11-7.57h23.2a1.79 1.79 0 0 1 1.79 1.79v26.25a1.79 1.79 0 0 1-1.79 1.79H52.52c.13-.21.26-.43.37-.65A8 8 0 0 0 51 62.11ZM35.59 78.86a6.07 6.07 0 0 1-5.11-6.23 1.001 1.001 0 0 0-.28-.73 1 1 0 0 0-.73-.28 6 6 0 0 1-5.81-3.72l.08-.07a11.38 11.38 0 0 0 18-13.09c1.25-.7 2.355-1.63 3.26-2.74a6 6 0 0 1 3.92 9.73.94.94 0 0 0-.19.76.998.998 0 0 0 .42.66 6.05 6.05 0 0 1 2 7.79 5.942 5.942 0 0 1-1.2 1.6.928.928 0 0 0-.56.47 6 6 0 0 1-5.74.86 1 1 0 0 0-.78 0 1.001 1.001 0 0 0-.5.61 6.07 6.07 0 0 1-6.78 4.38Zm47.49-.34a4.57 4.57 0 0 1-4.56 4.57H43a4.55 4.55 0 0 1-4.09-2.57 8.059 8.059 0 0 0 5-4.54 8.001 8.001 0 0 0 6.85-1.56h19.7a3.75 3.75 0 0 0 3.74-3.74V44.43a3.75 3.75 0 0 0-3.74-3.75H46.67a11.42 11.42 0 0 0-7.79-6.84A4.56 4.56 0 0 1 43 31.15h35.52a4.56 4.56 0 0 1 4.56 4.56v42.81Z"/></g></symbol><symbol fill="none" id="icon-sensor_human_traffic" viewBox="0 0 30 30"><title>sensor_human_traffic</title><path d="M22.327 9.12a4.561 4.561 0 1 0 .007-9.123 4.561 4.561 0 0 0-.007 9.122Zm0-8.432a3.88 3.88 0 1 1-3.88 3.88 3.88 3.88 0 0 1 3.88-3.862V.688Z"/><path d="M22.327 10.093a7.617 7.617 0 0 0-2.783.522 4.554 4.554 0 0 0-9.088 0A7.673 7.673 0 0 0 0 17.765v5.518a.353.353 0 0 0 .353.353h6.995c0 .176-.02.353-.02.533v5.485a.353.353 0 0 0 .352.353h14.647a.353.353 0 0 0 .353-.353v-5.507c0-.18 0-.352-.021-.532h6.995a.353.353 0 0 0 .353-.353v-5.496a7.68 7.68 0 0 0-7.68-7.673ZM15 7.073a3.88 3.88 0 1 1 0 7.76 3.88 3.88 0 0 1 0-7.76ZM.706 22.93v-5.164a6.985 6.985 0 0 1 9.757-6.403 4.558 4.558 0 0 0 3.793 4.074c.12.346.215.7.282 1.059a7.694 7.694 0 0 0-7.112 6.434H.706Zm21.293 6.386H8.02v-5.169a6.982 6.982 0 0 1 13.962 0L22 29.316Zm7.313-6.386h-6.734a7.69 7.69 0 0 0-7.116-6.441 7.28 7.28 0 0 1 .282-1.059 4.586 4.586 0 0 0 3.796-4.067 6.91 6.91 0 0 1 2.787-.582 6.992 6.992 0 0 1 6.985 6.985v5.164Z"/><path d="M7.673 9.12a4.561 4.561 0 1 0 0-9.124 4.561 4.561 0 0 0 0 9.123Zm0-8.432a3.88 3.88 0 1 1-3.88 3.88A3.88 3.88 0 0 1 7.672.706V.688Z"/></symbol><symbol fill="none" id="icon-sensor_smelly" viewBox="0 0 30 30"><title>sensor_smelly</title><g clip-path="url(#a)"><path d="M25.753 11.007h-.801a.353.353 0 1 0 0 .688h.8a3.57 3.57 0 0 1 3.567 3.563v10.495a3.574 3.574 0 0 1-3.566 3.56H4.254a3.573 3.573 0 0 1-3.548-3.56V15.258a3.57 3.57 0 0 1 3.566-3.563h.794a.352.352 0 1 0 0-.688h-.812A4.254 4.254 0 0 0 0 15.257v10.496a4.258 4.258 0 0 0 4.254 4.233h21.499a4.258 4.258 0 0 0 4.233-4.233V15.258a4.254 4.254 0 0 0-4.233-4.251Z" fill="#AFAFAF"/><path d="m7.564 22.225-1.588 1.44a.352.352 0 0 0-.025.486.352.352 0 0 0 .258.113.353.353 0 0 0 .23-.088l1.59-1.443c1.316-1.192 2.117-3.119 2.223-5.292.102-2.268-.586-4.374-1.88-5.782-1.295-1.407-1.906-3.545-1.67-5.814.22-2.01 1.087-3.682 2.378-4.586l.914-.635a.352.352 0 0 0-.384-.56L8.7.705C7.241 1.718 6.268 3.57 6.028 5.778c-.268 2.47.416 4.844 1.834 6.382 1.157 1.252 1.792 3.228 1.7 5.292-.087 1.95-.818 3.714-2 4.773Z" fill="#AFAFAF"/><path d="m14.503 22.225-1.588 1.44a.352.352 0 0 0-.025.486.33.33 0 0 0 .254.113.353.353 0 0 0 .233-.088l1.591-1.443c1.316-1.193 2.117-3.119 2.223-5.292.099-2.268-.586-4.374-1.88-5.782-1.295-1.407-1.905-3.545-1.659-5.814.22-2.01 1.087-3.682 2.378-4.586l.903-.631a.353.353 0 1 0-.384-.565l-.91.643c-1.457 1.012-2.431 2.864-2.671 5.072-.268 2.47.416 4.844 1.834 6.382 1.154 1.252 1.789 3.228 1.7 5.292-.087 1.95-.818 3.714-2 4.773Z"/><path d="m21.442 22.225-1.588 1.44a.353.353 0 0 0-.024.486.33.33 0 0 0 .254.113.353.353 0 0 0 .232-.088l1.588-1.443c1.32-1.192 2.116-3.119 2.226-5.292.099-2.268-.586-4.374-1.884-5.782-1.298-1.407-1.901-3.545-1.654-5.814.218-2.01 1.086-3.682 2.377-4.586l.914-.635a.353.353 0 0 0-.395-.56l-.91.642C21.124 1.718 20.15 3.57 19.91 5.778c-.269 2.47.416 4.844 1.834 6.382 1.154 1.252 1.789 3.228 1.697 5.292-.092 1.95-.819 3.714-2 4.773Z" fill="#AFAFAF"/></g><defs><clipPath id="a"><path fill="#fff" d="M0 0h30v30H0z"/></clipPath></defs></symbol><symbol fill="none" id="icon-sensor_toilet_paper" viewBox="0 0 86 86"><title>sensor_toilet_paper</title><g clip-path="url(#a)"><path d="M67.61 0H17.43C7.82 0 0 13.6 0 30.31v53.75a1 1 0 0 0 1 1h50.16a1 1 0 0 0 1-1V60.63h15.45C77.22 60.63 85 47 85 30.31 85 13.62 77.22 0 67.61 0ZM2 83.09V64h2.26a1 1 0 0 0 0-2H2V30.31a49.11 49.11 0 0 1 1.2-10.92h2.48a1 1 0 0 0 0-2h-2C6.21 8.25 11.43 2 17.43 2h44c-4.24 2.8-7.7 8.39-9.62 15.48h-2.2a1 1 0 0 0 0 2h1.72a50.07 50.07 0 0 0-1.18 10.92v31.68h-2a1 1 0 0 0 0 2h2v19.01H2Zm50.13-24.41V44.23c2 6.6 5.3 11.79 9.33 14.45h-9.33Zm15.48 0c-8.53 0-15.48-12.73-15.48-28.37S59.08 2 67.61 2c8.53 0 15.48 12.68 15.48 28.31 0 15.63-6.95 28.37-15.48 28.37Z"/><path d="M67.61 16.25c-4.66 0-8.32 6.18-8.32 14.06 0 7.88 3.71 14.07 8.32 14.07s8.31-6.18 8.31-14.07c0-7.89-3.65-14.06-8.31-14.06Zm0 26.17c-3.45 0-6.36-5.54-6.36-12.11 0-6.57 2.91-12.1 6.36-12.1S74 23.75 74 30.31s-2.94 12.11-6.39 12.11ZM30.1 18.41a1 1 0 0 0-1-1h-2.91a1 1 0 0 0 0 2h2.93a1 1 0 0 0 .98-1Zm-11.72 0a1 1 0 0 0-1-1h-2.91a1 1 0 0 0 0 2h2.93a1 1 0 0 0 .98-1Zm5.86 0a1 1 0 0 0-1-1h-2.91a1 1 0 0 0 0 2h2.93a1 1 0 0 0 .98-1Zm11.76 0a1 1 0 0 0-1-1h-2.95a1 1 0 0 0 0 2H35a1 1 0 0 0 1-1Zm5.83 0a1 1 0 0 0-1-1h-2.91a1 1 0 0 0 0 2h2.93a1 1 0 0 0 .98-1Zm-29.32 0a1 1 0 0 0-1-1h-2.9a1 1 0 0 0 0 2h2.93a1 1 0 0 0 .97-1Zm35.18 0a1 1 0 0 0-1-1h-2.91a1 1 0 0 0 0 2h2.93a1 1 0 0 0 .98-1ZM10.12 62.08H7.19a1 1 0 0 0 0 2h2.93a1 1 0 1 0 0-2Zm11.73 0h-2.94a1 1 0 0 0 0 2h2.94a1 1 0 0 0 0-2Zm-5.85 0h-2.95a1 1 0 0 0 0 2H16a1 1 0 0 0 0-2Zm11.71 0h-2.93a1 1 0 0 0 0 2h2.93a1 1 0 0 0 0-2Zm11.72 0H36.5a1 1 0 0 0 0 2h2.93a1 1 0 0 0 0-2Zm5.86 0h-2.93a1 1 0 0 0 0 2h2.93a1 1 0 0 0 0-2Zm-11.72 0h-2.93a1 1 0 0 0 0 2h2.93a1 1 0 0 0 0-2Z"/></g><defs><clipPath id="a"><path fill="#fff" d="M0 0h85.04v85.04H0z"/></clipPath></defs></symbol></svg>