<svg width="457" height="61" viewBox="0 0 457 61" fill="none" xmlns="http://www.w3.org/2000/svg">
<g clip-path="url(#clip0_153_1089)">
<path d="M83 20.66V18.22H84.26L82.86 16.65C84.3086 15.4481 85.4846 13.9516 86.31 12.26L89 12.8C88.8 13.26 88.6 13.72 88.37 14.13H96V16.47H92C91.94 17.09 91.89 17.65 91.8 18.22H96.8V20.66H91.17L91.09 20.89C92.9417 21.712 94.7241 22.6818 96.42 23.79L94.74 25.3H105.74V36.37H102.74V35.42H89.49V36.37H86.49V25.92C85.81 26.28 85.09 26.64 84.35 26.92L82.35 24.74C85.27 23.59 87.18 22.2 88.06 20.61L83 20.66ZM85.26 18.22H88.97C89.0862 17.6418 89.1697 17.0576 89.22 16.47H86.86C86.3645 17.1024 85.8122 17.6882 85.21 18.22H85.26ZM93.88 25.3C92.7085 24.3946 91.4681 23.5822 90.17 22.87C89.4309 23.8172 88.5426 24.638 87.54 25.3H93.88ZM102.72 29.3V27.67H89.49V29.26L102.72 29.3ZM102.72 33.1V31.57H89.49V33.06L102.72 33.1ZM107.83 14.25V24.09H97.56V14.21L107.83 14.25ZM104.92 16.61H100.52V21.75H104.92V16.61Z" fill="#2FABD1"/>
<path d="M122.57 31.19C122.058 32.8941 121.246 34.4927 120.17 35.91L117.8 34.58C118.775 33.4285 119.522 32.1014 120 30.67L122.57 31.19ZM131.21 29.85C132.068 30.4975 132.889 31.1919 133.67 31.93L131.67 33.21C130.758 32.2831 129.786 31.4179 128.76 30.62L130.13 29.85H120.66V27.85H137.12V27H118.17V25.15H137.09V24.25H120.77V22.25H123.34V21.25H118.54V19.42H123.34V18.42H119.63V16.65H123.34V15.7H119.08V13.85H123.34V12.67H126.25V13.85H130V15.7H126.21V16.65H129.55V18.47H126.21V19.47H130V21.32H126.24V22.32H135V21.32H130.86V19.42H135V18.42H131.49V16.65H135V15.7H131V13.85H135V12.67H137.91V13.85H142.13V15.7H137.91V16.65H141.5V18.47H137.91V19.47H142.53V21.32H137.91V22.32H139.96V25.2H143.24V27H139.96V29.82L131.21 29.85ZM126.85 35.85C124.91 35.85 123.94 35.06 123.94 33.47V30.6H126.82V32.88C126.82 33.32 127.07 33.55 127.62 33.55H134C134.337 33.5759 134.672 33.4762 134.94 33.27C135.309 32.6701 135.49 31.9736 135.46 31.27L138.17 32.04C137.94 33.89 137.54 35.04 137 35.36C136.23 35.7148 135.387 35.8794 134.54 35.84L126.85 35.85ZM143.91 34.18L141.74 35.55C140.667 34.0674 139.473 32.676 138.17 31.39L140.29 30.2C141.605 31.4172 142.815 32.7418 143.91 34.16V34.18Z" fill="#2FABD1"/>
<path d="M163.26 13.49C162.285 15.6253 161.027 17.6198 159.52 19.42V36.35H156.52V22.53C155.427 23.51 154.253 24.4867 153 25.46L152 22.66C155.626 19.9463 158.528 16.3813 160.45 12.28L163.26 13.49ZM177.19 22.22L168.26 22.71V32.29C168.26 32.98 168.68 33.34 169.57 33.34H173.68C173.936 33.359 174.193 33.3183 174.431 33.2211C174.669 33.124 174.881 32.973 175.05 32.78C175.33 32.39 175.5 31.06 175.56 28.78L178.3 29.63C178.1 32.58 177.73 34.38 177.19 35C176.776 35.3441 176.297 35.6012 175.782 35.7558C175.266 35.9105 174.725 35.9595 174.19 35.9H168.86C166.46 35.9 165.29 34.82 165.29 32.68V12.68H168.29V20.13L177.22 19.62L177.19 22.22Z" fill="#2FABD1"/>
<path d="M197.51 14.29C195.51 19.45 192.89 23.4 189.61 26.18L187.24 24.33C190.716 21.4338 193.314 17.6239 194.74 13.33L197.51 14.29ZM210.89 35.19L208.1 36.32C207.73 35.5 207.35 34.7 206.98 33.93C202.05 34.6 196.54 35.09 190.49 35.45L190 32.83C191.907 32.4367 194.72 28.56 198.44 21.2L201.38 22.12C199.418 25.8541 197.125 29.4049 194.53 32.73C198.39 32.49 202.12 32.14 205.78 31.62C204.89 30.03 203.98 28.54 203.04 27.18L205.72 26.36C207.726 29.1282 209.458 32.0856 210.89 35.19ZM206.56 13.19C207.413 17.5592 209.827 21.4689 213.35 24.19L211 26.08C207.734 23.4129 205.378 19.7958 204.26 15.73H199.84V13.21L206.56 13.19Z" fill="#2FABD1"/>
<path d="M237.58 14.67H247.79V17.29H227V22.63C226.92 28.33 226 32.91 224.29 36.35L221.75 34.35C223.177 31.55 223.92 27.6533 223.98 22.66V14.66H234.25C233.869 14.0424 233.452 13.448 233 12.88L236.33 12.36C236.8 13.1 237.217 13.8719 237.58 14.67ZM238.49 18.86V31.55H236.44C237.431 32.5205 238.357 33.5562 239.21 34.65L236.87 36.12C236.071 34.8816 235.171 33.711 234.18 32.62L236.1 31.55H230.27L232.67 32.55C231.898 33.8875 230.949 35.1152 229.85 36.2L227.34 35C228.423 33.9515 229.379 32.7802 230.19 31.51H228.36V18.86H238.49ZM235.64 22.45V21.09H231.19V22.45H235.64ZM235.64 25.82V24.48H231.19V25.82H235.64ZM235.64 27.82H231.19V29.31H235.64V27.82ZM242.69 20.04V32H240V20.07L242.69 20.04ZM241.32 36L240.69 33.49C241.379 33.5886 242.074 33.6387 242.77 33.64C243.69 33.64 244.17 33.31 244.17 32.69V18.19H247V33.34C247 35.12 245.92 36.01 243.78 36.01L241.32 36Z" fill="#2FABD1"/>
<path d="M259.5 19L256.9 17.51C258.431 16.095 259.614 14.3465 260.36 12.4L263.24 12.97C263.07 13.35 262.92 13.74 262.75 14.12H269.75V16.46H265.75C266.179 16.9989 266.57 17.567 266.92 18.16L264.21 19.11C263.747 18.1795 263.202 17.2926 262.58 16.46H261.5C260.917 17.3693 260.247 18.22 259.5 19ZM282.13 24.37H279.22V21.61H260.38V24.38H257.47V19.38H268.4C268.17 18.91 267.95 18.5 267.72 18.12L270.23 17.73L269.66 17.4C270.915 15.9582 271.873 14.2828 272.48 12.47L275.31 13.03C275.17 13.42 275.02 13.8 274.88 14.16H282.73V16.5H278.22C278.578 16.9793 278.912 17.4766 279.22 17.99L276.59 18.89C276.128 18.0548 275.603 17.2558 275.02 16.5H273.74C273.258 17.3041 272.723 18.0758 272.14 18.81L270.86 18C271.03 18.41 271.23 18.84 271.4 19.31H282.13V24.37ZM278.19 28.12H264.44V29.33H279.53V36.33H276.59V35.46H264.44V36.31H261.44V22.61H278.19V28.12ZM275.31 26V24.74H264.44V26H275.31ZM276.59 33.07V31.44H264.44V33.09L276.59 33.07Z" fill="#2FABD1"/>
<path d="M294.8 21.76V16.52H291.67V14H300.94V16.54H297.83V21.78H300.6V24.35H297.83V29.2C298.74 28.92 299.63 28.61 300.51 28.28V30.87C297.766 31.8278 294.964 32.6094 292.12 33.21L291.38 30.64C292.55 30.46 293.69 30.26 294.8 30V24.33H292.09V21.76H294.8ZM316.49 13.34V25.79H310.7V28.16H316.83V30.65H310.7V33H317.8V35.6H300.48V33H307.73V30.65H301.57V28.16H307.73V25.79H301.88V13.34H316.49ZM307.73 18.42V15.7H304.73V18.42H307.73ZM307.73 20.71H304.73V23.43H307.73V20.71ZM310.73 18.42H313.67V15.7H310.7L310.73 18.42ZM313.67 20.71H310.7V23.43H313.64L313.67 20.71Z" fill="#2FABD1"/>
<path d="M339.27 20.27V29.36H334.53V30.67H340.09V32.85C341.655 31.9942 343.073 30.8936 344.29 29.59C343.97 28.59 343.69 27.59 343.43 26.46C343.133 25.1207 342.916 23.765 342.78 22.4L340.18 22.92L339.75 20.32L342.55 19.76C342.38 17.6 342.32 15.19 342.32 12.57H345.32C345.32 15.06 345.37 17.24 345.49 19.14L351.68 17.86L352.13 20.48L345.66 21.81C345.77 23.35 345.92 24.61 346.09 25.61C346.17 26.13 346.26 26.61 346.37 27.05C347.462 25.4545 348.409 23.7644 349.2 22L351.54 23.43C350.4 25.9161 348.981 28.2645 347.31 30.43C347.385 30.675 347.482 30.9127 347.6 31.14C348.08 32.25 348.45 32.81 348.71 32.81C349.2 32.81 349.71 31.66 350.22 29.37L352.73 30.63C351.94 34.12 350.73 35.87 349.2 35.87C348.2 35.87 347.2 35.1 346.14 33.58C345.884 33.2216 345.657 32.8438 345.46 32.45C344.127 33.7495 342.581 34.8115 340.89 35.59L339.07 33.4C339.38 33.25 339.69 33.1 339.98 32.94H334.53V36.36H331.9V32.93H326.34V30.67H331.9V29.36H327.2V20.27H339.27ZM332.65 13.27V19.27H326.65V13.27H332.65ZM330.33 15.22H328.94V17.38H330.33V15.22ZM331.9 23.75V22.45H329.82V23.79L331.9 23.75ZM331.9 25.75H329.82V27.2H331.9V25.75ZM339.9 13.24V19.24H333.9V13.24H339.9ZM334.56 23.72H336.67V22.45H334.56V23.72ZM336.67 25.72H334.56V27.2H336.67V25.72ZM337.58 15.16H336.21V17.32H337.58V15.16ZM350.8 16.09L348.46 17.55C347.719 16.4377 346.896 15.3815 346 14.39L348.31 13.11C349.204 14.0756 350.026 15.1049 350.77 16.19L350.8 16.09Z" fill="#2FABD1"/>
<path d="M363.9 17.75C363.85 20.2083 363.545 22.6547 362.99 25.05L360.76 24.48C361.318 22.2277 361.623 19.92 361.67 17.6L363.9 17.75ZM380.36 12.54V14H386.64V16.16H380.36V17.29H385.67V19.39H380.36V20.47H387.47V22.68H370.15V21.81L368.63 22.14C368.277 20.8398 367.85 19.561 367.35 18.31V36.21H364.44V12.62H367.35V17.45L369.09 16.93C369.61 18.0778 370.067 19.2529 370.46 20.45H377.39V19.37H372V17.27H377.39V16.14H371V14H377.36V12.54H380.36ZM372.36 36.32L370.2 34.58C371.568 33.108 372.323 31.1694 372.31 29.16V23.61H385.55V34C385.55 35.48 384.63 36.23 382.84 36.23H379.27L378.58 33.92C379.84 33.97 380.98 34.02 382.04 34.02C382.47 34.02 382.69 33.71 382.69 33.1V32.33H374.6C374.159 33.8142 373.386 35.1786 372.34 36.32H372.36ZM374.99 30.32H382.69V29.05H375.07C375.077 29.4645 375.053 29.8789 375 30.29L374.99 30.32ZM382.69 25.75H375.07V27.08H382.69V25.75Z" fill="#2FABD1"/>
<path d="M420.77 13.44V16.06H410.47V24.89H421.83V27.49H410.47V36.27H407.47V27.49H396.32V24.89H407.45V16.06H397.45V13.44H420.77ZM404.62 22.81L401.83 24.05C400.984 22.0645 400.002 20.1399 398.89 18.29L401.66 17.09C402.743 18.945 403.731 20.8542 404.62 22.81ZM419.46 18.14C418.633 20.1686 417.579 22.0974 416.32 23.89L413.64 22.66C414.876 20.89 415.919 18.9925 416.75 17L419.46 18.14Z" fill="#2FABD1"/>
<path d="M431.71 20.5C433.71 20.22 436.71 17.5 440.55 12.41L443.64 13.41C441.603 15.956 439.326 18.3001 436.84 20.41C441.473 20.1967 445.983 19.9133 450.37 19.56C449.51 18.43 448.63 17.35 447.75 16.35L450.46 15.19C452.815 17.8671 454.977 20.7075 456.93 23.69L454 25C453.37 23.94 452.72 22.94 452.06 22C446.127 22.48 439.517 22.8367 432.23 23.07L431.71 20.5ZM453.71 36.35H450.71V35.35H437.07V36.35H434.07V25.35H453.76L453.71 36.35ZM450.71 32.8V27.9H437.07V32.8H450.71Z" fill="#2FABD1"/>
<path d="M85.83 41.32V52.32H83.83V41.32H85.83Z" fill="#2FABD1"/>
<path d="M95.05 47.37V52.27H93.05V47.53C93.095 47.2572 93.0744 46.9776 92.9898 46.7144C92.9052 46.4512 92.7591 46.2119 92.5636 46.0164C92.3681 45.8209 92.1288 45.6748 91.8656 45.5902C91.6024 45.5056 91.3228 45.485 91.05 45.53C90.5877 45.5232 90.1392 45.687 89.79 45.99C89.5811 46.1744 89.4108 46.3984 89.289 46.649C89.1671 46.8996 89.0961 47.1718 89.08 47.45V52.22H87.2V44.34H89.14V45.26C89.4623 44.9022 89.8534 44.6131 90.29 44.41C90.7484 44.2151 91.2419 44.1164 91.74 44.12C93.94 44.12 95.05 45.2 95.05 47.37Z" fill="#2FABD1"/>
<path d="M99 44.34H101V45.78H99V50.26C98.9922 50.3375 99.0006 50.4157 99.0247 50.4898C99.0488 50.5638 99.0881 50.632 99.14 50.69C99.2627 50.7925 99.4207 50.8428 99.58 50.83H100.74V52.27H99.25C98.9467 52.2951 98.6414 52.2585 98.3526 52.1622C98.0638 52.066 97.7976 51.9121 97.57 51.71C97.3902 51.5161 97.2522 51.2874 97.1644 51.038C97.0767 50.7885 97.0411 50.5237 97.06 50.26V45.78H95.47V44.34H97.06V42.5L99 41.78V44.34Z" fill="#2FABD1"/>
<path d="M108.62 45.44C109.373 46.3886 109.75 47.581 109.68 48.79H103.09C103.112 49.4088 103.345 50.0014 103.75 50.47C103.965 50.6743 104.22 50.8321 104.499 50.9336C104.777 51.0351 105.074 51.0782 105.37 51.06C105.837 51.1076 106.306 51.0028 106.708 50.7612C107.11 50.5197 107.423 50.1543 107.6 49.72H109.54C109.344 50.4553 108.916 51.1077 108.32 51.58C107.47 52.1955 106.439 52.512 105.39 52.48C104.248 52.5369 103.128 52.1459 102.27 51.39C101.848 50.9969 101.516 50.5173 101.297 49.9839C101.078 49.4506 100.976 48.8761 101 48.3C100.984 47.74 101.084 47.1827 101.294 46.6631C101.503 46.1435 101.818 45.6728 102.218 45.2804C102.618 44.888 103.094 44.5824 103.618 44.3827C104.141 44.1831 104.7 44.0936 105.26 44.12C105.884 44.0705 106.51 44.1637 107.092 44.3924C107.674 44.6211 108.197 44.9793 108.62 45.44ZM103.84 46.04C103.448 46.4235 103.195 46.9266 103.12 47.47H107.65C107.642 47.1869 107.574 46.9087 107.45 46.6539C107.326 46.399 107.15 46.1734 106.933 45.9919C106.715 45.8104 106.462 45.6771 106.189 45.6009C105.916 45.5247 105.63 45.5074 105.35 45.55C104.808 45.5015 104.267 45.6625 103.84 46V46.04Z" fill="#2FABD1"/>
<path d="M112.47 41.1V52.27H110.53V41.1H112.47Z" fill="#2FABD1"/>
<path d="M116 41.1V52.27H114V41.1H116Z" fill="#2FABD1"/>
<path d="M119.58 41.42C119.696 41.5252 119.788 41.6533 119.852 41.7962C119.916 41.939 119.949 42.0936 119.95 42.25C119.951 42.4116 119.917 42.5716 119.85 42.7185C119.782 42.8654 119.683 42.9957 119.56 43.1C119.295 43.3155 118.961 43.429 118.62 43.42C118.281 43.4293 117.951 43.3156 117.69 43.1C117.567 42.9956 117.469 42.8651 117.404 42.7181C117.338 42.571 117.306 42.4111 117.31 42.25C117.303 42.0914 117.334 41.9334 117.4 41.7891C117.466 41.6448 117.565 41.5183 117.69 41.42C117.951 41.2044 118.281 41.0907 118.62 41.1C118.968 41.0906 119.308 41.2039 119.58 41.42ZM119.58 44.34V52.27H117.64V44.34H119.58Z" fill="#2FABD1"/>
<path d="M127.41 45.3V44.3H129.35V51.72C129.35 54.22 127.97 55.48 125.21 55.48C124.232 55.5327 123.258 55.322 122.39 54.87C122.056 54.6417 121.774 54.3456 121.562 54.001C121.35 53.6564 121.213 53.271 121.16 52.87H123.1C123.131 53.0627 123.204 53.2464 123.313 53.4086C123.421 53.5708 123.564 53.7077 123.73 53.81C124.196 54.0125 124.703 54.1016 125.21 54.07C126.68 54.07 127.41 53.36 127.41 51.95V50.86C127.102 51.2544 126.705 51.5705 126.251 51.7825C125.798 51.9945 125.3 52.0964 124.8 52.08C124.271 52.1003 123.743 52.0152 123.247 51.8298C122.751 51.6444 122.296 51.3624 121.91 51C121.534 50.6239 121.241 50.1734 121.05 49.6774C120.859 49.1814 120.774 48.6509 120.8 48.12C120.773 47.5875 120.857 47.0552 121.049 46.5575C121.24 46.0599 121.534 45.6079 121.911 45.2309C122.288 44.8539 122.74 44.5602 123.238 44.3688C123.735 44.1775 124.268 44.0927 124.8 44.12C125.297 44.1004 125.791 44.1968 126.244 44.4017C126.697 44.6065 127.097 44.9141 127.41 45.3ZM123.41 46.23C122.966 46.7597 122.744 47.4404 122.79 48.13C122.754 48.7532 122.923 49.3711 123.27 49.89C123.487 50.1578 123.766 50.3682 124.084 50.5024C124.401 50.6367 124.747 50.6908 125.09 50.66C125.41 50.6773 125.73 50.6275 126.03 50.5138C126.329 50.4002 126.602 50.2251 126.83 50C127.22 49.449 127.43 48.7903 127.43 48.115C127.43 47.4396 127.22 46.781 126.83 46.23C126.613 45.9933 126.346 45.8078 126.049 45.6867C125.751 45.5657 125.431 45.5121 125.11 45.53C124.792 45.5116 124.474 45.5649 124.18 45.6861C123.886 45.8073 123.623 45.9932 123.41 46.23Z" fill="#2FABD1"/>
<path d="M137.61 45.44C138.363 46.3886 138.74 47.581 138.67 48.79H132.08C132.102 49.4088 132.335 50.0014 132.74 50.47C132.955 50.6743 133.21 50.8321 133.489 50.9336C133.767 51.0351 134.064 51.0782 134.36 51.06C134.827 51.1076 135.296 51.0028 135.698 50.7612C136.1 50.5197 136.413 50.1543 136.59 49.72H138.53C138.334 50.4553 137.906 51.1077 137.31 51.58C136.46 52.1955 135.429 52.512 134.38 52.48C133.238 52.5369 132.118 52.1459 131.26 51.39C130.84 50.996 130.51 50.516 130.292 49.9827C130.075 49.4494 129.975 48.8754 130 48.3C129.983 47.7404 130.082 47.1834 130.29 46.6638C130.498 46.1443 130.812 45.6734 131.211 45.2809C131.61 44.8883 132.086 44.5825 132.609 44.3828C133.132 44.183 133.691 44.0935 134.25 44.12C134.874 44.0705 135.5 44.1637 136.082 44.3924C136.664 44.6211 137.187 44.9793 137.61 45.44ZM132.83 46.04C132.438 46.4235 132.185 46.9266 132.11 47.47H136.64C136.632 47.1869 136.564 46.9087 136.44 46.6539C136.316 46.399 136.14 46.1734 135.922 45.9919C135.705 45.8104 135.452 45.6771 135.179 45.6009C134.906 45.5247 134.62 45.5074 134.34 45.55C133.798 45.5015 133.257 45.6625 132.83 46V46.04Z" fill="#2FABD1"/>
<path d="M147.2 47.37V52.27H145.26V47.53C145.305 47.2572 145.284 46.9776 145.2 46.7144C145.115 46.4512 144.969 46.2119 144.774 46.0164C144.578 45.8209 144.339 45.6748 144.076 45.5903C143.812 45.5057 143.533 45.485 143.26 45.53C142.796 45.525 142.347 45.6925 142 46C141.79 46.1839 141.618 46.4076 141.494 46.6582C141.371 46.9087 141.298 47.1812 141.28 47.46V52.23H139.34V44.34H141.28V45.26C141.606 44.8915 142.008 44.5986 142.459 44.4017C142.91 44.2048 143.398 44.1087 143.89 44.12C146.097 44.12 147.2 45.2033 147.2 47.37Z" fill="#2FABD1"/>
<path d="M151.16 44.34H153.16V45.78H151.16V50.26C151.146 50.4148 151.193 50.5689 151.29 50.69C151.414 50.7907 151.571 50.8407 151.73 50.83H152.89V52.27H151.41C151.107 52.2969 150.801 52.2611 150.512 52.1648C150.223 52.0684 149.957 51.9136 149.73 51.71C149.546 51.5184 149.405 51.2902 149.316 51.0404C149.226 50.7906 149.19 50.5247 149.21 50.26V45.78H147.63V44.34H149.21V42.5L151.16 41.78V44.34Z" fill="#2FABD1"/>
<path d="M163.74 41.32C166.67 41.32 168.15 42.44 168.15 44.68C168.15 46.92 166.67 48.07 163.71 48.07H160.71V52.27H158.71V41.27L163.74 41.32ZM160.69 46.53H163.59C164.265 46.5782 164.939 46.4288 165.53 46.1C165.743 45.9335 165.91 45.7161 166.017 45.468C166.123 45.2198 166.166 44.9488 166.14 44.68C166.164 44.4122 166.118 44.1429 166.008 43.8977C165.898 43.6526 165.726 43.4399 165.51 43.28C164.927 42.9489 164.259 42.7991 163.59 42.85H160.69V46.53Z" fill="#2FABD1"/>
<path d="M170.78 44.34V49.17C170.735 49.6796 170.893 50.1864 171.22 50.58C171.636 50.9096 172.162 51.0671 172.69 51.02C173.143 51.0097 173.576 50.8356 173.91 50.53C174.32 50.1735 174.616 49.7039 174.76 49.18V44.34H176.7V52.27H174.76V51.27C174.416 51.6607 173.991 51.9715 173.514 52.1805C173.037 52.3895 172.52 52.4917 172 52.48C169.887 52.48 168.833 51.4133 168.84 49.28V44.34H170.78Z" fill="#2FABD1"/>
<path d="M179.84 41.1V45.43C180.145 45.023 180.54 44.6926 180.995 44.4652C181.45 44.2378 181.952 44.1196 182.46 44.12C183.022 44.0907 183.583 44.1878 184.102 44.4041C184.621 44.6205 185.085 44.9505 185.46 45.37C186.143 46.1744 186.5 47.2055 186.46 48.26C186.517 49.3503 186.16 50.4218 185.46 51.26C185.069 51.6771 184.592 52.004 184.062 52.2181C183.531 52.4323 182.961 52.5284 182.39 52.5C181.896 52.5323 181.4 52.4539 180.94 52.2705C180.48 52.0871 180.067 51.8034 179.73 51.44V52.29H177.93V41.1H179.84ZM180.45 46.23C179.972 46.7829 179.728 47.5003 179.77 48.23V48.36C179.733 49.0373 179.927 49.7071 180.32 50.26C180.525 50.5263 180.791 50.739 181.095 50.8801C181.4 51.0211 181.735 51.0863 182.07 51.07C182.429 51.0959 182.788 51.0339 183.118 50.8892C183.447 50.7446 183.736 50.5217 183.96 50.24C184.332 49.6422 184.507 48.9426 184.46 48.24C184.501 47.5527 184.315 46.8711 183.93 46.3C183.692 46.0268 183.394 45.8131 183.059 45.6759C182.724 45.5387 182.361 45.4819 182 45.51C181.704 45.5081 181.412 45.5716 181.144 45.6961C180.876 45.8206 180.639 46.0029 180.45 46.23Z" fill="#2FABD1"/>
<path d="M189.41 41.1V52.27H187.47V41.1H189.41Z" fill="#2FABD1"/>
<path d="M193 41.42C193.119 41.5231 193.215 41.6505 193.28 41.7937C193.346 41.9369 193.38 42.0925 193.38 42.25C193.382 42.4127 193.347 42.5736 193.277 42.7208C193.208 42.8679 193.106 42.9976 192.98 43.1C192.719 43.3156 192.389 43.4293 192.05 43.42C191.709 43.429 191.375 43.3155 191.11 43.1C190.99 42.9938 190.895 42.8627 190.831 42.7159C190.767 42.5691 190.736 42.4101 190.74 42.25C190.736 42.0929 190.768 41.9369 190.832 41.7933C190.896 41.6498 190.991 41.5223 191.11 41.42C191.375 41.2045 191.709 41.091 192.05 41.1C192.395 41.0903 192.731 41.2038 193 41.42ZM193 44.34V52.27H191.06V44.34H193Z" fill="#2FABD1"/>
<path d="M201.28 44.81C201.635 45.0685 201.935 45.3954 202.161 45.7715C202.388 46.1477 202.537 46.5654 202.6 47H200.67C200.585 46.5522 200.335 46.1525 199.97 45.88C199.55 45.6135 199.057 45.4842 198.56 45.51C198.242 45.4919 197.924 45.5474 197.631 45.6723C197.338 45.7972 197.077 45.988 196.87 46.23C196.433 46.802 196.217 47.5118 196.26 48.23C196.224 48.9459 196.436 49.6524 196.86 50.23C197.062 50.4767 197.319 50.6717 197.612 50.7987C197.904 50.9256 198.222 50.981 198.54 50.96C198.798 50.9978 199.061 50.982 199.313 50.9136C199.565 50.8452 199.8 50.7256 200.004 50.5624C200.207 50.3991 200.375 50.1957 200.497 49.9647C200.618 49.7338 200.691 49.4803 200.71 49.22H202.63C202.501 50.1618 202.014 51.0176 201.27 51.61C200.465 52.1577 199.503 52.428 198.53 52.38C197.965 52.4289 197.396 52.355 196.863 52.1634C196.329 51.9717 195.843 51.6669 195.439 51.2698C195.034 50.8727 194.72 50.3927 194.518 49.8629C194.317 49.333 194.232 48.7657 194.27 48.2C194.227 47.1205 194.611 46.0676 195.34 45.27C195.756 44.8437 196.259 44.5116 196.815 44.2959C197.37 44.0803 197.965 43.9862 198.56 44.02C199.526 44.0019 200.474 44.2774 201.28 44.81Z" fill="#2FABD1"/>
<path d="M217.33 41.32V42.85H213.33V52.27H211.33V42.85H207.33V41.32H217.33Z" fill="#2FABD1"/>
<path d="M225.06 45.3C225.833 46.1077 226.264 47.1823 226.264 48.3C226.264 49.4177 225.833 50.4923 225.06 51.3C224.156 52.0667 223.01 52.4875 221.825 52.4875C220.64 52.4875 219.494 52.0667 218.59 51.3C217.817 50.4923 217.386 49.4177 217.386 48.3C217.386 47.1823 217.817 46.1077 218.59 45.3C219.018 44.8976 219.523 44.5857 220.075 44.3829C220.626 44.1802 221.213 44.0907 221.8 44.12C222.395 44.0868 222.99 44.1742 223.551 44.377C224.111 44.5798 224.624 44.8937 225.06 45.3ZM220 46.41C219.635 46.9746 219.441 47.6326 219.441 48.305C219.441 48.9773 219.635 49.6354 220 50.2C220.221 50.4818 220.506 50.7068 220.831 50.8564C221.156 51.0059 221.512 51.0757 221.87 51.06C222.229 51.0733 222.586 51.0025 222.912 50.8531C223.239 50.7038 223.525 50.4801 223.75 50.2C224.141 49.6486 224.345 48.9859 224.33 48.31C224.351 47.6301 224.147 46.9622 223.75 46.41C223.529 46.1262 223.242 45.8998 222.915 45.7501C222.588 45.6004 222.229 45.5318 221.87 45.55C221.512 45.53 221.154 45.5979 220.828 45.7478C220.502 45.8977 220.218 46.125 220 46.41Z" fill="#2FABD1"/>
<path d="M229.39 41.42C229.509 41.5231 229.605 41.6505 229.67 41.7937C229.736 41.9369 229.77 42.0925 229.77 42.25C229.772 42.4127 229.737 42.5736 229.667 42.7208C229.598 42.8679 229.496 42.9976 229.37 43.1C229.109 43.3156 228.779 43.4293 228.44 43.42C228.099 43.429 227.765 43.3155 227.5 43.1C227.38 42.9938 227.285 42.8627 227.221 42.7159C227.157 42.5691 227.126 42.4101 227.13 42.25C227.126 42.0929 227.158 41.9369 227.222 41.7933C227.286 41.6498 227.381 41.5223 227.5 41.42C227.765 41.2045 228.099 41.091 228.44 41.1C228.785 41.0903 229.121 41.2038 229.39 41.42ZM229.39 44.34V52.27H227.45V44.34H229.39Z" fill="#2FABD1"/>
<path d="M233.07 41.1V52.27H231.13V41.1H233.07Z" fill="#2FABD1"/>
<path d="M241.5 45.44C242.253 46.3886 242.63 47.581 242.56 48.79H236C236.013 49.4107 236.247 50.0063 236.66 50.47C236.875 50.6748 237.129 50.833 237.408 50.9345C237.687 51.036 237.984 51.0788 238.28 51.06C238.789 51.078 239.292 50.9495 239.73 50.69C240.064 50.4217 240.331 50.0794 240.51 49.69H242.45C242.251 50.4263 241.82 51.0787 241.22 51.55C240.371 52.1683 239.34 52.4851 238.29 52.45C237.15 52.5086 236.034 52.1171 235.18 51.36C234.765 50.9633 234.441 50.4821 234.229 49.9489C234.016 49.4157 233.921 48.8431 233.95 48.27C233.934 47.71 234.034 47.1527 234.244 46.6331C234.453 46.1135 234.768 45.6428 235.168 45.2504C235.568 44.858 236.044 44.5524 236.568 44.3527C237.091 44.1531 237.65 44.0636 238.21 44.09C238.824 44.0557 239.439 44.1592 240.008 44.3927C240.577 44.6263 241.087 44.9841 241.5 45.44ZM236.71 46.04C236.325 46.4271 236.075 46.929 236 47.47H240.53C240.522 47.1869 240.454 46.9087 240.33 46.6539C240.206 46.399 240.03 46.1734 239.812 45.9919C239.595 45.8104 239.342 45.6771 239.069 45.6009C238.796 45.5248 238.51 45.5074 238.23 45.55C237.685 45.5019 237.141 45.6628 236.71 46V46.04Z" fill="#2FABD1"/>
<path d="M246 44.34H248V45.78H246V50.26C245.986 50.4148 246.033 50.5689 246.13 50.69C246.257 50.7913 246.418 50.8413 246.58 50.83H247.74V52.27H246.25C245.947 52.2951 245.641 52.2585 245.353 52.1622C245.064 52.066 244.798 51.9121 244.57 51.71C244.39 51.5161 244.252 51.2874 244.164 51.038C244.077 50.7885 244.041 50.5237 244.06 50.26V45.78H242.47V44.34H244.06V42.5L246 41.78V44.34Z" fill="#2FABD1"/>
<path d="M255.88 41.32L260 49.91H260.06L264.19 41.32H266.52V52.32H264.52V44.72H264.46L260.88 52.27H259.16L255.59 44.72H255.52V52.27H253.52V41.27L255.88 41.32Z" fill="#2FABD1"/>
<path d="M274.78 45C275.067 45.2882 275.289 45.6346 275.43 46.0159C275.572 46.3972 275.63 46.8044 275.6 47.21V52.27H273.8V51.22C273.454 51.6142 273.023 51.9252 272.54 52.13C271.902 52.3745 271.223 52.4933 270.54 52.48C269.769 52.5236 269.007 52.3012 268.38 51.85C268.125 51.6638 267.918 51.42 267.776 51.1384C267.633 50.8568 267.559 50.5456 267.56 50.23C267.547 49.8134 267.648 49.4011 267.852 49.0379C268.057 48.6747 268.357 48.3745 268.72 48.17C269.636 47.6619 270.673 47.4098 271.72 47.44H273.64V47.13C273.64 46.13 273.01 45.58 271.75 45.58C271.304 45.553 270.858 45.6462 270.46 45.85C270.276 45.939 270.115 46.0678 269.987 46.2269C269.859 46.3859 269.768 46.5714 269.72 46.77L267.8 46.63C267.873 46.221 268.041 45.8347 268.289 45.5014C268.537 45.1682 268.859 44.8973 269.23 44.71C270.056 44.3056 270.972 44.1197 271.89 44.17C272.925 44.0603 273.961 44.358 274.78 45ZM271.87 48.69C270.32 48.69 269.56 49.22 269.56 50.17C269.558 50.3092 269.594 50.4463 269.662 50.5674C269.731 50.6886 269.83 50.7895 269.95 50.86C270.248 51.0514 270.596 51.1522 270.95 51.15C271.627 51.1696 272.291 50.9658 272.84 50.57C273.081 50.3968 273.278 50.1686 273.414 49.9043C273.549 49.6399 273.62 49.3471 273.62 49.05V48.65L271.87 48.69Z" fill="#2FABD1"/>
<path d="M284.65 47.37V52.27H282.71V47.53C282.753 47.2576 282.73 46.979 282.645 46.7168C282.56 46.4547 282.414 46.2164 282.219 46.0214C282.024 45.8265 281.785 45.6803 281.523 45.5949C281.261 45.5095 280.982 45.4873 280.71 45.53C280.248 45.5232 279.799 45.687 279.45 45.99C279.239 46.173 279.068 46.3966 278.946 46.6475C278.824 46.8984 278.754 47.1714 278.74 47.45V52.22H276.8V44.34H278.74V45.26C279.062 44.9022 279.453 44.6131 279.89 44.41C280.348 44.2151 280.842 44.1164 281.34 44.12C283.54 44.12 284.65 45.2 284.65 47.37Z" fill="#2FABD1"/>
<path d="M292.72 45C293.005 45.2893 293.226 45.6359 293.367 46.0169C293.509 46.3979 293.568 46.8046 293.54 47.21V52.27H291.73V51.22C291.386 51.6163 290.954 51.9277 290.47 52.13C289.833 52.3767 289.153 52.4956 288.47 52.48C287.699 52.5236 286.937 52.3012 286.31 51.85C286.055 51.6638 285.848 51.42 285.706 51.1384C285.563 50.8568 285.489 50.5456 285.49 50.23C285.477 49.8134 285.578 49.4011 285.782 49.0379C285.987 48.6747 286.287 48.3745 286.65 48.17C287.566 47.6601 288.602 47.4078 289.65 47.44H291.58V47.13C291.58 46.13 290.95 45.58 289.69 45.58C289.24 45.5546 288.792 45.6477 288.39 45.85C288.207 45.939 288.047 46.0679 287.921 46.2271C287.794 46.3863 287.705 46.5718 287.66 46.77L285.74 46.63C285.812 46.2205 285.978 45.8335 286.227 45.5C286.475 45.1666 286.798 44.896 287.17 44.71C287.992 44.3056 288.905 44.1196 289.82 44.17C290.858 44.0576 291.899 44.3555 292.72 45ZM289.81 48.69C288.26 48.69 287.49 49.22 287.49 50.17C287.49 50.3088 287.527 50.4451 287.595 50.5659C287.663 50.6868 287.761 50.788 287.88 50.86C288.179 51.0494 288.526 51.1499 288.88 51.15C289.557 51.1696 290.221 50.9658 290.77 50.57C291.013 50.3973 291.211 50.1695 291.348 49.9052C291.485 49.6409 291.558 49.3478 291.56 49.05V48.65L289.81 48.69Z" fill="#2FABD1"/>
<path d="M301 45.3V44.3H302.94V51.72C302.94 54.22 301.56 55.48 298.8 55.48C297.819 55.5316 296.842 55.321 295.97 54.87C295.639 54.6398 295.359 54.343 295.149 53.9987C294.939 53.6543 294.803 53.2699 294.75 52.87H296.69C296.721 53.0627 296.794 53.2464 296.903 53.4086C297.011 53.5708 297.154 53.7077 297.32 53.81C297.786 54.0125 298.293 54.1016 298.8 54.07C300.27 54.07 301 53.36 301 51.95V50.86C300.692 51.2544 300.295 51.5705 299.841 51.7825C299.388 51.9945 298.89 52.0964 298.39 52.08C297.861 52.1003 297.333 52.0152 296.837 51.8298C296.341 51.6444 295.886 51.3624 295.5 51C295.124 50.6239 294.831 50.1734 294.64 49.6774C294.449 49.1814 294.364 48.6509 294.39 48.12C294.363 47.5875 294.447 47.0552 294.639 46.5575C294.83 46.0599 295.124 45.6079 295.501 45.2309C295.878 44.8539 296.33 44.5602 296.828 44.3688C297.325 44.1775 297.858 44.0927 298.39 44.12C298.887 44.1004 299.381 44.1968 299.834 44.4017C300.287 44.6065 300.687 44.9141 301 45.3ZM297 46.23C296.556 46.7597 296.334 47.4404 296.38 48.13C296.344 48.7532 296.513 49.3711 296.86 49.89C297.077 50.1578 297.356 50.3682 297.674 50.5024C297.991 50.6367 298.337 50.6908 298.68 50.66C299 50.6773 299.32 50.6275 299.62 50.5138C299.919 50.4002 300.192 50.2251 300.42 50C300.81 49.449 301.02 48.7903 301.02 48.115C301.02 47.4396 300.81 46.781 300.42 46.23C300.203 45.9933 299.936 45.8078 299.639 45.6867C299.341 45.5657 299.021 45.5121 298.7 45.53C298.382 45.5116 298.064 45.5649 297.77 45.6861C297.476 45.8073 297.213 45.9932 297 46.23Z" fill="#2FABD1"/>
<path d="M311.2 45.44C311.953 46.3886 312.33 47.581 312.26 48.79H305.67C305.692 49.4088 305.925 50.0014 306.33 50.47C306.545 50.6743 306.8 50.8321 307.079 50.9336C307.357 51.0351 307.654 51.0782 307.95 51.06C308.417 51.1076 308.886 51.0028 309.288 50.7612C309.69 50.5197 310.003 50.1543 310.18 49.72H312.12C311.924 50.4578 311.492 51.1112 310.89 51.58C310.044 52.1968 309.016 52.5136 307.97 52.48C306.827 52.5391 305.707 52.1477 304.85 51.39C304.435 50.9933 304.111 50.5121 303.899 49.9789C303.686 49.4457 303.591 48.8731 303.62 48.3C303.604 47.74 303.704 47.1827 303.914 46.6631C304.123 46.1435 304.438 45.6728 304.838 45.2804C305.238 44.888 305.714 44.5824 306.238 44.3827C306.761 44.1831 307.32 44.0936 307.88 44.12C308.497 44.0767 309.116 44.1729 309.69 44.4014C310.265 44.6299 310.781 44.9849 311.2 45.44ZM306.42 46.04C306.028 46.4235 305.775 46.9266 305.7 47.47H310.23C310.222 47.1869 310.154 46.9087 310.03 46.6539C309.906 46.3991 309.73 46.1734 309.512 45.9919C309.295 45.8104 309.042 45.6771 308.769 45.6009C308.496 45.5248 308.21 45.5074 307.93 45.55C307.388 45.5015 306.847 45.6625 306.42 46V46.04Z" fill="#2FABD1"/>
<path d="M320 45.41C320.34 44.9784 320.779 44.6354 321.28 44.41C321.747 44.211 322.252 44.1155 322.76 44.13C323.594 44.1008 324.407 44.3945 325.03 44.95C325.318 45.2234 325.545 45.5544 325.697 45.9214C325.848 46.2883 325.921 46.6831 325.91 47.08V52.28H324V47.38C324.021 47.1354 323.993 46.8891 323.917 46.6555C323.842 46.422 323.72 46.2059 323.56 46.02C323.143 45.6949 322.617 45.5412 322.09 45.59C321.868 45.5823 321.647 45.6221 321.442 45.7066C321.237 45.7911 321.052 45.9184 320.9 46.08C320.727 46.2576 320.595 46.4697 320.51 46.7024C320.426 46.9351 320.392 47.1831 320.41 47.43V52.28H318.46V47.39C318.46 46.18 317.89 45.58 316.73 45.58C316.476 45.5674 316.222 45.613 315.988 45.7136C315.754 45.8141 315.546 45.9668 315.38 46.16C315.043 46.5277 314.86 47.0112 314.87 47.51V52.27H312.93V44.34H314.87V45.15C315.505 44.5161 316.363 44.157 317.26 44.15C317.787 44.1045 318.316 44.1968 318.797 44.4177C319.277 44.6385 319.692 44.9805 320 45.41Z" fill="#2FABD1"/>
<path d="M334.21 45.44C334.963 46.3886 335.34 47.581 335.27 48.79H328.68C328.702 49.4088 328.935 50.0014 329.34 50.47C329.555 50.6743 329.81 50.8321 330.089 50.9336C330.367 51.0351 330.664 51.0782 330.96 51.06C331.427 51.1076 331.896 51.0028 332.298 50.7612C332.7 50.5197 333.013 50.1543 333.19 49.72H335.13C334.934 50.4553 334.506 51.1077 333.91 51.58C333.06 52.1955 332.029 52.512 330.98 52.48C329.838 52.537 328.718 52.1459 327.86 51.39C327.447 50.9924 327.124 50.5108 326.914 49.9776C326.704 49.4445 326.61 48.8724 326.64 48.3C326.623 47.7404 326.722 47.1834 326.93 46.6638C327.138 46.1443 327.452 45.6734 327.851 45.2809C328.25 44.8883 328.726 44.5826 329.249 44.3828C329.772 44.183 330.331 44.0935 330.89 44.12C331.507 44.0767 332.126 44.1729 332.7 44.4014C333.275 44.6299 333.791 44.9849 334.21 45.44ZM329.43 46.04C329.038 46.4235 328.785 46.9266 328.71 47.47H333.24C333.232 47.1869 333.164 46.9087 333.04 46.6539C332.916 46.3991 332.74 46.1734 332.522 45.9919C332.305 45.8104 332.051 45.6771 331.779 45.6009C331.506 45.5248 331.22 45.5074 330.94 45.55C330.398 45.5015 329.857 45.6625 329.43 46V46.04Z" fill="#2FABD1"/>
<path d="M343.8 47.37V52.27H341.86V47.53C341.905 47.2572 341.884 46.9776 341.8 46.7144C341.715 46.4512 341.569 46.2119 341.374 46.0164C341.178 45.8209 340.939 45.6748 340.676 45.5903C340.412 45.5057 340.133 45.485 339.86 45.53C339.398 45.5223 338.949 45.6861 338.6 45.99C338.39 46.1739 338.218 46.3976 338.094 46.6482C337.971 46.8987 337.898 47.1712 337.88 47.45V52.22H336V44.34H337.94V45.26C338.266 44.8915 338.668 44.5986 339.119 44.4017C339.57 44.2048 340.058 44.1087 340.55 44.12C342.717 44.12 343.8 45.2033 343.8 47.37Z" fill="#2FABD1"/>
<path d="M347.76 44.34H349.71V45.78H347.76V50.26C347.746 50.4148 347.793 50.5689 347.89 50.69C348.014 50.7898 348.171 50.8397 348.33 50.83H349.49V52.27H348C347.697 52.2957 347.391 52.2594 347.102 52.1631C346.813 52.0668 346.547 51.9126 346.32 51.71C346.14 51.5161 346.002 51.2874 345.914 51.038C345.827 50.7885 345.791 50.5237 345.81 50.26V45.78H344.22V44.34H345.81V42.5L347.75 41.78L347.76 44.34Z" fill="#2FABD1"/>
<path d="M359.75 41.32C361.378 41.2041 362.987 41.732 364.23 42.79C364.739 43.3178 365.132 43.9464 365.384 44.6353C365.635 45.3243 365.74 46.0583 365.69 46.79C365.738 47.5216 365.632 48.255 365.381 48.9437C365.13 49.6324 364.738 50.2611 364.23 50.79C362.991 51.8554 361.38 52.3874 359.75 52.27H355.3V41.27L359.75 41.32ZM357.29 50.73H359.37C360.556 50.8323 361.738 50.4941 362.69 49.78C363.057 49.3775 363.335 48.9026 363.508 48.3859C363.68 47.8692 363.742 47.3221 363.69 46.78C363.747 46.2376 363.687 45.6893 363.514 45.172C363.342 44.6546 363.061 44.18 362.69 43.78C361.736 43.0694 360.555 42.7348 359.37 42.84H357.29V50.73Z" fill="#2FABD1"/>
<path d="M373.42 45C373.707 45.2882 373.929 45.6346 374.07 46.0159C374.212 46.3972 374.27 46.8044 374.24 47.21V52.27H372.44V51.22C372.094 51.6142 371.663 51.9252 371.18 52.13C370.542 52.3754 369.863 52.4943 369.18 52.48C368.409 52.5236 367.647 52.3012 367.02 51.85C366.765 51.6638 366.558 51.42 366.416 51.1384C366.273 50.8568 366.199 50.5456 366.2 50.23C366.187 49.8134 366.288 49.4011 366.492 49.0379C366.697 48.6747 366.997 48.3745 367.36 48.17C368.276 47.6619 369.313 47.4098 370.36 47.44H372.28V47.13C372.28 46.13 371.65 45.58 370.39 45.58C369.944 45.554 369.498 45.6471 369.1 45.85C368.916 45.939 368.755 46.0678 368.627 46.2269C368.499 46.3859 368.408 46.5714 368.36 46.77L366.44 46.63C366.513 46.221 366.681 45.8347 366.929 45.5014C367.177 45.1682 367.499 44.8973 367.87 44.71C368.696 44.3056 369.612 44.1197 370.53 44.17C371.565 44.0603 372.601 44.358 373.42 45ZM370.51 48.69C368.96 48.69 368.2 49.22 368.2 50.17C368.2 50.3088 368.237 50.4451 368.305 50.5659C368.373 50.6868 368.471 50.788 368.59 50.86C368.888 51.0514 369.236 51.1522 369.59 51.15C370.267 51.1696 370.931 50.9658 371.48 50.57C371.721 50.3968 371.918 50.1686 372.054 49.9043C372.189 49.6399 372.26 49.3471 372.26 49.05V48.65L370.51 48.69Z" fill="#2FABD1"/>
<path d="M378.2 44.34H380.15V45.78H378.2V50.26C378.186 50.4148 378.233 50.5689 378.33 50.69C378.454 50.7907 378.611 50.8407 378.77 50.83H379.93V52.27H378.45C378.145 52.2959 377.838 52.2597 377.548 52.1634C377.257 52.0672 376.989 51.9129 376.76 51.71C376.58 51.5161 376.442 51.2874 376.354 51.038C376.267 50.7885 376.231 50.5237 376.25 50.26V45.78H374.67V44.34H376.25V42.5L378.2 41.78V44.34Z" fill="#2FABD1"/>
<path d="M387.63 45C387.917 45.2882 388.139 45.6346 388.28 46.0159C388.422 46.3972 388.48 46.8044 388.45 47.21V52.27H386.64V51.22C386.296 51.6163 385.864 51.9277 385.38 52.13C384.743 52.3767 384.063 52.4956 383.38 52.48C382.609 52.5236 381.847 52.3012 381.22 51.85C380.965 51.6638 380.758 51.42 380.616 51.1384C380.473 50.8568 380.399 50.5456 380.4 50.23C380.387 49.8134 380.488 49.4011 380.692 49.0379C380.897 48.6747 381.197 48.3745 381.56 48.17C382.476 47.6601 383.512 47.4078 384.56 47.44H386.49V47.13C386.49 46.13 385.86 45.58 384.6 45.58C384.15 45.5546 383.702 45.6477 383.3 45.85C383.117 45.939 382.957 46.0679 382.831 46.2271C382.704 46.3863 382.615 46.5718 382.57 46.77L380.65 46.63C380.722 46.2205 380.888 45.8335 381.137 45.5C381.385 45.1666 381.708 44.896 382.08 44.71C382.902 44.3056 383.815 44.1196 384.73 44.17C385.768 44.0576 386.809 44.3555 387.63 45ZM384.72 48.69C383.17 48.69 382.4 49.22 382.4 50.17C382.4 50.3088 382.437 50.4451 382.505 50.5659C382.573 50.6868 382.671 50.788 382.79 50.86C383.089 51.0494 383.436 51.1499 383.79 51.15C384.467 51.1696 385.131 50.9658 385.68 50.57C385.923 50.3973 386.121 50.1695 386.258 49.9052C386.396 49.6409 386.468 49.3478 386.47 49.05V48.65L384.72 48.69Z" fill="#2FABD1"/>
<path d="M399.67 41.32C402.6 41.32 404.08 42.44 404.08 44.68C404.08 46.92 402.6 48.07 399.64 48.07H396.64V52.27H394.64V41.27L399.67 41.32ZM396.67 46.53H399.56C400.235 46.5782 400.909 46.4288 401.5 46.1C401.713 45.9335 401.88 45.7161 401.987 45.468C402.093 45.2198 402.136 44.9488 402.11 44.68C402.134 44.4122 402.088 44.1429 401.978 43.8977C401.867 43.6526 401.696 43.4399 401.48 43.28C400.897 42.9477 400.229 42.7979 399.56 42.85H396.67V46.53Z" fill="#2FABD1"/>
<path d="M406.88 41.1V52.27H404.94V41.1H406.88Z" fill="#2FABD1"/>
<path d="M415.12 45C415.407 45.2882 415.629 45.6346 415.77 46.0159C415.912 46.3972 415.97 46.8044 415.94 47.21V52.27H414.13V51.22C413.788 51.614 413.36 51.9252 412.88 52.13C412.242 52.3745 411.563 52.4933 410.88 52.48C410.109 52.5237 409.347 52.3013 408.72 51.85C408.465 51.6638 408.258 51.42 408.116 51.1384C407.973 50.8569 407.899 50.5456 407.9 50.23C407.887 49.8134 407.988 49.4011 408.192 49.0379C408.397 48.6747 408.697 48.3745 409.06 48.17C409.976 47.6615 411.013 47.4093 412.06 47.44H413.99V47.13C413.99 46.13 413.36 45.58 412.1 45.58C411.65 45.5546 411.202 45.6477 410.8 45.85C410.617 45.9391 410.457 46.0679 410.331 46.2271C410.204 46.3864 410.115 46.5719 410.07 46.77L408.15 46.63C408.223 46.221 408.391 45.8347 408.639 45.5015C408.887 45.1682 409.209 44.8973 409.58 44.71C410.406 44.3056 411.322 44.1197 412.24 44.17C413.271 44.063 414.304 44.3605 415.12 45ZM412.21 48.69C410.66 48.69 409.89 49.22 409.89 50.17C409.89 50.31 409.928 50.4473 409.998 50.5684C410.068 50.6895 410.169 50.79 410.29 50.86C410.588 51.0515 410.936 51.1522 411.29 51.15C411.966 51.1681 412.63 50.9644 413.18 50.57C413.421 50.3968 413.618 50.1686 413.754 49.9043C413.889 49.64 413.96 49.3471 413.96 49.05V48.65L412.21 48.69Z" fill="#2FABD1"/>
<path d="M419.89 44.34H421.89V45.78H419.89V50.26C419.879 50.4161 419.929 50.5704 420.03 50.69C420.154 50.7907 420.311 50.8407 420.47 50.83H421.63V52.27H420.15C419.845 52.2959 419.538 52.2597 419.248 52.1634C418.957 52.0672 418.689 51.9129 418.46 51.71C418.28 51.5161 418.142 51.2874 418.054 51.038C417.967 50.7885 417.931 50.5237 417.95 50.26V45.78H416.37V44.34H418V42.5L419.94 41.78L419.89 44.34Z" fill="#2FABD1"/>
<path d="M427.78 41.32V42.79H426.18C425.971 42.7756 425.764 42.8398 425.6 42.97C425.529 43.0457 425.475 43.1359 425.443 43.2342C425.41 43.3326 425.399 43.4369 425.41 43.54V44.34H427.66V45.76H425.41V52.27H423.47V45.76H421.47V44.34H423.47V43.49C423.451 43.1949 423.498 42.8992 423.606 42.6243C423.715 42.3493 423.884 42.102 424.1 41.9C424.603 41.4759 425.254 41.2675 425.91 41.32H427.78Z" fill="#2FABD1"/>
<path d="M435.34 45.3C436.113 46.1077 436.544 47.1823 436.544 48.3C436.544 49.4177 436.113 50.4923 435.34 51.3C434.436 52.0667 433.29 52.4875 432.105 52.4875C430.92 52.4875 429.774 52.0667 428.87 51.3C428.1 50.4911 427.67 49.417 427.67 48.3C427.67 47.183 428.1 46.1088 428.87 45.3C429.771 44.5412 430.912 44.1251 432.09 44.1251C433.268 44.1251 434.409 44.5412 435.31 45.3H435.34ZM430.25 46.41C429.885 46.9746 429.691 47.6326 429.691 48.305C429.691 48.9773 429.885 49.6354 430.25 50.2C430.471 50.4818 430.756 50.7068 431.081 50.8564C431.406 51.0059 431.762 51.0757 432.12 51.06C432.479 51.0733 432.836 51.0025 433.162 50.8531C433.489 50.7038 433.776 50.4801 434 50.2C434.391 49.6486 434.595 48.9859 434.58 48.31C434.601 47.6301 434.397 46.9622 434 46.41C433.779 46.1262 433.492 45.8998 433.165 45.7501C432.838 45.6004 432.479 45.5318 432.12 45.55C431.762 45.53 431.404 45.5979 431.078 45.7478C430.752 45.8977 430.468 46.125 430.25 46.41Z" fill="#2FABD1"/>
<path d="M442.67 44.32V46.07C442.259 45.9578 441.836 45.9007 441.41 45.9C440.898 45.8966 440.404 46.0899 440.03 46.44C439.796 46.6395 439.611 46.8904 439.489 47.1731C439.368 47.4558 439.313 47.7628 439.33 48.07V52.27H437.4V44.34H439.33V45.47C439.54 45.1089 439.822 44.7956 440.16 44.55C440.566 44.2552 441.059 44.104 441.56 44.12C441.94 44.1123 442.317 44.1803 442.67 44.32Z" fill="#2FABD1"/>
<path d="M450 45.41C450.34 44.9784 450.779 44.6354 451.28 44.41C451.748 44.2119 452.252 44.1164 452.76 44.13C453.594 44.0987 454.408 44.3927 455.03 44.95C455.319 45.2223 455.548 45.553 455.699 45.9203C455.851 46.2875 455.923 46.6829 455.91 47.08V52.28H454V47.38C454.021 47.1354 453.993 46.8891 453.917 46.6555C453.842 46.422 453.72 46.2059 453.56 46.02C453.143 45.694 452.617 45.5401 452.09 45.59C451.868 45.583 451.648 45.623 451.442 45.7075C451.237 45.7919 451.052 45.9189 450.9 46.08C450.727 46.2576 450.595 46.4697 450.51 46.7024C450.426 46.9351 450.392 47.1831 450.41 47.43V52.28H448.47V47.39C448.47 46.18 447.89 45.58 446.73 45.58C446.477 45.5674 446.225 45.6131 445.992 45.7137C445.76 45.8143 445.554 45.967 445.39 46.16C445.054 46.5294 444.869 47.0109 444.87 47.51V52.27H442.93V44.34H444.87V45.15C445.506 44.5189 446.364 44.1602 447.26 44.15C447.787 44.1045 448.316 44.1968 448.797 44.4177C449.277 44.6386 449.692 44.9805 450 45.41Z" fill="#2FABD1"/>
<path d="M36.02 0H24.01V12.01H36.02V0Z" fill="#2FABD1"/>
<path d="M48.03 12.01H36.02V24.02H48.03V12.01Z" fill="#2FABD1"/>
<path d="M60.04 24.01H48.03V36.02H60.04V24.01Z" fill="#2FABD1"/>
<path d="M36.02 48.03H48.03V36.02H36.02V48.03Z" fill="#2FABD1"/>
<path d="M24.02 60.04H36.03V48.03H24.02V60.04Z" fill="#2FABD1"/>
<path d="M9.53674e-06 36.03H12.01L12.01 24.02H9.53674e-06L9.53674e-06 36.03Z" fill="#2FABD1"/>
<path d="M30.02 48.03V12.01" stroke="#2FABD1" stroke-width="0.72" stroke-miterlimit="10"/>
<path d="M12.01 30.02H48.03" stroke="#2FABD1" stroke-width="0.72" stroke-miterlimit="10"/>
<path d="M42.03 42.03L12.01 12.01" stroke="#2FABD1" stroke-width="0.72" stroke-miterlimit="10"/>
<path d="M42.03 18.01L12.01 48.03" stroke="#2FABD1" stroke-width="0.72" stroke-miterlimit="10"/>
</g>
<defs>
<clipPath id="clip0_153_1089">
<rect width="456.93" height="60.04" fill="white"/>
</clipPath>
</defs>
</svg>
