<svg width="60" height="60" viewBox="0 0 60 60" fill="none" xmlns="http://www.w3.org/2000/svg">
<circle cx="30" cy="30" r="30" fill="#2FABD1"/>
<path d="M30 26.0278C33.0452 26.0278 35.5138 23.5591 35.5138 20.5139C35.5138 17.4686 33.0452 15 30 15C26.9547 15 24.4861 17.4686 24.4861 20.5139C24.4861 23.5591 26.9547 26.0278 30 26.0278Z" fill="white"/>
<path d="M39.5885 37.7928C39.5885 36.5336 39.3405 35.2868 38.8586 34.1234C38.3767 32.9601 37.6705 31.9031 36.7801 31.0127C35.8897 30.1224 34.8327 29.4161 33.6694 28.9342C32.5061 28.4524 31.2592 28.2043 30 28.2043C28.7409 28.2043 27.494 28.4524 26.3307 28.9342C25.1674 29.4161 24.1104 30.1224 23.22 31.0127C22.3296 31.9031 21.6234 32.9601 21.1415 34.1234C20.6596 35.2868 20.4116 36.5336 20.4116 37.7928V44.9859H39.5885V37.7928Z" fill="white"/>
</svg>
