<svg width="86" height="86" viewBox="0 0 86 86" fill="none" xmlns="http://www.w3.org/2000/svg">
<g clip-path="url(#clip0_801_7510)">
<path d="M34.2012 85.05C33.8212 85.05 33.4312 85.04 33.0512 85.02C21.9212 84.44 13.1112 75.24 13.0012 64.08C12.9212 56.61 16.8512 49.57 23.2512 45.7C23.5012 45.55 23.6612 45.29 23.6612 45.02V10.53C23.6512 4.73 28.3812 0 34.1912 0C40.0012 0 44.7312 4.73 44.7312 10.54V45.06C44.7312 45.31 44.8712 45.54 45.1012 45.68C51.5412 49.55 55.3912 56.35 55.3912 63.85C55.3912 69.72 53.0412 75.18 48.7812 79.23C44.8012 83.01 39.6612 85.05 34.2012 85.05ZM34.1912 1.96C29.4612 1.96 25.6112 5.81 25.6112 10.54V45.03C25.6112 45.99 25.1012 46.87 24.2612 47.38C18.4512 50.89 14.8812 57.28 14.9512 64.06C15.0512 74.02 23.2212 82.55 33.1512 83.07C38.4812 83.34 43.5612 81.48 47.4312 77.82C51.3012 74.15 53.4312 69.19 53.4312 63.86C53.4312 57.05 49.9412 50.88 44.0912 47.36C43.2612 46.86 42.7712 46.01 42.7712 45.07V10.53C42.7712 5.8 38.9212 1.95 34.1912 1.95V1.96Z" fill="#AFAFAF"/>
<path d="M34.1911 78.16C26.4711 78.16 20.1812 71.88 20.1812 64.16C20.1812 56.44 26.4611 50.15 34.1911 50.15C41.9211 50.15 48.2012 56.43 48.2012 64.16C48.2012 71.89 41.9211 78.16 34.1911 78.16ZM34.1911 52.11C27.5511 52.11 22.1412 57.52 22.1412 64.16C22.1412 70.8 27.5511 76.21 34.1911 76.21C40.8311 76.21 46.2411 70.81 46.2411 64.16C46.2411 57.51 40.8311 52.11 34.1911 52.11Z" fill="#AFAFAF"/>
<path d="M34.1914 52.1C33.6514 52.1 33.2114 51.66 33.2114 51.12V10.22C33.2114 9.67999 33.6514 9.23999 34.1914 9.23999C34.7314 9.23999 35.1714 9.67999 35.1714 10.22V51.12C35.1714 51.66 34.7314 52.1 34.1914 52.1Z" fill="#AFAFAF"/>
<path d="M71.5113 11.2H52.7813C52.2413 11.2 51.8013 10.76 51.8013 10.22C51.8013 9.67999 52.2413 9.23999 52.7813 9.23999H71.5113C72.0513 9.23999 72.4913 9.67999 72.4913 10.22C72.4913 10.76 72.0513 11.2 71.5113 11.2Z" fill="#AFAFAF"/>
<path d="M62.141 19.38H52.771C52.231 19.38 51.791 18.94 51.791 18.4C51.791 17.86 52.231 17.42 52.771 17.42H62.141C62.681 17.42 63.121 17.86 63.121 18.4C63.121 18.94 62.681 19.38 62.141 19.38Z" fill="#AFAFAF"/>
<path d="M71.5113 27.57H52.7813C52.2413 27.57 51.8013 27.13 51.8013 26.59C51.8013 26.05 52.2413 25.61 52.7813 25.61H71.5113C72.0513 25.61 72.4913 26.05 72.4913 26.59C72.4913 27.13 72.0513 27.57 71.5113 27.57Z" fill="#AFAFAF"/>
<path d="M62.141 35.75H52.771C52.231 35.75 51.791 35.31 51.791 34.77C51.791 34.23 52.231 33.79 52.771 33.79H62.141C62.681 33.79 63.121 34.23 63.121 34.77C63.121 35.31 62.681 35.75 62.141 35.75Z" fill="#AFAFAF"/>
<path d="M71.5113 43.93H52.7813C52.2413 43.93 51.8013 43.49 51.8013 42.95C51.8013 42.41 52.2413 41.97 52.7813 41.97H71.5113C72.0513 41.97 72.4913 42.41 72.4913 42.95C72.4913 43.49 72.0513 43.93 71.5113 43.93Z" fill="#AFAFAF"/>
</g>
<defs>
<clipPath id="clip0_801_7510">
<rect width="85.04" height="85.04" fill="white"/>
</clipPath>
</defs>
</svg>
