<svg width="86" height="86" viewBox="0 0 86 86" fill="none" xmlns="http://www.w3.org/2000/svg">
<g clip-path="url(#clip0_735_4631)">
<path d="M73 31.2H70.73C70.5836 31.1666 70.4315 31.1667 70.285 31.2001C70.1386 31.2336 70.0016 31.2996 69.8842 31.3933C69.7668 31.4869 69.6719 31.6058 69.6068 31.7412C69.5416 31.8765 69.5078 32.0248 69.5078 32.175C69.5078 32.3252 69.5416 32.4735 69.6068 32.6088C69.6719 32.7441 69.7668 32.863 69.8842 32.9567C70.0016 33.0504 70.1386 33.1164 70.285 33.1499C70.4315 33.1833 70.5836 33.1834 70.73 33.15H73C75.6788 33.1526 78.2473 34.2173 80.1424 36.1105C82.0375 38.0038 83.1047 40.5712 83.11 43.25V73C83.0994 75.6762 82.0303 78.2396 80.136 80.1301C78.2417 82.0206 75.6763 83.0847 73 83.09H12.06C9.39242 83.0716 6.83977 82.0017 4.95627 80.1126C3.07277 78.2234 2.01047 75.6676 2 73V43.25C2.00529 40.5712 3.07247 38.0038 4.9676 36.1105C6.86273 34.2173 9.4312 33.1526 12.11 33.15H14.36C14.5064 33.1834 14.6585 33.1833 14.805 33.1499C14.9514 33.1164 15.0884 33.0504 15.2058 32.9567C15.3232 32.863 15.418 32.7441 15.4832 32.6088C15.5484 32.4735 15.5822 32.3252 15.5822 32.175C15.5822 32.0248 15.5484 31.8765 15.4832 31.7412C15.418 31.6058 15.3232 31.4869 15.2058 31.3933C15.0884 31.2996 14.9514 31.2336 14.805 31.2001C14.6585 31.1667 14.5064 31.1666 14.36 31.2H12.06C8.86322 31.2 5.79723 32.4692 3.53583 34.7287C1.27442 36.9883 0.00265073 40.0532 0 43.25L0 73C0.0184839 76.1873 1.29693 79.2379 3.55633 81.486C5.81573 83.7342 8.87266 84.9974 12.06 85H73C76.1769 84.9816 79.2185 83.7114 81.465 81.465C83.7114 79.2185 84.9816 76.1769 85 73V43.25C84.9974 40.0636 83.7339 37.0077 81.4854 34.7499C79.237 32.4921 76.1864 31.2158 73 31.2Z" fill="#2FABD1"/>
<path d="M21.44 63L16.94 67.08C16.753 67.2568 16.6414 67.4989 16.6284 67.756C16.6153 68.013 16.7019 68.2652 16.87 68.46C16.9633 68.5605 17.0762 68.6408 17.2018 68.6959C17.3274 68.7509 17.4629 68.7796 17.6 68.78C17.8397 68.7772 18.0703 68.6885 18.25 68.53L22.76 64.44C26.49 61.06 28.76 55.6 29.06 49.44C29.35 43.01 27.4 37.04 23.73 33.05C20.06 29.06 18.33 23 19 16.57C19.62 10.87 22.08 6.13 25.74 3.57L28.33 1.77C28.471 1.60269 28.5533 1.39375 28.5641 1.17523C28.575 0.956701 28.5139 0.740645 28.3901 0.560183C28.2664 0.379721 28.0869 0.244813 27.8792 0.176141C27.6715 0.10747 27.4469 0.108826 27.24 0.180001L24.66 2C20.53 4.87 17.77 10.12 17.09 16.38C16.33 23.38 18.27 30.11 22.29 34.47C25.57 38.02 27.37 43.62 27.11 49.47C26.86 55 24.79 60 21.44 63Z" fill="#2FABD1"/>
<path d="M41.11 63L36.61 67.08C36.423 67.2568 36.3113 67.4989 36.2983 67.7559C36.2852 68.013 36.3718 68.2651 36.54 68.46C36.6297 68.5622 36.7405 68.6438 36.8648 68.6991C36.9891 68.7543 37.1239 68.7819 37.26 68.78C37.503 68.7796 37.7377 68.6907 37.92 68.53L42.43 64.44C46.16 61.06 48.43 55.6 48.73 49.44C49.01 43.01 47.07 37.04 43.4 33.05C39.73 29.06 38 23 38.7 16.57C39.32 10.87 41.78 6.12997 45.44 3.56997L48 1.77997C48.1437 1.72842 48.2737 1.64463 48.3801 1.53504C48.4864 1.42545 48.5662 1.29296 48.6134 1.14774C48.6606 1.00251 48.6739 0.848408 48.6523 0.697243C48.6307 0.546078 48.5748 0.401867 48.4888 0.275668C48.4028 0.149469 48.2891 0.0446357 48.1563 -0.030794C48.0236 -0.106224 47.8753 -0.150246 47.7229 -0.159484C47.5704 -0.168722 47.4179 -0.142932 47.277 -0.0840903C47.1361 -0.0252487 47.0106 0.0650811 46.91 0.179972L44.33 1.99997C40.2 4.86997 37.44 10.12 36.76 16.38C36 23.38 37.94 30.11 41.96 34.47C45.23 38.02 47.03 43.62 46.78 49.47C46.53 55 44.46 60 41.11 63Z" fill="#2FABD1"/>
<path d="M60.78 63L56.28 67.08C56.093 67.2569 55.9814 67.499 55.9683 67.756C55.9553 68.013 56.0419 68.2652 56.21 68.46C56.2997 68.5623 56.4106 68.6439 56.5349 68.6991C56.6592 68.7544 56.794 68.782 56.93 68.78C57.1731 68.7797 57.4077 68.6908 57.59 68.53L62.09 64.44C65.83 61.06 68.09 55.6 68.4 49.44C68.68 43.01 66.74 37.04 63.06 33.05C59.38 29.06 57.67 23 58.37 16.57C58.99 10.87 61.45 6.13003 65.11 3.57003L67.7 1.77003C67.8484 1.60139 67.9358 1.38767 67.9479 1.16334C67.9601 0.938999 67.8963 0.717111 67.7669 0.533439C67.6375 0.349767 67.4501 0.215013 67.2347 0.150899C67.0194 0.0867846 66.7888 0.097046 66.58 0.180029L64 2.00003C59.88 4.87003 57.12 10.12 56.44 16.38C55.68 23.38 57.62 30.11 61.64 34.47C64.91 38.02 66.71 43.62 66.45 49.47C66.19 55 64.13 60 60.78 63Z" fill="#2FABD1"/>
</g>
<defs>
<clipPath id="clip0_735_4631">
<rect width="85.04" height="85.04" fill="white"/>
</clipPath>
</defs>
</svg>
