<svg width="86" height="86" viewBox="0 0 86 86" fill="none" xmlns="http://www.w3.org/2000/svg">
<g clip-path="url(#clip0_801_7522)">
<path d="M42.5505 85.04C35.156 85.04 27.7517 82.401 21.8619 77.1128C9.8942 66.4066 7.87484 48.423 17.1402 35.2776L41.7388 0.389913C42.105 -0.1399 42.9761 -0.1399 43.3523 0.389913L67.9509 35.2676C74.3653 44.3644 75.5037 56.3602 70.9106 66.5666C69.0793 70.6351 66.4957 74.1839 63.239 77.1028C57.3393 82.381 49.9449 85.03 42.5505 85.03V85.04ZM42.5505 2.6991L18.7537 36.4372C10.0724 48.7529 11.973 65.5969 23.1685 75.6234C34.2156 85.5199 50.8853 85.5199 61.9324 75.6234C64.9812 72.8943 67.3965 69.5755 69.1189 65.7569C73.415 56.1902 72.3559 44.9642 66.3473 36.4372L42.5505 2.6991Z" fill="#2FABD1"/>
</g>
<defs>
<clipPath id="clip0_801_7522">
<rect width="85.04" height="85.04" fill="white"/>
</clipPath>
</defs>
</svg>
