<svg width="100" height="100" viewBox="0 0 100 100" fill="none" xmlns="http://www.w3.org/2000/svg">
<g clip-path="url(#clip0_212_595)">
<path d="M33.2197 73.436L44.6849 88.8523L62.6646 48.8711L88.5818 65.8514L99.953 32.5729V28.9511L87.9586 64.0287L63.1468 47.801L80.6444 8.90169L99.953 23.9182V22.4247L80.1858 7.0555L62.1472 47.1543L53.2691 41.3452L33.1726 71.4135L27.5753 63.8758L7.45532 97.2954V0H6.2794V3.61007H3.05738V4.78598H6.2794V7.40828H0V8.5842H6.2794V11.1947H3.05738V12.3707H6.2794V14.9929H3.05738V16.1689H6.2794V18.8147H0V19.9906H6.2794V22.6246H3.05738V23.8006H6.2794V26.4346H3.05738V27.6105H6.2794V30.2328H0V31.4087H6.2794V34.031H3.05738V35.207H6.2794V37.8293H3.05738V39.0052H6.2794V41.6392H0V42.8151H6.2794V45.4492H3.05738V46.6251H6.2794V49.1533H3.05738V50.3293H6.2794V52.9163H0V54.0922H6.2794V56.7145H3.05738V57.8904H6.2794V60.5245H3.05738V61.7004H6.2794V64.3344H0V65.5104H6.2794V68.1326H3.05738V69.3086H6.2794V71.9309H3.05738V73.1068H6.2794V75.7291H0V76.905H6.2794V79.5273H3.05738V80.7032H6.2794V83.3373H3.05738V84.5132H6.2794V87.1355H0V88.3114H6.2794V90.9337H3.05738V92.1096H6.2794V94.7319H3.05738V95.9078H6.2794V99.953H99.953V98.7771H8.38429L28.4572 80.5386L33.2197 73.436ZM53.5983 42.9563L61.6651 48.2126L44.4262 86.5475L33.9135 72.4365L53.5983 42.9563ZM9.40734 96.2841L27.6341 65.9807L32.4436 72.4483L27.6105 79.7272L9.40734 96.2841Z" fill="#AFAFAF"/>
</g>
<defs>
<clipPath id="clip0_212_595">
<rect width="100" height="100" fill="white"/>
</clipPath>
</defs>
</svg>