<svg width="590" height="100" viewBox="0 0 590 100" fill="none" xmlns="http://www.w3.org/2000/svg">
<g clip-path="url(#clip0_77_698)">
<path d="M141.655 35.3049V32.6566H143.021L141.494 30.9547C143.069 29.6495 144.346 28.0233 145.242 26.1848L148.157 26.7725C147.952 27.267 147.723 27.751 147.47 28.2225H155.804V30.7639H151.439C151.378 31.4279 151.316 32.0461 151.225 32.6566H156.674V35.3049H150.569L150.477 35.5567C152.487 36.4544 154.424 37.5083 156.27 38.7087L154.446 40.3571H166.374V52.3697H163.085V51.3394H148.752V52.3697H145.493V41.0211C144.73 41.4103 143.967 41.7843 143.204 42.1659L141.036 39.7924C144.196 38.5408 146.272 37.0373 147.233 35.3049H141.655ZM144.104 32.6566H148.134C148.259 32.0311 148.351 31.3993 148.409 30.7639H145.898C145.359 31.4485 144.759 32.082 144.104 32.6566ZM153.461 40.3571C152.191 39.3659 150.843 38.4778 149.431 37.7013C148.634 38.7358 147.672 39.633 146.585 40.3571H153.461ZM163.062 44.6462V42.9214H148.752V44.6462H163.062ZM163.062 48.7751V47.1571H148.752V48.7751H163.062ZM168.61 28.3065V38.991H157.521V28.3065H168.61ZM165.451 30.8708H160.681V36.4496H165.451V30.8708Z" fill="white"/>
<path d="M188.674 46.7373C188.123 48.5988 187.241 50.3463 186.072 51.8964L183.5 50.4463C184.559 49.2 185.37 47.7622 185.889 46.2107L188.674 46.7373ZM198.062 45.2872C198.993 45.9984 199.882 46.7629 200.725 47.5768L198.527 48.9734C197.543 47.9531 196.49 47.0019 195.375 46.1267L196.863 45.2872H186.568V43.1732H204.442V42.2192H183.927V40.1892H204.465V39.2123H186.721V37.0601H189.514V35.9764H184.309V33.9692H189.514V32.9389H185.454V30.9546H189.483V29.9243H184.904V27.9172H189.483V26.635H192.643V27.9172H196.764V29.9243H192.643V30.9546H196.268V32.9389H192.643V33.9692H196.734V35.9764H192.643V37.0601H202.122V35.9764H197.665V33.9692H202.16V32.9389H198.344V30.9546H202.16V29.9243H197.817V27.9172H202.152V26.635H205.297V27.9172H209.876V29.9243H205.297V30.9546H209.204V32.9389H205.297V33.9692H210.318V35.9764H205.297V37.0601H207.525V40.1892H211.089V42.2192H207.525V45.272L198.062 45.2872ZM193.322 51.7819C191.216 51.7819 190.163 50.9195 190.163 49.1947V46.0962H193.292V48.5765C193.292 49.0574 193.574 49.3016 194.162 49.3016H201.03C201.397 49.3312 201.762 49.2223 202.053 48.9963C202.328 48.7444 202.519 48.0194 202.61 46.8212L205.556 47.6607C205.304 49.6679 204.869 50.8661 204.282 51.2553C203.45 51.6466 202.536 51.8275 201.618 51.7819H193.322ZM211.852 49.9732L209.494 51.4538C208.326 49.8474 207.032 48.3366 205.625 46.9357L207.914 45.6536C209.345 46.981 210.662 48.4259 211.852 49.9732Z" fill="white"/>
<path d="M236.869 27.5281C235.81 29.8451 234.447 32.0111 232.817 33.9694V52.3469H229.589V37.3427C228.383 38.434 227.085 39.4872 225.719 40.5175L224.666 37.4648C228.595 34.5165 231.74 30.6484 233.824 26.2002L236.869 27.5281ZM251.996 37.0069L242.296 37.5411V47.9357C242.296 48.6989 242.761 49.0805 243.723 49.0805H248.18C248.458 49.1004 248.737 49.0556 248.996 48.9497C249.254 48.8438 249.484 48.6796 249.668 48.4699C249.983 48.0527 250.169 46.6026 250.225 44.1198L253.202 45.0356C252.98 48.2486 252.583 50.1947 251.996 50.8663C251.408 51.5379 250.317 51.8432 248.737 51.8432H242.944C240.342 51.8432 239.075 50.6679 239.075 48.3554V26.7115H242.296V34.8013L251.996 34.2442V37.0069Z" fill="white"/>
<path d="M278.066 28.3903C275.899 33.9997 273.052 38.3117 269.488 41.3034L266.916 39.2962C270.698 36.1384 273.522 31.9853 275.067 27.3066L278.066 28.3903ZM292.567 51.0874L289.514 52.3161C289.109 51.4232 288.713 50.5608 288.308 49.7213C282.966 50.4463 276.967 50.9806 270.404 51.3698L269.847 48.5231C271.922 48.1059 274.975 43.8957 279.005 35.8924L282.195 36.8922C280.07 40.9476 277.582 44.8021 274.762 48.4086C278.944 48.1644 283.004 47.7676 286.972 47.2104C286.019 45.4857 285.026 43.8677 284.004 42.3871L286.957 41.4942C289.143 44.5021 291.032 47.7149 292.597 51.0874H292.567ZM287.858 27.2227C288.8 31.9499 291.418 36.1777 295.23 39.1283L292.719 41.2118C289.18 38.3069 286.633 34.3727 285.431 29.9549H280.63V27.2227H287.858Z" fill="white"/>
<path d="M325.582 28.8102H336.679V31.6569H314.088V37.4571C313.997 43.6465 313.005 48.6072 311.143 52.3468L308.387 50.1412C309.914 47.0884 310.746 42.8604 310.807 37.4571V28.8102H321.957C321.543 28.1328 321.089 27.4804 320.598 26.8564L324.224 26.2993C324.734 27.1038 325.188 27.9427 325.582 28.8102ZM326.574 33.3893V47.1266H324.353C325.426 48.1862 326.43 49.3129 327.36 50.4999L324.819 52.0949C323.953 50.7457 322.978 49.4694 321.903 48.279L323.979 47.1037H317.66L320.263 48.2256C319.425 49.6727 318.398 51.0021 317.21 52.1789L314.432 50.9196C315.615 49.7771 316.655 48.4958 317.53 47.1037H315.546V33.3664L326.574 33.3893ZM323.476 37.2892V35.7781H318.645V37.2586L323.476 37.2892ZM323.476 40.9448V39.4948H318.645V40.9448H323.476ZM323.476 43.1428H318.645V44.7607H323.476V43.1428ZM331.107 34.6943V47.5998H328.169V34.6638L331.107 34.6943ZM329.619 52.011L328.932 49.2483C329.69 49.3615 330.456 49.4176 331.222 49.4162C332.214 49.4162 332.748 49.0575 332.748 48.3859V32.6337H335.847V49.0804C335.847 51.0036 334.672 51.9805 332.344 51.9805L329.619 52.011Z" fill="white"/>
<path d="M353.392 33.5191L350.576 31.9088C352.233 30.3675 353.515 28.4668 354.323 26.3528L357.452 26.971C357.269 27.3907 357.109 27.8105 356.926 28.2226H364.558V30.764H360.147C360.61 31.3493 361.036 31.9637 361.421 32.6033L358.475 33.6336C357.974 32.6266 357.384 31.6663 356.712 30.764H355.56C354.929 31.7512 354.203 32.674 353.392 33.5191ZM377.959 39.3498H374.807V36.2971H354.354V39.3498H351.194V33.8854H363.062C362.81 33.3817 362.566 32.9391 362.299 32.5193L365.031 32.0996L364.413 31.7409C365.768 30.1759 366.805 28.3612 367.465 26.3986L370.518 27.0091C370.366 27.4289 370.213 27.8486 370.053 28.2378H378.616V30.7793H373.716C374.118 31.2982 374.493 31.8383 374.838 32.3972L371.983 33.3741C371.484 32.4663 370.915 31.5987 370.282 30.7793H368.885C368.364 31.6539 367.785 32.4927 367.153 33.2901L365.725 32.4812C365.909 32.9238 366.13 33.397 366.313 33.9007H377.959V39.3498ZM373.685 43.4252H358.758V44.7303H375.143V52.3163H371.953V51.37H358.758V52.2858H355.499V37.3961H373.685V43.4252ZM370.556 41.1357V39.739H358.758V41.1357H370.556ZM371.953 48.8438V47.0198H358.758V48.8438H371.953Z" fill="white"/>
<path d="M395.734 36.5032V30.8175H392.33V28.0547H402.396V30.8175H399.023V36.5032H402.022V39.2964H399.023V44.5624C400.015 44.2571 400.969 43.9213 401.931 43.5626V46.3788C398.952 47.4125 395.911 48.2588 392.826 48.9125L392.017 46.1269C393.292 45.9285 394.528 45.7072 395.734 45.4248V39.3193H392.796V36.5032H395.734ZM419.286 27.345V40.8839H412.989V43.4482H419.652V46.1498H412.989V48.7446H420.705V51.5608H401.9V48.7446H409.769V46.1498H403.076V43.4482H409.769V40.8839H403.419V27.3602L419.286 27.345ZM409.769 32.8628V29.9245H406.518V32.8781L409.769 32.8628ZM409.769 35.3508H406.518V38.3043H409.769V35.3508ZM412.989 32.8628H416.187V29.9245H412.989V32.8628ZM416.187 35.3508H412.989V38.3043H416.187V35.3508Z" fill="white"/>
<path d="M448.027 34.8852V44.7608H442.883V46.1804H448.92V48.5539C450.623 47.6209 452.168 46.4259 453.499 45.0127C453.156 43.9519 452.851 42.8376 452.568 41.6089C452.244 40.1565 452.007 38.686 451.858 37.2053L449.035 37.7625L448.577 34.9463L451.629 34.3281C451.446 31.9928 451.385 29.3674 451.385 26.5208H454.636C454.636 29.2301 454.697 31.5959 454.82 33.6642L461.543 32.2675L462.039 35.1142L455.01 36.5643C455.132 38.2356 455.285 39.617 455.476 40.6854C455.567 41.2426 455.659 41.7768 455.781 42.2118C456.961 40.4669 457.982 38.6203 458.834 36.694L461.375 38.2204C460.143 40.9297 458.607 43.4901 456.796 45.8522C456.879 46.115 456.983 46.3703 457.109 46.6154C457.636 47.8136 458.04 48.4241 458.315 48.4241C458.842 48.4241 459.399 47.1725 459.956 44.6922L462.688 46.0583C461.818 49.8742 460.543 51.744 458.872 51.744C457.819 51.744 456.705 50.9121 455.56 49.2636C455.27 48.8772 455.014 48.4661 454.797 48.0349C453.354 49.4458 451.678 50.5973 449.844 51.4387L447.859 49.0652C448.203 48.9049 448.539 48.737 448.851 48.5691H442.937V52.2782H440.082V48.6378H434.046V46.1804H440.082V44.7608H434.969V34.8852H448.027ZM440.838 27.3297V33.855H434.328V27.3297H440.838ZM438.327 29.4514H436.801V31.7944H438.327V29.4514ZM440.029 38.7088V37.2587H437.739V38.7088H440.029ZM440.029 40.9144H437.739V42.4408H440.029V40.9144ZM448.676 27.3297V33.855H442.196V27.3297H448.676ZM442.883 38.7088H445.173V37.2587H442.883V38.7088ZM445.173 40.9144H442.883V42.4408H445.173V40.9144ZM446.165 29.4666H444.639V31.8096H446.165V29.4666ZM460.505 30.4512L457.971 32.0538C457.185 30.8086 456.304 29.6248 455.338 28.5127L457.842 27.116C458.81 28.1606 459.701 29.2754 460.505 30.4512Z" fill="white"/>
<path d="M478.776 32.153C478.717 34.8224 478.374 37.4779 477.753 40.0748L475.342 39.4643C475.946 37.0178 476.279 34.5122 476.334 31.9927L478.776 32.153ZM496.657 26.4978V28.0242H503.473V30.3671H496.657V31.5959H502.419V33.8854H496.657V35.1065H504.365V37.5029H485.561V36.5337L483.92 36.8924C483.533 35.4842 483.069 34.0982 482.531 32.7406V52.1789H479.364V26.5818H482.531V31.8248L484.416 31.2601C484.98 32.5042 485.477 33.7781 485.904 35.076H493.429V33.9159H487.575V31.6264H493.429V30.3977H486.56V28.0547H493.429V26.5283L496.657 26.4978ZM487.949 52.3163L485.591 50.416C487.082 48.8248 487.902 46.72 487.881 44.5395V38.5103H502.251V49.7749C502.251 51.3929 501.267 52.2018 499.313 52.2018H495.436L494.673 49.6986C496.039 49.752 497.275 49.8054 498.42 49.8054C498.886 49.8054 499.13 49.4696 499.13 48.8057V47.9662H490.399C489.922 49.583 489.085 51.0704 487.949 52.3163ZM490.796 45.7911H499.191V44.425H490.895C490.898 44.8823 490.865 45.339 490.796 45.7911ZM499.191 40.8304H490.895V42.2804H499.16L499.191 40.8304Z" fill="white"/>
<path d="M544.539 27.4746V30.3137H533.359V39.9069H545.677V42.7383H533.359V52.2781H530.077V42.7383H517.988V39.9069H530.077V30.3137H519.232V27.4746H544.539ZM526.986 37.6479L523.934 38.9911C523.017 36.8356 521.951 34.747 520.743 32.7406L523.743 31.4279C524.942 33.441 526.033 35.5174 527.009 37.6479H526.986ZM543.097 32.5727C542.195 34.7762 541.051 36.8726 539.686 38.8232L536.778 37.48C538.128 35.5438 539.266 33.4689 540.174 31.2905L543.097 32.5727Z" fill="white"/>
<path d="M560.429 35.1065C562.596 34.8012 565.817 31.8782 570.03 26.3223L573.373 27.3831C571.174 30.1652 568.705 32.7217 566 35.0149C571.022 34.7962 575.919 34.4909 580.691 34.0991C579.76 32.8704 578.799 31.7027 577.837 30.6114L580.783 29.3979C583.342 32.3028 585.691 35.3862 587.812 38.6248L584.652 40.0214C583.973 38.8766 583.256 37.7853 582.546 36.7321C576.105 37.2587 568.916 37.6479 561.017 37.8998L560.429 35.1065ZM584.339 52.3163H581.058V51.286H566.283V52.3468H562.993V40.3801H584.362L584.339 52.3163ZM581.058 48.4622V43.1199H566.283V48.4622H581.058Z" fill="white"/>
<path d="M142.265 65.3362V77.219H140.105V65.3362H142.265Z" fill="white"/>
<path d="M153.194 71.9071V77.2494H151.11V72.075C151.11 70.6555 150.385 69.961 148.943 69.961C148.442 69.9549 147.957 70.1312 147.577 70.457C147.351 70.6581 147.167 70.902 147.037 71.1744C146.906 71.4469 146.83 71.7426 146.814 72.0445V77.2188H144.707V68.6101H146.814V69.6099C147.162 69.2205 147.589 68.9095 148.067 68.6977C148.544 68.4858 149.062 68.3779 149.584 68.3812C151.988 68.3812 153.194 69.5412 153.194 71.9071Z" fill="white"/>
<path d="M158.406 68.6103H160.528V70.1367H158.406V74.9982C158.392 75.1664 158.444 75.3337 158.551 75.4637C158.687 75.5737 158.858 75.6283 159.032 75.6164H160.269V77.1809H158.658C158.328 77.21 157.995 77.1715 157.68 77.0679C157.366 76.9642 157.075 76.7975 156.827 76.578C156.632 76.3659 156.484 76.1164 156.389 75.8447C156.295 75.5731 156.256 75.285 156.277 74.9982V70.213H154.552V68.6866H156.277V66.6184L158.384 65.8552L158.406 68.6103Z" fill="white"/>
<path d="M169.778 69.8083C170.593 70.8375 171 72.1306 170.923 73.4411H163.764C163.788 74.1169 164.044 74.7638 164.489 75.2727C164.724 75.4904 165.001 75.6582 165.303 75.7657C165.604 75.8733 165.925 75.9185 166.244 75.8985C166.796 75.9237 167.343 75.7857 167.817 75.5017C168.177 75.2246 168.467 74.8664 168.664 74.4561H170.77C170.548 75.2537 170.078 75.9596 169.427 76.4709C168.505 77.1435 167.385 77.4875 166.244 77.4478C165.006 77.5118 163.792 77.087 162.863 76.2649C162.413 75.8344 162.06 75.3113 161.831 74.7316C161.602 74.1518 161.501 73.5293 161.536 72.9069C161.516 72.3027 161.622 71.701 161.845 71.1396C162.069 70.5781 162.407 70.069 162.837 69.6441C163.267 69.2192 163.78 68.8877 164.344 68.6703C164.908 68.453 165.511 68.3546 166.115 68.3812C166.793 68.3271 167.476 68.4275 168.11 68.6746C168.744 68.9218 169.315 69.3094 169.778 69.8083ZM164.581 70.457C164.168 70.87 163.9 71.4055 163.817 71.9834H168.732C168.549 70.5868 167.717 69.9075 166.237 69.9075C165.634 69.8649 165.039 70.0624 164.581 70.457Z" fill="white"/>
<path d="M174.876 65.0996V77.219H172.77V65.0996H174.876Z" fill="white"/>
<path d="M179.57 65.0996V77.219H177.463V65.0996H179.57Z" fill="white"/>
<path d="M184.431 65.4507C184.563 65.5625 184.669 65.7016 184.742 65.8584C184.814 66.0153 184.852 66.186 184.852 66.3589C184.852 66.5317 184.814 66.7025 184.742 66.8593C184.669 67.0162 184.563 67.1553 184.431 67.2671C184.145 67.5005 183.785 67.6224 183.416 67.6105C183.045 67.6243 182.681 67.5022 182.393 67.2671C182.263 67.1536 182.159 67.0127 182.089 66.8544C182.019 66.6961 181.985 66.5243 181.989 66.3512C181.983 66.1802 182.016 66.0099 182.086 65.8537C182.156 65.6975 182.261 65.5596 182.393 65.4507C182.68 65.2128 183.044 65.0879 183.416 65.0996C183.786 65.0898 184.146 65.2146 184.431 65.4507ZM184.431 68.6103V77.219H182.325V68.6103H184.431Z" fill="white"/>
<path d="M193.849 69.6634V68.6102H195.955V76.6694C195.955 79.3787 194.429 80.7448 191.46 80.7448C190.401 80.8041 189.346 80.5746 188.407 80.0808C188.05 79.8374 187.748 79.5225 187.519 79.1559C187.291 78.7893 187.141 78.3792 187.079 77.9515H189.186C189.218 78.1611 189.296 78.361 189.415 78.5365C189.533 78.7121 189.69 78.859 189.872 78.9666C190.377 79.1872 190.926 79.284 191.475 79.2489C193.068 79.2489 193.864 78.4858 193.864 76.9594V75.6849C193.532 76.1159 193.102 76.4618 192.609 76.6941C192.117 76.9263 191.577 77.0381 191.033 77.0205C189.871 77.0621 188.741 76.6423 187.888 75.8528C187.482 75.4428 187.166 74.9529 186.96 74.4142C186.754 73.8756 186.662 73.2999 186.69 72.7237C186.663 72.1454 186.755 71.5676 186.961 71.0265C187.167 70.4854 187.483 69.9928 187.888 69.5794C188.303 69.1766 188.796 68.8626 189.337 68.6566C189.878 68.4506 190.455 68.3569 191.033 68.3812C191.57 68.3597 192.104 68.4645 192.593 68.6872C193.082 68.9098 193.512 69.2442 193.849 69.6634ZM189.499 70.6555C189.023 71.2355 188.785 71.975 188.835 72.7237C188.793 73.4018 188.976 74.0747 189.354 74.6393C189.59 74.9288 189.894 75.156 190.238 75.301C190.583 75.446 190.958 75.5044 191.33 75.4712C191.677 75.4903 192.024 75.4363 192.349 75.3128C192.674 75.1892 192.969 74.9987 193.215 74.7538C193.673 74.1793 193.904 73.457 193.864 72.7237C193.908 71.9782 193.677 71.2423 193.215 70.6555C192.715 70.1764 192.049 69.909 191.357 69.909C190.664 69.909 189.999 70.1764 189.499 70.6555Z" fill="white"/>
<path d="M205.861 69.8085C206.676 70.8377 207.084 72.1309 207.006 73.4413H199.855C199.877 74.1161 200.13 74.763 200.572 75.2729C200.807 75.4907 201.084 75.6584 201.386 75.766C201.688 75.8735 202.008 75.9187 202.328 75.8988C202.879 75.9248 203.427 75.7867 203.9 75.5019C204.26 75.2248 204.551 74.8666 204.747 74.4563H206.861C206.64 75.2524 206.173 75.9579 205.525 76.4711C204.605 77.1459 203.483 77.4901 202.343 77.448C201.104 77.512 199.89 77.0872 198.962 76.2651C198.511 75.8346 198.159 75.3115 197.93 74.7318C197.7 74.1521 197.6 73.5295 197.634 72.9071C197.617 72.3008 197.725 71.6975 197.951 71.1349C198.178 70.5724 198.518 70.0627 198.951 69.6378C199.384 69.2129 199.899 68.882 200.466 68.6658C201.033 68.4496 201.638 68.3528 202.244 68.3814C202.915 68.3344 203.588 68.4381 204.214 68.6851C204.84 68.932 205.403 69.3159 205.861 69.8085ZM200.664 70.4573C200.251 70.8702 199.984 71.4057 199.901 71.9836H204.823C204.64 70.587 203.801 69.9078 202.328 69.9078C201.723 69.8689 201.127 70.0658 200.664 70.4573Z" fill="white"/>
<path d="M217.195 71.9072V77.2495H215.081V72.0751C215.081 70.6556 214.363 69.9611 212.921 69.9611C212.42 69.955 211.935 70.1314 211.555 70.4572C211.329 70.6583 211.145 70.9021 211.014 71.1746C210.883 71.447 210.808 71.7427 210.791 72.0446V77.219H208.685V68.6103H210.791V69.61C211.147 69.2128 211.584 68.8972 212.072 68.6851C212.561 68.4729 213.09 68.3693 213.623 68.3813C215.981 68.3813 217.195 69.5413 217.195 71.9072Z" fill="white"/>
<path d="M222.407 68.6103H224.529V70.1367H222.407V74.9982C222.392 75.1664 222.444 75.3337 222.552 75.4637C222.687 75.5737 222.859 75.6283 223.033 75.6164H224.292V77.1809H222.682C222.352 77.21 222.019 77.1715 221.704 77.0679C221.389 76.9642 221.099 76.7975 220.85 76.578C220.656 76.3659 220.507 76.1164 220.413 75.8447C220.318 75.5731 220.28 75.285 220.301 74.9982V70.213H218.576V68.6866H220.301V66.6184L222.407 65.8552V68.6103Z" fill="white"/>
<path d="M237.915 65.3362C241.097 65.3362 242.7 66.5496 242.7 68.9766C242.7 71.4035 241.098 72.6551 237.877 72.6551H234.603V77.2342H232.443V65.3362H237.915ZM234.603 70.9761H237.747C238.479 71.0268 239.211 70.8651 239.854 70.5106C240.082 70.3309 240.263 70.0976 240.38 69.8314C240.497 69.5652 240.547 69.2742 240.525 68.9842C240.553 68.692 240.505 68.3975 240.384 68.1298C240.264 67.8621 240.076 67.6305 239.838 67.4578C239.204 67.0955 238.475 66.9333 237.747 66.9923H234.603V70.9761Z" fill="white"/>
<path d="M246.508 68.6104V73.8534C246.483 74.127 246.512 74.4031 246.595 74.6652C246.677 74.9273 246.811 75.1703 246.989 75.3798C247.437 75.7383 248.005 75.9105 248.577 75.8606C249.069 75.8463 249.54 75.6568 249.905 75.3264C250.35 74.9397 250.671 74.4299 250.828 73.8611V68.6104H252.934V77.2191H250.828V76.1048C250.457 76.5333 249.998 76.8756 249.481 77.1076C248.964 77.3396 248.403 77.4558 247.836 77.448C245.547 77.448 244.394 76.288 244.394 73.9679V68.6256L246.508 68.6104Z" fill="white"/>
<path d="M257.231 65.0996V69.7932C257.564 69.3541 257.995 68.9982 258.489 68.7532C258.983 68.5083 259.527 68.381 260.078 68.3813C260.68 68.3544 261.282 68.4608 261.838 68.693C262.395 68.9252 262.894 69.2774 263.298 69.7245C264.041 70.6032 264.43 71.7267 264.39 72.8764C264.444 74.0514 264.054 75.2037 263.298 76.1047C262.874 76.556 262.357 76.9098 261.782 77.1417C261.208 77.3736 260.59 77.4781 259.971 77.4479C259.435 77.4831 258.899 77.3986 258.4 77.2006C257.901 77.0026 257.452 76.6961 257.086 76.3031V77.219H255.125V65.0996H257.231ZM257.895 70.6556C257.364 71.2549 257.09 72.0388 257.132 72.8383V72.9757C257.095 73.7085 257.302 74.433 257.72 75.0363C257.944 75.3256 258.234 75.5569 258.566 75.711C258.898 75.865 259.262 75.9372 259.628 75.9216C260.016 75.9503 260.406 75.8831 260.762 75.7261C261.119 75.5691 261.432 75.327 261.673 75.021C262.068 74.3781 262.257 73.6298 262.215 72.8764C262.261 72.1281 262.06 71.3853 261.642 70.7624C261.384 70.4674 261.061 70.2366 260.698 70.0883C260.335 69.9399 259.942 69.8781 259.551 69.9077C259.237 69.905 258.927 69.9706 258.641 70.0997C258.355 70.2288 258.101 70.4185 257.895 70.6556Z" fill="white"/>
<path d="M268.549 65.0996V77.219H266.443V65.0996H268.549Z" fill="white"/>
<path d="M273.411 65.4507C273.541 65.5632 273.646 65.7026 273.718 65.8593C273.79 66.0161 273.827 66.1865 273.827 66.3589C273.827 66.5314 273.79 66.7018 273.718 66.8585C273.646 67.0152 273.541 67.1546 273.411 67.2671C273.119 67.4899 272.763 67.6106 272.396 67.6106C272.029 67.6106 271.672 67.4899 271.381 67.2671C271.25 67.1536 271.146 67.0127 271.076 66.8544C271.006 66.6961 270.972 66.5243 270.976 66.3513C270.97 66.1802 271.003 66.0099 271.073 65.8538C271.143 65.6976 271.249 65.5597 271.381 65.4507C271.665 65.2146 272.026 65.0898 272.396 65.0997C272.765 65.0898 273.126 65.2146 273.411 65.4507ZM273.411 68.6103V77.219H271.304V68.6103H273.411Z" fill="white"/>
<path d="M283.279 69.1293C283.67 69.4114 283.998 69.7712 284.244 70.1862C284.489 70.6012 284.647 71.0624 284.706 71.5409H282.615C282.518 71.0563 282.247 70.6242 281.851 70.3275C281.394 70.045 280.862 69.9067 280.325 69.9306C279.982 69.9083 279.638 69.9655 279.32 70.0979C279.002 70.2303 278.719 70.4342 278.493 70.6938C278.018 71.3182 277.782 72.0929 277.83 72.8765C277.774 73.6728 278.004 74.4629 278.478 75.105C278.7 75.3673 278.981 75.5732 279.298 75.7058C279.616 75.8385 279.96 75.8941 280.302 75.8682C281.706 75.8682 282.485 75.2424 282.653 73.9908H284.744C284.601 75.0135 284.071 75.9423 283.263 76.5856C282.387 77.1767 281.343 77.4685 280.287 77.4175C279.67 77.47 279.05 77.3881 278.468 77.1772C277.886 76.9663 277.357 76.6316 276.917 76.1961C276.477 75.7607 276.137 75.2349 275.92 74.6551C275.704 74.0754 275.616 73.4555 275.662 72.8383C275.614 71.6647 276.034 70.5202 276.83 69.6559C277.285 69.1983 277.831 68.8421 278.434 68.6106C279.036 68.3792 279.681 68.2776 280.325 68.3127C281.37 68.279 282.4 68.5638 283.279 69.1293Z" fill="white"/>
<path d="M302.541 65.3362V66.9999H298.222V77.219H296.054V66.9999H291.727V65.3362H302.541Z" fill="white"/>
<path d="M311.86 69.6633C312.695 70.5367 313.161 71.6985 313.161 72.9069C313.161 74.1152 312.695 75.277 311.86 76.1504C311.389 76.5899 310.836 76.931 310.232 77.1538C309.627 77.3766 308.985 77.4765 308.342 77.4478C307.699 77.4785 307.057 77.3795 306.454 77.1566C305.851 76.9337 305.299 76.5915 304.831 76.1504C303.998 75.2761 303.533 74.1147 303.533 72.9069C303.533 71.6991 303.998 70.5376 304.831 69.6633C305.296 69.2236 305.846 68.8832 306.447 68.6628C307.048 68.4424 307.687 68.3465 308.326 68.3812C308.972 68.344 309.617 68.4385 310.225 68.6589C310.832 68.8793 311.389 69.2211 311.86 69.6633ZM306.334 70.8615C305.936 71.472 305.724 72.1854 305.724 72.9145C305.724 73.6436 305.936 74.357 306.334 74.9675C306.573 75.2748 306.882 75.5201 307.235 75.6822C307.589 75.8443 307.976 75.9185 308.365 75.8986C308.754 75.9172 309.142 75.8424 309.496 75.6805C309.851 75.5185 310.162 75.274 310.402 74.9675C310.81 74.3606 311.028 73.6459 311.028 72.9145C311.028 72.1832 310.81 71.4684 310.402 70.8615C310.164 70.5526 309.853 70.3063 309.498 70.1441C309.143 69.9819 308.754 69.9086 308.365 69.9305C307.976 69.9072 307.587 69.9799 307.233 70.1423C306.879 70.3047 306.57 70.5517 306.334 70.8615Z" fill="white"/>
<path d="M317.485 65.4507C317.615 65.5632 317.72 65.7026 317.792 65.8593C317.864 66.0161 317.901 66.1865 317.901 66.3589C317.901 66.5314 317.864 66.7018 317.792 66.8585C317.72 67.0152 317.615 67.1546 317.485 67.2671C317.193 67.4899 316.836 67.6106 316.469 67.6106C316.103 67.6106 315.746 67.4899 315.454 67.2671C315.322 67.1551 315.215 67.0146 315.144 66.8561C315.073 66.6976 315.038 66.5251 315.042 66.3513C315.036 66.1794 315.07 66.0084 315.141 65.8519C315.213 65.6955 315.32 65.5581 315.454 65.4507C315.739 65.2146 316.1 65.0898 316.469 65.0997C316.839 65.0939 317.198 65.2182 317.485 65.4507ZM317.485 68.6103V77.219H315.378V68.6103H317.485Z" fill="white"/>
<path d="M322.4 65.0996V77.219H320.293V65.0996H322.4Z" fill="white"/>
<path d="M332.473 69.8084C333.288 70.8376 333.696 72.1307 333.618 73.4412H326.467C326.489 74.116 326.742 74.7628 327.185 75.2728C327.42 75.4905 327.696 75.6583 327.998 75.7658C328.3 75.8734 328.62 75.9186 328.94 75.8986C329.492 75.9247 330.039 75.7866 330.512 75.5018C330.875 75.2254 331.168 74.8671 331.367 74.4562H333.511C333.291 75.2523 332.823 75.9578 332.176 76.471C331.258 77.1446 330.139 77.4888 329.001 77.4479C327.76 77.5139 326.543 77.089 325.612 76.265C325.161 75.8345 324.809 75.3114 324.58 74.7317C324.351 74.1519 324.25 73.5294 324.284 72.907C324.267 72.2994 324.375 71.6947 324.603 71.1311C324.83 70.5674 325.172 70.0569 325.606 69.6318C326.041 69.2067 326.559 68.8761 327.127 68.6609C327.695 68.4457 328.302 68.3505 328.909 68.3813C329.572 68.3418 330.235 68.4492 330.851 68.696C331.467 68.9427 332.021 69.3226 332.473 69.8084ZM327.276 70.4571C326.86 70.8678 326.592 71.4044 326.513 71.9835H331.428C331.245 70.5869 330.413 69.9076 328.932 69.9076C328.33 69.8715 327.737 70.0683 327.276 70.4571Z" fill="white"/>
<path d="M338.281 68.6103H340.38V70.1367H338.258V74.9982C338.249 75.0816 338.258 75.1659 338.282 75.246C338.307 75.3261 338.349 75.4002 338.403 75.4637C338.538 75.5751 338.71 75.6299 338.884 75.6164H340.144V77.1809H338.533C338.203 77.21 337.87 77.1715 337.555 77.0679C337.24 76.9642 336.95 76.7975 336.702 76.578C336.506 76.3665 336.356 76.1173 336.26 75.8456C336.164 75.5739 336.125 75.2856 336.144 74.9982V70.213H334.427V68.6866H336.144V66.6184L338.258 65.8552L338.281 68.6103Z" fill="white"/>
<path d="M350.851 65.3362L355.338 74.6547H355.415L359.887 65.3362H362.421V77.219H360.261V69.03H360.223L356.338 77.219H354.476L350.591 69.03H350.515V77.219H348.317V65.3362H350.851Z" fill="white"/>
<path d="M372.296 69.3277C372.609 69.6428 372.851 70.0208 373.006 70.4366C373.161 70.8524 373.227 71.2965 373.197 71.7393V77.2343H371.236V76.0819C370.864 76.5131 370.396 76.8505 369.87 77.0664C369.179 77.3339 368.443 77.4635 367.702 77.448C366.867 77.494 366.04 77.2545 365.359 76.7687C365.08 76.5681 364.854 76.3029 364.7 75.996C364.546 75.689 364.468 75.3492 364.474 75.0058C364.457 74.5541 364.565 74.1067 364.786 73.7123C365.007 73.3179 365.332 72.9918 365.725 72.7696C366.728 72.2254 367.859 71.9617 368.999 72.0065L371.091 71.953V71.6249C371.091 70.4877 370.404 69.9382 369.038 69.9382C368.552 69.9089 368.068 70.009 367.633 70.2282C367.441 70.327 367.272 70.4672 367.141 70.6387C367.009 70.8103 366.916 71.0089 366.87 71.2204L364.779 71.0754C364.857 70.6344 365.035 70.2171 365.3 69.8559C365.564 69.4947 365.908 69.199 366.305 68.9919C367.203 68.558 368.195 68.3584 369.19 68.4119C370.304 68.3161 371.413 68.6431 372.296 69.3277ZM369.129 73.342C367.45 73.342 366.618 73.9068 366.618 74.9371C366.615 75.0908 366.653 75.2427 366.728 75.3769C366.803 75.5111 366.913 75.6227 367.046 75.7003C367.378 75.9189 367.77 76.0307 368.168 76.0208C368.903 76.0419 369.625 75.8192 370.221 75.3874C370.484 75.2004 370.699 74.9533 370.847 74.6666C370.996 74.3799 371.074 74.0618 371.075 73.7389V73.2657L369.129 73.342Z" fill="white"/>
<path d="M383.92 71.9071V77.2494H381.813V72.075C381.813 70.6555 381.096 69.961 379.653 69.961C379.151 69.9552 378.663 70.1314 378.28 70.4571C378.054 70.6582 377.87 70.902 377.739 71.1745C377.608 71.4469 377.533 71.7426 377.517 72.0445V77.2189H375.41V68.6102H377.517V69.6099C377.87 69.212 378.305 68.8959 378.793 68.6837C379.28 68.4715 379.809 68.3683 380.34 68.3812C382.721 68.3812 383.92 69.5413 383.92 71.9071Z" fill="white"/>
<path d="M393.612 69.3277C393.922 69.6441 394.161 70.0227 394.314 70.4385C394.466 70.8542 394.529 71.2976 394.498 71.7393V77.2343H392.536V76.0819C392.165 76.5131 391.697 76.8505 391.17 77.0664C390.479 77.3339 389.743 77.4635 389.003 77.448C388.167 77.494 387.341 77.2545 386.66 76.7687C386.381 76.5681 386.155 76.3029 386 75.9959C385.846 75.689 385.769 75.3492 385.774 75.0058C385.758 74.5541 385.866 74.1066 386.087 73.7123C386.307 73.3179 386.632 72.9918 387.026 72.7696C388.029 72.2253 389.16 71.9617 390.3 72.0064L392.391 71.953V71.6249C392.391 70.4877 391.704 69.9382 390.338 69.9382C389.853 69.9089 389.368 70.009 388.934 70.2282C388.741 70.327 388.573 70.4672 388.441 70.6387C388.309 70.8102 388.217 71.0089 388.171 71.2204L386.08 71.0754C386.156 70.6338 386.333 70.2158 386.598 69.8543C386.863 69.4928 387.208 69.1976 387.606 68.9919C388.503 68.558 389.496 68.3584 390.491 68.4118C391.61 68.3122 392.725 68.6393 393.612 69.3277ZM390.445 73.342C388.766 73.342 387.934 73.9068 387.934 74.9371C387.931 75.0908 387.969 75.2427 388.044 75.3769C388.119 75.5111 388.229 75.6227 388.362 75.7003C388.694 75.9189 389.086 76.0307 389.483 76.0208C390.219 76.0419 390.941 75.8192 391.536 75.3874C391.8 75.2004 392.015 74.9533 392.163 74.6666C392.312 74.3799 392.39 74.0618 392.391 73.7389V73.2657L390.445 73.342Z" fill="white"/>
<path d="M403.518 69.6634V68.6102H405.625V76.6694C405.625 79.3788 404.098 80.7449 401.13 80.7449C400.071 80.8034 399.016 80.574 398.077 80.0809C397.72 79.8375 397.418 79.5225 397.189 79.1559C396.96 78.7894 396.81 78.3792 396.749 77.9516H398.855C398.89 78.1602 398.97 78.3588 399.088 78.5339C399.207 78.7091 399.362 78.8567 399.542 78.9666C400.046 79.1872 400.596 79.284 401.145 79.249C402.742 79.249 403.539 78.4858 403.534 76.9595V75.6849C403.201 76.116 402.771 76.4619 402.279 76.6941C401.787 76.9263 401.246 77.0382 400.702 77.0205C399.541 77.0622 398.41 76.6423 397.558 75.8528C397.152 75.4429 396.836 74.953 396.63 74.4143C396.424 73.8756 396.332 73.2999 396.36 72.7238C396.332 72.1454 396.424 71.5676 396.631 71.0266C396.837 70.4855 397.152 69.9928 397.558 69.5795C397.97 69.1804 398.458 68.8686 398.993 68.6627C399.528 68.4568 400.099 68.3611 400.672 68.3813C401.214 68.3549 401.754 68.4573 402.249 68.6802C402.744 68.903 403.179 69.24 403.518 69.6634ZM399.145 70.6556C398.664 71.2329 398.423 71.9737 398.474 72.7238C398.433 73.4019 398.615 74.0748 398.993 74.6394C399.229 74.9289 399.533 75.156 399.878 75.3011C400.222 75.4461 400.597 75.5045 400.969 75.4712C401.319 75.4997 401.67 75.4539 402 75.3368C402.33 75.2198 402.632 75.0341 402.885 74.792C403.342 74.2176 403.573 73.4952 403.534 72.7619C403.578 72.0164 403.347 71.2806 402.885 70.6937C402.649 70.4378 402.361 70.2369 402.039 70.105C401.717 69.9731 401.37 69.9135 401.023 69.9305C400.676 69.9043 400.327 69.9558 400.002 70.0812C399.677 70.2066 399.385 70.4028 399.145 70.6556Z" fill="white"/>
<path d="M415.516 69.8085C416.331 70.8377 416.738 72.1308 416.66 73.4413H409.509C409.531 74.1161 409.784 74.7629 410.227 75.2729C410.462 75.4906 410.738 75.6584 411.04 75.7659C411.342 75.8735 411.662 75.9187 411.982 75.8987C412.488 75.9536 412.998 75.8426 413.436 75.5825C413.874 75.3223 414.215 74.9271 414.409 74.4563H416.523C416.298 75.2544 415.825 75.9602 415.172 76.4711C414.254 77.1447 413.135 77.4889 411.997 77.448C410.756 77.514 409.539 77.0891 408.609 76.2651C408.158 75.8346 407.806 75.3115 407.576 74.7318C407.347 74.152 407.246 73.5295 407.281 72.907C407.263 72.2995 407.372 71.6948 407.599 71.1312C407.827 70.5675 408.168 70.057 408.603 69.6319C409.037 69.2068 409.555 68.8762 410.123 68.661C410.692 68.4458 411.299 68.3506 411.906 68.3814C412.576 68.335 413.248 68.439 413.872 68.686C414.497 68.9329 415.058 69.3165 415.516 69.8085ZM410.318 70.4572C409.902 70.8679 409.634 71.4045 409.555 71.9836H414.47C414.287 70.587 413.455 69.9077 411.974 69.9077C411.372 69.8716 410.779 70.0684 410.318 70.4572Z" fill="white"/>
<path d="M426.032 69.7779C426.4 69.3067 426.876 68.9321 427.421 68.6866C427.928 68.4731 428.475 68.3715 429.024 68.3889C429.927 68.3568 430.809 68.6707 431.489 69.2666C431.801 69.5595 432.048 69.9147 432.213 70.3092C432.379 70.7036 432.46 71.1284 432.451 71.5561V77.1961H430.337V71.8538C430.361 71.5879 430.332 71.3198 430.25 71.0654C430.169 70.8111 430.038 70.5757 429.863 70.3732C429.409 70.0238 428.84 69.8576 428.268 69.9077C428.028 69.8995 427.788 69.9429 427.566 70.0351C427.343 70.1272 427.143 70.2659 426.979 70.4419C426.789 70.6335 426.643 70.8633 426.549 71.116C426.456 71.3687 426.418 71.6385 426.437 71.9072V77.1655H424.33V71.9225C424.33 70.6098 423.705 69.9611 422.445 69.9611C422.17 69.947 421.895 69.9968 421.642 70.1067C421.389 70.2166 421.165 70.3836 420.988 70.5945C420.618 70.9914 420.418 71.5174 420.43 72.0598V77.219H418.324V68.6103H420.43V69.4955C421.113 68.799 422.043 68.3989 423.018 68.3813C423.598 68.3295 424.183 68.4313 424.712 68.6764C425.241 68.9216 425.696 69.3014 426.032 69.7779Z" fill="white"/>
<path d="M442.341 69.8084C443.156 70.8376 443.564 72.1308 443.486 73.4412H436.328C436.355 74.1162 436.61 74.762 437.053 75.2728C437.288 75.4905 437.564 75.6583 437.866 75.7658C438.168 75.8734 438.488 75.9186 438.808 75.8986C439.36 75.9247 439.907 75.7866 440.38 75.5018C440.741 75.2247 441.031 74.8665 441.227 74.4562H443.334C443.116 75.2518 442.651 75.9574 442.006 76.471C441.085 77.1447 439.964 77.4888 438.823 77.4479C437.585 77.5119 436.371 77.0871 435.442 76.265C434.991 75.8345 434.639 75.3114 434.41 74.7317C434.181 74.152 434.08 73.5294 434.114 72.907C434.095 72.3028 434.2 71.7011 434.424 71.1397C434.648 70.5782 434.986 70.0691 435.416 69.6442C435.846 69.2193 436.359 68.8878 436.923 68.6705C437.487 68.4531 438.09 68.3547 438.693 68.3813C439.37 68.3296 440.049 68.4311 440.68 68.6782C441.312 68.9253 441.88 69.3116 442.341 69.8084ZM437.144 70.4571C436.731 70.8701 436.464 71.4056 436.381 71.9835H441.296C441.113 70.5869 440.281 69.9077 438.808 69.9077C438.203 69.8671 437.606 70.0643 437.144 70.4571Z" fill="white"/>
<path d="M453.667 71.9073V77.2496H451.561V72.0752C451.561 70.6557 450.843 69.9612 449.401 69.9612C448.9 69.9552 448.415 70.1315 448.035 70.4573C447.809 70.6584 447.626 70.9022 447.495 71.1747C447.364 71.4471 447.288 71.7428 447.272 72.0447V77.2191H445.165V68.6104H447.226V69.6101C447.577 69.2197 448.006 68.9077 448.485 68.6943C448.967 68.4849 449.486 68.3783 450.012 68.3814C452.469 68.3814 453.667 69.5415 453.667 71.9073Z" fill="white"/>
<path d="M458.887 68.6103H461.009V70.1367H458.887V74.9982C458.878 75.0816 458.886 75.1659 458.911 75.246C458.936 75.3261 458.977 75.4002 459.032 75.4637C459.167 75.5737 459.339 75.6283 459.513 75.6164H460.772V77.1809H459.162C458.832 77.21 458.499 77.1715 458.184 77.0679C457.869 76.9642 457.579 76.7975 457.33 76.578C457.135 76.3665 456.985 76.1173 456.889 75.8456C456.793 75.5739 456.754 75.2856 456.773 74.9982V70.213H455.056V68.6866H456.773V66.6184L458.887 65.8552V68.6103Z" fill="white"/>
<path d="M473.746 65.3362C475.891 65.3362 477.501 65.8628 478.608 66.9312C479.161 67.5043 479.588 68.1867 479.861 68.9346C480.134 69.6825 480.248 70.4792 480.195 71.2738C480.246 72.068 480.131 72.8642 479.858 73.6117C479.584 74.3592 479.159 75.0418 478.608 75.6163C477.501 76.6847 475.891 77.219 473.746 77.219H468.923V65.3362H473.746ZM471.083 75.5552H473.372C474.66 75.6635 475.942 75.2941 476.975 74.5173C477.374 74.0828 477.678 73.5701 477.869 73.0117C478.059 72.4534 478.132 71.8616 478.081 71.2738C478.137 70.6832 478.067 70.0876 477.877 69.526C477.686 68.9643 477.379 68.4494 476.975 68.015C476.211 67.3281 475.013 66.9999 473.372 66.9999H471.083V75.5552Z" fill="white"/>
<path d="M489.514 69.3276C489.826 69.6426 490.068 70.0207 490.222 70.4367C490.376 70.8527 490.439 71.2969 490.407 71.7393V77.2342H488.438V76.0818C488.063 76.5132 487.593 76.8505 487.064 77.0663C486.376 77.3346 485.642 77.4643 484.904 77.4479C484.069 77.4952 483.242 77.2556 482.561 76.7687C482.282 76.5684 482.054 76.3036 481.899 75.9966C481.743 75.6897 481.664 75.3498 481.668 75.0057C481.652 74.5532 481.761 74.1048 481.983 73.7102C482.205 73.3156 482.532 72.9901 482.928 72.7696C483.93 72.2253 485.062 71.9617 486.202 72.0064L488.285 71.953V71.6248C488.285 70.4877 487.606 69.9382 486.24 69.9382C485.752 69.909 485.265 70.009 484.828 70.2282C484.638 70.3302 484.472 70.4714 484.34 70.6425C484.208 70.8135 484.115 71.0104 484.065 71.2203L481.981 71.0753C482.057 70.6337 482.235 70.2158 482.5 69.8543C482.765 69.4928 483.11 69.1976 483.508 68.9919C484.405 68.5579 485.397 68.3584 486.392 68.4118C487.512 68.3091 488.628 68.6366 489.514 69.3276ZM486.354 73.342C484.675 73.342 483.843 73.9068 483.843 74.9371C483.84 75.0899 483.877 75.241 483.951 75.375C484.025 75.5089 484.132 75.6211 484.263 75.7002C484.599 75.9181 484.993 76.0298 485.393 76.0208C486.128 76.0407 486.849 75.8181 487.446 75.3873C487.708 75.2 487.922 74.9526 488.069 74.6658C488.217 74.3791 488.293 74.0613 488.293 73.7389V73.2657L486.354 73.342Z" fill="white"/>
<path d="M495.619 68.6103H497.741V70.1367H495.619V74.9982C495.61 75.0816 495.618 75.1659 495.643 75.246C495.668 75.3261 495.71 75.4002 495.764 75.4637C495.899 75.5751 496.071 75.6299 496.245 75.6164H497.504V77.1809H495.894C495.564 77.21 495.231 77.1715 494.916 77.0679C494.601 76.9642 494.311 76.7975 494.062 76.578C493.867 76.3665 493.717 76.1173 493.621 75.8456C493.525 75.5739 493.486 75.2856 493.505 74.9982V70.213H491.788V68.6866H493.505V66.6184L495.619 65.8552V68.6103Z" fill="white"/>
<path d="M506.754 69.3277C507.069 69.6415 507.314 70.0189 507.472 70.4348C507.63 70.8506 507.698 71.2954 507.67 71.7394V77.2343H505.709V76.0819C505.337 76.5131 504.869 76.8505 504.343 77.0664C503.654 77.3333 502.921 77.4629 502.183 77.448C501.345 77.4952 500.516 77.2556 499.832 76.7687C499.553 76.5681 499.327 76.303 499.173 75.996C499.019 75.689 498.941 75.3493 498.947 75.0058C498.93 74.5541 499.038 74.1067 499.259 73.7123C499.48 73.3179 499.805 72.9918 500.198 72.7697C501.201 72.2254 502.332 71.9617 503.472 72.0065L505.564 71.953V71.6249C505.564 70.4877 504.877 69.9382 503.511 69.9382C503.025 69.9089 502.541 70.009 502.106 70.2283C501.916 70.3303 501.75 70.4715 501.618 70.6425C501.487 70.8135 501.393 71.0105 501.343 71.2204L499.252 71.0754C499.331 70.6348 499.51 70.218 499.774 69.8569C500.039 69.4958 500.382 69.2 500.778 68.9919C501.676 68.5586 502.668 68.3591 503.663 68.4119C504.772 68.3185 505.875 68.6454 506.754 69.3277ZM503.587 73.342C501.908 73.342 501.076 73.9068 501.076 74.9371C501.073 75.0909 501.111 75.2427 501.186 75.3769C501.261 75.5111 501.371 75.6227 501.503 75.7003C501.838 75.92 502.233 76.0318 502.633 76.0208C503.366 76.0408 504.085 75.8181 504.678 75.3874C504.942 75.2004 505.157 74.9533 505.305 74.6666C505.454 74.3799 505.532 74.0619 505.533 73.7389V73.2657L503.587 73.342Z" fill="white"/>
<path d="M521.697 65.3362C524.88 65.3362 526.49 66.5496 526.49 68.9766C526.49 71.4035 524.88 72.6551 521.667 72.6551H518.393V77.2342H516.225V65.3362H521.697ZM518.393 70.9761H521.537C522.269 71.0268 523.001 70.8651 523.644 70.5106C523.871 70.3301 524.05 70.0964 524.166 69.8303C524.282 69.5641 524.33 69.2736 524.307 68.9842C524.337 68.6919 524.289 68.3968 524.169 68.1288C524.048 67.8609 523.859 67.6294 523.621 67.4578C522.989 67.0966 522.263 66.9343 521.537 66.9923H518.393V70.9761Z" fill="white"/>
<path d="M530.413 65.0996V77.219H528.307V65.0996H530.413Z" fill="white"/>
<path d="M540.334 69.3277C540.641 69.6454 540.878 70.0246 541.028 70.4403C541.178 70.856 541.238 71.2987 541.204 71.7393V77.2343H539.243V76.0819C538.872 76.5131 538.403 76.8505 537.877 77.0664C537.189 77.3339 536.455 77.4635 535.717 77.448C534.879 77.4952 534.05 77.2556 533.366 76.7687C533.089 76.5667 532.864 76.3013 532.71 75.9947C532.556 75.688 532.477 75.3489 532.481 75.0058C532.465 74.5541 532.573 74.1067 532.793 73.7123C533.014 73.3179 533.339 72.9918 533.733 72.7696C534.736 72.2254 535.867 71.9617 537.007 72.0065L539.098 71.953V71.6249C539.098 70.4877 538.411 69.9382 537.045 69.9382C536.559 69.9089 536.075 70.009 535.641 70.2282C535.451 70.3303 535.284 70.4715 535.153 70.6425C535.021 70.8135 534.927 71.0105 534.877 71.2204L532.786 71.0754C532.864 70.6344 533.042 70.2171 533.307 69.8559C533.572 69.4947 533.916 69.199 534.313 68.9919C535.21 68.5596 536.203 68.3601 537.198 68.4119C538.321 68.3083 539.443 68.6356 540.334 69.3277ZM537.175 73.342C535.488 73.342 534.656 73.9068 534.656 74.9371C534.653 75.0908 534.691 75.2427 534.766 75.3769C534.841 75.5111 534.951 75.6227 535.084 75.7003C535.419 75.9191 535.813 76.0308 536.213 76.0208C536.946 76.0408 537.665 75.8181 538.258 75.3874C538.522 75.2004 538.737 74.9533 538.885 74.6666C539.034 74.3799 539.112 74.0618 539.113 73.7389V73.2657L537.175 73.342Z" fill="white"/>
<path d="M546.44 68.6103H548.569V70.1367H546.44V74.9982C546.425 75.1664 546.477 75.3337 546.585 75.4637C546.72 75.5737 546.892 75.6283 547.066 75.6164H548.325V77.1809H546.714C546.385 77.2107 546.054 77.1726 545.74 77.0689C545.426 76.9652 545.137 76.7981 544.89 76.578C544.694 76.3673 544.543 76.1182 544.447 75.8463C544.351 75.5744 544.312 75.2857 544.333 74.9982V70.213H542.624V68.6866H544.341V66.6184L546.447 65.8552L546.44 68.6103Z" fill="white"/>
<path d="M555.903 65.3361V66.9312H554.163C553.937 66.917 553.714 66.9878 553.537 67.1296C553.46 67.2111 553.401 67.3087 553.365 67.4156C553.329 67.5225 553.318 67.6359 553.331 67.7478V68.6102H555.773V70.1366H553.308V77.196H551.202V70.1595H549.073V68.6331H551.202V67.6944C551.183 67.3748 551.234 67.055 551.352 66.7572C551.469 66.4593 551.65 66.1906 551.881 65.9696C552.427 65.5097 553.131 65.2823 553.843 65.3361H555.903Z" fill="white"/>
<path d="M565.031 69.6635C565.866 70.5369 566.332 71.6987 566.332 72.9071C566.332 74.1154 565.866 75.2772 565.031 76.1506C564.051 76.9875 562.805 77.4473 561.516 77.4473C560.228 77.4473 558.982 76.9875 558.002 76.1506C557.167 75.2772 556.701 74.1154 556.701 72.9071C556.701 71.6987 557.167 70.5369 558.002 69.6635C558.465 69.2237 559.014 68.8831 559.614 68.6626C560.213 68.4421 560.852 68.3464 561.49 68.3814C562.136 68.3431 562.784 68.4371 563.392 68.6575C564.001 68.878 564.559 69.2203 565.031 69.6635ZM559.505 70.8617C559.107 71.4722 558.895 72.1856 558.895 72.9147C558.895 73.6438 559.107 74.3572 559.505 74.9677C559.744 75.275 560.053 75.5202 560.406 75.6824C560.76 75.8445 561.147 75.9187 561.536 75.8987C561.925 75.9174 562.313 75.8426 562.667 75.6806C563.022 75.5187 563.332 75.2742 563.573 74.9677C563.981 74.3608 564.199 73.646 564.199 72.9147C564.199 72.1833 563.981 71.4686 563.573 70.8617C563.335 70.5528 563.024 70.3065 562.669 70.1443C562.314 69.9821 561.925 69.9087 561.536 69.9306C561.147 69.9073 560.758 69.9801 560.404 70.1425C560.05 70.3049 559.741 70.5519 559.505 70.8617Z" fill="white"/>
<path d="M573.914 68.5949V70.4953C573.47 70.3695 573.01 70.3079 572.548 70.3121C571.983 70.2982 571.435 70.5065 571.022 70.8921C570.77 71.109 570.57 71.3804 570.438 71.6858C570.305 71.9912 570.244 72.3226 570.259 72.6551V77.2342H568.175V68.6102H570.259V69.8465C570.481 69.4481 570.792 69.106 571.167 68.8468C571.609 68.524 572.147 68.3599 572.693 68.3812C573.111 68.3636 573.528 68.4365 573.914 68.5949Z" fill="white"/>
<path d="M582.821 69.7779C583.185 69.307 583.66 68.9324 584.202 68.6866C584.711 68.472 585.26 68.3704 585.812 68.3889C586.714 68.3572 587.593 68.6712 588.27 69.2666C588.582 69.5595 588.828 69.9147 588.994 70.3092C589.16 70.7036 589.241 71.1284 589.231 71.5561V77.1961H587.125V71.8538C587.148 71.5874 587.118 71.319 587.035 71.0646C586.953 70.8102 586.82 70.5751 586.644 70.3732C586.194 70.0215 585.626 69.855 585.057 69.9077C584.815 69.8994 584.574 69.9427 584.351 70.0349C584.127 70.127 583.925 70.2657 583.759 70.4419C583.573 70.635 583.429 70.8653 583.336 71.1177C583.244 71.3702 583.207 71.6392 583.225 71.9072V77.1655H581.119V71.9225C581.119 70.6098 580.485 69.9611 579.234 69.9611C578.957 69.9481 578.682 69.9984 578.428 70.1082C578.174 70.218 577.948 70.3843 577.768 70.5945C577.404 70.9943 577.207 71.519 577.219 72.0598V77.219H575.105V68.6103H577.219V69.4955C577.902 68.799 578.831 68.3989 579.806 68.3813C580.387 68.3295 580.971 68.4313 581.5 68.6764C582.029 68.9216 582.485 69.3014 582.821 69.7779Z" fill="white"/>
<path d="M60.0016 0H39.9985V20.0031H60.0016V0Z" fill="white"/>
<path d="M80.0046 20.0029H60.0016V40.006H80.0046V20.0029Z" fill="white"/>
<path d="M100 39.9985H79.9969V60.0016H100V39.9985Z" fill="white"/>
<path d="M59.9939 79.9971H79.9969V59.994H59.9939V79.9971Z" fill="white"/>
<path d="M39.9985 100H60.0016V79.9969H39.9985V100Z" fill="white"/>
<path d="M-1.90735e-06 60.0015H20.0031L20.0031 39.9984H-1.90735e-06L-1.90735e-06 60.0015Z" fill="white"/>
<path d="M50.767 20.0029H49.233V80.0045H50.767V20.0029Z" fill="white"/>
<path d="M80.0046 49.2329H20.0031V50.7669H80.0046V49.2329Z" fill="white"/>
<path d="M20.5472 19.4556L19.4625 20.5403L69.4613 70.5391L70.546 69.4544L20.5472 19.4556Z" fill="white"/>
<path d="M69.4561 29.4555L19.4573 79.4543L20.542 80.539L70.5408 30.5402L69.4561 29.4555Z" fill="white"/>
</g>
<defs>
<clipPath id="clip0_77_698">
<rect width="589.232" height="100" fill="white"/>
</clipPath>
</defs>
</svg>
