<svg width="251" height="70" viewBox="0 0 251 70" fill="none" xmlns="http://www.w3.org/2000/svg">
<g clip-path="url(#clip0_75_665)">
<path d="M34.9808 34.9807L2.73076 48.5C1.14332 44.6999 0.230611 40.6521 0.033647 36.5384C-6.85151e-06 36.0144 -6.85197e-06 35.4952 -6.85197e-06 34.9807C-0.054261 30.3534 0.810282 25.7614 2.54353 21.4706C4.27678 17.1799 6.84428 13.2757 10.0973 9.98435C13.3502 6.69301 17.224 4.07992 21.4942 2.29648C25.7643 0.513048 30.3459 -0.405273 34.9735 -0.405273C39.6012 -0.405273 44.1828 0.513048 48.4529 2.29648C52.7231 4.07992 56.5969 6.69301 59.8498 9.98435C63.1028 13.2757 65.6703 17.1799 67.4036 21.4706C69.1368 25.7614 70.0014 30.3534 69.9471 34.9807C69.9054 37.6482 69.5831 40.3038 68.9856 42.9038L34.9808 34.9807Z" fill="#4980BA"/>
<path d="M40.4183 29.9856L52.8846 46.1539L69.0192 42.7452C65.4615 58.5673 51.0962 70.0241 34.8365 70.0241C19.5048 70 5.69231 59.7692 1.31731 45.1923L29.6827 45.9712L40.4183 29.9856Z" fill="#95BE52"/>
<path d="M0.0336609 36.7308L11.9519 36.6731C16.5641 29.7629 21.1699 22.8542 25.7692 15.9472C26.5673 15.1106 27.1827 14.9856 27.899 15.2597L31.5289 19.1058L17.1394 39.2645L0.134622 39.2212L0.0336609 36.7308Z" fill="white"/>
<path d="M0.918274 43.6202H23.9856L41.1442 18.125L58.8414 43.6202H68.5529L68.0337 45.0048H56.7548L41.1539 22.4567L25.4135 45.3558L1.34616 45.1827L0.918274 43.6202Z" fill="#95BE52"/>
<path d="M1.67788 46.2741L1.31731 45.1827L25.3558 45.0674L41.1971 22.3943L56.8558 45.0241H68.4231L67.4375 47.6683H51.5625L40.5625 32.1251L30.899 47.327L2.02404 47.3366L1.67788 46.2741Z" fill="white"/>
<path d="M0.918276 43.6201L0.682699 42.3557L0.533661 40.9134L18.5769 40.9951L39.2933 9.9038C39.5166 9.65798 39.797 9.47101 40.1098 9.35948C40.4226 9.24794 40.7581 9.21528 41.0865 9.26438C41.7386 9.34817 42.3339 9.67848 42.75 10.1875L64.2644 41.2788H69.399L68.8462 43.6201L58.8702 43.5817L41.024 18.423L24.1058 43.75L0.918276 43.6201Z" fill="white"/>
<path d="M81.9279 17.7164C82.6875 18.1202 83.0865 18.4327 83.0865 18.6539C83.0865 18.8751 82.8846 18.9904 82.4856 19.0337C82.0865 19.077 81.7452 19.1251 81.6779 19.2597C81.2157 19.924 80.7098 20.5568 80.1635 21.1539C80.6442 21.2885 80.8798 21.4183 80.8798 21.5097C80.8763 21.6404 80.8343 21.7672 80.7591 21.8741C80.6838 21.981 80.5786 22.0633 80.4567 22.1106C80.3674 22.1677 80.2952 22.2479 80.2478 22.3427C80.2003 22.4375 80.1795 22.5434 80.1875 22.6491V31.7837C80.1875 32.0529 79.8317 32.2645 79.1154 32.4327C78.8941 32.468 78.671 32.4905 78.4471 32.5001C77.9086 32.5001 77.6394 32.2549 77.6394 31.7837C77.7548 30.202 77.8221 28.6154 77.8221 27.0049V23.2549C76.9341 23.8759 76.0004 24.4288 75.0288 24.9087L74.851 24.4616C75.9861 23.3978 77.0032 22.2147 77.8846 20.9327C78.7768 19.609 79.4761 18.1651 79.9615 16.6443C80.6971 17.0722 81.3461 17.4279 81.9279 17.7164ZM80.8558 13.2741C81.524 13.6299 81.8606 13.9183 81.8606 14.101C81.8606 14.2837 81.6779 14.4135 81.3461 14.4327C80.9183 14.4327 80.6731 14.5001 80.6298 14.6347C80.0774 15.437 79.4582 16.1913 78.7788 16.8895C77.7378 17.8983 76.5374 18.7284 75.226 19.3462L75.0481 18.9904C75.9417 18.0595 76.7316 17.0343 77.4038 15.9327C78.1269 14.7966 78.6838 13.563 79.0577 12.2693C79.7356 12.6683 80.3173 13.0049 80.8558 13.2741ZM85.8798 19.4376H90.9231C91.2381 19.1462 91.5232 18.8241 91.774 18.476C92.375 17.7404 92.7356 17.3606 92.8461 17.3606C93.1586 17.3606 93.6298 17.7212 94.2884 18.4135C94.9471 19.1058 95.2933 19.5722 95.2933 19.7068C95.2933 19.952 95.1346 20.0626 94.8461 20.0626H91.6971V29.3751C91.6971 30.6683 91.274 31.5193 90.4471 31.8991C89.8991 32.2258 89.2908 32.4384 88.6586 32.5241C88.3942 32.5241 88.1779 32.2308 88.0336 31.6731C87.7885 30.8702 86.8077 30.202 85.0865 29.6443L85.1538 29.1972C86.2251 29.3586 87.3061 29.4469 88.3894 29.4616C88.4833 29.4743 88.5789 29.4651 88.6687 29.4348C88.7584 29.4045 88.84 29.3539 88.907 29.2869C88.974 29.2199 89.0247 29.1383 89.055 29.0485C89.0853 28.9588 89.0944 28.8632 89.0817 28.7693V20.0385H85.8702C84.5721 20.0385 83.6827 20.0866 83.1683 20.1299L82.8077 19.2597C83.8247 19.4074 84.8525 19.4669 85.8798 19.4376ZM86.8413 14.4568H89.7884C90.0684 14.1617 90.3286 13.8486 90.5673 13.5193C91.1058 12.8029 91.4375 12.4472 91.5529 12.4472C91.8413 12.4472 92.3077 12.8029 92.9375 13.476C93.5673 14.1491 93.899 14.5674 93.899 14.726C93.899 14.8847 93.7452 15.0577 93.4759 15.0577H86.8413C85.5481 15.0577 84.6538 15.1058 84.1394 15.1491L83.7836 14.2789C84.7959 14.4258 85.8189 14.4853 86.8413 14.4568Z" fill="white"/>
<path d="M100.615 14.3654H104.808C105.069 14.0818 105.31 13.7797 105.529 13.4616C106.043 12.7885 106.356 12.4327 106.466 12.4327C106.736 12.4327 107.183 12.7693 107.808 13.3943C108.433 14.0193 108.721 14.4664 108.721 14.601C108.721 14.8222 108.567 14.9375 108.298 14.9375H105.058V20.5529H105.327C105.327 20.5529 105.486 20.3991 105.774 20.0722C106.178 19.6443 106.423 19.4231 106.534 19.4231C106.926 19.6188 107.281 19.8825 107.582 20.202L107.63 20.25C107.894 19.4423 108.139 18.6875 108.322 17.9712C108.772 16.0343 109.108 14.0726 109.327 12.0962C110.106 12.3222 110.865 12.5241 111.601 12.7212C112.337 12.9183 112.654 13.1683 112.654 13.3943C112.654 13.6202 112.452 13.7933 112.072 13.8414C111.692 13.8895 111.471 13.9952 111.423 14.0866C111.111 15.2452 110.798 16.2933 110.462 17.2356H113.187C113.446 16.979 113.692 16.7094 113.923 16.4279C114.524 15.6923 114.928 15.3125 115.106 15.3125C115.284 15.3125 115.841 15.7356 116.736 16.5433C117.274 17.0577 117.562 17.3702 117.562 17.5048C117.562 17.7308 117.404 17.8414 117.115 17.8414H116C115.613 19.8229 115.051 21.7664 114.322 23.6491C113.907 24.7438 113.392 25.7979 112.784 26.7981C113.177 27.2319 113.61 27.6279 114.077 27.9808C115.206 28.8536 116.456 29.5565 117.788 30.0673L117.635 30.4231C117.12 30.4712 116.716 30.8702 116.428 31.6298C116.159 32.1106 115.981 32.3462 115.87 32.3462C115.389 32.3462 114.529 31.7645 113.346 30.625C112.617 29.986 111.97 29.2575 111.423 28.4568C110.796 29.11 110.107 29.7009 109.365 30.2212C107.913 31.2107 106.327 31.9862 104.654 32.5241L104.476 32.1635C105.858 31.353 107.159 30.4111 108.361 29.351C109.159 28.6057 109.865 27.7662 110.462 26.851C110.239 26.439 110.059 26.0057 109.923 25.5577C109.418 23.8625 109.103 22.1161 108.986 20.351C108.392 21.3933 107.729 22.394 107 23.3462L106.644 23.0097C106.909 22.3847 107.125 21.7597 107.337 21.1779H105.077V27.476C106.197 27.2981 107.288 27.0722 108.317 26.851L108.385 27.0962C105.693 28.6885 102.775 29.8637 99.7308 30.5818C99.3942 30.5818 99.25 30.6923 99.25 30.851C99.2041 30.9564 99.1749 31.0683 99.1635 31.1827C99.1202 31.3606 99.0288 31.476 98.9183 31.476C98.6058 31.476 98.2452 30.9375 97.8221 29.8654C97.7115 29.577 97.5096 29.0866 97.2404 28.4231L98.8269 28.2885V21.5145C98.8294 20.4686 98.77 19.4235 98.649 18.3847C99.2308 18.452 100.01 18.5673 100.947 18.6972C101.663 18.8318 102.043 18.9472 102.043 19.077C102.043 19.3029 101.841 19.4808 101.438 19.6154C101.313 19.6319 101.2 19.6935 101.118 19.7883C101.037 19.8832 100.993 20.0048 100.995 20.1298V28.0577C101.572 27.9904 102.178 27.9231 102.76 27.8318V14.9712H100.659C99.3654 14.9712 98.4712 15.0145 97.9567 15.0577L97.5962 14.1875C98.5957 14.3321 99.6058 14.3916 100.615 14.3654ZM110.019 21.6683C110.318 22.8777 110.791 24.0373 111.423 25.1106C111.761 24.3526 112.06 23.5775 112.317 22.7885C112.859 21.1787 113.269 19.5274 113.543 17.851H110.178C109.976 18.3414 109.774 18.7885 109.572 19.1923C109.539 19.2412 109.51 19.2927 109.486 19.3462C109.608 20.1319 109.786 20.9079 110.019 21.6683Z" fill="white"/>
<path d="M127.404 13.0962C127.962 13.5769 128.25 13.9183 128.25 14.101C128.25 14.2837 128.029 14.4135 127.625 14.5C127.144 14.6346 126.846 14.7692 126.779 14.9039C126.06 16.5547 125.184 18.1325 124.163 19.6154C124.976 20.2839 125.697 21.0565 126.308 21.9135C126.601 22.3976 126.833 22.9159 127 23.4568C127.186 24.0185 127.283 24.6056 127.288 25.1971C127.342 25.8046 127.186 26.4121 126.846 26.9183C126.585 27.3474 126.224 27.707 125.793 27.9664C125.517 28.1651 125.194 28.2893 124.856 28.3269C124.678 28.3269 124.519 28.0818 124.433 27.5866C124.346 27.0914 123.74 26.625 122.846 26.226V31.9952C122.846 32.2644 122.466 32.476 121.731 32.6443C121.394 32.6683 121.149 32.6875 121.014 32.6875C120.921 32.7002 120.825 32.6911 120.735 32.6608C120.645 32.6305 120.564 32.5798 120.497 32.5128C120.43 32.4458 120.379 32.3643 120.349 32.2745C120.319 32.1847 120.309 32.0891 120.322 31.9952C120.37 31.1923 120.413 30.4327 120.413 29.6539V15.5962C120.411 14.5137 120.352 13.432 120.236 12.3558C121.309 12.6663 122.361 13.0469 123.385 13.4952H124.409C124.721 13.1154 125.014 12.8029 125.26 12.5337C125.428 12.342 125.657 12.2145 125.909 12.1731C126.139 12.1779 126.654 12.5 127.404 13.0962ZM122.846 25.5962C123.282 25.6687 123.722 25.7057 124.163 25.7068C124.418 25.725 124.672 25.6536 124.88 25.5048C125.048 25.1581 125.124 24.774 125.101 24.3894C125.12 23.5737 125 22.7607 124.745 21.9856C124.4 21.1226 123.934 20.3132 123.361 19.5817C123.943 17.7809 124.384 15.9371 124.678 14.0673H122.846V25.601V25.5962ZM129.995 22.7116H136.111C136.371 22.4482 136.61 22.1653 136.827 21.8654C137.361 21.2164 137.673 20.9039 137.764 20.9039C138.034 20.9039 138.457 21.2404 139.038 21.8654C139.62 22.4904 139.952 22.8702 139.952 23.0048C139.952 23.2308 139.798 23.3414 139.505 23.3414H135.659V29.2837C135.659 29.7116 135.745 29.9568 135.971 30C136.272 30.0541 136.579 30.0767 136.885 30.0673C137.029 30.0765 137.173 30.0507 137.306 29.9921C137.438 29.9335 137.554 29.8439 137.644 29.7308C137.98 28.7894 138.248 27.8254 138.447 26.8462L138.894 26.9375L138.986 28.4087C138.978 28.6569 139.022 28.9039 139.113 29.1346C139.205 29.3653 139.343 29.5748 139.519 29.75C139.794 29.9996 139.965 30.3424 140 30.7116C140.007 30.8866 139.966 31.0602 139.881 31.2136C139.796 31.367 139.671 31.4943 139.519 31.5818C138.702 31.9818 137.793 32.1593 136.885 32.0962H135.611C135.187 32.0993 134.766 32.0393 134.361 31.9183C133.601 31.7596 133.221 31.2019 133.221 30.2644V23.3462H131.88C131.827 24.6383 131.588 25.9161 131.168 27.1394C130.878 27.8894 130.486 28.5962 130.005 29.2404C129.47 29.868 128.828 30.3968 128.111 30.8029C127.045 31.4323 125.917 31.9495 124.745 32.3462L124.519 31.8077C125.218 31.4587 125.865 31.0155 126.442 30.4904C127.638 29.4172 128.497 28.0215 128.918 26.4712C129.183 25.4505 129.319 24.4006 129.322 23.3462C128.404 23.3462 127.736 23.3894 127.312 23.4327L126.976 22.5625C127.979 22.7093 128.992 22.7689 130.005 22.7404L129.995 22.7116ZM134.236 12.5289C134.774 12.5721 135.062 12.7067 135.062 12.9519C135.062 13.0433 134.885 13.1779 134.548 13.3317C134.212 13.4856 134.014 13.6923 134.014 13.9135V15.3894H136.269C136.558 15.0962 136.803 14.851 137.005 14.6731C137.298 14.3366 137.519 14.1587 137.673 14.1587C137.827 14.1587 138.365 14.4952 139.149 15.1202C139.841 15.6971 140.197 16.0818 140.197 16.3221C140.197 16.5625 140.019 16.6346 139.683 16.6827C139.45 16.6609 139.215 16.6904 138.995 16.7693C138.265 17.2644 137.504 17.7124 136.716 18.1106C136.716 18.1539 136.76 18.1539 136.76 18.1539C137.298 18.7356 137.587 19.0721 137.587 19.2068C137.593 19.2554 137.588 19.3049 137.572 19.3514C137.556 19.3978 137.53 19.44 137.495 19.4744C137.46 19.5089 137.417 19.5348 137.371 19.5501C137.324 19.5654 137.275 19.5696 137.226 19.5625H131.053C129.779 19.5625 128.885 19.5866 128.351 19.6298L127.99 18.7596C129.004 18.906 130.029 18.9655 131.053 18.9375H134.024C134.279 18.6988 134.511 18.4364 134.716 18.1539C135.197 17.5721 135.495 17.2837 135.587 17.2837C135.748 17.3041 135.902 17.3653 136.034 17.4616C136.255 16.9808 136.457 16.5 136.635 15.9664H129.087C129.043 16.5241 128.995 16.9279 128.952 17.1971C128.862 17.6744 128.601 18.1021 128.216 18.3991C128.023 18.5264 127.798 18.5965 127.567 18.601C127.164 18.6145 126.771 18.4715 126.471 18.2019C126.336 18.0918 126.23 17.951 126.16 17.7913C126.091 17.6315 126.061 17.4575 126.072 17.2837C126.072 17.1058 126.293 16.8606 126.784 16.5673C127.242 16.3247 127.651 15.9986 127.99 15.6058C128.325 15.1594 128.569 14.6513 128.707 14.1106L129.13 14.2019C129.13 14.6491 129.13 15.0289 129.13 15.3414H131.673V14.0337C131.664 13.4123 131.613 12.7923 131.519 12.1779C132.437 12.2692 133.351 12.4039 134.245 12.5577L134.236 12.5289Z" fill="white"/>
<path d="M144.832 14.0337H145.702C145.964 13.7584 146.21 13.4678 146.438 13.1636C146.952 12.5145 147.264 12.178 147.399 12.178C147.668 12.178 148.091 12.5145 148.673 13.1395C148.941 13.4247 149.195 13.7232 149.433 14.0337C149.43 13.4136 149.393 12.7941 149.322 12.178C150.246 12.4284 151.15 12.7498 152.024 13.1395H158.476C158.702 12.8703 158.899 12.6587 159.082 12.4712C159.143 12.39 159.22 12.3221 159.309 12.2717C159.397 12.2213 159.495 12.1894 159.596 12.178C160.065 12.2873 160.497 12.5197 160.846 12.8511C161.514 13.3318 161.87 13.6539 161.87 13.8559C161.87 13.9857 161.736 14.1443 161.495 14.2982C161.401 14.3363 161.316 14.3943 161.247 14.4681C161.177 14.5419 161.124 14.6299 161.091 14.7261V17.5145C161.091 17.7164 160.865 17.8751 160.466 17.9616C160.869 18.2546 161.249 18.576 161.606 18.9232C162.087 19.3462 162.317 19.6155 162.317 19.7068C162.324 19.755 162.319 19.8041 162.303 19.8501C162.287 19.8961 162.261 19.938 162.227 19.9723C162.193 20.0067 162.151 20.0327 162.105 20.0484C162.059 20.064 162.01 20.0689 161.962 20.0626H149.462C149.497 20.1193 149.527 20.1788 149.553 20.2405C149.559 20.2862 149.555 20.3327 149.54 20.3765C149.526 20.4202 149.501 20.46 149.468 20.4926C149.436 20.5252 149.396 20.5498 149.352 20.5645C149.309 20.5791 149.262 20.5834 149.216 20.577H146.668V25.2886C147.614 25.0732 148.546 24.8052 149.462 24.4857L149.553 24.7501C148 26.2975 146.144 27.5071 144.101 28.303C143.88 28.3462 143.788 28.4568 143.788 28.5914C143.741 28.6886 143.718 28.7959 143.721 28.9039C143.654 29.1059 143.563 29.1972 143.452 29.1972C143.139 29.1972 142.784 28.6588 142.361 27.5866C142.245 27.2982 142.067 26.8078 141.803 26.1443C142.649 26.0578 143.452 25.9472 144.236 25.8126V20.553C143.409 20.553 142.793 20.5962 142.404 20.6443L142.043 19.7693C142.769 19.8779 143.502 19.9389 144.236 19.952V14.6347C143.274 14.6347 142.582 14.678 142.135 14.7261L141.798 13.8559C142.802 14.0025 143.817 14.062 144.832 14.0337ZM152.178 21.5145H157.49C157.736 21.2212 157.971 20.9761 158.139 20.7741C158.282 20.6108 158.481 20.5077 158.697 20.4857C159.191 20.6119 159.65 20.8486 160.038 21.178C160.774 21.6587 161.154 22.0289 161.154 22.2261C161.154 22.4232 161.019 22.5386 160.774 22.7068C160.529 22.8751 160.394 23.0193 160.375 23.1876V24.8414C160.375 25.0626 160.063 25.2453 159.457 25.3222C159.995 25.678 160.51 25.9905 160.976 26.2837C161.49 26.6636 161.76 26.9328 161.76 27.0866C161.764 27.1231 161.761 27.1602 161.749 27.195C161.737 27.2298 161.717 27.2614 161.691 27.2874C161.665 27.3134 161.634 27.3331 161.599 27.345C161.564 27.3569 161.527 27.3606 161.49 27.3559L160.375 27.2645C159.677 27.686 158.936 28.031 158.163 28.2934C158.37 28.458 158.594 28.5999 158.832 28.7164C159.96 29.3931 161.179 29.9047 162.452 30.2357L162.361 30.6828C162.086 30.7538 161.828 30.8805 161.604 31.055C161.38 31.2294 161.194 31.448 161.058 31.6972C160.813 32.2309 160.611 32.5241 160.457 32.5241C160.051 32.4194 159.675 32.2201 159.361 31.9424C158.665 31.4852 158.028 30.9461 157.462 30.3366C156.861 29.7353 156.373 29.0321 156.019 28.2597C155.588 27.3899 155.278 26.4644 155.101 25.5097C154.606 25.8972 154.084 26.2491 153.538 26.5626V29.3751C154.409 29.2405 155.26 29.1059 156.062 28.928L156.24 29.2837C154.68 30.4744 152.918 31.375 151.038 31.9424C150.837 31.9424 150.75 32.0337 150.75 32.1636C150.694 32.2416 150.67 32.3378 150.683 32.4328C150.635 32.5914 150.567 32.678 150.481 32.678C150.188 32.678 149.851 32.1972 149.452 31.2357C149.341 30.9712 149.163 30.5241 148.913 29.8991C149.721 29.8511 150.5 29.7837 151.26 29.6972V27.7212C149.637 28.4195 147.945 28.9433 146.212 29.2837L146.125 29.0145C147.507 28.5341 148.826 27.8884 150.053 27.0914C151.116 26.5168 152.088 25.7877 152.937 24.928H152.111C152.019 25.1732 151.683 25.3511 151.082 25.4616C150.852 25.4974 150.621 25.5199 150.389 25.5289C149.909 25.5289 149.697 25.327 149.697 24.928C149.756 24.4607 149.786 23.9903 149.788 23.5193V22.4712C149.774 21.8585 149.713 21.2478 149.606 20.6443C150.481 20.8772 151.341 21.1679 152.178 21.5145ZM158.611 19.4376C158.825 19.2259 159.025 19.0011 159.212 18.7645C159.457 18.4761 159.659 18.2549 159.837 18.0722C159.698 18.1062 159.556 18.1224 159.413 18.1203C159.101 18.1203 158.899 18.0289 158.832 17.8511H151.731C151.731 18.1395 151.394 18.3655 150.726 18.5001C150.511 18.5353 150.294 18.5578 150.077 18.5674C149.596 18.5674 149.365 18.3414 149.365 17.8511C149.409 17.1828 149.452 16.4905 149.452 15.7741V15.1491C149.452 14.9472 149.428 14.7453 149.428 14.5482C149.339 14.6164 149.227 14.6475 149.115 14.6347H146.659V19.7934C146.75 19.6828 146.885 19.5241 147.063 19.3126C147.466 18.8222 147.712 18.577 147.798 18.577C148.024 18.577 148.356 18.8222 148.827 19.3126C148.87 19.3559 148.894 19.4039 148.938 19.4472L158.611 19.4376ZM152.779 17.2501V13.7645H151.731V17.2501H152.779ZM157.918 24.303V22.1395H152.149V24.303H157.918ZM155.817 17.2501V13.7645H154.702V17.2501H155.817ZM156.712 26.8655C156.961 27.2279 157.262 27.5519 157.606 27.827C157.812 27.5695 158.004 27.3015 158.183 27.0241C158.563 26.5186 158.886 25.9719 159.144 25.3943C158.945 25.4258 158.744 25.4403 158.543 25.4376C158.139 25.4376 157.938 25.2837 157.938 24.928H155.861C155.809 24.9811 155.749 25.025 155.683 25.0578C155.947 25.7014 156.3 26.305 156.731 26.8511L156.712 26.8655ZM158.788 17.2501V13.7645H157.736V17.2501H158.788Z" fill="white"/>
<path d="M166.091 18.4761V15.5049C166.094 14.4239 166.035 13.3436 165.913 12.2693C166.514 12.3559 167.317 12.4712 168.317 12.6491C169.077 12.7837 169.481 12.9184 169.481 13.0722C169.481 13.2261 169.26 13.452 168.813 13.6107C168.5 13.6972 168.332 13.8751 168.332 14.0914V18.0866C168.429 17.9481 168.533 17.8149 168.644 17.6876C169.091 17.1059 169.385 16.8126 169.471 16.8126C169.692 16.8126 170.072 17.1059 170.611 17.6636C170.923 18.0193 171.144 18.2886 171.279 18.4664H173.913C173.743 18.1906 173.644 17.8767 173.625 17.553C173.475 16.7527 173.163 15.9918 172.707 15.3174C171.904 15.3414 171.322 15.3607 170.966 15.4087L170.611 14.5386C171.623 14.6833 172.646 14.7428 173.668 14.7164H175.832V13.9424C175.824 13.3502 175.764 12.7598 175.654 12.178C176.548 12.2693 177.399 12.3799 178.202 12.5145C178.716 12.5578 178.986 12.6684 178.986 12.8943C178.986 12.9809 178.827 13.0962 178.505 13.2261C178.183 13.3559 178.024 13.5626 178.024 13.7645V14.7261H180.12C180.36 14.4786 180.585 14.2169 180.793 13.9424C181.274 13.3607 181.596 13.0722 181.688 13.0722C181.933 13.0722 182.332 13.3607 182.87 13.9184C183.204 14.2199 183.483 14.5759 183.697 14.9712C183.704 15.0199 183.699 15.0694 183.683 15.1159C183.667 15.1623 183.64 15.2045 183.605 15.2389C183.57 15.2734 183.528 15.2993 183.481 15.3146C183.435 15.3299 183.385 15.3341 183.337 15.327H179.226C179.519 15.4616 179.784 15.5722 180.053 15.6828C180.788 15.952 181.168 16.1972 181.168 16.4664C181.168 16.6203 180.99 16.7357 180.635 16.803C180.279 16.8703 180.077 16.9376 180.029 17.0674C179.533 17.6227 178.954 18.0979 178.313 18.4761H180.029C180.029 18.4761 180.274 18.2309 180.721 17.7405C181.303 17.0674 181.683 16.7357 181.861 16.7357C182.038 16.7357 182.534 17.1155 183.361 17.8511C183.841 18.3318 184.12 18.6107 184.12 18.7212C184.12 18.9664 183.962 19.077 183.692 19.077H168.308V24.928C169.226 24.7309 170.096 24.5049 170.947 24.2357L171.014 24.4857C169.563 25.9804 167.822 27.1646 165.899 27.9664C165.697 28.0097 165.611 28.1011 165.611 28.2357C165.566 28.3351 165.535 28.4403 165.519 28.5482C165.476 28.7693 165.385 28.8607 165.274 28.8607C164.938 28.8607 164.558 28.3222 164.135 27.2068C164 26.8943 163.798 26.4039 163.51 25.7116C164.404 25.6203 165.25 25.4905 166.058 25.3559V19.077C164.962 19.077 164.178 19.1251 163.688 19.1684L163.356 18.2982C164.261 18.4335 165.176 18.493 166.091 18.4761ZM173.726 20.553H179.495C179.784 20.2405 180.072 19.952 180.341 19.6828C180.405 19.5906 180.488 19.513 180.584 19.455C180.68 19.397 180.788 19.36 180.899 19.3462C181.32 19.4687 181.719 19.6569 182.082 19.9039C182.798 20.3847 183.154 20.7309 183.154 20.9087C183.154 21.0866 183 21.3126 182.707 21.5145C182.607 21.5864 182.526 21.6802 182.468 21.7885C182.411 21.8968 182.379 22.0169 182.375 22.1395V23.7934C182.375 24.4184 182.375 25.2645 182.462 26.3126C182.462 26.6059 182.106 26.827 181.413 26.9616C181.184 26.9974 180.953 27.0199 180.721 27.0289C180.317 27.0289 180.12 26.827 180.12 26.4039V26.2261H179.582V29.1107C179.582 29.5914 179.692 29.8462 179.918 29.8943C180.217 29.9671 180.525 29.9963 180.832 29.9809C180.986 29.9923 181.141 29.9679 181.285 29.9095C181.428 29.8511 181.556 29.7604 181.659 29.6443C182.029 28.7066 182.328 27.7423 182.553 26.7597L183.067 26.8511L183.154 28.2357C183.138 28.7407 183.309 29.2339 183.635 29.6203C183.869 29.8886 184.009 30.2263 184.034 30.5818C184.049 30.764 184.011 30.9467 183.926 31.1085C183.841 31.2703 183.712 31.4045 183.553 31.4953C182.721 31.9277 181.786 32.1224 180.851 32.0578H179.601C179.184 32.0619 178.768 32.0003 178.37 31.8751C177.611 31.6972 177.255 31.1203 177.255 30.1347V26.2261H176.519C176.415 27.1506 176.119 28.0432 175.649 28.8462C175.259 29.4371 174.771 29.9573 174.207 30.3847C173.502 30.8866 172.726 31.2789 171.904 31.5482C170.572 32.022 169.206 32.3948 167.817 32.6636L167.548 32.1491C168.415 31.9005 169.259 31.5788 170.072 31.1876C170.843 30.8385 171.559 30.3785 172.197 29.8222C172.701 29.3981 173.112 28.8743 173.404 28.2837C173.703 27.6313 173.867 26.9246 173.885 26.2068H173.663C173.663 26.4712 173.303 26.6539 172.635 26.7645C172.42 26.8007 172.203 26.8232 171.986 26.8318C171.505 26.8318 171.293 26.6299 171.293 26.2068C171.349 25.7763 171.38 25.3429 171.385 24.9087V21.4472C171.385 20.9664 171.337 20.3751 171.293 19.6828C172.122 19.9189 172.935 20.2096 173.726 20.553ZM180.139 23.0097V21.178H173.683V23.0097H180.139ZM180.139 25.6203V23.6107H173.683V25.6203H180.139ZM177.457 18.4761C177.85 17.4622 178.121 16.4051 178.264 15.327H173.707C174.215 15.514 174.699 15.7609 175.149 16.0626C175.673 16.4664 175.962 16.827 175.962 17.0674C175.989 17.4954 175.872 17.9201 175.63 18.2741C175.554 18.3487 175.472 18.4162 175.385 18.4761H177.457Z" fill="white"/>
<path d="M191.659 13.0961C192.327 13.3173 192.687 13.5432 192.687 13.7644C192.687 13.9855 192.486 14.1442 192.106 14.2115C191.726 14.2788 191.505 14.3653 191.457 14.4567C191.101 15.6702 190.661 16.8574 190.139 18.0096C190.226 18.0472 190.316 18.0761 190.409 18.0961C190.889 18.2307 191.12 18.3653 191.12 18.4759C191.114 18.6034 191.07 18.7263 190.995 18.8296C190.92 18.9329 190.816 19.0121 190.697 19.0576C190.606 19.1176 190.534 19.2013 190.487 19.2996C190.44 19.3979 190.422 19.5071 190.433 19.6153V31.899C190.433 32.1682 190.072 32.3797 189.356 32.548C189.128 32.5826 188.898 32.6034 188.668 32.6105C188.13 32.6105 187.885 32.3653 187.885 31.899C187.995 30.3124 188.062 28.7067 188.062 27.0913V21.5144C187.481 22.2932 186.856 23.0769 186.139 23.8798L185.803 23.524C186.704 21.8827 187.472 20.1722 188.101 18.4086C188.704 16.4583 189.161 14.4656 189.466 12.4471C190.231 12.6682 190.947 12.8701 191.659 13.0961ZM195.88 13.7644H200.726C201.038 13.3846 201.351 13.048 201.663 12.7355C201.736 12.633 201.829 12.5464 201.937 12.4811C202.044 12.4158 202.164 12.3731 202.288 12.3557C202.762 12.4929 203.208 12.7126 203.606 13.0048C204.413 13.5432 204.808 13.9423 204.808 14.1009C204.791 14.2366 204.742 14.3663 204.664 14.4787C204.586 14.591 204.482 14.6825 204.361 14.7451C204.26 14.8268 204.178 14.9292 204.121 15.0454C204.064 15.1616 204.032 15.2887 204.029 15.4182V17.1586C204.029 17.8749 204.029 18.8365 204.115 20.0432C204.115 20.3365 203.712 20.524 202.957 20.6682C202.705 20.7061 202.451 20.7286 202.197 20.7355C201.793 20.7355 201.591 20.5144 201.591 20.0432V19.6874H199.668V22.9278H202.192C202.47 22.6273 202.724 22.3058 202.952 21.9663C203.486 21.2499 203.822 20.8942 203.913 20.8942C204.202 20.8942 204.673 21.2499 205.317 21.9182C205.962 22.5865 206.279 23.0144 206.279 23.1682C206.279 23.3942 206.125 23.5048 205.832 23.5048H199.918C200.745 24.7016 201.783 25.7378 202.981 26.5624C204.08 27.2729 205.286 27.8021 206.553 28.1298L206.466 28.6634C206.138 28.7658 205.84 28.9448 205.595 29.1856C205.35 29.4263 205.166 29.722 205.058 30.048C204.88 30.5624 204.702 30.8317 204.476 30.8317C204.25 30.8317 203.784 30.4711 203.034 29.7788C202.169 28.9834 201.424 28.0668 200.822 27.0576C200.375 26.3541 199.987 25.6143 199.663 24.8461V31.899C199.663 32.1682 199.26 32.3797 198.476 32.548C198.12 32.5913 197.875 32.6153 197.74 32.6153C197.643 32.6302 197.544 32.6219 197.45 32.591C197.357 32.5602 197.272 32.5078 197.203 32.4379C197.133 32.3681 197.081 32.2829 197.051 32.1893C197.021 32.0956 197.013 31.9962 197.029 31.899C197.164 30.6827 197.223 29.4592 197.207 28.2355V25.8317C196.901 26.3378 196.557 26.82 196.178 27.274C195.459 28.1062 194.642 28.8488 193.745 29.4855C192.809 30.1297 191.805 30.6683 190.75 31.0913L190.572 30.7596C191.72 29.8854 192.748 28.8638 193.63 27.7211C194.581 26.4191 195.361 25.0005 195.952 23.4999H193.899C192.606 23.4999 191.712 23.5432 191.197 23.5913L190.865 22.7403C191.879 22.8896 192.904 22.9508 193.928 22.923H197.231V19.6826H195.49V20.3076C195.49 20.5961 195.111 20.7884 194.375 20.9326C194.138 20.9677 193.898 20.9901 193.659 20.9999C193.564 21.0147 193.468 21.007 193.377 20.9775C193.286 20.9479 193.204 20.8973 193.136 20.8298C193.069 20.7623 193.018 20.6799 192.989 20.5891C192.959 20.4984 192.952 20.4019 192.966 20.3076C193.014 19.524 193.058 18.7451 193.058 17.9423V15.9326C193.055 14.8581 192.995 13.7845 192.88 12.7163C193.904 12.9918 194.907 13.3421 195.88 13.7644ZM201.596 19.0769V14.3653H195.476V19.0769H201.596Z" fill="white"/>
<path d="M211.173 15.9327H213.365C213.583 15.7399 213.776 15.5221 213.942 15.2837C214.365 14.8029 214.611 14.5481 214.702 14.5481C214.904 14.5481 215.236 14.7933 215.726 15.2837C216.013 15.5468 216.255 15.8554 216.442 16.1971C216.448 16.2455 216.443 16.2947 216.428 16.3409C216.412 16.3871 216.386 16.4291 216.352 16.4639C216.318 16.4986 216.276 16.5251 216.23 16.5413C216.184 16.5576 216.135 16.5632 216.087 16.5577H211.173C209.904 16.5577 209.01 16.601 208.471 16.6442L208.135 15.7741C209.142 15.9004 210.158 15.9535 211.173 15.9327ZM212.048 13.6731H212.312C212.55 13.4419 212.773 13.1963 212.981 12.9375C213.462 12.4039 213.716 12.1106 213.808 12.1106C214.029 12.1106 214.409 12.4039 214.904 12.9375C215.399 13.4712 215.663 13.8077 215.663 13.9423C215.663 14.1683 215.529 14.2789 215.303 14.2789H212.067C210.793 14.2789 209.899 14.3221 209.365 14.3654L209.029 13.4952C210.028 13.6415 211.038 13.701 212.048 13.6731ZM212.048 18.7212H212.404C212.642 18.5049 212.859 18.2667 213.053 18.0096C213.534 17.4471 213.788 17.1587 213.88 17.1587C214.101 17.1587 214.481 17.4471 214.971 17.9856C215.279 18.2708 215.53 18.6118 215.712 18.9904C215.712 19.2356 215.596 19.3462 215.375 19.3462H212.048C210.774 19.3462 209.88 19.3942 209.346 19.4375L209.01 18.5673C210.017 18.6919 211.033 18.7433 212.048 18.7212ZM212.135 21.6923H212.404C212.643 21.475 212.86 21.2351 213.053 20.976C213.534 20.4183 213.788 20.1298 213.88 20.1298C214.101 20.1298 214.481 20.4183 214.971 20.9567C215.277 21.2436 215.528 21.5841 215.712 21.9616C215.712 22.2067 215.596 22.3173 215.375 22.3173H212.135C210.865 22.3173 209.971 22.3606 209.433 22.4087L209.096 21.5144C210.102 21.6618 211.119 21.7213 212.135 21.6923ZM211.846 24.9327H212.048C212.361 24.5721 212.673 24.2404 212.942 23.9712C213.09 23.7797 213.305 23.6509 213.543 23.6106C213.983 23.7415 214.398 23.9464 214.769 24.2164C215.51 24.7308 215.889 25.0866 215.889 25.2644C215.879 25.3914 215.837 25.5136 215.766 25.6196C215.695 25.7256 215.599 25.8118 215.486 25.8702C215.395 25.9469 215.322 26.0427 215.272 26.1507C215.222 26.2586 215.197 26.3763 215.197 26.4952V28.5914C215.197 29.2164 215.197 30.0337 215.284 31.1154C215.284 31.3846 214.928 31.5962 214.236 31.7404C214.006 31.7762 213.775 31.7987 213.543 31.8077C213.12 31.8077 212.918 31.6058 212.918 31.2067V30.601H211.538V31.7308C211.538 32.0241 211.202 32.2452 210.534 32.3798C210.319 32.4151 210.102 32.4375 209.885 32.4471C209.787 32.4626 209.687 32.4548 209.593 32.4244C209.498 32.3939 209.413 32.3417 209.342 32.2719C209.272 32.2021 209.219 32.1167 209.188 32.0227C209.157 31.9287 209.149 31.8287 209.163 31.7308C209.212 31.0433 209.255 30.3702 209.255 29.6587V26.9231C209.255 25.8991 209.187 24.9135 209.096 23.9567C210.034 24.2176 210.953 24.5437 211.846 24.9327ZM212.918 29.976V25.5337H211.538V29.976H212.918ZM219.034 26.4039H223.659C223.852 26.2015 224.061 26.015 224.284 25.8462C224.512 25.6029 224.809 25.4351 225.135 25.3654C225.312 25.3654 225.76 25.6779 226.452 26.2596C227.144 26.8414 227.5 27.2837 227.5 27.4616C227.5 27.6394 227.231 27.7981 226.74 27.8414C226.429 27.8451 226.122 27.9225 225.846 28.0673C225.342 28.6897 224.73 29.2158 224.038 29.6202C225.554 29.9466 227.092 30.1556 228.639 30.2452L228.548 30.6923C228.293 30.755 228.06 30.8841 227.872 31.0666C227.683 31.2491 227.547 31.4783 227.476 31.7308C227.346 32.1346 227.231 32.3606 227.144 32.3606C226.324 32.3144 225.515 32.1526 224.74 31.8798C223.763 31.6172 222.815 31.2581 221.909 30.8077C221.428 31.0096 220.947 31.1875 220.466 31.3654C218.589 31.9697 216.656 32.3884 214.697 32.6154L214.514 32.1683C216.414 31.672 218.252 30.9607 219.99 30.0481C220.144 29.9567 220.279 29.8943 220.413 29.8029C220.104 29.547 219.826 29.2548 219.587 28.9327C219.099 28.3574 218.707 27.7083 218.423 27.0096C217.62 27.0337 216.981 27.0529 216.437 27.0769L216.082 26.2067C217.06 26.336 218.046 26.4019 219.034 26.4039ZM220.356 12.4039C221.159 12.4904 221.558 12.625 221.558 12.8029C221.558 12.9808 221.361 13.25 221 13.3846C220.882 13.4213 220.779 13.4957 220.707 13.5964C220.635 13.6971 220.597 13.8186 220.601 13.9423V15.8654C220.601 16.1106 220.264 16.2885 219.596 16.3991C219.537 16.408 219.477 16.408 219.418 16.3991C219.899 16.6875 220.178 16.9135 220.178 17.0433C220.178 17.1731 220.019 17.3558 219.731 17.3798C219.37 17.3798 219.173 17.4471 219.125 17.5817C219.05 17.6726 218.983 17.7691 218.923 17.8702L219.192 18.0048H221.091C221.198 17.6893 221.288 17.3683 221.361 17.0433C221.428 16.6875 221.49 16.2644 221.558 15.75C222.038 15.8846 222.543 16.0192 223 16.1298C223.038 15.9154 223.061 15.6985 223.067 15.4808V13.8558C223.079 13.2629 222.988 12.6723 222.798 12.1106C223.404 12.1779 224.139 12.2692 224.986 12.4039C225.832 12.5385 226.192 12.625 226.192 12.8029C226.192 12.9808 225.99 13.25 225.635 13.3846C225.515 13.4204 225.411 13.4944 225.338 13.5952C225.265 13.696 225.228 13.8179 225.231 13.9423V14.4567H225.413C225.413 14.4567 225.611 14.2789 225.971 13.875C226.452 13.3414 226.75 13.0721 226.885 13.0721C227.019 13.0721 227.442 13.3846 228.159 14.0096C228.582 14.3894 228.808 14.6346 228.808 14.726C228.814 14.7715 228.81 14.8179 228.795 14.8615C228.781 14.9051 228.756 14.9447 228.723 14.977C228.691 15.0093 228.651 15.0334 228.607 15.0474C228.563 15.0615 228.517 15.065 228.471 15.0577H225.231V16.1106C225.231 16.375 224.899 16.5577 224.231 16.6683C224.2 16.6654 224.17 16.6654 224.139 16.6683C224.164 16.7093 224.179 16.7553 224.183 16.8029C224.183 16.9808 224.029 17.0721 223.736 17.1154C223.442 17.1587 223.255 17.25 223.226 17.3173C222.995 17.5605 222.731 17.7708 222.442 17.9423C222.403 17.974 222.357 17.9969 222.308 18.0096H224.712C224.712 18.0096 224.909 17.8077 225.269 17.4087C225.716 16.8269 226.029 16.5385 226.183 16.5385C226.337 16.5385 226.764 16.8702 227.524 17.5C227.971 17.9039 228.192 18.1683 228.192 18.2596C228.199 18.3078 228.194 18.3569 228.178 18.4029C228.162 18.4489 228.136 18.4908 228.102 18.5251C228.068 18.5595 228.026 18.5855 227.98 18.6012C227.934 18.6168 227.885 18.6217 227.837 18.6154H223.558V20.0914H224.072C224.263 19.925 224.441 19.7451 224.606 19.5529C225.053 19.0385 225.341 18.7741 225.476 18.7741C225.935 19.0129 226.348 19.3301 226.697 19.7116C227.096 20.0721 227.322 20.3173 227.322 20.4039C227.326 20.4508 227.32 20.498 227.303 20.542C227.286 20.5861 227.26 20.6257 227.226 20.6581C227.191 20.6905 227.15 20.7147 227.105 20.7289C227.06 20.7432 227.013 20.7471 226.966 20.7404H223.558V22.2356H224.159C224.355 22.0681 224.534 21.8812 224.692 21.6779C225.139 21.1971 225.433 20.9183 225.567 20.9183C226.016 21.1455 226.423 21.448 226.769 21.8125C227.173 22.1683 227.394 22.3942 227.394 22.4808C227.401 22.5294 227.397 22.5789 227.382 22.6256C227.367 22.6723 227.341 22.7147 227.306 22.7497C227.272 22.7846 227.23 22.8111 227.183 22.827C227.137 22.8429 227.087 22.8478 227.038 22.8414H223.558V24.5817H225.029C225.228 24.394 225.414 24.1933 225.587 23.9808C226.067 23.3991 226.37 23.1106 226.524 23.1106C226.678 23.1106 227.106 23.4423 227.841 24.0721C228.288 24.476 228.534 24.7404 228.534 24.8317C228.54 24.88 228.535 24.929 228.519 24.975C228.504 25.0211 228.478 25.0629 228.443 25.0973C228.409 25.1316 228.367 25.1577 228.321 25.1733C228.275 25.189 228.226 25.1938 228.178 25.1875H219.125V25.3462C219.125 25.6106 218.769 25.7933 218.096 25.9039C217.89 25.9399 217.681 25.9624 217.471 25.9712C216.99 25.9712 216.76 25.7692 216.76 25.3462C216.875 24.389 216.935 23.4258 216.937 22.4616V19.9952C216.47 20.3381 215.977 20.6435 215.462 20.9087L215.284 20.5529C215.841 19.8357 216.324 19.0642 216.726 18.25C217.186 17.3855 217.524 16.4617 217.731 15.5048C217.94 15.6367 218.156 15.7556 218.38 15.8606C218.418 15.6543 218.441 15.4453 218.447 15.2356V15.0577C217.486 15.0577 216.663 15.1058 216.082 15.1491L215.721 14.2789C216.623 14.4158 217.535 14.4753 218.447 14.4567V13.851C218.461 13.2595 218.37 12.6702 218.178 12.1106C218.75 12.1779 219.505 12.2692 220.356 12.4039ZM220.865 28.4375C221.121 28.6431 221.408 28.8055 221.716 28.9183C222.42 28.3612 223.065 27.7329 223.639 27.0433H218.995C219.546 27.5979 220.176 28.0678 220.865 28.4375ZM221.38 18.6539H219.125V20.1298H221.38V18.6539ZM221.38 20.7308H219.125V22.226H221.38V20.7308ZM221.38 22.8317H219.125V24.5721H221.38V22.8317Z" fill="white"/>
<path d="M235.692 20.0384H237.88V19.5239C237.876 18.9109 237.816 18.2994 237.702 17.697C238.639 17.7836 239.558 17.8941 240.452 18.0528C240.986 18.0961 241.274 18.2307 241.274 18.4759C241.274 18.5672 241.096 18.7018 240.764 18.8557C240.433 19.0095 240.226 19.2114 240.226 19.4374V20.0384H241.457C241.698 19.8166 241.916 19.5701 242.106 19.3028C242.553 18.7643 242.841 18.4759 242.928 18.4759C243.154 18.4759 243.51 18.7691 244 19.3028C244.337 19.6826 244.563 19.9518 244.692 20.1297C245.5 19.5047 246.322 18.8316 247.13 18.1201C247.841 18.6538 248.399 19.0816 248.846 19.3701C249.495 19.8509 249.808 20.197 249.808 20.3989C249.808 20.6009 249.673 20.6441 249.447 20.6441L248.308 20.5528C246.745 21.447 245.202 22.2499 243.731 22.9182H246.923C247.19 22.6471 247.436 22.3562 247.659 22.048C248.173 21.423 248.486 21.0864 248.577 21.0864C248.846 21.0864 249.293 21.3989 249.87 22.048C250.447 22.697 250.764 23.072 250.764 23.2066C250.764 23.4278 250.611 23.5432 250.317 23.5432H242.438C240.856 24.2395 239.238 24.8509 237.591 25.3749H244.76C245.061 25.0358 245.382 24.7147 245.721 24.4134C245.875 24.2166 246.099 24.0873 246.346 24.0528C246.801 24.1887 247.23 24.4 247.615 24.6778C248.375 25.2163 248.779 25.5961 248.779 25.798C248.779 25.9999 248.601 26.2211 248.264 26.4422C248.16 26.5166 248.074 26.6136 248.012 26.726C247.951 26.8384 247.915 26.9633 247.909 27.0913V28.8461C247.909 29.5384 247.909 30.4759 247.995 31.7307C247.995 32.0191 247.596 32.2403 246.837 32.3749C246.585 32.4128 246.331 32.4353 246.077 32.4422C245.649 32.4422 245.452 32.197 245.452 31.7307V31.3028H236.649V31.7307C236.649 32.0191 236.25 32.2114 235.49 32.3557C235.135 32.3989 234.885 32.4422 234.731 32.4422C234.635 32.4546 234.538 32.4445 234.447 32.4128C234.356 32.3812 234.274 32.3287 234.207 32.2597C234.139 32.1906 234.089 32.1068 234.06 32.015C234.031 31.9232 234.023 31.8258 234.038 31.7307L234.13 27.822V26.2932C233.063 26.55 231.981 26.7363 230.889 26.8509L230.712 26.3124C233.541 25.6256 236.305 24.6925 238.971 23.5239H233.769C232.495 23.5239 231.606 23.5672 231.067 23.6105L230.712 22.7403C231.724 22.8868 232.747 22.9464 233.769 22.9182H237.88V20.6441H235.692C234.394 20.6441 233.5 20.6874 232.986 20.7307L232.63 19.8605C233.644 20.0065 234.668 20.066 235.692 20.0384ZM234.486 13.3076H246.26C246.5 13.0191 246.74 12.7739 246.904 12.572C246.97 12.4843 247.054 12.4113 247.15 12.3575C247.246 12.3037 247.352 12.2704 247.462 12.2595C247.96 12.3892 248.42 12.6365 248.803 12.9807C249.538 13.4614 249.918 13.8076 249.918 14.0336C249.918 14.1874 249.764 14.3461 249.495 14.5143C249.299 14.6228 249.142 14.7913 249.048 14.9951V17.4518C249.048 17.697 248.668 17.8749 247.933 17.9855C247.696 18.023 247.456 18.0455 247.216 18.0528C246.817 18.0528 246.615 17.8989 246.615 17.5384H234.375V17.8749C234.375 18.1682 233.995 18.3557 233.26 18.4999C233.026 18.5541 232.788 18.5847 232.548 18.5913C232.067 18.5913 231.856 18.3653 231.856 17.8749C231.911 17.4154 231.94 16.9531 231.942 16.4903V14.2788C231.942 13.7403 231.899 13.1153 231.856 12.3557C232.756 12.6088 233.635 12.9303 234.486 13.3172V13.3076ZM234.375 13.9422V16.8893H236.832V13.9422H234.375ZM245.433 27.9903V25.9614H236.567V27.9711L245.433 27.9903ZM245.433 30.6922V28.5913H236.587L236.63 30.6922H245.433ZM239.178 13.9422V16.8893H241.788V13.9422H239.178ZM240.317 22.8316C241.598 22.2078 242.824 21.476 243.981 20.6441H240.226V22.8749C240.25 22.8749 240.274 22.8557 240.317 22.8316ZM246.567 13.9422H244.135V16.8893H246.567V13.9422Z" fill="white"/>
<path d="M76.1827 44.4472V37.6299H81.1154V38.4328H77.0865V40.5193H80.8606V41.3462H77.0865V43.6683H81.274V44.4712L76.1827 44.4472Z" fill="white"/>
<path d="M82.6058 44.4472V39.5097H83.3558V40.2116C83.5239 39.9502 83.7574 39.7373 84.0332 39.5939C84.3089 39.4506 84.6173 39.3817 84.9279 39.3943C85.2101 39.3927 85.4898 39.4483 85.75 39.5577C85.9724 39.6427 86.1671 39.7875 86.3125 39.976C86.4427 40.1616 86.5313 40.3732 86.5721 40.5962C86.6128 40.865 86.6288 41.137 86.6202 41.4087V44.4472H85.7837V41.4423C85.7957 41.1836 85.7615 40.9247 85.6827 40.6779C85.6179 40.5071 85.4955 40.3642 85.3365 40.2741C85.1608 40.1695 84.9593 40.1162 84.7548 40.1202C84.4153 40.1148 84.086 40.2366 83.8317 40.4616C83.6809 40.6375 83.5684 40.843 83.5013 41.0648C83.4343 41.2866 83.4142 41.52 83.4423 41.75V44.4472H82.6058Z" fill="white"/>
<path d="M89.4663 44.4471L87.5865 39.5096H88.4615L89.524 42.4664C89.6346 42.7885 89.7404 43.1202 89.8365 43.4616C89.9135 43.2019 90.0144 42.8894 90.149 42.5L91.2452 39.4856H92.1106L90.2404 44.4231L89.4663 44.4471Z" fill="white"/>
<path d="M93.0529 38.5914V37.6299H93.8894V38.5914H93.0529ZM93.0529 44.4472V39.5097H93.8894V44.4472H93.0529Z" fill="white"/>
<path d="M95.3462 44.4472V39.5097H96.101V40.2549C96.226 39.9878 96.4082 39.7515 96.6346 39.5626C96.7919 39.4548 96.9776 39.3962 97.1683 39.3943C97.4754 39.4014 97.7741 39.4965 98.0288 39.6683L97.7404 40.4424C97.5571 40.3274 97.3461 40.2643 97.1298 40.2597C96.9555 40.2621 96.7868 40.3212 96.649 40.4279C96.4952 40.5498 96.3854 40.7186 96.3365 40.9087C96.2432 41.2207 96.1962 41.5446 96.1971 41.8702V44.4568L95.3462 44.4472Z" fill="white"/>
<path d="M98.4087 41.976C98.3784 41.6028 98.4308 41.2275 98.5621 40.8768C98.6934 40.5261 98.9004 40.2087 99.1683 39.9471C99.6017 39.5772 100.156 39.3803 100.726 39.3942C101.037 39.3822 101.347 39.4355 101.636 39.5506C101.925 39.6657 102.186 39.8401 102.404 40.0625C102.629 40.3121 102.802 40.6038 102.913 40.9207C103.024 41.2375 103.072 41.5733 103.053 41.9087C103.077 42.4245 102.978 42.9387 102.764 43.4087C102.576 43.7705 102.283 44.067 101.923 44.2596C101.558 44.4606 101.147 44.5633 100.731 44.5577C100.418 44.5727 100.105 44.5214 99.8136 44.407C99.522 44.2927 99.2578 44.1179 99.0385 43.8942C98.5835 43.363 98.3571 42.6735 98.4087 41.976ZM99.2692 41.976C99.2257 42.4912 99.3729 43.0044 99.6827 43.4183C99.8126 43.5664 99.9727 43.6851 100.152 43.7664C100.332 43.8477 100.527 43.8898 100.724 43.8898C100.921 43.8898 101.115 43.8477 101.295 43.7664C101.474 43.6851 101.634 43.5664 101.764 43.4183C102.069 43.002 102.216 42.4906 102.178 41.976C102.214 41.4772 102.065 40.9825 101.76 40.5866C101.635 40.4339 101.477 40.3113 101.298 40.2281C101.119 40.1448 100.923 40.103 100.726 40.1058C100.527 40.103 100.33 40.1447 100.15 40.2279C99.9693 40.3111 99.8097 40.4336 99.6827 40.5866C99.3855 40.9865 99.2391 41.4786 99.2692 41.976Z" fill="white"/>
<path d="M104.207 44.4472V39.5097H104.962V40.2116C105.13 39.9502 105.363 39.7373 105.639 39.5939C105.915 39.4506 106.223 39.3817 106.534 39.3943C106.816 39.3927 107.096 39.4483 107.356 39.5577C107.578 39.6427 107.773 39.7875 107.918 39.976C108.049 40.1616 108.137 40.3732 108.178 40.5962C108.216 40.8653 108.232 41.137 108.226 41.4087V44.4472H107.385V41.4423C107.398 41.1839 107.365 40.9251 107.288 40.6779C107.224 40.5071 107.101 40.3642 106.942 40.2741C106.767 40.1695 106.565 40.1162 106.361 40.1202C106.021 40.1134 105.691 40.2354 105.438 40.4616C105.287 40.6375 105.174 40.843 105.107 41.0648C105.04 41.2866 105.02 41.52 105.048 41.75V44.4472H104.207Z" fill="white"/>
<path d="M109.697 44.4472V39.5097H110.447V40.202C110.599 39.9589 110.809 39.7574 111.058 39.6154C111.327 39.4661 111.63 39.3898 111.937 39.3943C112.253 39.3813 112.566 39.4616 112.837 39.6251C113.065 39.7753 113.234 39.9993 113.317 40.2597C113.475 39.9951 113.699 39.7762 113.967 39.6244C114.235 39.4727 114.538 39.3934 114.846 39.3943C115.052 39.382 115.259 39.4119 115.453 39.4822C115.647 39.5524 115.825 39.6616 115.976 39.8029C116.267 40.153 116.409 40.6039 116.37 41.0577V44.4231H115.538V41.3462C115.549 41.1014 115.522 40.8565 115.457 40.6202C115.4 40.4717 115.295 40.3464 115.159 40.2645C115.013 40.1781 114.847 40.1316 114.678 40.1299C114.518 40.1254 114.358 40.1538 114.209 40.2133C114.06 40.2728 113.925 40.3623 113.812 40.476C113.555 40.7859 113.43 41.1852 113.466 41.5866V44.4712H112.63V41.2404C112.65 40.9459 112.58 40.6523 112.428 40.3991C112.346 40.3022 112.242 40.2263 112.125 40.1778C112.008 40.1293 111.881 40.1096 111.755 40.1202C111.523 40.1193 111.297 40.1843 111.101 40.3077C110.901 40.4366 110.749 40.6275 110.668 40.851C110.564 41.1853 110.519 41.535 110.534 41.8847V44.4472H109.697Z" fill="white"/>
<path d="M121.207 42.8559L122.077 42.9664C121.964 43.4322 121.696 43.8458 121.317 44.1395C120.841 44.4503 120.275 44.5947 119.708 44.5504C119.141 44.506 118.605 44.2754 118.183 43.8943C117.734 43.3763 117.506 42.7033 117.548 42.0193C117.505 41.3198 117.734 40.6308 118.187 40.0962C118.4 39.868 118.658 39.688 118.946 39.5686C119.234 39.4491 119.544 39.393 119.856 39.4039C120.159 39.394 120.46 39.4494 120.74 39.5663C121.019 39.6833 121.27 39.8591 121.476 40.0818C121.921 40.6089 122.145 41.2877 122.101 41.9761C122.101 42.0289 122.101 42.1011 122.101 42.202H118.413C118.415 42.6621 118.586 43.1054 118.894 43.4472C119.026 43.5877 119.185 43.6989 119.362 43.7735C119.54 43.848 119.731 43.8843 119.923 43.8799C120.205 43.8897 120.483 43.8051 120.712 43.6395C120.951 43.4338 121.124 43.1608 121.207 42.8559ZM118.462 41.5049H121.216C121.214 41.1597 121.105 40.8237 120.904 40.5434C120.779 40.3886 120.621 40.2648 120.441 40.1814C120.261 40.098 120.064 40.0573 119.865 40.0626C119.688 40.059 119.511 40.0911 119.346 40.1572C119.18 40.2233 119.03 40.3219 118.904 40.4472C118.622 40.7273 118.463 41.1077 118.462 41.5049Z" fill="white"/>
<path d="M123.317 44.4471V39.5096H124.072V40.2116C124.24 39.9495 124.473 39.736 124.749 39.5926C125.025 39.4491 125.334 39.3807 125.644 39.3943C125.926 39.3927 126.206 39.4483 126.466 39.5577C126.688 39.6426 126.881 39.7874 127.024 39.976C127.154 40.1616 127.243 40.3731 127.284 40.5962C127.324 40.865 127.34 41.1369 127.332 41.4087V44.4471H126.495V41.4423C126.506 41.1839 126.473 40.9256 126.399 40.6779C126.331 40.5088 126.21 40.3669 126.053 40.2741C125.875 40.1694 125.672 40.1161 125.466 40.1202C125.127 40.1148 124.798 40.2366 124.543 40.4616C124.392 40.6375 124.28 40.8429 124.213 41.0648C124.146 41.2866 124.126 41.52 124.154 41.75V44.4471H123.317Z" fill="white"/>
<path d="M130.635 43.702L130.755 44.4376C130.548 44.4863 130.337 44.5121 130.125 44.5145C129.879 44.5279 129.634 44.4782 129.413 44.3703C129.259 44.2842 129.136 44.1512 129.063 43.9905C128.975 43.6681 128.941 43.3335 128.962 43.0001V40.1587H128.365V39.5097H128.981V38.2837L129.813 37.803V39.5289H130.654V40.178H129.808V43.0626C129.796 43.2241 129.81 43.3865 129.851 43.5434C129.881 43.6114 129.931 43.6685 129.995 43.7068C130.085 43.7502 130.184 43.7701 130.284 43.7645C130.402 43.7505 130.519 43.7296 130.635 43.702Z" fill="white"/>
<path d="M134.87 43.8414C134.603 44.0748 134.299 44.2631 133.971 44.3991C133.676 44.5085 133.363 44.5639 133.048 44.5626C132.596 44.5918 132.15 44.4493 131.798 44.1635C131.655 44.0359 131.542 43.8785 131.466 43.7024C131.391 43.5263 131.355 43.3358 131.361 43.1443C131.358 42.9128 131.414 42.6844 131.524 42.4808C131.63 42.2899 131.778 42.1255 131.957 42.0001C132.142 41.8763 132.347 41.7838 132.562 41.726C132.806 41.6678 133.054 41.6261 133.303 41.601C133.81 41.554 134.31 41.4574 134.798 41.3126C134.798 41.1972 134.798 41.1251 134.798 41.0962C134.81 40.9663 134.795 40.8354 134.754 40.7114C134.714 40.5875 134.649 40.473 134.563 40.3751C134.288 40.1646 133.946 40.0635 133.601 40.0914C133.296 40.0664 132.992 40.1388 132.731 40.2982C132.511 40.4863 132.364 40.7444 132.312 41.0289L131.495 40.9183C131.55 40.6104 131.675 40.3192 131.861 40.0674C132.058 39.8413 132.314 39.6748 132.601 39.5866C132.961 39.4635 133.34 39.4033 133.721 39.4087C134.07 39.3986 134.418 39.4491 134.75 39.5578C134.973 39.6315 135.173 39.7605 135.332 39.9328C135.463 40.0995 135.553 40.2959 135.591 40.5049C135.628 40.7612 135.642 41.0202 135.635 41.2789V42.3943C135.623 42.8869 135.64 43.3798 135.688 43.8703C135.727 44.0772 135.798 44.2767 135.899 44.4616H135.024C134.935 44.2661 134.883 44.0558 134.87 43.8414ZM134.798 41.9664C134.355 42.1252 133.895 42.2317 133.428 42.2837C133.18 42.3118 132.937 42.3683 132.702 42.452C132.566 42.5075 132.45 42.6031 132.37 42.726C132.274 42.876 132.235 43.0554 132.259 43.2317C132.284 43.4081 132.371 43.5698 132.505 43.6876C132.718 43.8499 132.983 43.9285 133.25 43.9087C133.55 43.913 133.847 43.8402 134.111 43.6972C134.351 43.5655 134.544 43.3622 134.663 43.1155C134.766 42.8489 134.811 42.5641 134.798 42.2789V41.9712V41.9664Z" fill="white"/>
<path d="M137.115 44.4472V37.6299H137.952V44.4472H137.115Z" fill="white"/>
<path d="M142.385 44.4472V37.6299H144.957C145.304 37.6218 145.651 37.6427 145.995 37.6924C146.296 37.7356 146.584 37.8457 146.837 38.0145C147.074 38.1824 147.263 38.4095 147.385 38.6731C147.525 38.962 147.596 39.2798 147.591 39.601C147.606 40.1448 147.408 40.6729 147.038 41.0722C146.668 41.476 146.005 41.6779 145.038 41.6779H143.269V44.4472H142.385ZM143.269 40.8654H145.034C145.473 40.9061 145.912 40.7903 146.274 40.5385C146.399 40.423 146.498 40.2812 146.562 40.1233C146.626 39.9654 146.654 39.7952 146.644 39.6251C146.652 39.3632 146.576 39.1057 146.428 38.8895C146.291 38.6924 146.088 38.5509 145.856 38.4904C145.579 38.4371 145.296 38.4162 145.014 38.4279H143.269V40.8654Z" fill="white"/>
<path d="M148.817 44.4472V39.5097H149.567V40.2549C149.692 39.9878 149.875 39.7515 150.101 39.5626C150.26 39.4539 150.447 39.3953 150.639 39.3943C150.946 39.402 151.245 39.497 151.5 39.6683L151.212 40.4424C151.027 40.3266 150.814 40.2634 150.596 40.2597C150.422 40.261 150.253 40.3202 150.115 40.4279C149.96 40.5483 149.85 40.7177 149.803 40.9087C149.71 41.2207 149.663 41.5446 149.663 41.8702V44.4568L148.817 44.4472Z" fill="white"/>
<path d="M151.875 41.9761C151.844 41.6024 151.897 41.2266 152.029 40.8757C152.161 40.5249 152.37 40.2078 152.639 39.9472C153.071 39.5772 153.624 39.3802 154.192 39.3943C154.502 39.3839 154.81 39.438 155.097 39.553C155.384 39.6681 155.644 39.8416 155.861 40.0626C156.311 40.5686 156.543 41.2324 156.505 41.9087C156.53 42.4242 156.433 42.9383 156.221 43.4087C156.034 43.7681 155.744 44.0642 155.389 44.2597C155.023 44.4605 154.61 44.5632 154.192 44.5578C153.883 44.5704 153.574 44.5178 153.285 44.4035C152.997 44.2892 152.736 44.1158 152.519 43.8943C152.059 43.3653 151.827 42.6755 151.875 41.9761ZM152.736 41.9761C152.692 42.4912 152.839 43.0045 153.149 43.4184C153.276 43.5715 153.435 43.6943 153.616 43.7775C153.797 43.8607 153.993 43.9023 154.192 43.8991C154.391 43.903 154.587 43.8617 154.767 43.7784C154.947 43.6951 155.105 43.572 155.231 43.4184C155.538 43.0033 155.685 42.491 155.644 41.9761C155.679 41.4781 155.533 40.9843 155.231 40.5866C155.105 40.4338 154.946 40.3113 154.766 40.2281C154.586 40.1449 154.39 40.1031 154.192 40.1059C153.994 40.1034 153.797 40.1453 153.616 40.2284C153.436 40.3116 153.276 40.434 153.149 40.5866C152.852 40.9866 152.705 41.4787 152.736 41.9761Z" fill="white"/>
<path d="M159.505 43.702L159.63 44.4376C159.422 44.4864 159.209 44.5122 158.995 44.5145C158.751 44.5271 158.508 44.4774 158.288 44.3703C158.133 44.2845 158.008 44.1515 157.933 43.9905C157.845 43.6681 157.811 43.3335 157.832 43.0001V40.1587H157.212V39.5097H157.827V38.2837L158.659 37.803V39.5289H159.5V40.178H158.654V43.0626C158.642 43.2241 158.657 43.3865 158.697 43.5434C158.73 43.6094 158.78 43.6657 158.841 43.7068C158.931 43.7503 159.03 43.7701 159.13 43.7645C159.256 43.7516 159.381 43.7307 159.505 43.702Z" fill="white"/>
<path d="M163.899 42.8558L164.764 42.9664C164.651 43.4322 164.384 43.8458 164.005 44.1395C163.529 44.4503 162.963 44.5947 162.396 44.5504C161.829 44.506 161.292 44.2754 160.87 43.8943C160.422 43.3763 160.194 42.7032 160.236 42.0193C160.195 41.3192 160.425 40.6303 160.88 40.0962C161.091 39.8681 161.349 39.6881 161.636 39.5687C161.923 39.4492 162.233 39.393 162.543 39.4039C162.846 39.3936 163.148 39.4489 163.427 39.5659C163.707 39.6829 163.958 39.8589 164.163 40.0818C164.61 40.6082 164.836 41.287 164.793 41.976C164.793 42.0289 164.793 42.101 164.793 42.202H161.106C161.112 42.6611 161.283 43.1028 161.587 43.4472C161.719 43.5878 161.879 43.6991 162.057 43.7736C162.235 43.8482 162.427 43.8844 162.62 43.8799C162.902 43.8897 163.18 43.8051 163.409 43.6395C163.647 43.4331 163.818 43.1602 163.899 42.8558ZM161.149 41.5049H163.909C163.903 41.1596 163.792 40.8242 163.591 40.5433C163.467 40.3883 163.309 40.2643 163.129 40.1808C162.948 40.0974 162.751 40.0569 162.553 40.0626C162.375 40.059 162.198 40.0911 162.033 40.1572C161.868 40.2233 161.718 40.3219 161.591 40.4472C161.314 40.7302 161.156 41.1087 161.149 41.5049Z" fill="white"/>
<path d="M169.231 42.6394L170.053 42.7452C169.992 43.2588 169.748 43.7332 169.365 44.0817C168.983 44.4044 168.495 44.5754 167.995 44.5625C167.689 44.5775 167.383 44.526 167.098 44.4115C166.813 44.2969 166.557 44.1221 166.346 43.899C165.901 43.3614 165.68 42.6724 165.731 41.976C165.72 41.4963 165.81 41.0196 165.995 40.5769C166.166 40.1985 166.459 39.8886 166.827 39.6971C167.187 39.4956 167.593 39.3913 168.005 39.3942C168.478 39.3753 168.943 39.5195 169.322 39.8029C169.677 40.093 169.911 40.504 169.981 40.9567L169.163 41.0865C169.11 40.7987 168.965 40.5357 168.75 40.3365C168.55 40.1683 168.295 40.0793 168.034 40.0865C167.839 40.08 167.646 40.1172 167.468 40.1954C167.29 40.2736 167.131 40.3909 167.005 40.5385C166.706 40.9569 166.566 41.4684 166.611 41.9808C166.57 42.4907 166.704 42.9992 166.99 43.4231C167.111 43.5683 167.264 43.684 167.436 43.7614C167.609 43.8389 167.797 43.8761 167.986 43.8702C168.289 43.8793 168.585 43.7727 168.813 43.5721C169.057 43.32 169.205 42.9898 169.231 42.6394Z" fill="white"/>
<path d="M172.788 43.702L172.909 44.4376C172.702 44.4863 172.491 44.5121 172.279 44.5145C172.035 44.5271 171.792 44.4774 171.572 44.3703C171.415 44.2858 171.29 44.1525 171.216 43.9905C171.129 43.6681 171.095 43.3335 171.115 43.0001V40.1587H170.5V39.5097H171.115V38.2837L171.947 37.803V39.5289H172.788V40.178H171.947V43.0626C171.935 43.2241 171.95 43.3865 171.99 43.5434C172.022 43.6103 172.072 43.667 172.135 43.7068C172.224 43.7503 172.324 43.7701 172.423 43.7645C172.546 43.751 172.668 43.7301 172.788 43.702Z" fill="white"/>
<path d="M173.803 38.5914V37.6299H174.639V38.5914H173.803ZM173.803 44.4472V39.5097H174.639V44.4472H173.803Z" fill="white"/>
<path d="M175.793 41.9759C175.763 41.6023 175.815 41.2264 175.948 40.8756C176.08 40.5248 176.288 40.2076 176.558 39.9471C176.989 39.5771 177.542 39.3801 178.111 39.3942C178.42 39.3844 178.728 39.4387 179.015 39.5537C179.302 39.6687 179.562 39.8419 179.779 40.0625C180.229 40.5685 180.461 41.2323 180.423 41.9086C180.446 42.4239 180.349 42.9375 180.139 43.4086C179.957 43.7653 179.675 44.061 179.327 44.2596C178.96 44.4603 178.548 44.563 178.13 44.5577C177.818 44.5729 177.506 44.5216 177.215 44.4073C176.924 44.2929 176.661 44.118 176.442 43.8942C176.213 43.6332 176.037 43.3293 175.926 43C175.814 42.6708 175.769 42.3227 175.793 41.9759ZM176.654 41.9759C176.609 42.4919 176.759 43.006 177.072 43.4182C177.202 43.5663 177.361 43.6849 177.54 43.7662C177.719 43.8474 177.914 43.8895 178.111 43.8895C178.307 43.8895 178.502 43.8474 178.681 43.7662C178.86 43.6849 179.02 43.5663 179.149 43.4182C179.454 43.002 179.601 42.4906 179.562 41.9759C179.599 41.4771 179.45 40.9825 179.144 40.5865C179.019 40.4335 178.862 40.3108 178.683 40.2275C178.504 40.1443 178.308 40.1026 178.111 40.1057C177.912 40.1026 177.716 40.1442 177.536 40.2275C177.357 40.3107 177.198 40.4334 177.072 40.5865C176.771 40.9849 176.623 41.4777 176.654 41.9759Z" fill="white"/>
<path d="M181.596 44.4471V39.5096H182.351V40.2116C182.518 39.9495 182.752 39.736 183.028 39.5926C183.304 39.4491 183.612 39.3807 183.923 39.3943C184.204 39.3921 184.482 39.4478 184.74 39.5577C184.963 39.6427 185.157 39.7874 185.303 39.976C185.433 40.1616 185.522 40.3731 185.562 40.5962C185.603 40.865 185.619 41.1369 185.611 41.4087V44.4471H184.774V41.4423C184.785 41.1839 184.752 40.9256 184.678 40.6779C184.61 40.5077 184.486 40.3655 184.327 40.2741C184.151 40.1688 183.95 40.1154 183.745 40.1202C183.406 40.1148 183.076 40.2366 182.822 40.4616C182.671 40.6375 182.559 40.8429 182.492 41.0648C182.425 41.2866 182.405 41.52 182.433 41.75V44.4471H181.596Z" fill="white"/>
<path d="M188.755 44.4472L191.375 37.6299H192.337L195.13 44.4472H194.101L193.308 42.3847H190.452L189.702 44.4472H188.755ZM190.726 41.6491H193.038L192.308 39.7597C192.091 39.1828 191.933 38.7164 191.827 38.3462C191.738 38.7895 191.614 39.2252 191.457 39.6491L190.726 41.6491Z" fill="white"/>
<path d="M199.149 44.4472V43.827C199.006 44.0616 198.802 44.2532 198.559 44.3818C198.317 44.5104 198.044 44.5712 197.769 44.5578C197.382 44.5606 197.004 44.4466 196.683 44.2308C196.345 44.007 196.079 43.6919 195.913 43.3222C195.725 42.8989 195.633 42.4391 195.644 41.976C195.636 41.5171 195.719 41.0611 195.889 40.6347C196.035 40.2579 196.296 39.9366 196.635 39.7164C196.962 39.5045 197.345 39.3941 197.736 39.3991C198.013 39.3945 198.287 39.4589 198.534 39.5866C198.756 39.7031 198.95 39.8673 199.101 40.0674V37.6299H199.933V44.4472H199.149ZM196.5 41.9808C196.456 42.4946 196.6 43.0067 196.904 43.4232C197.016 43.5724 197.161 43.6936 197.328 43.777C197.495 43.8605 197.679 43.9039 197.865 43.9039C198.045 43.9046 198.221 43.8647 198.383 43.7872C198.544 43.7098 198.686 43.5969 198.798 43.4568C199.084 43.0598 199.22 42.5744 199.183 42.0866C199.225 41.5601 199.088 41.0346 198.793 40.5962C198.681 40.4478 198.535 40.3272 198.369 40.2439C198.202 40.1605 198.018 40.1166 197.832 40.1155C197.652 40.1136 197.474 40.1534 197.312 40.2318C197.15 40.3102 197.009 40.4251 196.899 40.5674C196.614 40.9819 196.474 41.4786 196.5 41.9808Z" fill="white"/>
<path d="M201.442 44.4472V39.5097H202.192V40.202C202.347 39.9578 202.56 39.7561 202.813 39.6154C203.081 39.4661 203.385 39.3898 203.692 39.3943C204.008 39.3813 204.321 39.4616 204.591 39.6251C204.82 39.7753 204.989 39.9993 205.072 40.2597C205.23 39.9951 205.454 39.7762 205.722 39.6244C205.99 39.4727 206.293 39.3934 206.601 39.3943C206.807 39.382 207.014 39.4119 207.208 39.4822C207.402 39.5524 207.58 39.6616 207.731 39.8029C208.022 40.153 208.164 40.6039 208.125 41.0577V44.4231H207.293V41.3462C207.304 41.1014 207.276 40.8565 207.212 40.6202C207.153 40.4726 207.049 40.3478 206.913 40.2645C206.768 40.1781 206.602 40.1316 206.433 40.1299C206.272 40.1251 206.113 40.1533 205.964 40.2129C205.815 40.2725 205.68 40.362 205.567 40.476C205.31 40.7859 205.185 41.1852 205.221 41.5866V44.4712H204.385V41.2404C204.406 40.9452 204.334 40.6506 204.178 40.3991C204.098 40.3017 203.995 40.2253 203.878 40.1767C203.762 40.1281 203.635 40.1087 203.51 40.1202C203.278 40.1193 203.051 40.1843 202.856 40.3077C202.645 40.4356 202.485 40.6327 202.404 40.8654C202.3 41.1997 202.255 41.5494 202.269 41.8991V44.4616L201.442 44.4472Z" fill="white"/>
<path d="M209.567 38.5914V37.6299H210.404V38.5914H209.567ZM209.567 44.4472V39.5097H210.404V44.4472H209.567Z" fill="white"/>
<path d="M211.87 44.4471V39.5096H212.625V40.2116C212.792 39.9495 213.026 39.736 213.302 39.5926C213.578 39.4491 213.886 39.3807 214.197 39.3943C214.478 39.3927 214.756 39.4483 215.014 39.5577C215.237 39.6427 215.431 39.7874 215.577 39.976C215.707 40.1616 215.796 40.3731 215.837 40.5962C215.877 40.865 215.893 41.1369 215.885 41.4087V44.4471H215.048V41.4423C215.059 41.1839 215.026 40.9256 214.952 40.6779C214.884 40.5077 214.76 40.3655 214.601 40.2741C214.425 40.1695 214.224 40.1162 214.019 40.1202C213.68 40.1148 213.35 40.2366 213.096 40.4616C212.945 40.6375 212.833 40.8429 212.766 41.0648C212.699 41.2866 212.679 41.52 212.707 41.75V44.4471H211.87Z" fill="white"/>
<path d="M217.365 38.5914V37.6299H218.202V38.5914H217.365ZM217.365 44.4472V39.5097H218.202V44.4472H217.365Z" fill="white"/>
<path d="M219.332 42.976L220.159 42.8462C220.187 43.1399 220.326 43.4117 220.548 43.6058C220.804 43.7966 221.119 43.8903 221.437 43.8703C221.741 43.8937 222.043 43.8122 222.293 43.6395C222.379 43.5748 222.449 43.4913 222.497 43.3955C222.545 43.2996 222.571 43.194 222.572 43.0866C222.574 42.9972 222.552 42.9089 222.509 42.8305C222.466 42.7521 222.403 42.6863 222.327 42.6395C222.054 42.5111 221.767 42.4159 221.471 42.3558C221.034 42.2595 220.606 42.1243 220.192 41.952C219.969 41.8482 219.782 41.681 219.654 41.4712C219.54 41.2785 219.477 41.0599 219.471 40.8362C219.465 40.6124 219.517 40.3908 219.62 40.1924C219.719 40.0021 219.86 39.8375 220.034 39.7116C220.196 39.6001 220.377 39.5172 220.567 39.4664C220.801 39.3976 221.044 39.3636 221.288 39.3655C221.637 39.3592 221.984 39.4162 222.312 39.5337C222.569 39.6189 222.795 39.7777 222.962 39.9905C223.117 40.2189 223.216 40.4808 223.25 40.7549L222.428 40.8655C222.402 40.6325 222.286 40.4187 222.106 40.2693C221.886 40.1143 221.619 40.0396 221.351 40.0578C221.063 40.0339 220.774 40.0993 220.524 40.2453C220.451 40.2952 220.39 40.3617 220.348 40.4394C220.305 40.5171 220.282 40.6038 220.279 40.6924C220.277 40.7997 220.315 40.904 220.385 40.9857C220.469 41.0876 220.578 41.1656 220.702 41.2116C220.788 41.2405 221.034 41.3126 221.442 41.4232C221.863 41.5272 222.278 41.6572 222.683 41.8126C222.913 41.9014 223.11 42.0608 223.245 42.268C223.379 42.4752 223.445 42.7196 223.433 42.9664C223.433 43.248 223.347 43.523 223.187 43.7549C223.017 44.0125 222.772 44.2121 222.486 44.327C222.156 44.4662 221.8 44.535 221.442 44.5289C220.922 44.566 220.405 44.4253 219.976 44.1299C219.625 43.8385 219.396 43.4273 219.332 42.976Z" fill="white"/>
<path d="M226.442 43.702L226.567 44.4376C226.359 44.4864 226.146 44.5122 225.933 44.5145C225.689 44.5271 225.446 44.4774 225.226 44.3703C225.07 44.2845 224.946 44.1515 224.87 43.9905C224.782 43.6681 224.748 43.3335 224.769 43.0001V40.1587H224.154V39.5097H224.769V38.2837L225.601 37.803V39.5289H226.442V40.178H225.601V43.0626C225.589 43.2241 225.604 43.3865 225.644 43.5434C225.676 43.6116 225.728 43.6686 225.793 43.7068C225.881 43.7507 225.979 43.7706 226.077 43.7645C226.2 43.7512 226.322 43.7303 226.442 43.702Z" fill="white"/>
<path d="M227.447 44.4472V39.5097H228.202V40.2549C228.327 39.9878 228.509 39.7515 228.736 39.5626C228.894 39.4539 229.082 39.3953 229.274 39.3943C229.581 39.4027 229.879 39.4977 230.135 39.6683L229.846 40.4424C229.661 40.3272 229.449 40.2641 229.231 40.2597C229.056 40.261 228.887 40.3202 228.75 40.4279C228.594 40.5483 228.484 40.7177 228.437 40.9087C228.342 41.2202 228.295 41.5445 228.298 41.8702V44.4568L227.447 44.4472Z" fill="white"/>
<path d="M234.048 43.8414C233.788 44.0726 233.492 44.2608 233.173 44.3991C232.878 44.5085 232.565 44.5639 232.25 44.5626C231.798 44.5918 231.352 44.4493 231 44.1635C230.857 44.0359 230.744 43.8785 230.668 43.7024C230.593 43.5263 230.557 43.3358 230.562 43.1443C230.562 42.9131 230.618 42.6853 230.726 42.4808C230.832 42.2899 230.98 42.1255 231.159 42.0001C231.344 41.8763 231.549 41.7838 231.764 41.726C232.01 41.6679 232.259 41.6262 232.51 41.601C233.015 41.5536 233.514 41.457 234 41.3126C234 41.1972 234 41.1251 234 41.0962C234.014 40.9662 234 40.8347 233.96 40.7103C233.919 40.586 233.853 40.4717 233.764 40.3751C233.49 40.1646 233.147 40.0635 232.803 40.0914C232.498 40.0664 232.194 40.1388 231.933 40.2982C231.713 40.4863 231.566 40.7444 231.514 41.0289L230.697 40.9183C230.752 40.6104 230.877 40.3192 231.062 40.0674C231.26 39.8413 231.516 39.6748 231.803 39.5866C232.163 39.4635 232.542 39.4033 232.923 39.4087C233.272 39.3986 233.62 39.4491 233.952 39.5578C234.174 39.6315 234.375 39.7605 234.534 39.9328C234.665 40.1003 234.756 40.2962 234.798 40.5049C234.83 40.7616 234.842 41.0203 234.837 41.2789V42.3943C234.825 42.8869 234.842 43.3798 234.889 43.8703C234.929 44.0772 235 44.2767 235.101 44.4616H234.226C234.129 44.2677 234.068 44.0574 234.048 43.8414ZM233.976 41.9664C233.535 42.1247 233.076 42.2312 232.611 42.2837C232.361 42.3114 232.116 42.3678 231.88 42.452C231.744 42.5075 231.628 42.6031 231.548 42.726C231.452 42.876 231.413 43.0554 231.437 43.2317C231.462 43.4081 231.549 43.5698 231.683 43.6876C231.896 43.8491 232.161 43.9276 232.428 43.9087C232.728 43.9137 233.025 43.8408 233.288 43.6972C233.53 43.5668 233.723 43.3631 233.841 43.1155C233.946 42.8495 233.992 42.5642 233.976 42.2789V41.9712V41.9664Z" fill="white"/>
<path d="M238.139 43.702L238.26 44.4376C238.053 44.4863 237.842 44.5121 237.63 44.5145C237.386 44.5271 237.143 44.4774 236.923 44.3703C236.767 44.2845 236.643 44.1515 236.567 43.9905C236.48 43.6681 236.445 43.3335 236.466 43.0001V40.1587H235.851V39.5097H236.466V38.2837L237.298 37.803V39.5289H238.139V40.178H237.298V43.0626C237.286 43.2241 237.301 43.3865 237.341 43.5434C237.371 43.6114 237.422 43.6685 237.486 43.7068C237.575 43.7503 237.675 43.7701 237.774 43.7645C237.897 43.7512 238.019 43.7303 238.139 43.702Z" fill="white"/>
<path d="M239.154 38.5914V37.6299H239.99V38.5914H239.154ZM239.154 44.4472V39.5097H239.99V44.4472H239.154Z" fill="white"/>
<path d="M241.144 41.9761C241.114 41.6024 241.166 41.2266 241.298 40.8757C241.431 40.5249 241.639 40.2078 241.909 39.9472C242.34 39.5772 242.893 39.3802 243.462 39.3943C243.771 39.3839 244.079 39.438 244.366 39.553C244.653 39.6681 244.913 39.8416 245.13 40.0626C245.354 40.3124 245.526 40.6043 245.637 40.9211C245.747 41.238 245.794 41.5737 245.774 41.9087C245.8 42.4242 245.702 42.9383 245.49 43.4087C245.304 43.7692 245.015 44.0656 244.659 44.2597C244.292 44.4605 243.88 44.5632 243.462 44.5578C243.152 44.571 242.843 44.5187 242.554 44.4044C242.266 44.2901 242.005 44.1163 241.788 43.8943C241.56 43.633 241.385 43.3289 241.274 42.9996C241.164 42.6704 241.12 42.3225 241.144 41.9761ZM242.005 41.9761C241.96 42.4921 242.109 43.0062 242.423 43.4184C242.553 43.5664 242.712 43.685 242.891 43.7663C243.07 43.8476 243.265 43.8896 243.462 43.8896C243.658 43.8896 243.853 43.8476 244.032 43.7663C244.211 43.685 244.37 43.5664 244.5 43.4184C244.807 43.0033 244.954 42.491 244.913 41.9761C244.949 41.4781 244.802 40.9843 244.5 40.5866C244.374 40.4338 244.215 40.3113 244.035 40.2281C243.856 40.1449 243.66 40.1031 243.462 40.1059C243.263 40.1034 243.066 40.1453 242.886 40.2284C242.705 40.3116 242.545 40.434 242.418 40.5866C242.121 40.9866 241.975 41.4787 242.005 41.9761Z" fill="white"/>
<path d="M246.947 44.4471V39.5096H247.702V40.2116C247.869 39.9495 248.103 39.736 248.379 39.5926C248.655 39.4491 248.963 39.3807 249.274 39.3943C249.556 39.3927 249.836 39.4483 250.096 39.5577C250.317 39.6426 250.51 39.7874 250.654 39.976C250.784 40.1623 250.874 40.3734 250.918 40.5962C250.954 40.8654 250.969 41.1371 250.962 41.4087V44.4471H250.125V41.4423C250.136 41.1839 250.103 40.9256 250.029 40.6779C249.961 40.5088 249.839 40.3669 249.683 40.2741C249.505 40.1694 249.302 40.1161 249.096 40.1202C248.757 40.1148 248.427 40.2366 248.173 40.4616C248.022 40.6375 247.91 40.8429 247.843 41.0648C247.776 41.2866 247.756 41.52 247.784 41.75V44.4471H246.947Z" fill="white"/>
<path d="M76.1827 55.8846V49.0625H81.1154V49.8654H77.0865V51.9567H80.8606V52.7548H77.0865V55.0769H81.274V55.8846H76.1827Z" fill="white"/>
<path d="M82.0433 55.8845L83.851 53.3172L82.1779 50.9614H83.226L83.9856 52.1201C84.1298 52.3412 84.2404 52.5239 84.3269 52.673C84.4664 52.4662 84.5914 52.2883 84.7067 52.1297L85.5385 50.9614H86.5385L84.8317 53.2883L86.6683 55.9037H85.6394L84.6154 54.3268L84.3462 53.9133L83.0481 55.8653L82.0433 55.8845Z" fill="white"/>
<path d="M90.9423 54.2932L91.8077 54.3989C91.695 54.8662 91.4272 55.2814 91.0481 55.5768C90.6361 55.8687 90.139 56.0158 89.6346 55.9951C89.3168 56.0115 88.9991 55.9604 88.7025 55.8452C88.4058 55.73 88.1369 55.5534 87.9134 55.3268C87.4647 54.8109 87.2368 54.1392 87.2788 53.4566C87.2397 52.7568 87.4703 52.0686 87.9231 51.5336C88.1351 51.3068 88.3933 51.1281 88.6803 51.0095C88.9672 50.8909 89.2762 50.8352 89.5865 50.8461C89.889 50.8361 90.19 50.8911 90.4695 51.0072C90.749 51.1232 91.0003 51.2978 91.2067 51.5191C91.6579 52.0541 91.8822 52.7442 91.8317 53.4422V53.6634H88.1442C88.1495 54.1242 88.3201 54.5678 88.625 54.9134C88.7571 55.0543 88.9174 55.1656 89.0956 55.2402C89.2737 55.3148 89.4656 55.3509 89.6586 55.3461C89.9399 55.3542 90.2158 55.2678 90.4423 55.1009C90.6859 54.8876 90.8601 54.6063 90.9423 54.2932ZM88.1923 52.9374H90.9519C90.9416 52.6018 90.8311 52.277 90.6346 52.0047C90.5107 51.8494 90.3524 51.7251 90.1721 51.6417C89.9919 51.5582 89.7947 51.5179 89.5961 51.5239C89.4184 51.5214 89.2419 51.5541 89.0769 51.6201C88.9119 51.6861 88.7615 51.7841 88.6346 51.9086C88.3639 52.1843 88.2062 52.5513 88.1923 52.9374Z" fill="white"/>
<path d="M96.274 54.0722L97.0962 54.1779C97.0345 54.6925 96.7885 55.1673 96.4038 55.5145C96.0231 55.8368 95.5371 56.0079 95.0385 55.9952C94.7351 56.0078 94.4327 55.955 94.1515 55.8406C93.8703 55.7261 93.617 55.5526 93.4087 55.3318C92.9627 54.7944 92.7422 54.1052 92.7933 53.4087C92.7816 52.9273 92.8717 52.449 93.0577 52.0049C93.22 51.624 93.5041 51.3078 93.8654 51.1058C94.2251 50.9043 94.631 50.7999 95.0433 50.8029C95.5163 50.7839 95.9814 50.9282 96.3606 51.2116C96.7128 51.5049 96.9454 51.9171 97.0144 52.3702L96.2019 52.4952C96.1488 52.2071 96.0037 51.944 95.7885 51.7452C95.5903 51.5769 95.3368 51.4879 95.0769 51.4952C94.8825 51.4887 94.6891 51.5259 94.5111 51.6041C94.333 51.6823 94.1748 51.7996 94.0481 51.9472C93.7483 52.3652 93.6084 52.877 93.6538 53.3895C93.6112 53.8996 93.7453 54.4088 94.0337 54.8318C94.1545 54.9776 94.3068 55.094 94.4792 55.1723C94.6516 55.2506 94.8396 55.2887 95.0288 55.2837C95.333 55.2915 95.6286 55.1832 95.8558 54.9808C96.0919 54.7326 96.239 54.413 96.274 54.0722Z" fill="white"/>
<path d="M101.24 55.8845V55.1585C101.073 55.4208 100.841 55.6355 100.566 55.782C100.292 55.9285 99.9842 56.0019 99.6731 55.9951C99.3919 55.9965 99.1135 55.9392 98.8558 55.8268C98.6352 55.7385 98.4413 55.5944 98.2933 55.4085C98.166 55.2196 98.0777 55.0071 98.0336 54.7835C97.9942 54.5259 97.9781 54.2652 97.9856 54.0047V50.9614H98.8221V53.7018C98.8104 53.9977 98.8281 54.294 98.875 54.5864C98.9185 54.7942 99.0365 54.9788 99.2067 55.1057C99.3926 55.2347 99.6151 55.3005 99.8413 55.2932C100.09 55.2909 100.333 55.2247 100.548 55.1008C100.765 54.9857 100.935 54.7987 101.029 54.572C101.135 54.2629 101.182 53.9369 101.168 53.6105V50.9614H102.005V55.9037L101.24 55.8845Z" fill="white"/>
<path d="M105.322 55.1347L105.442 55.8751C105.234 55.9202 105.021 55.9443 104.808 55.9472C104.564 55.9597 104.321 55.9101 104.101 55.803C103.944 55.7197 103.821 55.5858 103.75 55.4232C103.66 55.111 103.624 54.7858 103.644 54.4616V51.6155H103.034V50.9616H103.644V49.7357L104.481 49.2549V50.9616H105.322V51.6107H104.481V54.4953C104.469 54.6568 104.484 54.8192 104.524 54.976C104.553 55.0448 104.604 55.1022 104.668 55.1395C104.756 55.1848 104.854 55.2064 104.952 55.202C105.077 55.1867 105.2 55.1642 105.322 55.1347Z" fill="white"/>
<path d="M106.337 50.024V49.0625H107.173V50.024H106.337ZM106.337 55.8846V50.9615H107.173V55.9038L106.337 55.8846Z" fill="white"/>
<path d="M110.01 55.8847L108.13 50.9616H109.014L110.077 53.9183C110.192 54.2405 110.298 54.5722 110.394 54.9183C110.466 54.6539 110.572 54.3414 110.707 53.9568L111.803 50.9424H112.663L110.793 55.8847H110.01Z" fill="white"/>
<path d="M116.976 54.2932L117.841 54.3989C117.729 54.8662 117.461 55.2814 117.082 55.5768C116.67 55.8687 116.173 56.0158 115.668 55.9951C115.35 56.0115 115.033 55.9604 114.736 55.8452C114.44 55.73 114.171 55.5534 113.947 55.3268C113.498 54.8109 113.27 54.1392 113.312 53.4566C113.273 52.7568 113.504 52.0686 113.957 51.5336C114.169 51.3068 114.427 51.1281 114.714 51.0095C115.001 50.8909 115.31 50.8352 115.62 50.8461C115.923 50.8361 116.224 50.8911 116.503 51.0072C116.783 51.1232 117.034 51.2978 117.24 51.5191C117.693 52.0536 117.919 52.7436 117.87 53.4422C117.87 53.4903 117.87 53.5672 117.87 53.6634H114.183C114.188 54.1242 114.359 54.5678 114.663 54.9134C114.796 55.054 114.956 55.1652 115.134 55.2398C115.312 55.3143 115.504 55.3506 115.697 55.3461C115.978 55.3542 116.254 55.2678 116.481 55.1009C116.723 54.887 116.895 54.6057 116.976 54.2932ZM114.226 52.9374H116.986C116.975 52.6018 116.865 52.277 116.668 52.0047C116.545 51.8489 116.387 51.7242 116.206 51.6407C116.026 51.5571 115.828 51.5172 115.63 51.5239C115.452 51.5203 115.275 51.5525 115.11 51.6186C114.945 51.6847 114.795 51.7833 114.668 51.9086C114.396 52.1832 114.238 52.5509 114.226 52.9374Z" fill="white"/>
<path d="M123.779 55.8846V53L121.154 49.0625H122.25L123.596 51.1202C123.846 51.5048 124.077 51.8894 124.288 52.274C124.495 51.9183 124.74 51.5144 125.034 51.0673L126.356 49.0625H127.404L124.683 52.9952V55.8798L123.779 55.8846Z" fill="white"/>
<path d="M131.005 55.8845V55.1585C130.838 55.4214 130.606 55.6367 130.331 55.7833C130.057 55.9299 129.749 56.0028 129.438 55.9951C129.156 55.9959 128.878 55.9387 128.62 55.8268C128.4 55.7385 128.206 55.5944 128.058 55.4085C127.93 55.2203 127.843 55.0074 127.803 54.7835C127.759 54.5264 127.741 54.2654 127.75 54.0047V50.9614H128.587V53.7018C128.577 53.9977 128.595 54.2938 128.639 54.5864C128.685 54.7935 128.802 54.9776 128.971 55.1057C129.157 55.2347 129.38 55.3005 129.606 55.2932C129.854 55.2909 130.097 55.2247 130.312 55.1008C130.529 54.9857 130.699 54.7987 130.793 54.572C130.899 54.2629 130.946 53.9368 130.933 53.6105V50.9614H131.769V55.9037L131.005 55.8845Z" fill="white"/>
<path d="M136.481 55.2884C136.217 55.5242 135.914 55.7129 135.587 55.846C135.292 55.9569 134.979 56.0124 134.663 56.0095C134.211 56.0397 133.765 55.897 133.413 55.6105C133.27 55.484 133.157 55.3275 133.081 55.1521C133.006 54.9768 132.97 54.7869 132.976 54.596C132.973 54.371 133.026 54.1487 133.13 53.9491C133.234 53.7494 133.386 53.5786 133.572 53.4518C133.757 53.329 133.959 53.2365 134.173 53.1778C134.418 53.1197 134.667 53.0779 134.918 53.0528C135.425 53.0065 135.926 52.9083 136.413 52.7595C136.413 52.6489 136.413 52.572 136.413 52.5432C136.427 52.4128 136.412 52.281 136.371 52.1567C136.33 52.0323 136.262 51.9183 136.173 51.822C135.899 51.6119 135.556 51.5109 135.212 51.5384C134.907 51.5133 134.602 51.5857 134.341 51.7451C134.121 51.9327 133.973 52.1911 133.923 52.4759L133.106 52.3653C133.157 52.0578 133.283 51.7674 133.471 51.5191C133.668 51.2923 133.924 51.1256 134.212 51.0384C134.572 50.9169 134.951 50.8584 135.332 50.8653C135.681 50.8532 136.029 50.9037 136.361 51.0143C136.585 51.0844 136.786 51.214 136.942 51.3893C137.073 51.5549 137.162 51.7495 137.202 51.9566C137.238 52.213 137.253 52.4719 137.245 52.7307V53.846C137.231 54.3387 137.248 54.8317 137.298 55.322C137.334 55.5314 137.405 55.7331 137.51 55.9182H136.635C136.548 55.7186 136.495 55.5056 136.481 55.2884ZM136.413 53.4182C135.971 53.5769 135.511 53.6834 135.043 53.7355C134.794 53.7619 134.548 53.8184 134.312 53.9037C134.18 53.9582 134.067 54.0508 133.987 54.1698C133.908 54.2888 133.865 54.4288 133.865 54.572C133.864 54.678 133.887 54.7829 133.931 54.8793C133.975 54.9757 134.039 55.0612 134.12 55.1297C134.332 55.2912 134.595 55.3699 134.861 55.3509C135.163 55.358 135.461 55.285 135.726 55.1393C135.966 55.0094 136.159 54.8077 136.279 54.5624C136.381 54.2958 136.427 54.011 136.413 53.7259V53.4182Z" fill="white"/>
<path d="M138.75 55.8847V50.9616H139.5V51.6636C139.668 51.4027 139.902 51.1905 140.178 51.0479C140.454 50.9054 140.762 50.8375 141.072 50.8511C141.354 50.8479 141.634 50.9018 141.894 51.0097C142.116 51.0979 142.31 51.244 142.457 51.4328C142.587 51.6184 142.676 51.8299 142.716 52.053C142.755 52.322 142.771 52.5938 142.764 52.8655V55.9039H141.928V52.8847C141.94 52.6244 141.906 52.3639 141.827 52.1155C141.762 51.9446 141.64 51.8018 141.481 51.7116C141.305 51.6085 141.103 51.5569 140.899 51.5626C140.56 51.5554 140.231 51.6755 139.976 51.8991C139.826 52.0754 139.713 52.2809 139.646 52.5026C139.579 52.7244 139.559 52.9576 139.587 53.1876V55.8895L138.75 55.8847Z" fill="white"/>
<path d="M144.457 55.8846V54.9231H145.418V55.8846C145.431 56.1777 145.368 56.4691 145.236 56.7308C145.096 56.951 144.888 57.1197 144.644 57.2116L144.409 56.8558C144.574 56.7884 144.713 56.6685 144.803 56.5144C144.897 56.3111 144.944 56.0894 144.942 55.8654L144.457 55.8846Z" fill="white"/>
<path d="M150.034 55.8846V49.0625H153.058C153.528 49.0433 153.998 49.105 154.447 49.2452C154.764 49.3722 155.029 49.6005 155.202 49.8943C155.392 50.2036 155.49 50.5603 155.486 50.9231C155.49 51.149 155.45 51.3736 155.367 51.584C155.285 51.7944 155.162 51.9864 155.005 52.1491C154.61 52.5171 154.101 52.7393 153.563 52.7789C153.758 52.8687 153.94 52.9834 154.106 53.1202C154.392 53.3899 154.643 53.6934 154.856 54.0241L156.038 55.8846H154.904L154.005 54.4423C153.74 54.0337 153.524 53.7212 153.351 53.4808C153.219 53.2946 153.056 53.132 152.87 53C152.744 52.9165 152.604 52.8547 152.457 52.8173C152.298 52.7927 152.137 52.7815 151.976 52.7837H150.962V55.8125H150.058L150.034 55.8846ZM150.938 52.0721H152.861C153.186 52.0835 153.511 52.0396 153.822 51.9423C154.04 51.8701 154.226 51.726 154.351 51.5337C154.47 51.3524 154.534 51.1401 154.534 50.9231C154.538 50.7731 154.509 50.6239 154.448 50.4866C154.387 50.3494 154.297 50.2274 154.183 50.1298C153.863 49.8937 153.468 49.7826 153.072 49.8173H150.962V52.0721H150.938Z" fill="white"/>
<path d="M157.212 55.8846V54.9231H158.173V55.8846H157.212Z" fill="white"/>
<path d="M159.654 52.5625C159.595 51.5905 159.924 50.6347 160.567 49.9039C160.869 49.5854 161.235 49.3349 161.641 49.1691C162.048 49.0033 162.485 48.926 162.923 48.9423C163.521 48.933 164.11 49.0894 164.625 49.3943C165.126 49.6901 165.528 50.1286 165.779 50.6539C166.054 51.2228 166.191 51.8489 166.178 52.4808C166.189 53.1255 166.045 53.7634 165.76 54.3414C165.501 54.8658 165.086 55.2974 164.572 55.5769C164.066 55.8578 163.497 56.0035 162.918 56C162.31 56.0066 161.713 55.8399 161.197 55.5193C160.697 55.2197 160.297 54.7778 160.048 54.25C159.789 53.7253 159.654 53.1479 159.654 52.5625ZM160.587 52.5625C160.546 53.2731 160.784 53.9714 161.25 54.5096C161.467 54.7383 161.727 54.9205 162.017 55.045C162.306 55.1695 162.618 55.2337 162.933 55.2337C163.248 55.2337 163.559 55.1695 163.849 55.045C164.138 54.9205 164.399 54.7383 164.615 54.5096C165.087 53.9411 165.323 53.2132 165.274 52.476C165.283 51.9805 165.186 51.4889 164.99 51.0337C164.819 50.6381 164.532 50.3031 164.168 50.0721C163.805 49.8411 163.382 49.7208 162.952 49.726C162.647 49.721 162.344 49.7771 162.06 49.8911C161.777 50.005 161.52 50.1745 161.303 50.3894C160.819 50.8221 160.577 51.5497 160.577 52.5721L160.587 52.5625Z" fill="white"/>
<path d="M167.663 55.8846V54.9231H168.625V55.8846H167.663Z" fill="white"/>
<path d="M175.236 53.4904L176.139 53.7211C176 54.3839 175.641 54.9801 175.12 55.4134C174.605 55.8107 173.968 56.0178 173.317 56C172.687 56.0275 172.063 55.8722 171.519 55.5529C171.047 55.2333 170.682 54.7794 170.471 54.25C170.229 53.6716 170.106 53.0501 170.111 52.4231C170.096 51.7796 170.234 51.1418 170.514 50.5625C170.771 50.0529 171.174 49.6324 171.673 49.3558C172.18 49.08 172.75 48.9392 173.327 48.9471C173.942 48.9251 174.548 49.1077 175.048 49.4663C175.517 49.8297 175.855 50.3361 176.01 50.9086L175.12 51.1154C175.008 50.6926 174.768 50.3149 174.433 50.0336C174.102 49.7986 173.703 49.6787 173.298 49.6923C172.83 49.6775 172.369 49.8104 171.981 50.0721C171.632 50.3202 171.372 50.6743 171.24 51.0817C171.096 51.5042 171.023 51.9478 171.024 52.3942C171.014 52.912 171.101 53.4271 171.279 53.9134C171.424 54.3145 171.703 54.6538 172.067 54.875C172.416 55.088 172.817 55.1996 173.226 55.1971C173.69 55.2279 174.149 55.0896 174.519 54.8077C174.903 54.4649 175.157 53.9992 175.236 53.4904Z" fill="white"/>
<path d="M177.572 55.8846V54.9231H178.534V55.8846H177.572Z" fill="white"/>
<path d="M181.774 57.8893C181.289 57.2649 180.894 56.5755 180.601 55.8413C180.004 54.3896 179.962 52.7695 180.481 51.2884C180.79 50.4467 181.226 49.6572 181.774 48.947H182.375C182.103 49.3936 181.854 49.8541 181.63 50.3268C181.436 50.7579 181.287 51.2073 181.183 51.6682C181.049 52.2419 180.981 52.8291 180.981 53.4182C181.013 55.0098 181.495 56.5599 182.37 57.8893H181.774Z" fill="white"/>
<path d="M185.38 55.8846V49.8654H183.13V49.0625H188.538V49.8654H186.279V55.8846H185.38Z" fill="white"/>
<path d="M191.712 55.2884C191.448 55.5243 191.145 55.713 190.817 55.8461C190.523 55.9579 190.209 56.0133 189.894 56.0096C189.442 56.0388 188.996 55.8963 188.644 55.6106C188.501 55.4841 188.388 55.3276 188.312 55.1522C188.237 54.9769 188.201 54.787 188.207 54.5961C188.203 54.3646 188.26 54.1361 188.37 53.9327C188.474 53.7385 188.624 53.5732 188.808 53.4519C188.991 53.3273 189.194 53.2347 189.409 53.1779C189.654 53.1193 189.903 53.0775 190.154 53.0529C190.659 53.0067 191.159 52.9084 191.644 52.7596C191.644 52.649 191.644 52.5721 191.644 52.5432C191.658 52.4132 191.645 52.2817 191.604 52.1573C191.563 52.033 191.497 51.9187 191.409 51.8221C191.134 51.6132 190.792 51.5123 190.447 51.5384C190.141 51.514 189.835 51.5863 189.572 51.7452C189.354 51.9341 189.206 52.1919 189.154 52.4759L188.337 52.3654C188.39 52.0586 188.516 51.7688 188.702 51.5192C188.899 51.2935 189.156 51.1271 189.442 51.0384C189.803 50.917 190.182 50.8585 190.562 50.8654C190.912 50.853 191.26 50.9034 191.591 51.0144C191.816 51.0844 192.017 51.2141 192.173 51.3894C192.305 51.5546 192.396 51.7492 192.437 51.9567C192.469 52.2135 192.482 52.4721 192.476 52.7307V53.8461C192.464 54.3387 192.482 54.8316 192.529 55.3221C192.569 55.5303 192.64 55.7313 192.74 55.9182H191.87C191.781 55.719 191.728 55.5059 191.712 55.2884ZM191.644 53.4182C191.203 53.5765 190.745 53.683 190.279 53.7356C190.029 53.7608 189.784 53.8173 189.548 53.9038C189.412 53.9561 189.296 54.0504 189.216 54.1731C189.14 54.2921 189.1 54.4307 189.101 54.5721C189.098 54.6783 189.12 54.7836 189.164 54.8802C189.208 54.9768 189.274 55.0622 189.356 55.1298C189.567 55.2921 189.831 55.3709 190.096 55.3509C190.397 55.3581 190.694 55.2851 190.957 55.1394C191.198 55.0111 191.392 54.8089 191.51 54.5625C191.614 54.2966 191.66 54.0112 191.644 53.7259V53.4182Z" fill="white"/>
<path d="M193.986 50.024V49.0625H194.822V50.024H193.986ZM193.986 55.8846V50.9615H194.822V55.9038L193.986 55.8846Z" fill="white"/>
<path d="M197.202 55.8845L195.673 50.9614H196.538L197.327 53.8124L197.62 54.8749C197.62 54.822 197.716 54.4807 197.875 53.8557L198.659 50.971H199.519L200.26 53.8557L200.51 54.8172L200.793 53.8557L201.639 50.9999H202.452L200.909 55.9422H200.038L199.25 52.9807L199.062 52.1393L198.077 55.8845H197.202Z" fill="white"/>
<path d="M206.587 55.2884C206.32 55.5233 206.016 55.7119 205.687 55.846C205.393 55.9578 205.08 56.0133 204.764 56.0095C204.312 56.0397 203.865 55.897 203.514 55.6105C203.371 55.484 203.258 55.3275 203.182 55.1521C203.107 54.9768 203.071 54.7869 203.077 54.596C203.074 54.371 203.127 54.1487 203.231 53.9491C203.335 53.7494 203.487 53.5786 203.673 53.4518C203.859 53.3281 204.063 53.2355 204.279 53.1778C204.523 53.1196 204.77 53.0778 205.019 53.0528C205.526 53.007 206.028 52.9088 206.514 52.7595C206.514 52.6489 206.514 52.572 206.514 52.5432C206.528 52.4131 206.515 52.2816 206.474 52.1573C206.434 52.0329 206.367 51.9187 206.279 51.822C206.003 51.6155 205.661 51.5149 205.317 51.5384C205.013 51.5133 204.708 51.5857 204.447 51.7451C204.229 51.934 204.081 52.1918 204.029 52.4759L203.212 52.3653C203.265 52.0585 203.391 51.7687 203.577 51.5191C203.774 51.2934 204.031 51.127 204.317 51.0384C204.678 50.9169 205.057 50.8584 205.437 50.8653C205.787 50.8532 206.135 50.9037 206.466 51.0143C206.691 51.0844 206.892 51.214 207.048 51.3893C207.181 51.5538 207.27 51.7488 207.308 51.9566C207.344 52.213 207.358 52.4719 207.351 52.7307V53.846C207.339 54.3386 207.357 54.8315 207.404 55.322C207.442 55.5308 207.513 55.7322 207.615 55.9182H206.731C206.642 55.7196 206.593 55.5057 206.587 55.2884ZM206.514 53.4182C206.072 53.5769 205.612 53.6834 205.144 53.7355C204.895 53.7619 204.649 53.8184 204.413 53.9037C204.279 53.9574 204.165 54.0515 204.087 54.173C204.01 54.292 203.97 54.4306 203.971 54.572C203.969 54.6777 203.99 54.7824 204.034 54.8789C204.077 54.9753 204.141 55.0609 204.221 55.1297C204.435 55.2912 204.699 55.3697 204.966 55.3509C205.267 55.358 205.564 55.285 205.827 55.1393C206.067 55.0094 206.26 54.8077 206.38 54.5624C206.484 54.2965 206.53 54.0111 206.514 53.7259V53.4182Z" fill="white"/>
<path d="M208.851 55.8847V50.9616H209.615V51.6636C209.783 51.402 210.017 51.1892 210.293 51.0466C210.569 50.904 210.877 50.8365 211.187 50.8511C211.468 50.8484 211.746 50.9023 212.005 51.0097C212.228 51.0962 212.422 51.2426 212.567 51.4328C212.698 51.6184 212.786 51.8299 212.827 52.053C212.868 52.3218 212.884 52.5937 212.875 52.8655V55.9039H212.019V52.8847C212.031 52.6244 211.997 52.3639 211.918 52.1155C211.854 51.9446 211.731 51.8018 211.572 51.7116C211.396 51.6085 211.194 51.5569 210.99 51.5626C210.651 51.5554 210.322 51.6755 210.067 51.8991C209.917 52.0754 209.805 52.2808 209.738 52.5026C209.671 52.7244 209.65 52.9576 209.678 53.1876V55.8895L208.851 55.8847Z" fill="white"/>
<path d="M214.904 57.8893H214.303C215.18 56.5608 215.662 55.0101 215.692 53.4182C215.692 52.8341 215.626 52.2519 215.495 51.6826C215.391 51.2225 215.243 50.7733 215.053 50.3413C214.828 49.8636 214.577 49.3982 214.303 48.947H214.904C215.451 49.6594 215.887 50.4504 216.197 51.2932C216.711 52.7737 216.667 54.3912 216.072 55.8413C215.777 56.5735 215.384 57.2624 214.904 57.8893Z" fill="white"/>
</g>
<defs>
<clipPath id="clip0_75_665">
<rect width="250.962" height="70" fill="white"/>
</clipPath>
</defs>
</svg>
