<svg width="535" height="231" viewBox="0 0 535 231" fill="none" xmlns="http://www.w3.org/2000/svg">
<g clip-path="url(#clip0_75_580)">
<path d="M6.42614 196.782H10.3003V195.552H27.3444V196.782H31.2493V182.433H17.0851L19.2579 180.475C17.0611 179.045 14.7547 177.791 12.3603 176.724L12.4731 176.427H19.7396V173.27H13.252C13.3545 172.543 13.4365 171.805 13.5082 171.015H18.7045V167.941H8.78342C9.08371 167.378 9.35398 166.8 9.59309 166.209L6.14942 165.573C5.08171 167.763 3.55812 169.699 1.68083 171.251L3.49492 173.301H1.84482V176.458H8.45545C7.30756 178.508 4.83754 180.301 1.07614 181.797L3.6589 184.626C4.61206 184.185 5.53447 183.724 6.42614 183.263V196.782ZM27.3444 192.497H10.3003V190.571H27.3444V192.497ZM27.3444 185.528V187.578H10.3003V185.528H27.3444ZM4.79654 173.311C5.57589 172.628 6.2896 171.873 6.92834 171.056H9.89032C9.82058 171.813 9.7111 172.566 9.56235 173.311H4.79654ZM11.1407 179.317C12.8075 180.231 14.4009 181.273 15.9065 182.433H7.70727C9.00109 181.571 10.1497 180.509 11.11 179.286L11.1407 179.317Z" fill="white"/>
<path d="M33.9448 168.084H20.7338V180.793H33.9448V168.084ZM30.1834 177.77H24.4952V171.159H30.1834V177.77Z" fill="white"/>
<path d="M80.7624 188.746L78.0362 190.273C79.7077 191.948 81.2495 193.746 82.6483 195.654L85.4565 193.902C84.0382 192.055 82.468 190.331 80.7624 188.746Z" fill="white"/>
<path d="M76.6321 185.795H55.3448V188.316H67.6437L65.8808 189.341C67.1892 190.372 68.4285 191.488 69.591 192.682L72.2045 191.022C71.2008 190.064 70.1434 189.164 69.0375 188.326H80.3115V184.677H84.5546V182.259H80.3217V178.538H77.6672V177.237H83.6424V174.849H77.6672V173.619H82.3203V171.261H77.6672V170.032H83.13V167.644H77.6672V166.116H73.9058V167.644H68.7813V170.032H73.9058V171.261H69.3655V173.619H73.9058V174.849H68.5558V177.237H73.9058V178.538H62.6319V177.237H67.5002V174.849H62.6114V173.619H66.9365V171.261H62.6114V170.032H67.5207V167.644H62.6114V166.116H58.85V167.644H53.3565V170.032H58.85V171.261H54.0534V173.619H58.85V174.849H52.7006V177.237H58.85V178.538H55.5293V181.09H76.6321V182.259H52.1779V184.677H76.6321V185.795Z" fill="white"/>
<path d="M59.6289 189.279V192.969C59.6289 195.019 60.8827 196.044 63.3903 196.044H73.3114C74.4053 196.094 75.4951 195.879 76.4886 195.418C77.1855 194.947 77.7082 193.522 77.9952 191.134L74.49 190.109C74.54 191.02 74.3112 191.925 73.8341 192.702C73.4869 192.971 73.0526 193.103 72.6145 193.071H64.4152C63.7183 193.071 63.3903 192.774 63.3903 192.211V189.249L59.6289 189.279Z" fill="white"/>
<path d="M54.5352 189.382C53.9219 191.23 52.958 192.942 51.6962 194.424L54.7709 196.156C56.1505 194.304 57.1915 192.222 57.8456 190.007L54.5352 189.382Z" fill="white"/>
<path d="M110.433 196.72V174.838C112.374 172.505 114.001 169.928 115.271 167.172L111.653 165.614C109.164 170.91 105.413 175.514 100.728 179.02L101.988 182.638C103.608 181.418 105.155 180.147 106.6 178.856V196.72H110.433Z" fill="white"/>
<path d="M130.501 192.108C130.282 192.359 130.008 192.555 129.7 192.681C129.393 192.808 129.06 192.86 128.728 192.836H123.419C122.271 192.836 121.718 192.375 121.718 191.473V179.092L133.268 178.456V175.136L121.718 175.802V166.178H117.864V191.975C117.864 194.732 119.381 196.126 122.476 196.126H129.374C131.259 196.126 132.551 195.726 133.248 194.957C133.945 194.189 134.426 191.883 134.693 188.019L131.188 186.922C131.095 189.884 130.87 191.657 130.501 192.108Z" fill="white"/>
<path d="M174.931 183.806L171.456 184.831C172.676 186.594 173.855 188.521 175.002 190.581C170.278 191.247 165.44 191.708 160.469 192.006C163.822 187.721 166.786 183.145 169.324 178.333L165.522 177.145C160.725 186.666 157.067 191.688 154.597 192.18L155.263 195.572C163.083 195.101 170.206 194.476 176.591 193.604C177.062 194.629 177.544 195.654 178.026 196.679L181.644 195.214C179.779 191.203 177.531 187.383 174.931 183.806Z" fill="white"/>
<path d="M164.343 168.197L160.756 166.906C158.926 172.479 155.567 177.426 151.061 181.183L154.135 183.571C158.365 179.984 161.767 174.859 164.343 168.197Z" fill="white"/>
<path d="M181.787 183.458L184.811 180.998C180.27 177.489 177.153 172.453 176.038 166.824H167.367V170.083H173.086C174.527 175.337 177.568 180.012 181.787 183.458Z" fill="white"/>
<path d="M228.984 196.29C231.751 196.29 233.145 195.121 233.145 192.836V173.209H229.456V191.964C229.456 192.764 228.83 193.194 227.652 193.194C226.749 193.191 225.849 193.122 224.956 192.989L225.766 196.249L228.984 196.29Z" fill="white"/>
<path d="M219.022 190.509L216.552 191.903C217.828 193.313 218.986 194.825 220.016 196.423L223.091 194.527C221.988 193.11 220.794 191.768 219.514 190.509H222.168V174.111H209.019V190.509H211.386C210.343 192.159 209.105 193.677 207.697 195.029L210.936 196.556C212.36 195.155 213.591 193.57 214.594 191.842L211.52 190.509H219.022ZM212.678 177.001H218.428V178.754H212.678V177.001ZM212.678 181.377H218.428V183.109H212.678V181.377ZM212.678 185.733H218.428V187.66H212.678V185.733Z" fill="white"/>
<path d="M234.15 168.699H220.939C220.462 167.667 219.917 166.667 219.309 165.707L214.994 166.373C215.585 167.114 216.129 167.891 216.624 168.699H203.3V178.948C203.232 185.398 202.272 190.434 200.42 194.055L203.7 196.679C205.913 192.231 207.102 186.317 207.205 178.948V172.081H234.109L234.15 168.699Z" fill="white"/>
<path d="M227.549 175.668H224.003V191.073H227.549V175.668Z" fill="white"/>
<path d="M255.201 165.778C254.24 168.293 252.71 170.552 250.733 172.379L254.094 174.306C255.054 173.294 255.919 172.196 256.677 171.026H258.04C258.841 172.098 259.545 173.24 260.141 174.439L263.646 173.209C263.193 172.449 262.69 171.719 262.14 171.026H267.377V167.951H258.276C258.501 167.449 258.686 166.926 258.901 166.455L255.201 165.778Z" fill="white"/>
<path d="M284.103 168.002H273.957C274.141 167.531 274.326 167.039 274.51 166.537L270.862 165.809C270.074 168.154 268.831 170.321 267.203 172.184L267.941 172.614L264.702 173.117C264.989 173.609 265.286 174.142 265.583 174.736H251.45V181.244H255.201V177.667H279.553V181.244H283.314V174.736H269.458C269.232 174.142 268.976 173.578 268.75 173.045L270.452 174.008C271.198 173.059 271.882 172.062 272.502 171.026H274.162C274.921 171.998 275.606 173.026 276.212 174.101L279.604 172.942C279.201 172.273 278.756 171.63 278.272 171.016H284.103V168.002Z" fill="white"/>
<path d="M260.459 186.092H278.241V178.917H256.585V196.607H260.459V195.521H276.171V196.648H279.973V187.66H260.5L260.459 186.092ZM260.459 181.715H274.51V183.376H260.459V181.715ZM276.171 190.376V192.508H260.459V190.376H276.171Z" fill="white"/>
<path d="M332.551 183.079V166.967H313.621V183.079H321.184V186.153H313.211V189.371H321.184V192.446H311.807V195.757H334.201V192.405H324.977V189.33H332.909V186.112H324.977V183.038L332.551 183.079ZM325.059 170.021H328.861V173.547H325.059V170.021ZM325.059 176.499H328.861V180.024H325.059V176.499ZM321.225 180.024H317.351V176.499H321.225V180.024ZM321.225 173.547H317.351V170.021H321.225V173.547Z" fill="white"/>
<path d="M300.082 189.32L301.045 192.631C304.718 191.847 308.34 190.838 311.889 189.607V186.246C310.741 186.686 309.603 187.086 308.424 187.445V181.172H312.001V177.852H308.424V171.077H312.442V167.787H300.451V171.077H304.55V177.852H301.045V181.172H304.55V188.48C303.074 188.818 301.599 189.085 300.082 189.32Z" fill="white"/>
<path d="M358.235 166.937H350.517V174.705H358.266L358.235 166.937ZM355.242 172.246H353.438V169.458H355.242V172.246Z" fill="white"/>
<path d="M367.561 166.937H359.854V174.705H367.561V166.937ZM364.579 172.246H362.816V169.458H364.589L364.579 172.246Z" fill="white"/>
<path d="M378.999 192.139C378.671 192.139 378.19 191.411 377.564 189.976C377.413 189.681 377.29 189.372 377.195 189.054C379.355 186.247 381.188 183.204 382.658 179.983L379.583 178.128C378.569 180.424 377.348 182.623 375.935 184.698C375.791 184.134 375.679 183.509 375.566 182.843C375.34 181.551 375.156 179.922 375.012 177.923L383.386 176.201L382.802 172.819L374.787 174.48C374.643 172.02 374.572 169.191 374.572 165.973H370.698C370.698 169.365 370.769 172.481 370.995 175.269L367.377 176.007L367.941 179.358L371.292 178.692C371.471 180.456 371.755 182.209 372.143 183.939C372.481 185.395 372.85 186.727 373.25 187.988C371.677 189.67 369.847 191.092 367.828 192.2V189.382H360.654V187.691H366.803V175.935H351.183V187.691H357.271V189.382H350.097V192.303H357.271V196.72H360.664V192.303H367.715C367.346 192.508 366.936 192.702 366.526 192.897L368.894 195.726C371.076 194.72 373.073 193.351 374.797 191.677C375.051 192.186 375.345 192.673 375.679 193.133C377.042 195.09 378.374 196.085 379.625 196.085C381.674 196.085 383.171 193.83 384.206 189.32L380.957 187.691C380.291 190.632 379.625 192.139 378.999 192.139ZM360.664 178.753H363.4V180.486H360.664V178.753ZM360.664 183.109H363.4V184.903H360.664V183.109ZM357.271 184.903H354.617V183.109H357.312L357.271 184.903ZM357.271 180.486H354.617V178.753H357.312L357.271 180.486Z" fill="white"/>
<path d="M381.654 170.657C380.695 169.254 379.637 167.921 378.487 166.67L375.494 168.33C376.647 169.655 377.695 171.067 378.63 172.553L381.654 170.657Z" fill="white"/>
<path d="M426.852 193.707C425.489 193.707 424.013 193.645 422.394 193.574L423.275 196.566H427.887C430.214 196.566 431.392 195.603 431.392 193.676V180.25H414.277V187.424C414.299 190.021 413.323 192.527 411.55 194.424L414.348 196.689C415.704 195.207 416.7 193.433 417.259 191.503H427.703V192.528C427.703 193.297 427.385 193.707 426.852 193.707ZM417.853 182.986H427.703V184.708H417.853V182.986ZM417.741 188.89C417.819 188.364 417.857 187.833 417.853 187.301H427.703V188.89H417.741Z" fill="white"/>
<path d="M407.912 173.383C408.547 175.002 409.095 176.655 409.552 178.333L411.509 177.903V179.03H433.903V176.181H424.679V174.787H431.536V172.061H424.72V170.605H432.827V167.807H424.72V165.952H420.877V167.807H412.678V170.605H420.877V172.061H413.908V174.787H420.877V176.181H411.919C411.41 174.633 410.818 173.114 410.146 171.63L407.891 172.297V166.034H404.13V196.505H407.912V173.383Z" fill="white"/>
<path d="M403.433 172.686L400.553 172.481C400.489 175.481 400.093 178.464 399.374 181.377L402.244 182.115C402.968 179.022 403.366 175.862 403.433 172.686Z" fill="white"/>
<path d="M457.036 171.815L453.459 173.383C454.902 175.766 456.173 178.249 457.261 180.814L460.879 179.225C459.73 176.689 458.447 174.215 457.036 171.815Z" fill="white"/>
<path d="M476.007 180.619C477.647 178.3 479.022 175.804 480.106 173.178L476.58 171.682C475.505 174.265 474.155 176.726 472.553 179.02L476.007 180.619Z" fill="white"/>
<path d="M464.528 196.618H468.443V185.262H483.119V181.91H468.443V170.493H481.756V167.1H451.614V170.493H464.528V181.91H450.138V185.262H464.528V196.618Z" fill="white"/>
<path d="M529.168 196.72V182.433H503.71V196.679H507.625V195.418H525.263V196.679L529.168 196.72ZM507.645 192.139V185.795H525.263V192.139H507.645Z" fill="white"/>
<path d="M527.026 178.128C527.877 179.389 528.728 180.68 529.537 182.044L533.299 180.383C530.773 176.526 527.975 172.854 524.925 169.396L521.42 170.893C522.568 172.184 523.706 173.578 524.812 174.992C519.134 175.457 513.306 175.819 507.328 176.079C510.545 173.342 513.487 170.297 516.111 166.988L512.124 165.727C507.112 172.327 503.269 175.822 500.686 176.181L501.393 179.471C510.816 179.211 519.36 178.764 527.026 178.128Z" fill="white"/>
<path d="M2.57251 212.207H0V226.35H2.57251V212.207Z" fill="white"/>
<path d="M11.2739 215.824C10.6322 215.816 9.99623 215.946 9.40861 216.204C8.8538 216.457 8.35808 216.823 7.95325 217.28V216.081H5.44223V226.33H7.95325V220.18C7.97304 219.82 8.06488 219.468 8.22332 219.144C8.38176 218.82 8.60358 218.531 8.87566 218.294C9.32668 217.902 9.90725 217.69 10.5053 217.7C10.851 217.646 11.2046 217.673 11.538 217.779C11.8713 217.886 12.175 218.069 12.425 218.314C12.6749 218.559 12.8641 218.859 12.9775 219.19C13.0908 219.521 13.1252 219.874 13.0778 220.221V226.371H15.5888V220.047C15.5888 217.218 14.1539 215.824 11.2739 215.824Z" fill="white"/>
<path d="M21.7997 212.801L19.2887 213.733V216.101H17.2389V217.966H19.2887V223.757C19.2648 224.099 19.3117 224.442 19.4263 224.764C19.5409 225.087 19.7209 225.383 19.9549 225.633C20.2492 225.894 20.5936 226.092 20.9673 226.215C21.3409 226.339 21.7358 226.385 22.1277 226.35H24.0443V224.454H22.5479C22.3411 224.474 22.1349 224.411 21.974 224.28C21.9095 224.204 21.8609 224.116 21.831 224.021C21.8011 223.926 21.7904 223.825 21.7997 223.726V217.936H24.3312V216.07H21.7997V212.801Z" fill="white"/>
<path d="M35.3387 217.536C34.7969 216.947 34.1297 216.487 33.3863 216.191C32.643 215.895 31.8427 215.77 31.0443 215.824C30.3217 215.789 29.5996 215.903 28.9232 216.16C28.2468 216.416 27.6309 216.81 27.114 217.317C26.5972 217.823 26.1906 218.431 25.9198 219.101C25.6491 219.772 25.52 220.492 25.5406 221.215C25.4984 221.959 25.6187 222.702 25.893 223.394C26.1674 224.086 26.5892 224.71 27.1292 225.223C28.2372 226.198 29.6827 226.702 31.1571 226.627C32.5132 226.673 33.8464 226.269 34.9492 225.479C35.7204 224.871 36.274 224.029 36.5276 223.081H34.0268C33.7842 223.57 33.4337 223.997 33.0019 224.331C32.4362 224.668 31.7842 224.832 31.1263 224.802C30.7521 224.82 30.3781 224.763 30.0261 224.635C29.6741 224.506 29.3513 224.309 29.0765 224.054C28.5508 223.445 28.2473 222.675 28.2156 221.871H36.7428C36.8338 220.301 36.3328 218.754 35.3387 217.536ZM28.2259 220.149C28.3305 219.45 28.6575 218.803 29.1585 218.305C29.7066 217.852 30.4065 217.625 31.1161 217.669C31.4767 217.622 31.8431 217.65 32.1923 217.751C32.5416 217.853 32.866 218.026 33.1452 218.258C33.4244 218.491 33.6524 218.78 33.8147 219.105C33.977 219.431 34.0702 219.786 34.0883 220.149H28.2259Z" fill="white"/>
<path d="M41.4266 211.93H38.9156V226.35H41.4266V211.93Z" fill="white"/>
<path d="M47.0124 211.93H44.5013V226.35H47.0124V211.93Z" fill="white"/>
<path d="M52.8338 216.101H50.3228V226.35H52.8338V216.101Z" fill="white"/>
<path d="M51.5732 211.93C51.1335 211.914 50.7034 212.06 50.3638 212.34C50.2131 212.465 50.0919 212.621 50.0086 212.798C49.9254 212.976 49.8822 213.169 49.8821 213.365C49.8773 213.57 49.9181 213.774 50.0014 213.962C50.0846 214.149 50.2084 214.317 50.3638 214.451C50.7109 214.717 51.1359 214.861 51.5732 214.861C52.0104 214.861 52.4355 214.717 52.7826 214.451C52.94 214.318 53.0666 214.153 53.1534 213.966C53.2402 213.779 53.2852 213.576 53.2852 213.37C53.2852 213.164 53.2402 212.96 53.1534 212.774C53.0666 212.587 52.94 212.421 52.7826 212.288C52.4337 212.031 52.0058 211.904 51.5732 211.93Z" fill="white"/>
<path d="M64.036 217.352C63.6331 216.85 63.118 216.451 62.5322 216.186C61.9465 215.92 61.3065 215.797 60.6641 215.824C59.9756 215.796 59.2887 215.908 58.6453 216.155C58.002 216.402 57.4159 216.778 56.9232 217.259C56.0006 218.285 55.4901 219.616 55.4901 220.995C55.4901 222.375 56.0006 223.705 56.9232 224.731C57.9382 225.668 59.2832 226.166 60.6641 226.114C61.3117 226.135 61.9549 226.002 62.541 225.726C63.1272 225.449 63.6395 225.038 64.036 224.526V226.032C64.036 227.857 63.0931 228.769 61.197 228.769C60.5405 228.807 59.8842 228.692 59.2805 228.431C59.0644 228.301 58.8792 228.125 58.7376 227.916C58.596 227.707 58.5015 227.47 58.4605 227.221H55.9598C56.0338 227.731 56.2122 228.22 56.4838 228.657C56.7554 229.094 57.1143 229.471 57.5381 229.763C58.6644 230.351 59.9286 230.624 61.197 230.552C64.7637 230.552 66.547 228.923 66.547 225.694V216.101H64.036V217.352ZM63.2878 223.429C62.993 223.719 62.6413 223.944 62.2549 224.09C61.8685 224.237 61.4559 224.301 61.0433 224.28C60.5963 224.317 60.1471 224.243 59.7357 224.064C59.3244 223.885 58.9638 223.607 58.686 223.255C58.2357 222.585 58.0195 221.785 58.0711 220.98C58.0135 220.089 58.2955 219.21 58.8603 218.52C59.1396 218.219 59.4818 217.983 59.8626 217.828C60.2435 217.674 60.6536 217.606 61.0638 217.628C61.4771 217.606 61.8903 217.674 62.2745 217.828C62.6587 217.982 63.0045 218.218 63.2878 218.52C63.8306 219.221 64.1033 220.094 64.0565 220.98C64.1103 221.863 63.8366 222.735 63.2878 223.429Z" fill="white"/>
<path d="M78.3232 217.536C77.7825 216.949 77.1169 216.49 76.3755 216.194C75.6341 215.897 74.8357 215.771 74.0391 215.824C72.9514 215.827 71.8887 216.15 70.9841 216.754C70.0796 217.358 69.3734 218.216 68.9543 219.22C68.5351 220.223 68.4215 221.328 68.6277 222.396C68.834 223.464 69.3509 224.447 70.1137 225.223C71.2217 226.198 72.6672 226.702 74.1416 226.627C75.4845 226.669 76.8036 226.266 77.8927 225.479C78.6639 224.871 79.2175 224.029 79.4711 223.081H77.0113C76.7687 223.57 76.4182 223.997 75.9864 224.331C75.4207 224.668 74.7686 224.832 74.1108 224.802C73.7366 224.82 73.3625 224.763 73.0106 224.635C72.6586 224.506 72.3358 224.309 72.061 224.054C71.5353 223.445 71.2318 222.675 71.2001 221.871H79.7273C79.8183 220.301 79.3173 218.754 78.3232 217.536ZM71.2206 220.149C71.3181 219.45 71.6421 218.802 72.143 218.305C72.6911 217.852 73.391 217.625 74.1006 217.669C74.4614 217.62 74.8284 217.647 75.1783 217.748C75.5282 217.849 75.8533 218.022 76.1328 218.255C76.4124 218.488 76.6403 218.777 76.8022 219.103C76.964 219.429 77.0562 219.786 77.0728 220.149H71.2206Z" fill="white"/>
<path d="M87.5576 215.824C86.9124 215.815 86.2729 215.945 85.682 216.204C85.1125 216.452 84.6024 216.819 84.1856 217.28V216.081H81.6746V226.33H84.1856V220.18C84.2265 219.465 84.5423 218.793 85.0671 218.305C85.5181 217.912 86.0986 217.7 86.6966 217.71C87.0428 217.656 87.3967 217.684 87.7303 217.79C88.064 217.897 88.3682 218.08 88.6188 218.325C88.8695 218.569 89.0597 218.869 89.1743 219.2C89.289 219.531 89.325 219.884 89.2794 220.232V226.381H91.8314V220.057C91.8314 217.218 90.3966 215.824 87.5576 215.824Z" fill="white"/>
<path d="M98.0423 212.801L95.5313 213.733V216.101H93.4815V217.966H95.5313V223.757C95.5061 224.098 95.5513 224.44 95.6641 224.763C95.777 225.086 95.9551 225.382 96.1873 225.633C96.4831 225.895 96.8293 226.093 97.2047 226.217C97.5801 226.34 97.9767 226.385 98.3703 226.35H100.287V224.454H98.7905C98.5837 224.474 98.3775 224.411 98.2166 224.28C98.1521 224.204 98.1035 224.116 98.0736 224.021C98.0437 223.926 98.0331 223.825 98.0423 223.726V217.936H100.574V216.07H98.0423V212.801Z" fill="white"/>
<path d="M116.511 212.207H109.993V226.35H112.575V220.918H116.47C120.303 220.918 122.22 219.453 122.22 216.542C122.22 213.631 120.303 212.207 116.511 212.207ZM118.827 218.356C118.061 218.778 117.189 218.97 116.316 218.909H112.575V214.205H116.316C117.183 214.138 118.05 214.331 118.807 214.759C119.083 214.967 119.302 215.241 119.444 215.556C119.585 215.872 119.645 216.218 119.617 216.562C119.643 216.908 119.585 217.254 119.448 217.572C119.31 217.89 119.097 218.17 118.827 218.387V218.356Z" fill="white"/>
<path d="M131.864 222.404C131.673 223.083 131.288 223.692 130.757 224.157C130.321 224.544 129.762 224.765 129.179 224.782C128.497 224.843 127.817 224.637 127.283 224.208C127.069 223.959 126.907 223.668 126.809 223.355C126.71 223.041 126.676 222.711 126.709 222.384V216.142H124.198V222.527C124.198 225.26 125.564 226.627 128.298 226.627C128.972 226.635 129.641 226.496 130.257 226.22C130.873 225.944 131.421 225.537 131.864 225.028V226.35H134.375V216.101H131.864V222.404Z" fill="white"/>
<path d="M142.913 215.824C142.257 215.826 141.61 215.98 141.023 216.273C140.437 216.567 139.926 216.992 139.53 217.515V211.93H137.019V226.35H139.387V225.264C139.824 225.732 140.359 226.098 140.955 226.334C141.551 226.569 142.191 226.669 142.831 226.627C143.566 226.66 144.3 226.535 144.983 226.259C145.666 225.983 146.281 225.563 146.787 225.028C147.695 223.955 148.167 222.579 148.109 221.174C148.152 219.809 147.689 218.477 146.807 217.433C146.319 216.892 145.716 216.466 145.042 216.188C144.368 215.909 143.641 215.785 142.913 215.824ZM144.85 223.737C144.556 224.092 144.181 224.371 143.756 224.549C143.331 224.728 142.87 224.801 142.41 224.761C141.978 224.787 141.546 224.707 141.152 224.528C140.757 224.35 140.412 224.078 140.145 223.737C139.641 223.019 139.392 222.153 139.438 221.277V221.123C139.383 220.174 139.699 219.24 140.32 218.52C140.571 218.225 140.886 217.991 141.241 217.837C141.597 217.682 141.982 217.611 142.369 217.628C142.836 217.59 143.305 217.663 143.738 217.841C144.171 218.019 144.555 218.298 144.86 218.653C145.356 219.393 145.597 220.275 145.547 221.164C145.586 222.073 145.343 222.972 144.85 223.737Z" fill="white"/>
<path d="M153.008 211.93H150.497V226.35H153.008V211.93Z" fill="white"/>
<path d="M158.819 216.101H156.308V226.35H158.819V216.101Z" fill="white"/>
<path d="M157.559 211.93C157.119 211.914 156.689 212.06 156.349 212.34C156.198 212.465 156.077 212.621 155.994 212.799C155.911 212.976 155.868 213.169 155.867 213.365C155.863 213.57 155.903 213.774 155.987 213.962C156.07 214.15 156.194 214.317 156.349 214.451C156.689 214.731 157.119 214.876 157.559 214.861C157.998 214.878 158.429 214.732 158.768 214.451C158.931 214.321 159.061 214.156 159.15 213.967C159.239 213.779 159.284 213.573 159.28 213.365C159.276 213.17 159.231 212.978 159.148 212.801C159.065 212.625 158.946 212.467 158.799 212.34C158.447 212.06 158.008 211.914 157.559 211.93Z" fill="white"/>
<path d="M167.059 224.782C166.648 224.809 166.236 224.739 165.856 224.577C165.477 224.415 165.141 224.165 164.876 223.849C164.316 223.082 164.044 222.143 164.108 221.195C164.052 220.264 164.332 219.344 164.897 218.602C165.165 218.289 165.501 218.043 165.88 217.881C166.258 217.719 166.669 217.647 167.08 217.669C167.723 217.641 168.359 217.809 168.904 218.151C169.378 218.502 169.703 219.018 169.816 219.596H172.297C172.227 219.026 172.041 218.476 171.75 217.98C171.459 217.485 171.07 217.055 170.606 216.716C169.547 216.07 168.318 215.759 167.08 215.824C166.312 215.781 165.543 215.903 164.826 216.18C164.108 216.458 163.458 216.885 162.919 217.433C161.977 218.462 161.48 219.822 161.535 221.215C161.492 221.945 161.606 222.676 161.868 223.358C162.131 224.04 162.537 224.659 163.058 225.171C163.579 225.684 164.204 226.079 164.891 226.33C165.577 226.581 166.31 226.682 167.039 226.627C168.301 226.679 169.545 226.319 170.585 225.602C171.544 224.84 172.175 223.74 172.348 222.527H169.857C169.611 224.034 168.679 224.782 167.059 224.782Z" fill="white"/>
<path d="M180.619 214.185H185.774V226.35H188.347V214.185H193.502V212.207H180.619V214.185Z" fill="white"/>
<path d="M200.441 215.824C199.678 215.785 198.916 215.9 198.199 216.162C197.482 216.425 196.826 216.829 196.269 217.351C195.751 217.853 195.344 218.458 195.076 219.127C194.807 219.797 194.683 220.515 194.711 221.236C194.682 221.949 194.804 222.659 195.069 223.322C195.334 223.984 195.736 224.583 196.249 225.079C197.415 226.078 198.9 226.627 200.435 226.627C201.971 226.627 203.456 226.078 204.622 225.079C205.132 224.581 205.531 223.981 205.796 223.32C206.061 222.658 206.185 221.948 206.159 221.236C206.183 220.516 206.056 219.799 205.788 219.13C205.52 218.462 205.116 217.856 204.602 217.351C204.044 216.834 203.389 216.432 202.674 216.17C201.96 215.908 201.201 215.79 200.441 215.824ZM202.859 223.675C202.558 224.022 202.186 224.301 201.768 224.492C201.349 224.683 200.895 224.782 200.435 224.782C199.976 224.782 199.521 224.683 199.103 224.492C198.685 224.301 198.313 224.022 198.011 223.675C197.537 222.948 197.284 222.099 197.284 221.231C197.284 220.362 197.537 219.513 198.011 218.786C198.311 218.436 198.682 218.154 199.101 217.962C199.519 217.769 199.975 217.669 200.435 217.669C200.896 217.669 201.351 217.769 201.77 217.962C202.188 218.154 202.56 218.436 202.859 218.786C203.373 219.497 203.637 220.359 203.607 221.236C203.63 222.109 203.367 222.965 202.859 223.675Z" fill="white"/>
<path d="M210.105 211.93C209.663 211.914 209.229 212.059 208.886 212.34C208.735 212.465 208.614 212.621 208.531 212.798C208.447 212.976 208.404 213.169 208.404 213.365C208.399 213.57 208.44 213.774 208.523 213.962C208.607 214.149 208.73 214.317 208.886 214.451C209.229 214.731 209.663 214.877 210.105 214.861C210.545 214.876 210.975 214.731 211.315 214.451C211.469 214.316 211.593 214.15 211.678 213.964C211.762 213.777 211.806 213.575 211.806 213.37C211.806 213.165 211.762 212.962 211.678 212.776C211.593 212.589 211.469 212.423 211.315 212.288C210.966 212.031 210.538 211.904 210.105 211.93Z" fill="white"/>
<path d="M211.315 216.101H208.804V226.35H211.315V216.101Z" fill="white"/>
<path d="M217.146 211.93H214.635V226.35H217.146V211.93Z" fill="white"/>
<path d="M229.148 217.536C228.606 216.947 227.939 216.487 227.196 216.191C226.452 215.895 225.652 215.77 224.854 215.824C224.131 215.789 223.409 215.903 222.733 216.16C222.056 216.416 221.44 216.81 220.923 217.317C220.407 217.823 220 218.431 219.729 219.101C219.458 219.772 219.329 220.492 219.35 221.215C219.308 221.959 219.428 222.702 219.702 223.394C219.977 224.086 220.399 224.71 220.939 225.223C222.047 226.198 223.492 226.702 224.966 226.627C226.325 226.667 227.658 226.256 228.759 225.458C229.53 224.85 230.083 224.009 230.337 223.06H227.826C227.587 223.551 227.236 223.98 226.801 224.31C226.235 224.647 225.583 224.811 224.925 224.782C224.551 224.8 224.177 224.743 223.825 224.614C223.473 224.486 223.15 224.288 222.876 224.034C222.35 223.424 222.046 222.655 222.015 221.851H230.542C230.626 220.29 230.129 218.753 229.148 217.536ZM222.035 220.149C222.131 219.447 222.459 218.798 222.968 218.305C223.516 217.852 224.216 217.625 224.925 217.669C225.286 217.622 225.652 217.65 226.002 217.751C226.351 217.853 226.675 218.026 226.955 218.258C227.234 218.491 227.462 218.78 227.624 219.105C227.786 219.431 227.88 219.786 227.898 220.149H222.035Z" fill="white"/>
<path d="M236.066 212.801L233.555 213.733V216.101H231.505V217.966H233.555V223.757C233.531 224.099 233.578 224.442 233.693 224.764C233.807 225.087 233.987 225.383 234.221 225.633C234.516 225.894 234.86 226.092 235.234 226.215C235.607 226.339 236.002 226.385 236.394 226.35H238.311V224.454H236.814C236.608 224.474 236.401 224.411 236.24 224.28C236.176 224.204 236.127 224.116 236.097 224.021C236.068 223.926 236.057 223.825 236.066 223.726V217.936H238.598V216.07H236.066V212.801Z" fill="white"/>
<path d="M256.482 223.296H256.39L251.04 212.207H248.027V226.35H250.599V216.603H250.692L255.314 226.35H257.538L262.16 216.603H262.253V226.35H264.825V212.207H261.812L256.482 223.296Z" fill="white"/>
<path d="M272.86 215.824C271.675 215.765 270.495 216.004 269.427 216.521C268.949 216.764 268.533 217.115 268.213 217.545C267.893 217.975 267.677 218.474 267.582 219.002L270.073 219.176C270.133 218.921 270.248 218.682 270.411 218.476C270.574 218.271 270.78 218.104 271.015 217.987C271.535 217.735 272.11 217.618 272.686 217.649C274.316 217.649 275.136 218.305 275.136 219.699V220.088L272.645 220.149C271.285 220.11 269.939 220.439 268.75 221.103C268.281 221.365 267.893 221.751 267.629 222.219C267.365 222.688 267.235 223.22 267.254 223.757C267.245 224.164 267.333 224.566 267.512 224.932C267.69 225.297 267.953 225.615 268.279 225.858C269.093 226.437 270.08 226.722 271.077 226.668C271.956 226.686 272.829 226.532 273.649 226.217C274.274 225.957 274.832 225.557 275.279 225.049V226.391H277.616V219.852C277.656 219.332 277.585 218.809 277.408 218.318C277.232 217.827 276.953 217.379 276.591 217.003C275.544 216.147 274.209 215.725 272.86 215.824ZM275.136 222.189C275.132 222.573 275.038 222.951 274.86 223.292C274.681 223.632 274.425 223.925 274.111 224.147C273.401 224.665 272.539 224.932 271.661 224.905C271.186 224.915 270.718 224.783 270.318 224.526C270.164 224.434 270.036 224.304 269.948 224.147C269.86 223.991 269.815 223.814 269.816 223.634C269.816 222.404 270.841 221.769 272.809 221.738L275.125 221.677L275.136 222.189Z" fill="white"/>
<path d="M286.164 215.824C285.522 215.815 284.886 215.945 284.298 216.204C283.724 216.458 283.21 216.832 282.792 217.3V216.101H280.291V226.35H282.792V220.201C282.815 219.84 282.909 219.488 283.069 219.165C283.23 218.841 283.452 218.552 283.724 218.315C284.175 217.922 284.756 217.71 285.354 217.72C285.7 217.666 286.053 217.693 286.387 217.8C286.72 217.907 287.024 218.09 287.274 218.335C287.524 218.58 287.713 218.88 287.826 219.211C287.939 219.542 287.974 219.895 287.926 220.242V226.391H290.437V220.068C290.437 217.218 289.023 215.824 286.164 215.824Z" fill="white"/>
<path d="M298.247 215.824C297.062 215.762 295.881 216.002 294.814 216.521C294.334 216.764 293.917 217.114 293.595 217.544C293.274 217.974 293.056 218.473 292.959 219.001L295.449 219.176C295.511 218.921 295.627 218.683 295.789 218.477C295.952 218.272 296.158 218.105 296.392 217.987C296.915 217.733 297.493 217.617 298.073 217.649C299.702 217.649 300.512 218.305 300.512 219.698V220.088L298.022 220.149C296.661 220.109 295.315 220.439 294.127 221.103C293.657 221.364 293.269 221.751 293.005 222.219C292.741 222.688 292.612 223.22 292.631 223.757C292.622 224.164 292.71 224.566 292.888 224.932C293.067 225.297 293.33 225.615 293.656 225.858C294.47 226.436 295.456 226.721 296.454 226.668C297.332 226.686 298.206 226.533 299.026 226.217C299.653 225.959 300.21 225.559 300.656 225.048V226.391H302.992V219.852C303.034 219.332 302.964 218.808 302.788 218.317C302.611 217.826 302.331 217.378 301.968 217.003C300.925 216.146 299.593 215.724 298.247 215.824ZM300.512 222.189C300.512 222.574 300.418 222.953 300.24 223.293C300.061 223.634 299.803 223.927 299.487 224.146C298.782 224.665 297.923 224.932 297.048 224.905C296.572 224.918 296.104 224.786 295.705 224.526C295.549 224.435 295.419 224.305 295.329 224.149C295.239 223.992 295.192 223.815 295.193 223.634C295.193 222.404 296.218 221.769 298.186 221.738L300.502 221.676L300.512 222.189Z" fill="white"/>
<path d="M313.785 217.351C313.382 216.85 312.867 216.451 312.281 216.186C311.695 215.92 311.055 215.797 310.413 215.824C309.724 215.795 309.037 215.907 308.393 216.153C307.75 216.4 307.164 216.777 306.672 217.259C305.749 218.285 305.239 219.615 305.239 220.995C305.239 222.374 305.749 223.705 306.672 224.731C307.174 225.196 307.763 225.558 308.405 225.795C309.046 226.032 309.729 226.141 310.413 226.114C311.06 226.135 311.704 226.002 312.29 225.725C312.876 225.449 313.388 225.038 313.785 224.526V226.032C313.785 227.857 312.832 228.769 310.935 228.769C310.279 228.807 309.623 228.691 309.019 228.431C308.806 228.298 308.623 228.122 308.483 227.913C308.344 227.705 308.25 227.469 308.209 227.221H305.698C305.774 227.731 305.954 228.22 306.228 228.658C306.501 229.095 306.861 229.471 307.287 229.763C308.409 230.351 309.67 230.624 310.935 230.552C314.502 230.552 316.285 228.923 316.285 225.694V216.101H313.785V217.351ZM313.026 223.419C312.733 223.71 312.381 223.936 311.994 224.083C311.608 224.229 311.195 224.293 310.782 224.269C310.335 224.305 309.886 224.23 309.475 224.051C309.064 223.872 308.703 223.595 308.424 223.245C307.979 222.573 307.763 221.774 307.809 220.969C307.751 220.077 308.037 219.197 308.609 218.51C308.885 218.207 309.226 217.971 309.605 217.816C309.984 217.662 310.393 217.594 310.802 217.618C311.216 217.594 311.629 217.661 312.014 217.816C312.398 217.97 312.744 218.207 313.026 218.51C313.577 219.207 313.854 220.082 313.805 220.969C313.863 221.858 313.585 222.736 313.026 223.429V223.419Z" fill="white"/>
<path d="M328.072 217.536C327.529 216.948 326.862 216.49 326.119 216.193C325.376 215.897 324.576 215.771 323.777 215.824C323.055 215.789 322.333 215.903 321.656 216.16C320.98 216.417 320.364 216.811 319.847 217.317C319.33 217.823 318.924 218.431 318.653 219.102C318.382 219.773 318.253 220.492 318.274 221.215C318.232 221.959 318.352 222.702 318.626 223.394C318.901 224.086 319.322 224.71 319.862 225.223C320.968 226.202 322.415 226.707 323.89 226.627C325.246 226.671 326.578 226.26 327.672 225.458C328.446 224.851 329.003 224.01 329.261 223.06H326.75C326.514 223.553 326.162 223.982 325.725 224.311C325.163 224.649 324.514 224.813 323.859 224.782C323.485 224.8 323.111 224.743 322.759 224.614C322.407 224.486 322.084 224.289 321.81 224.034C321.275 223.43 320.97 222.657 320.949 221.851H329.466C329.549 220.29 329.053 218.753 328.072 217.536ZM320.959 220.149C321.056 219.45 321.38 218.802 321.881 218.305C322.431 217.855 323.13 217.628 323.839 217.669C324.2 217.622 324.567 217.65 324.917 217.751C325.267 217.853 325.592 218.025 325.872 218.258C326.152 218.491 326.381 218.779 326.544 219.105C326.707 219.43 326.802 219.786 326.821 220.149H320.959Z" fill="white"/>
<path d="M344.173 215.824C343.516 215.802 342.861 215.925 342.256 216.183C341.607 216.478 341.04 216.928 340.606 217.495C340.205 216.926 339.662 216.472 339.031 216.179C338.4 215.886 337.702 215.764 337.009 215.824C335.849 215.847 334.744 216.326 333.934 217.157V216.132H331.423V226.381H333.934V220.231C333.917 219.587 334.153 218.962 334.59 218.489C334.803 218.237 335.07 218.038 335.373 217.906C335.675 217.774 336.003 217.714 336.333 217.731C337.829 217.731 338.577 218.509 338.577 220.067V226.371H341.088V220.108C341.065 219.79 341.11 219.469 341.219 219.169C341.329 218.869 341.501 218.595 341.724 218.366C341.921 218.159 342.16 217.995 342.425 217.885C342.69 217.776 342.974 217.723 343.261 217.731C343.94 217.667 344.618 217.865 345.157 218.284C345.367 218.523 345.527 218.803 345.625 219.106C345.724 219.409 345.76 219.729 345.731 220.047V226.371H348.242V219.637C348.256 219.122 348.161 218.611 347.963 218.136C347.765 217.66 347.469 217.232 347.094 216.88C346.293 216.165 345.246 215.787 344.173 215.824Z" fill="white"/>
<path d="M360.028 217.536C359.485 216.949 358.818 216.491 358.075 216.194C357.332 215.898 356.532 215.772 355.734 215.824C354.646 215.827 353.584 216.15 352.679 216.754C351.774 217.358 351.068 218.216 350.649 219.219C350.23 220.223 350.116 221.328 350.323 222.396C350.529 223.464 351.046 224.447 351.809 225.223C352.917 226.198 354.362 226.702 355.836 226.627C357.196 226.673 358.531 226.261 359.629 225.458C360.4 224.848 360.956 224.008 361.217 223.06H358.716C358.477 223.551 358.126 223.979 357.692 224.311C357.126 224.649 356.474 224.813 355.816 224.782C355.442 224.8 355.068 224.743 354.716 224.614C354.364 224.486 354.041 224.288 353.766 224.034C353.24 223.424 352.937 222.655 352.905 221.851H361.432C361.513 220.288 361.013 218.751 360.028 217.536ZM352.916 220.149C353.013 219.45 353.337 218.802 353.838 218.305C354.386 217.852 355.086 217.625 355.795 217.669C356.156 217.62 356.523 217.647 356.873 217.748C357.223 217.849 357.548 218.022 357.828 218.255C358.107 218.488 358.335 218.777 358.497 219.103C358.659 219.429 358.751 219.786 358.768 220.149H352.916Z" fill="white"/>
<path d="M369.253 215.824C368.62 215.81 367.993 215.933 367.412 216.184C366.832 216.435 366.313 216.809 365.891 217.28V216.081H363.38V226.33H365.891V220.18C365.94 219.455 366.271 218.778 366.813 218.294C367.264 217.902 367.845 217.69 368.443 217.7C368.789 217.646 369.143 217.673 369.477 217.78C369.81 217.887 370.114 218.07 370.365 218.314C370.616 218.559 370.806 218.859 370.921 219.19C371.035 219.521 371.071 219.874 371.026 220.221V226.371H373.537V220.047C373.526 217.218 372.091 215.824 369.253 215.824Z" fill="white"/>
<path d="M379.737 212.801L377.226 213.733V216.101H375.176V217.966H377.226V223.757C377.201 224.098 377.246 224.44 377.359 224.763C377.472 225.086 377.65 225.382 377.882 225.633C378.178 225.895 378.524 226.093 378.9 226.217C379.275 226.34 379.672 226.385 380.065 226.35H381.982V224.454H380.485C380.279 224.474 380.072 224.411 379.911 224.28C379.847 224.204 379.798 224.116 379.769 224.021C379.739 223.926 379.728 223.825 379.737 223.726V217.936H382.289V216.07H379.758L379.737 212.801Z" fill="white"/>
<path d="M397.437 212.206H391.688V226.35H397.437C399.543 226.502 401.624 225.817 403.228 224.444C404.453 222.999 405.125 221.167 405.125 219.273C405.125 217.379 404.453 215.547 403.228 214.102C401.621 212.737 399.541 212.056 397.437 212.206ZM401.25 223.142C400.016 224.061 398.489 224.498 396.956 224.372H394.27V214.205H396.956C398.486 214.073 400.013 214.503 401.25 215.414C401.732 215.932 402.099 216.545 402.327 217.215C402.555 217.884 402.638 218.595 402.572 219.299C402.626 219.996 402.536 220.696 402.308 221.357C402.081 222.018 401.721 222.625 401.25 223.142Z" fill="white"/>
<path d="M412.503 215.824C411.318 215.762 410.137 216.002 409.07 216.521C408.591 216.764 408.174 217.114 407.852 217.544C407.53 217.974 407.312 218.473 407.215 219.002L409.705 219.176C409.767 218.921 409.883 218.683 410.046 218.477C410.209 218.272 410.414 218.105 410.648 217.987C411.171 217.734 411.749 217.617 412.329 217.649C413.959 217.649 414.768 218.305 414.768 219.699V220.088L412.278 220.15C410.917 220.11 409.572 220.439 408.383 221.103C407.914 221.365 407.526 221.751 407.262 222.219C406.998 222.688 406.868 223.22 406.887 223.757C406.878 224.164 406.966 224.567 407.145 224.932C407.323 225.297 407.586 225.615 407.912 225.858C408.727 226.436 409.713 226.721 410.71 226.668C411.589 226.686 412.462 226.533 413.282 226.217C413.909 225.959 414.467 225.559 414.912 225.049V226.391H417.249V219.852C417.29 219.332 417.221 218.808 417.044 218.317C416.867 217.826 416.588 217.378 416.224 217.003C415.18 216.148 413.849 215.727 412.503 215.824ZM414.768 222.189C414.768 222.574 414.674 222.953 414.496 223.294C414.318 223.634 414.059 223.927 413.744 224.147C413.038 224.665 412.179 224.932 411.304 224.905C410.829 224.918 410.36 224.786 409.962 224.526C409.805 224.436 409.675 224.306 409.586 224.149C409.496 223.992 409.449 223.815 409.449 223.634C409.449 222.404 410.474 221.769 412.442 221.738L414.758 221.677L414.768 222.189Z" fill="white"/>
<path d="M423.49 212.801L420.979 213.733V216.101H418.93V217.966H420.979V223.757C420.954 224.098 420.999 224.44 421.112 224.763C421.225 225.086 421.403 225.382 421.635 225.633C421.932 225.894 422.278 226.092 422.653 226.215C423.029 226.338 423.425 226.384 423.818 226.35H425.735V224.454H424.239C424.032 224.474 423.826 224.411 423.665 224.28C423.6 224.204 423.552 224.116 423.522 224.021C423.492 223.926 423.481 223.825 423.49 223.726V217.936H426.022V216.07H423.49V212.801Z" fill="white"/>
<path d="M433.073 215.824C431.885 215.763 430.701 216.003 429.63 216.521C429.153 216.766 428.739 217.117 428.419 217.547C428.099 217.977 427.882 218.475 427.785 219.002L430.275 219.176C430.337 218.921 430.453 218.683 430.616 218.477C430.779 218.272 430.984 218.105 431.218 217.987C431.737 217.735 432.312 217.618 432.889 217.649C434.518 217.649 435.338 218.305 435.338 219.699V220.088L432.848 220.15C431.487 220.11 430.141 220.439 428.953 221.103C428.484 221.365 428.095 221.751 427.831 222.219C427.567 222.688 427.438 223.22 427.457 223.757C427.448 224.164 427.536 224.567 427.715 224.932C427.893 225.297 428.156 225.615 428.482 225.858C429.296 226.437 430.282 226.722 431.28 226.668C432.158 226.686 433.032 226.532 433.852 226.217C434.477 225.957 435.035 225.557 435.482 225.049V226.391H437.819V219.852C437.858 219.332 437.788 218.809 437.611 218.318C437.434 217.827 437.156 217.379 436.794 217.003C435.75 216.148 434.419 215.727 433.073 215.824ZM435.338 222.189C435.338 222.574 435.244 222.953 435.066 223.294C434.887 223.634 434.629 223.927 434.313 224.147C433.608 224.665 432.749 224.932 431.874 224.905C431.398 224.918 430.93 224.786 430.532 224.526C430.375 224.436 430.245 224.306 430.155 224.149C430.065 223.992 430.018 223.815 430.019 223.634C430.019 222.404 431.044 221.769 433.012 221.738L435.328 221.677L435.338 222.189Z" fill="white"/>
<path d="M454.565 212.207H448.047V226.35H450.62V220.918H454.514C458.347 220.918 460.264 219.453 460.264 216.542C460.264 213.631 458.347 212.207 454.565 212.207ZM456.872 218.356C456.106 218.779 455.233 218.971 454.361 218.909H450.62V214.205H454.361C455.227 214.137 456.095 214.33 456.851 214.759C457.127 214.967 457.346 215.241 457.488 215.556C457.629 215.872 457.689 216.218 457.661 216.562C457.69 216.908 457.633 217.255 457.496 217.574C457.358 217.892 457.143 218.171 456.872 218.387V218.356Z" fill="white"/>
<path d="M464.979 211.93H462.468V226.35H464.979V211.93Z" fill="white"/>
<path d="M473.014 215.824C471.829 215.763 470.648 216.003 469.58 216.521C469.101 216.762 468.684 217.112 468.364 217.543C468.044 217.973 467.829 218.473 467.736 219.001L470.216 219.176C470.278 218.92 470.395 218.68 470.56 218.475C470.725 218.27 470.933 218.103 471.169 217.987C471.687 217.732 472.263 217.615 472.84 217.649C474.469 217.649 475.279 218.305 475.279 219.698V220.088L472.799 220.149C471.435 220.11 470.086 220.439 468.894 221.103C468.425 221.365 468.037 221.752 467.773 222.22C467.51 222.688 467.379 223.22 467.397 223.757C467.391 224.163 467.48 224.565 467.658 224.93C467.837 225.295 468.098 225.613 468.422 225.858C469.237 226.436 470.223 226.721 471.22 226.668C472.102 226.686 472.979 226.533 473.803 226.217C474.428 225.956 474.985 225.557 475.433 225.048V226.391H477.759V219.852C477.801 219.332 477.731 218.808 477.554 218.317C477.378 217.826 477.098 217.378 476.734 217.003C475.692 216.146 474.359 215.724 473.014 215.824ZM475.279 222.189C475.277 222.573 475.182 222.952 475.004 223.292C474.826 223.633 474.569 223.926 474.254 224.146C473.545 224.665 472.683 224.932 471.804 224.905C471.329 224.918 470.86 224.786 470.462 224.526C470.307 224.434 470.18 224.304 470.091 224.147C470.003 223.991 469.958 223.814 469.96 223.634C469.96 222.404 470.984 221.769 472.952 221.738L475.258 221.676L475.279 222.189Z" fill="white"/>
<path d="M484.001 212.801L481.49 213.733V216.101H479.44V217.966H481.49V223.757C481.466 224.099 481.513 224.442 481.627 224.764C481.742 225.087 481.922 225.383 482.156 225.633C482.452 225.895 482.798 226.093 483.173 226.217C483.549 226.34 483.945 226.385 484.339 226.35H486.245V224.454H484.78C484.679 224.471 484.576 224.464 484.479 224.434C484.382 224.404 484.293 224.351 484.221 224.28C484.148 224.209 484.092 224.122 484.06 224.026C484.027 223.93 484.017 223.827 484.031 223.726V217.936H486.563V216.07H484.031L484.001 212.801Z" fill="white"/>
<path d="M490.54 212.955C490.266 213.218 490.052 213.538 489.912 213.891C489.772 214.245 489.71 214.625 489.73 215.004V216.091H487.198V217.936H489.73V226.34H492.241V217.936H495.152V216.091H492.241V215.066C492.225 214.932 492.239 214.797 492.281 214.669C492.324 214.542 492.394 214.425 492.487 214.328C492.59 214.241 492.709 214.176 492.838 214.136C492.966 214.095 493.101 214.08 493.235 214.092H495.285V212.196H492.876C492.028 212.134 491.19 212.407 490.54 212.955Z" fill="white"/>
<path d="M502.019 215.824C501.258 215.785 500.497 215.9 499.782 216.163C499.067 216.425 498.412 216.829 497.857 217.352C497.337 217.852 496.929 218.457 496.658 219.126C496.388 219.796 496.262 220.515 496.289 221.236C496.266 221.949 496.391 222.659 496.657 223.321C496.924 223.983 497.326 224.582 497.837 225.079C499.002 226.077 500.485 226.626 502.019 226.626C503.552 226.626 505.036 226.077 506.2 225.079C506.71 224.581 507.11 223.982 507.374 223.32C507.639 222.658 507.763 221.948 507.738 221.236C507.761 220.516 507.634 219.799 507.366 219.13C507.098 218.462 506.694 217.856 506.18 217.352C505.622 216.833 504.967 216.431 504.253 216.169C503.538 215.907 502.779 215.79 502.019 215.824ZM504.437 223.675C504.152 224.04 503.784 224.331 503.363 224.523C502.942 224.716 502.481 224.805 502.019 224.782C501.556 224.808 501.094 224.721 500.672 224.528C500.251 224.335 499.883 224.043 499.6 223.675C499.125 222.948 498.872 222.099 498.872 221.231C498.872 220.363 499.125 219.513 499.6 218.786C499.879 218.414 500.246 218.118 500.668 217.923C501.09 217.728 501.554 217.641 502.019 217.669C502.482 217.644 502.945 217.733 503.367 217.928C503.788 218.122 504.156 218.417 504.437 218.786C504.951 219.497 505.215 220.359 505.186 221.236C505.208 222.109 504.945 222.965 504.437 223.675Z" fill="white"/>
<path d="M513.477 216.388C513.052 216.704 512.702 217.11 512.452 217.577V216.101H509.962V226.35H512.452V220.918C512.435 220.523 512.507 220.128 512.663 219.765C512.819 219.401 513.055 219.077 513.354 218.817C513.84 218.37 514.477 218.125 515.137 218.13C515.688 218.129 516.236 218.201 516.767 218.346V216.091C516.317 215.9 515.831 215.809 515.342 215.824C514.675 215.795 514.017 215.994 513.477 216.388Z" fill="white"/>
<path d="M533.862 216.88C533.053 216.176 532.003 215.809 530.931 215.855C530.274 215.834 529.62 215.957 529.015 216.214C528.365 216.509 527.798 216.959 527.364 217.526C526.965 216.958 526.424 216.504 525.794 216.211C525.165 215.918 524.469 215.795 523.777 215.855C522.617 215.878 521.513 216.357 520.703 217.188V216.163H518.192V226.412H520.651V220.262C520.634 219.618 520.87 218.993 521.307 218.52C521.52 218.268 521.788 218.068 522.09 217.937C522.392 217.805 522.72 217.745 523.05 217.761C524.546 217.761 525.294 218.54 525.294 220.098V226.401H527.826V220.139C527.803 219.82 527.847 219.5 527.957 219.2C528.066 218.9 528.238 218.626 528.461 218.397C528.66 218.188 528.901 218.024 529.167 217.914C529.434 217.805 529.721 217.753 530.009 217.761C530.693 217.692 531.379 217.886 531.925 218.305C532.132 218.546 532.288 218.827 532.385 219.129C532.482 219.432 532.517 219.751 532.489 220.067V226.391H535V219.637C535.016 219.123 534.923 218.612 534.727 218.137C534.531 217.661 534.236 217.233 533.862 216.88Z" fill="white"/>
<path d="M278.056 0H256.349V21.7075H278.056V0Z" fill="white"/>
<path d="M321.482 43.415H299.774V65.1225H321.482V43.415Z" fill="white"/>
<path d="M278.056 86.8401H256.349V108.548H278.056V86.8401Z" fill="white"/>
<path d="M234.642 55.1091H265.194L234.057 86.2457L235.226 87.4243L266.373 56.2878V86.8402H268.033V56.2878L278.056 66.3113V86.8402H299.774V65.1327H279.235L269.222 55.1091H299.774V53.4385H269.212L279.235 43.4252H299.774V21.7075H278.056V42.2466L268.033 52.2599V21.7075H266.373V52.2599L235.226 21.1233L234.057 22.3019L265.194 53.4385H234.642V43.4252H212.934V65.1327H234.642V55.1091Z" fill="white"/>
</g>
<defs>
<clipPath id="clip0_75_580">
<rect width="535" height="230.552" fill="white"/>
</clipPath>
</defs>
</svg>
